<svg width="129" height="37" viewBox="0 0 129 37" fill="none" xmlns="http://www.w3.org/2000/svg">
<path d="M13.7159 0.613635C15.625 0.613635 17.4489 0.926135 19.1875 1.55114C20.9261 2.16477 22.4773 3.14773 23.8409 4.5C25.2045 5.84091 26.2784 7.60795 27.0625 9.80114C27.8466 11.9943 28.2386 14.6705 28.2386 17.8295C28.25 20.7386 27.9091 23.3466 27.2159 25.6534C26.5227 27.9489 25.5284 29.9034 24.233 31.517C22.9489 33.1307 21.4034 34.3636 19.5966 35.2159C17.7898 36.0568 15.7727 36.4773 13.5455 36.4773C11.0909 36.4773 8.92614 36.0057 7.05114 35.0625C5.1875 34.108 3.69318 32.8239 2.56818 31.2102C1.45455 29.5966 0.789773 27.7898 0.573864 25.7898H8.875C9.13636 26.9489 9.6875 27.8239 10.5284 28.4148C11.3693 28.9943 12.375 29.2841 13.5455 29.2841C15.6818 29.2841 17.2784 28.358 18.3352 26.5057C19.392 24.6534 19.9205 22.1364 19.9205 18.9545H19.7159C19.2273 20 18.5341 20.8977 17.6364 21.6477C16.75 22.3977 15.7216 22.9716 14.5511 23.3693C13.3807 23.767 12.1477 23.9659 10.8523 23.9659C8.76136 23.9659 6.91477 23.4886 5.3125 22.5341C3.72159 21.5795 2.47159 20.267 1.5625 18.5966C0.664773 16.9261 0.210227 15.017 0.198864 12.8693C0.1875 10.4602 0.75 8.33523 1.88636 6.49432C3.02273 4.64204 4.60795 3.19886 6.64205 2.16477C8.67614 1.11932 11.0341 0.602271 13.7159 0.613635ZM13.767 7.09091C12.7216 7.09091 11.7898 7.33523 10.9716 7.82386C10.1648 8.3125 9.52841 8.97159 9.0625 9.80114C8.59659 10.6307 8.36932 11.5625 8.38068 12.5966C8.39205 13.6307 8.625 14.5625 9.07955 15.392C9.54545 16.2216 10.1761 16.8807 10.9716 17.3693C11.7784 17.858 12.6989 18.1023 13.733 18.1023C14.5057 18.1023 15.2216 17.9602 15.8807 17.6761C16.5398 17.392 17.1136 17 17.6023 16.5C18.0909 15.9886 18.4716 15.3977 18.7443 14.7273C19.0284 14.0568 19.1648 13.3409 19.1534 12.5795C19.142 11.5682 18.9034 10.6477 18.4375 9.81818C17.9716 8.98864 17.3295 8.32954 16.5114 7.84091C15.7045 7.34091 14.7898 7.09091 13.767 7.09091Z" fill="#E17A8D"/>
<path d="M50.0256 1.09091L57.8324 26.6591H58.1221L65.929 1.09091H75.3721L63.5937 36H52.3608L40.5824 1.09091H50.0256ZM82.8885 36.4432C81.218 36.4432 79.7351 36.1648 78.4396 35.608C77.1555 35.0398 76.1385 34.1875 75.3885 33.0511C74.6498 31.9034 74.2805 30.4659 74.2805 28.7386C74.2805 27.2841 74.5362 26.0568 75.0476 25.0568C75.5589 24.0568 76.2635 23.2443 77.1612 22.6193C78.0589 21.9943 79.093 21.5227 80.2635 21.2045C81.4339 20.875 82.6839 20.6534 84.0135 20.5398C85.5021 20.4034 86.701 20.2614 87.6101 20.1136C88.5192 19.9545 89.1783 19.733 89.5873 19.4489C90.0078 19.1534 90.218 18.7386 90.218 18.2045V18.1193C90.218 17.2443 89.9169 16.5682 89.3146 16.0909C88.7123 15.6136 87.8998 15.375 86.8771 15.375C85.7748 15.375 84.8885 15.6136 84.218 16.0909C83.5476 16.5682 83.1214 17.2273 82.9396 18.0682L75.2521 17.7955C75.4794 16.2045 76.0646 14.7841 77.0078 13.5341C77.9623 12.2727 79.2692 11.2841 80.9283 10.5682C82.5987 9.84091 84.6044 9.47727 86.9453 9.47727C88.6158 9.47727 90.1555 9.67614 91.5646 10.0739C92.9737 10.4602 94.201 11.0284 95.2464 11.7784C96.2919 12.517 97.0987 13.4261 97.6669 14.5057C98.2464 15.5852 98.5362 16.8182 98.5362 18.2045V36H90.6953V32.3523H90.4908C90.0248 33.2386 89.4283 33.9886 88.701 34.6023C87.9851 35.2159 87.1385 35.6761 86.1612 35.983C85.1953 36.2898 84.1044 36.4432 82.8885 36.4432ZM85.4623 30.9886C86.3601 30.9886 87.1669 30.8068 87.8828 30.4432C88.6101 30.0795 89.1896 29.5795 89.6214 28.9432C90.0533 28.2955 90.2692 27.5455 90.2692 26.6932V24.2045C90.0305 24.3295 89.7408 24.4432 89.3998 24.5455C89.0703 24.6477 88.7067 24.7443 88.3089 24.8352C87.9112 24.9261 87.5021 25.0057 87.0817 25.0739C86.6612 25.142 86.2578 25.2045 85.8714 25.2614C85.0873 25.3864 84.4169 25.5795 83.8601 25.8409C83.3146 26.1023 82.8942 26.4432 82.5987 26.8636C82.3146 27.2727 82.1726 27.7614 82.1726 28.3295C82.1726 29.1932 82.4794 29.8523 83.093 30.3068C83.718 30.7614 84.5078 30.9886 85.4623 30.9886ZM90.6271 0.545454H96.1158C96.1044 2.68182 95.2976 4.39773 93.6953 5.69318C92.1044 6.98864 89.9453 7.63636 87.218 7.63636C84.4908 7.63636 82.326 6.98864 80.7237 5.69318C79.1328 4.39773 78.343 2.68182 78.3544 0.545454H83.7919C83.7805 1.29545 84.0362 1.97727 84.5589 2.59091C85.0817 3.20454 85.968 3.51136 87.218 3.51136C88.4339 3.51136 89.3033 3.21023 89.826 2.60795C90.3487 2.00568 90.6158 1.31818 90.6271 0.545454ZM111.392 21.0682V36H103.057V9.81818H110.983V14.625H111.273C111.852 13.0227 112.841 11.767 114.239 10.858C115.636 9.9375 117.301 9.47727 119.233 9.47727C121.074 9.47727 122.67 9.89205 124.023 10.7216C125.386 11.5398 126.443 12.6875 127.193 14.1648C127.955 15.6307 128.33 17.3466 128.318 19.3125V36H119.983V20.9489C119.994 19.4943 119.625 18.358 118.875 17.5398C118.136 16.7216 117.108 16.3125 115.79 16.3125C114.915 16.3125 114.142 16.5057 113.472 16.892C112.812 17.267 112.301 17.8068 111.937 18.5114C111.585 19.2159 111.403 20.0682 111.392 21.0682Z" fill="#5567C9" fill-opacity="0.533333"/>
</svg>
