<svg width="279" height="66" viewBox="0 0 279 66" fill="none" xmlns="http://www.w3.org/2000/svg">
<path d="M0.184215 24V2.18182H4.13663V11.4183H14.2467V2.18182H18.2098V24H14.2467V14.7315H4.13663V24H0.184215ZM26.8218 24.3303C25.7849 24.3303 24.8509 24.1456 24.0199 23.7763C23.1961 23.3999 22.5427 22.8459 22.0597 22.1143C21.5839 21.3828 21.3459 20.4808 21.3459 19.4084C21.3459 18.4851 21.5164 17.7216 21.8573 17.1179C22.1982 16.5142 22.6634 16.0312 23.2529 15.669C23.8424 15.3068 24.5064 15.0334 25.2451 14.8487C25.9908 14.657 26.7614 14.5185 27.5569 14.4332C28.5157 14.3338 29.2934 14.245 29.89 14.1669C30.4866 14.0817 30.9198 13.9538 31.1897 13.7834C31.4667 13.6058 31.6052 13.3324 31.6052 12.9631V12.8991C31.6052 12.0966 31.3672 11.4751 30.8914 11.0348C30.4155 10.5945 29.7302 10.3743 28.8353 10.3743C27.8907 10.3743 27.1414 10.5803 26.5874 10.9922C26.0405 11.4041 25.6712 11.8906 25.4795 12.4517L21.8786 11.9403C22.1627 10.946 22.6314 10.1151 23.2849 9.44744C23.9383 8.77273 24.7373 8.26847 25.6819 7.93466C26.6265 7.59375 27.6705 7.4233 28.814 7.4233C29.6023 7.4233 30.3871 7.51563 31.1684 7.70028C31.9496 7.88494 32.6634 8.19034 33.3097 8.61648C33.956 9.03551 34.4745 9.60724 34.8651 10.3317C35.2628 11.0561 35.4617 11.9616 35.4617 13.0483V24H31.7543V21.7521H31.6265C31.3921 22.2067 31.0618 22.6328 30.6357 23.0305C30.2167 23.4212 29.6876 23.7372 29.0484 23.9787C28.4162 24.2131 27.6741 24.3303 26.8218 24.3303ZM27.8232 21.4964C28.5974 21.4964 29.2685 21.3437 29.8367 21.0384C30.4049 20.7259 30.8417 20.3139 31.1471 19.8026C31.4596 19.2912 31.6158 18.7337 31.6158 18.13V16.2017C31.4951 16.3011 31.2891 16.3935 30.9979 16.4787C30.7138 16.5639 30.3942 16.6385 30.0391 16.7024C29.684 16.7663 29.3324 16.8232 28.9844 16.8729C28.6364 16.9226 28.3346 16.9652 28.0789 17.0007C27.5036 17.0788 26.9887 17.2067 26.5341 17.3842C26.0796 17.5618 25.7209 17.8104 25.4582 18.13C25.1954 18.4425 25.064 18.8473 25.064 19.3445C25.064 20.0547 25.3232 20.5909 25.8417 20.9531C26.3601 21.3153 27.0207 21.4964 27.8232 21.4964ZM25.8523 5.64418L23.5192 5.59091C23.5192 4.3267 23.8459 3.33594 24.4993 2.61861C25.1528 1.90128 25.9589 1.54261 26.9177 1.54261C27.3793 1.54261 27.7806 1.62074 28.1215 1.77699C28.4624 1.92614 28.7749 2.10014 29.059 2.29901C29.3502 2.49787 29.6343 2.67543 29.9113 2.83168C30.1883 2.98082 30.4937 3.0554 30.8275 3.0554C31.2323 3.0554 31.5519 2.9027 31.7863 2.5973C32.0278 2.2919 32.152 1.90128 32.1591 1.42543L34.4496 1.52131C34.4425 2.79261 34.1123 3.77983 33.4589 4.48295C32.8055 5.17898 32.0029 5.53054 31.0512 5.53764C30.5398 5.54474 30.1101 5.47017 29.7621 5.31392C29.4141 5.15767 29.1087 4.98011 28.8459 4.78125C28.5903 4.58239 28.331 4.40838 28.0682 4.25923C27.8055 4.10298 27.4965 4.02486 27.1414 4.02486C26.765 4.02486 26.456 4.17401 26.2145 4.4723C25.9731 4.7706 25.8523 5.16122 25.8523 5.64418ZM40.9256 30.1364C40.4001 30.1364 39.9135 30.0938 39.4661 30.0085C39.0258 29.9304 38.6742 29.8381 38.4114 29.7315L39.3063 26.7273C39.8674 26.8906 40.3681 26.9688 40.8084 26.9616C41.2488 26.9545 41.6358 26.8161 41.9697 26.5462C42.3106 26.2834 42.5982 25.843 42.8326 25.2251L43.1628 24.3409L37.2289 7.63636H41.3198L45.0911 19.9943H45.2616L49.0435 7.63636H53.1451L46.5932 25.9815C46.2878 26.848 45.883 27.5902 45.3787 28.2081C44.8745 28.8331 44.2566 29.3089 43.5251 29.6357C42.8006 29.9695 41.9341 30.1364 40.9256 30.1364ZM66.6617 2.18182V24H62.8052V2.18182H66.6617ZM86.8513 6.79474H89.3335C89.3335 7.97372 89.1631 8.96449 88.8222 9.76704C88.4884 10.5625 87.9166 11.1626 87.107 11.5675C86.2973 11.9723 85.1787 12.1747 83.7512 12.1747V10.2358C84.7029 10.2358 85.3953 10.1151 85.8286 9.87358C86.2618 9.625 86.5388 9.24503 86.6595 8.73366C86.7803 8.2223 86.8442 7.57599 86.8513 6.79474ZM80.896 17.1179V7.63636H84.7632V24H81.0132V21.0916H80.8428C80.4735 22.0078 79.8662 22.7571 79.021 23.3395C78.183 23.9219 77.1496 24.2131 75.9209 24.2131C74.8485 24.2131 73.9003 23.9751 73.0764 23.4993C72.2597 23.0163 71.6205 22.3168 71.1588 21.4006C70.6972 20.4773 70.4664 19.3622 70.4664 18.0554V7.63636H74.3229V17.4588C74.33 18.4957 74.6141 19.3196 75.1752 19.9304C75.7433 20.5412 76.4891 20.8466 77.4124 20.8466C77.9806 20.8466 78.531 20.7081 79.0637 20.4311C79.6034 20.1541 80.0438 19.7422 80.3847 19.1953C80.7327 18.6413 80.9031 17.9489 80.896 17.1179ZM78.0835 29.8913C77.4656 29.8913 76.9365 29.6854 76.4962 29.2734C76.0629 28.8615 75.8463 28.3679 75.8463 27.7926C75.8463 27.2173 76.0629 26.7237 76.4962 26.3118C76.9365 25.8999 77.4621 25.6939 78.0729 25.6939C78.6908 25.6939 79.2164 25.8999 79.6496 26.3118C80.0899 26.7237 80.3101 27.2173 80.3101 27.7926C80.3101 28.3679 80.0899 28.8615 79.6496 29.2734C79.2164 29.6854 78.6943 29.8913 78.0835 29.8913ZM95.2769 24.3303C94.2399 24.3303 93.306 24.1456 92.475 23.7763C91.6512 23.3999 90.9977 22.8459 90.5148 22.1143C90.0389 21.3828 89.801 20.4808 89.801 19.4084C89.801 18.4851 89.9715 17.7216 90.3124 17.1179C90.6533 16.5142 91.1185 16.0312 91.708 15.669C92.2975 15.3068 92.9615 15.0334 93.7002 14.8487C94.4459 14.657 95.2165 14.5185 96.012 14.4332C96.9708 14.3338 97.7485 14.245 98.345 14.1669C98.9416 14.0817 99.3749 13.9538 99.6448 13.7834C99.9218 13.6058 100.06 13.3324 100.06 12.9631V12.8991C100.06 12.0966 99.8223 11.4751 99.3465 11.0348C98.8706 10.5945 98.1852 10.3743 97.2904 10.3743C96.3458 10.3743 95.5965 10.5803 95.0425 10.9922C94.4956 11.4041 94.1263 11.8906 93.9345 12.4517L90.3337 11.9403C90.6178 10.946 91.0865 10.1151 91.7399 9.44744C92.3933 8.77273 93.1923 8.26847 94.137 7.93466C95.0816 7.59375 96.1256 7.4233 97.2691 7.4233C98.0574 7.4233 98.8422 7.51563 99.6235 7.70028C100.405 7.88494 101.118 8.19034 101.765 8.61648C102.411 9.03551 102.93 9.60724 103.32 10.3317C103.718 11.0561 103.917 11.9616 103.917 13.0483V24H100.209V21.7521H100.082C99.8472 22.2067 99.5169 22.6328 99.0908 23.0305C98.6718 23.4212 98.1426 23.7372 97.5034 23.9787C96.8713 24.2131 96.1291 24.3303 95.2769 24.3303ZM96.2783 21.4964C97.0524 21.4964 97.7236 21.3437 98.2918 21.0384C98.86 20.7259 99.2968 20.3139 99.6021 19.8026C99.9146 19.2912 100.071 18.7337 100.071 18.13V16.2017C99.9502 16.3011 99.7442 16.3935 99.453 16.4787C99.1689 16.5639 98.8493 16.6385 98.4942 16.7024C98.1391 16.7663 97.7875 16.8232 97.4395 16.8729C97.0915 16.9226 96.7897 16.9652 96.534 17.0007C95.9587 17.0788 95.4438 17.2067 94.9892 17.3842C94.5347 17.5618 94.176 17.8104 93.9132 18.13C93.6504 18.4425 93.5191 18.8473 93.5191 19.3445C93.5191 20.0547 93.7783 20.5909 94.2968 20.9531C94.8152 21.3153 95.4757 21.4964 96.2783 21.4964ZM121.924 24.3196C120.29 24.3196 118.888 23.9609 117.716 23.2436C116.551 22.5263 115.653 21.5355 115.02 20.2713C114.395 19 114.083 17.5369 114.083 15.8821C114.083 14.2202 114.403 12.7536 115.042 11.4822C115.681 10.2038 116.583 9.20952 117.748 8.49929C118.92 7.78196 120.304 7.4233 121.903 7.4233C123.231 7.4233 124.406 7.66832 125.429 8.15838C126.459 8.64134 127.279 9.3267 127.89 10.2145C128.501 11.0952 128.849 12.125 128.934 13.304H125.248C125.099 12.5156 124.743 11.8587 124.182 11.3331C123.628 10.8004 122.886 10.5341 121.956 10.5341C121.167 10.5341 120.475 10.7472 119.878 11.1733C119.282 11.5923 118.817 12.196 118.483 12.9844C118.156 13.7727 117.993 14.7173 117.993 15.8182C117.993 16.9332 118.156 17.892 118.483 18.6946C118.809 19.4901 119.268 20.1044 119.857 20.5376C120.454 20.9638 121.153 21.1768 121.956 21.1768C122.524 21.1768 123.032 21.0703 123.479 20.8572C123.934 20.6371 124.314 20.321 124.619 19.9091C124.925 19.4972 125.134 18.9964 125.248 18.407H128.934C128.841 19.5646 128.501 20.5909 127.911 21.4858C127.322 22.3736 126.519 23.0696 125.503 23.5739C124.488 24.071 123.295 24.3196 121.924 24.3196ZM135.732 14.4119V24H131.875V2.18182H135.647V10.4169H135.839C136.222 9.49361 136.815 8.76562 137.618 8.23295C138.427 7.69318 139.457 7.4233 140.707 7.4233C141.844 7.4233 142.834 7.66122 143.679 8.13707C144.525 8.61293 145.178 9.30895 145.64 10.2251C146.108 11.1413 146.343 12.2599 146.343 13.581V24H142.486V14.1776C142.486 13.0767 142.202 12.2209 141.634 11.6101C141.073 10.9922 140.285 10.6832 139.269 10.6832C138.587 10.6832 137.976 10.8324 137.437 11.1307C136.904 11.4219 136.485 11.8445 136.179 12.3984C135.881 12.9524 135.732 13.6236 135.732 14.4119ZM157.187 24.3196C155.589 24.3196 154.204 23.968 153.032 23.2649C151.86 22.5618 150.951 21.5781 150.305 20.3139C149.665 19.0497 149.346 17.5724 149.346 15.8821C149.346 14.1918 149.665 12.7109 150.305 11.4396C150.951 10.1683 151.86 9.18111 153.032 8.47798C154.204 7.77486 155.589 7.4233 157.187 7.4233C158.785 7.4233 160.17 7.77486 161.342 8.47798C162.513 9.18111 163.419 10.1683 164.058 11.4396C164.704 12.7109 165.028 14.1918 165.028 15.8821C165.028 17.5724 164.704 19.0497 164.058 20.3139C163.419 21.5781 162.513 22.5618 161.342 23.2649C160.17 23.968 158.785 24.3196 157.187 24.3196ZM157.208 21.2301C158.074 21.2301 158.799 20.9922 159.381 20.5163C159.964 20.0334 160.397 19.3871 160.681 18.5774C160.972 17.7678 161.118 16.8658 161.118 15.8714C161.118 14.87 160.972 13.9645 160.681 13.1548C160.397 12.3381 159.964 11.6882 159.381 11.2053C158.799 10.7223 158.074 10.4808 157.208 10.4808C156.32 10.4808 155.582 10.7223 154.992 11.2053C154.41 11.6882 153.973 12.3381 153.682 13.1548C153.398 13.9645 153.256 14.87 153.256 15.8714C153.256 16.8658 153.398 17.7678 153.682 18.5774C153.973 19.3871 154.41 20.0334 154.992 20.5163C155.582 20.9922 156.32 21.2301 157.208 21.2301ZM157.197 29.8913C156.579 29.8913 156.05 29.6854 155.61 29.2734C155.177 28.8615 154.96 28.3679 154.96 27.7926C154.96 27.2173 155.177 26.7237 155.61 26.3118C156.05 25.8999 156.576 25.6939 157.187 25.6939C157.805 25.6939 158.33 25.8999 158.763 26.3118C159.204 26.7237 159.424 27.2173 159.424 27.7926C159.424 28.3679 159.204 28.8615 158.763 29.2734C158.33 29.6854 157.808 29.8913 157.197 29.8913ZM171.932 14.4119V24H168.076V7.63636H171.762V10.4169H171.954C172.33 9.50071 172.93 8.77273 173.754 8.23295C174.585 7.69318 175.611 7.4233 176.833 7.4233C177.962 7.4233 178.946 7.66477 179.784 8.14773C180.629 8.63068 181.283 9.33026 181.744 10.2464C182.213 11.1626 182.444 12.2741 182.437 13.581V24H178.58V14.1776C178.58 13.0838 178.296 12.228 177.728 11.6101C177.167 10.9922 176.389 10.6832 175.395 10.6832C174.72 10.6832 174.12 10.8324 173.594 11.1307C173.076 11.4219 172.667 11.8445 172.369 12.3984C172.078 12.9524 171.932 13.6236 171.932 14.4119ZM207.965 7.63636L202.138 24H197.876L192.049 7.63636H196.161L199.922 19.7919H200.092L203.863 7.63636H207.965ZM214.649 24.3303C213.612 24.3303 212.678 24.1456 211.847 23.7763C211.023 23.3999 210.37 22.8459 209.887 22.1143C209.411 21.3828 209.173 20.4808 209.173 19.4084C209.173 18.4851 209.343 17.7216 209.684 17.1179C210.025 16.5142 210.49 16.0312 211.08 15.669C211.669 15.3068 212.333 15.0334 213.072 14.8487C213.818 14.657 214.588 14.5185 215.384 14.4332C216.343 14.3338 217.12 14.245 217.717 14.1669C218.314 14.0817 218.747 13.9538 219.017 13.7834C219.294 13.6058 219.432 13.3324 219.432 12.9631V12.8991C219.432 12.0966 219.194 11.4751 218.718 11.0348C218.242 10.5945 217.557 10.3743 216.662 10.3743C215.718 10.3743 214.968 10.5803 214.414 10.9922C213.867 11.4041 213.498 11.8906 213.306 12.4517L209.706 11.9403C209.99 10.946 210.458 10.1151 211.112 9.44744C211.765 8.77273 212.564 8.26847 213.509 7.93466C214.453 7.59375 215.497 7.4233 216.641 7.4233C217.429 7.4233 218.214 7.51563 218.995 7.70028C219.777 7.88494 220.49 8.19034 221.137 8.61648C221.783 9.03551 222.301 9.60724 222.692 10.3317C223.09 11.0561 223.289 11.9616 223.289 13.0483V24H219.581V21.7521H219.453C219.219 22.2067 218.889 22.6328 218.463 23.0305C218.044 23.4212 217.515 23.7372 216.875 23.9787C216.243 24.2131 215.501 24.3303 214.649 24.3303ZM215.65 21.4964C216.424 21.4964 217.095 21.3437 217.664 21.0384C218.232 20.7259 218.669 20.3139 218.974 19.8026C219.287 19.2912 219.443 18.7337 219.443 18.13V16.2017C219.322 16.3011 219.116 16.3935 218.825 16.4787C218.541 16.5639 218.221 16.6385 217.866 16.7024C217.511 16.7663 217.159 16.8232 216.811 16.8729C216.463 16.9226 216.162 16.9652 215.906 17.0007C215.331 17.0788 214.816 17.2067 214.361 17.3842C213.907 17.5618 213.548 17.8104 213.285 18.13C213.022 18.4425 212.891 18.8473 212.891 19.3445C212.891 20.0547 213.15 20.5909 213.669 20.9531C214.187 21.3153 214.848 21.4964 215.65 21.4964ZM226.941 24V7.63636H230.798V24H226.941ZM228.88 5.31392C228.27 5.31392 227.744 5.11151 227.304 4.70668C226.863 4.29474 226.643 3.80114 226.643 3.22585C226.643 2.64347 226.863 2.14986 227.304 1.74503C227.744 1.3331 228.27 1.12713 228.88 1.12713C229.498 1.12713 230.024 1.3331 230.457 1.74503C230.897 2.14986 231.118 2.64347 231.118 3.22585C231.118 3.80114 230.897 4.29474 230.457 4.70668C230.024 5.11151 229.498 5.31392 228.88 5.31392ZM249.926 7.63636V10.6193H240.519V7.63636H249.926ZM242.842 3.71591H246.698V19.0781C246.698 19.5966 246.776 19.9943 246.933 20.2713C247.096 20.5412 247.309 20.7259 247.572 20.8253C247.835 20.9247 248.126 20.9744 248.445 20.9744C248.687 20.9744 248.907 20.9567 249.106 20.9212C249.312 20.8857 249.468 20.8537 249.575 20.8253L250.225 23.8402C250.019 23.9112 249.724 23.9893 249.34 24.0746C248.964 24.1598 248.502 24.2095 247.955 24.2237C246.99 24.2521 246.12 24.1065 245.345 23.7869C244.571 23.4602 243.957 22.956 243.502 22.2741C243.055 21.5923 242.835 20.7401 242.842 19.7173V3.71591ZM252.927 24V7.63636H256.666V10.3636H256.836C257.135 9.41903 257.646 8.69105 258.371 8.17969C259.102 7.66122 259.937 7.40199 260.874 7.40199C261.087 7.40199 261.325 7.41264 261.588 7.43395C261.858 7.44815 262.081 7.47301 262.259 7.50852V11.0561C262.096 10.9993 261.836 10.9496 261.481 10.907C261.133 10.8572 260.796 10.8324 260.469 10.8324C259.766 10.8324 259.134 10.9851 258.573 11.2905C258.019 11.5888 257.582 12.0043 257.263 12.5369C256.943 13.0696 256.783 13.6839 256.783 14.38V24H252.927ZM271.06 24.3196C269.462 24.3196 268.077 23.968 266.905 23.2649C265.733 22.5618 264.824 21.5781 264.178 20.3139C263.539 19.0497 263.219 17.5724 263.219 15.8821C263.219 14.1918 263.539 12.7109 264.178 11.4396C264.824 10.1683 265.733 9.18111 266.905 8.47798C268.077 7.77486 269.462 7.4233 271.06 7.4233C272.658 7.4233 274.043 7.77486 275.215 8.47798C276.387 9.18111 277.292 10.1683 277.932 11.4396C278.578 12.7109 278.901 14.1918 278.901 15.8821C278.901 17.5724 278.578 19.0497 277.932 20.3139C277.292 21.5781 276.387 22.5618 275.215 23.2649C274.043 23.968 272.658 24.3196 271.06 24.3196ZM271.081 21.2301C271.948 21.2301 272.672 20.9922 273.255 20.5163C273.837 20.0334 274.27 19.3871 274.554 18.5774C274.846 17.7678 274.991 16.8658 274.991 15.8714C274.991 14.87 274.846 13.9645 274.554 13.1548C274.27 12.3381 273.837 11.6882 273.255 11.2053C272.672 10.7223 271.948 10.4808 271.081 10.4808C270.194 10.4808 269.455 10.7223 268.866 11.2053C268.283 11.6882 267.846 12.3381 267.555 13.1548C267.271 13.9645 267.129 14.87 267.129 15.8714C267.129 16.8658 267.271 17.7678 267.555 18.5774C267.846 19.3871 268.283 20.0334 268.866 20.5163C269.455 20.9922 270.194 21.2301 271.081 21.2301ZM269.654 5.48438L266.383 0.615767H270.165L272.541 5.48438H269.654ZM91.475 60.3196C89.8415 60.3196 88.4388 59.9609 87.2669 59.2436C86.1021 58.5263 85.2037 57.5355 84.5716 56.2713C83.9466 55 83.6341 53.5369 83.6341 51.8821C83.6341 50.2202 83.9537 48.7536 84.5929 47.4822C85.2321 46.2038 86.1341 45.2095 87.2988 44.4993C88.4707 43.782 89.8557 43.4233 91.4537 43.4233C92.7818 43.4233 93.9572 43.6683 94.98 44.1584C96.0098 44.6413 96.8301 45.3267 97.4409 46.2145C98.0517 47.0952 98.3997 48.125 98.4849 49.304H94.7988C94.6497 48.5156 94.2946 47.8587 93.7335 47.3331C93.1795 46.8004 92.4373 46.5341 91.5069 46.5341C90.7186 46.5341 90.0261 46.7472 89.4295 47.1733C88.8329 47.5923 88.3677 48.196 88.0339 48.9844C87.7072 49.7727 87.5439 50.7173 87.5439 51.8182C87.5439 52.9332 87.7072 53.892 88.0339 54.6946C88.3606 55.4901 88.8187 56.1044 89.4082 56.5376C90.0048 56.9638 90.7044 57.1768 91.5069 57.1768C92.0751 57.1768 92.5829 57.0703 93.0304 56.8572C93.4849 56.6371 93.8649 56.321 94.1703 55.9091C94.4757 55.4972 94.6852 54.9964 94.7988 54.407H98.4849C98.3926 55.5646 98.0517 56.5909 97.4622 57.4858C96.8727 58.3736 96.0702 59.0696 95.0545 59.5739C94.0389 60.071 92.8457 60.3196 91.475 60.3196ZM111.856 53.1179V43.6364H115.713V60H111.974V57.0916H111.803C111.434 58.0078 110.827 58.7571 109.981 59.3395C109.143 59.9219 108.11 60.2131 106.881 60.2131C105.809 60.2131 104.861 59.9751 104.037 59.4993C103.22 59.0163 102.581 58.3168 102.119 57.4006C101.657 56.4773 101.427 55.3622 101.427 54.0554V43.6364H105.283V53.4588C105.283 54.4957 105.567 55.3196 106.135 55.9304C106.704 56.5412 107.449 56.8466 108.373 56.8466C108.941 56.8466 109.491 56.7081 110.024 56.4311C110.557 56.1541 110.993 55.7422 111.334 55.1953C111.682 54.6413 111.856 53.9489 111.856 53.1179ZM110.067 41.3352H107.126L106.977 39.2898C107.73 39.2614 108.263 39.1655 108.575 39.0021C108.888 38.8317 109.04 38.5973 109.033 38.299C109.04 37.9155 108.834 37.6491 108.415 37.5C107.996 37.3509 107.478 37.2763 106.86 37.2763L106.956 35.3693C108.717 35.3693 110.052 35.625 110.961 36.1364C111.871 36.6477 112.322 37.3437 112.314 38.2244C112.322 38.8991 112.091 39.4034 111.622 39.7372C111.153 40.0639 110.635 40.2699 110.067 40.3551V41.3352ZM124.162 60.3303C123.125 60.3303 122.192 60.1456 121.361 59.7763C120.537 59.3999 119.883 58.8459 119.4 58.1143C118.924 57.3828 118.687 56.4808 118.687 55.4084C118.687 54.4851 118.857 53.7216 119.198 53.1179C119.539 52.5142 120.004 52.0312 120.594 51.669C121.183 51.3068 121.847 51.0334 122.586 50.8487C123.331 50.657 124.102 50.5185 124.898 50.4332C125.856 50.3338 126.634 50.245 127.231 50.1669C127.827 50.0817 128.26 49.9538 128.53 49.7834C128.807 49.6058 128.946 49.3324 128.946 48.9631V48.8991C128.946 48.0966 128.708 47.4751 128.232 47.0348C127.756 46.5945 127.071 46.3743 126.176 46.3743C125.231 46.3743 124.482 46.5803 123.928 46.9922C123.381 47.4041 123.012 47.8906 122.82 48.4517L119.219 47.9403C119.503 46.946 119.972 46.1151 120.625 45.4474C121.279 44.7727 122.078 44.2685 123.023 43.9347C123.967 43.5938 125.011 43.4233 126.155 43.4233C126.943 43.4233 127.728 43.5156 128.509 43.7003C129.29 43.8849 130.004 44.1903 130.65 44.6165C131.297 45.0355 131.815 45.6072 132.206 46.3317C132.603 47.0561 132.802 47.9616 132.802 49.0483V60H129.095V57.7521H128.967C128.733 58.2067 128.402 58.6328 127.976 59.0305C127.557 59.4212 127.028 59.7372 126.389 59.9787C125.757 60.2131 125.015 60.3303 124.162 60.3303ZM125.164 57.4964C125.938 57.4964 126.609 57.3437 127.177 57.0384C127.746 56.7259 128.182 56.3139 128.488 55.8026C128.8 55.2912 128.956 54.7337 128.956 54.13V52.2017C128.836 52.3011 128.63 52.3935 128.339 52.4787C128.054 52.5639 127.735 52.6385 127.38 52.7024C127.025 52.7663 126.673 52.8232 126.325 52.8729C125.977 52.9226 125.675 52.9652 125.42 53.0007C124.844 53.0788 124.329 53.2067 123.875 53.3842C123.42 53.5618 123.062 53.8104 122.799 54.13C122.536 54.4425 122.405 54.8473 122.405 55.3445C122.405 56.0547 122.664 56.5909 123.182 56.9531C123.701 57.3153 124.361 57.4964 125.164 57.4964ZM143.842 60V38.1818H147.699V46.3423H147.858C148.057 45.9446 148.338 45.522 148.7 45.0746C149.062 44.62 149.552 44.233 150.17 43.9134C150.788 43.5866 151.576 43.4233 152.535 43.4233C153.799 43.4233 154.939 43.7464 155.955 44.3928C156.978 45.032 157.787 45.9801 158.384 47.2372C158.988 48.4872 159.289 50.0213 159.289 51.8395C159.289 53.6364 158.995 55.1634 158.405 56.4205C157.816 57.6776 157.013 58.6364 155.998 59.2969C154.982 59.9574 153.831 60.2876 152.546 60.2876C151.608 60.2876 150.831 60.1314 150.213 59.8189C149.595 59.5064 149.098 59.13 148.721 58.6896C148.352 58.2422 148.064 57.8196 147.858 57.4219H147.635V60H143.842ZM147.624 51.8182C147.624 52.8764 147.773 53.8033 148.071 54.5987C148.377 55.3942 148.814 56.0156 149.382 56.4631C149.957 56.9034 150.653 57.1236 151.47 57.1236C152.322 57.1236 153.036 56.8963 153.611 56.4418C154.186 55.9801 154.62 55.3516 154.911 54.5561C155.209 53.7536 155.358 52.8409 155.358 51.8182C155.358 50.8026 155.213 49.9006 154.922 49.1122C154.63 48.3239 154.197 47.706 153.622 47.2585C153.047 46.8111 152.329 46.5874 151.47 46.5874C150.646 46.5874 149.946 46.804 149.371 47.2372C148.796 47.6705 148.359 48.2777 148.061 49.0589C147.77 49.8402 147.624 50.7599 147.624 51.8182ZM167.052 60.3303C166.015 60.3303 165.081 60.1456 164.25 59.7763C163.426 59.3999 162.773 58.8459 162.29 58.1143C161.814 57.3828 161.576 56.4808 161.576 55.4084C161.576 54.4851 161.746 53.7216 162.087 53.1179C162.428 52.5142 162.893 52.0312 163.483 51.669C164.072 51.3068 164.737 51.0334 165.475 50.8487C166.221 50.657 166.991 50.5185 167.787 50.4332C168.746 50.3338 169.523 50.245 170.12 50.1669C170.717 50.0817 171.15 49.9538 171.42 49.7834C171.697 49.6058 171.835 49.3324 171.835 48.9631V48.8991C171.835 48.0966 171.597 47.4751 171.121 47.0348C170.646 46.5945 169.96 46.3743 169.065 46.3743C168.121 46.3743 167.371 46.5803 166.817 46.9922C166.271 47.4041 165.901 47.8906 165.71 48.4517L162.109 47.9403C162.393 46.946 162.862 46.1151 163.515 45.4474C164.168 44.7727 164.967 44.2685 165.912 43.9347C166.857 43.5938 167.901 43.4233 169.044 43.4233C169.832 43.4233 170.617 43.5156 171.398 43.7003C172.18 43.8849 172.893 44.1903 173.54 44.6165C174.186 45.0355 174.705 45.6072 175.095 46.3317C175.493 47.0561 175.692 47.9616 175.692 49.0483V60H171.984V57.7521H171.857C171.622 58.2067 171.292 58.6328 170.866 59.0305C170.447 59.4212 169.918 59.7372 169.278 59.9787C168.646 60.2131 167.904 60.3303 167.052 60.3303ZM168.053 57.4964C168.827 57.4964 169.499 57.3437 170.067 57.0384C170.635 56.7259 171.072 56.3139 171.377 55.8026C171.69 55.2912 171.846 54.7337 171.846 54.13V52.2017C171.725 52.3011 171.519 52.3935 171.228 52.4787C170.944 52.5639 170.624 52.6385 170.269 52.7024C169.914 52.7663 169.563 52.8232 169.215 52.8729C168.866 52.9226 168.565 52.9652 168.309 53.0007C167.734 53.0788 167.219 53.2067 166.764 53.3842C166.31 53.5618 165.951 53.8104 165.688 54.13C165.425 54.4425 165.294 54.8473 165.294 55.3445C165.294 56.0547 165.553 56.5909 166.072 56.9531C166.59 57.3153 167.251 57.4964 168.053 57.4964ZM169.065 65.8913C168.447 65.8913 167.918 65.6854 167.478 65.2734C167.045 64.8615 166.828 64.3679 166.828 63.7926C166.828 63.2173 167.045 62.7237 167.478 62.3118C167.918 61.8999 168.444 61.6939 169.055 61.6939C169.673 61.6939 170.198 61.8999 170.631 62.3118C171.072 62.7237 171.292 63.2173 171.292 63.7926C171.292 64.3679 171.072 64.8615 170.631 65.2734C170.198 65.6854 169.676 65.8913 169.065 65.8913ZM183.201 50.4119V60H179.345V43.6364H183.031V46.4169H183.222C183.599 45.5007 184.199 44.7727 185.023 44.233C185.854 43.6932 186.88 43.4233 188.102 43.4233C189.231 43.4233 190.215 43.6648 191.053 44.1477C191.898 44.6307 192.551 45.3303 193.013 46.2464C193.482 47.1626 193.713 48.2741 193.705 49.581V60H189.849V50.1776C189.849 49.0838 189.565 48.228 188.997 47.6101C188.436 46.9922 187.658 46.6832 186.664 46.6832C185.989 46.6832 185.389 46.8324 184.863 47.1307C184.345 47.4219 183.936 47.8445 183.638 48.3984C183.347 48.9524 183.201 49.6236 183.201 50.4119Z" fill="#64748B"/>
</svg>
