<svg width="297" height="68" viewBox="0 0 297 68" fill="none" xmlns="http://www.w3.org/2000/svg">
<g filter="url(#filter0_d_236_691)">
<rect x="4" width="288.11" height="60" rx="10" fill="white" shape-rendering="crispEdges"/>
<rect x="4.5" y="0.5" width="287.11" height="59" rx="9.5" stroke="#C1BFBF" shape-rendering="crispEdges"/>
</g>
<g clip-path="url(#clip0_236_691)">
<path d="M46 23.75C47.77 23.75 49.355 24.36 50.605 25.55L54.03 22.125C51.95 20.19 49.235 19 46 19C41.31 19 37.255 21.69 35.28 25.61L39.27 28.705C40.215 25.86 42.87 23.75 46 23.75Z" fill="#EA4335"/>
<path d="M57.49 31.275C57.49 30.49 57.415 29.73 57.3 29H46V33.51H52.47C52.18 34.99 51.34 36.25 50.08 37.1L53.945 40.1C56.2 38.01 57.49 34.92 57.49 31.275Z" fill="#4285F4"/>
<path d="M39.265 33.295C39.025 32.57 38.885 31.8 38.885 31C38.885 30.2 39.02 29.43 39.265 28.705L35.275 25.61C34.46 27.23 34 29.06 34 31C34 32.94 34.46 34.77 35.28 36.39L39.265 33.295Z" fill="#FBBC05"/>
<path d="M46 43C49.24 43 51.965 41.935 53.945 40.095L50.08 37.095C49.005 37.82 47.62 38.245 46 38.245C42.87 38.245 40.215 36.135 39.265 33.29L35.275 36.385C37.255 40.31 41.31 43 46 43Z" fill="#34A853"/>
<path d="M46 23.75C47.77 23.75 49.355 24.36 50.605 25.55L54.03 22.125C51.95 20.19 49.235 19 46 19C41.31 19 37.255 21.69 35.28 25.61L39.27 28.705C40.215 25.86 42.87 23.75 46 23.75Z" fill="#EA4335"/>
<path d="M57.49 31.275C57.49 30.49 57.415 29.73 57.3 29H46V33.51H52.47C52.18 34.99 51.34 36.25 50.08 37.1L53.945 40.1C56.2 38.01 57.49 34.92 57.49 31.275Z" fill="#4285F4"/>
<path d="M39.265 33.295C39.025 32.57 38.885 31.8 38.885 31C38.885 30.2 39.02 29.43 39.265 28.705L35.275 25.61C34.46 27.23 34 29.06 34 31C34 32.94 34.46 34.77 35.28 36.39L39.265 33.295Z" fill="#FBBC05"/>
<path d="M46 43C49.24 43 51.965 41.935 53.945 40.095L50.08 37.095C49.005 37.82 47.62 38.245 46 38.245C42.87 38.245 40.215 36.135 39.265 33.29L35.275 36.385C37.255 40.31 41.31 43 46 43Z" fill="#34A853"/>
</g>
<path d="M85.8943 35H83.3786V33.6577H85.8097C86.5853 33.6577 87.23 33.5118 87.7437 33.2202C88.2574 32.9252 88.6419 32.4993 88.8971 31.9425C89.1523 31.3823 89.2799 30.6996 89.2799 29.8942C89.2799 29.0954 89.1523 28.4176 88.8971 27.8608C88.6452 27.304 88.269 26.8814 87.7686 26.593C87.2681 26.3047 86.6466 26.1605 85.9042 26.1605H83.324V24.8182H85.9987C86.9963 24.8182 87.8531 25.022 88.569 25.4297C89.2849 25.834 89.8334 26.4157 90.2146 27.1747C90.599 27.9304 90.7913 28.8369 90.7913 29.8942C90.7913 30.9548 90.5974 31.8662 90.2096 32.6286C89.8251 33.3909 89.2683 33.9775 88.5392 34.3885C87.81 34.7962 86.9284 35 85.8943 35ZM84.1343 24.8182V35H82.5981V24.8182H84.1343ZM81.0768 30.2223V29.1982H85.6457V30.2223H81.0768ZM94.8046 35.169C94.3207 35.169 93.8832 35.0795 93.4921 34.9006C93.101 34.7183 92.7911 34.4548 92.5624 34.1101C92.337 33.7654 92.2243 33.3428 92.2243 32.8423C92.2243 32.4115 92.3072 32.0568 92.4729 31.7784C92.6386 31.5 92.8624 31.2796 93.1441 31.1172C93.4258 30.9548 93.7407 30.8321 94.0887 30.7493C94.4367 30.6664 94.7913 30.6035 95.1526 30.5604C95.61 30.5073 95.9812 30.4643 96.2662 30.4311C96.5513 30.3946 96.7584 30.3366 96.8877 30.2571C97.017 30.1776 97.0816 30.0483 97.0816 29.8693V29.8345C97.0816 29.4003 96.959 29.0639 96.7137 28.8253C96.4717 28.5866 96.1105 28.4673 95.6299 28.4673C95.1294 28.4673 94.735 28.5784 94.4466 28.8004C94.1616 29.0192 93.9644 29.2628 93.855 29.5312L92.458 29.2131C92.6237 28.7491 92.8657 28.3745 93.1839 28.0895C93.5054 27.8011 93.8749 27.5923 94.2925 27.4631C94.7101 27.3305 95.1493 27.2642 95.61 27.2642C95.9149 27.2642 96.2381 27.3007 96.5795 27.3736C96.9242 27.4432 97.2456 27.5724 97.5439 27.7614C97.8456 27.9503 98.0925 28.2204 98.2847 28.5717C98.4769 28.9197 98.5731 29.3722 98.5731 29.929V35H97.1214V33.956H97.0617C96.9656 34.1482 96.8214 34.3371 96.6292 34.5227C96.4369 34.7083 96.19 34.8625 95.8884 34.9851C95.5868 35.1077 95.2255 35.169 94.8046 35.169ZM95.1278 33.9759C95.5387 33.9759 95.8901 33.8946 96.1817 33.7322C96.4767 33.5698 96.7004 33.3577 96.8529 33.0959C97.0087 32.8307 97.0866 32.5473 97.0866 32.2457V31.2614C97.0335 31.3144 96.9308 31.3641 96.7783 31.4105C96.6292 31.4536 96.4585 31.4917 96.2662 31.5249C96.074 31.5547 95.8867 31.5829 95.7045 31.6094C95.5222 31.6326 95.3697 31.6525 95.2471 31.669C94.9587 31.7055 94.6952 31.7668 94.4566 31.853C94.2213 31.9392 94.0323 32.0634 93.8898 32.2259C93.7506 32.3849 93.681 32.5971 93.681 32.8622C93.681 33.2301 93.8169 33.5085 94.0887 33.6974C94.3605 33.883 94.7068 33.9759 95.1278 33.9759ZM96.664 24.7784H97.887C97.887 25.3385 97.6881 25.7943 97.2904 26.1456C96.896 26.4936 96.3624 26.6676 95.6895 26.6676C95.02 26.6676 94.4881 26.4936 94.0937 26.1456C93.6992 25.7943 93.502 25.3385 93.502 24.7784H94.7201C94.7201 25.027 94.793 25.2474 94.9388 25.4396C95.0847 25.6286 95.3349 25.723 95.6895 25.723C96.0376 25.723 96.2861 25.6286 96.4353 25.4396C96.5877 25.2507 96.664 25.0303 96.664 24.7784ZM102.04 30.4659V35H100.553V27.3636H101.98V28.6065H102.074C102.25 28.2022 102.525 27.8774 102.9 27.6321C103.277 27.3868 103.753 27.2642 104.326 27.2642C104.847 27.2642 105.303 27.3736 105.694 27.5923C106.085 27.8078 106.388 28.1293 106.603 28.5568C106.819 28.9844 106.927 29.513 106.927 30.1428V35H105.44V30.3217C105.44 29.7682 105.296 29.3357 105.008 29.0241C104.719 28.7093 104.323 28.5518 103.819 28.5518C103.475 28.5518 103.168 28.6264 102.9 28.7756C102.634 28.9247 102.424 29.1435 102.268 29.4318C102.116 29.7169 102.04 30.0616 102.04 30.4659ZM112.122 38.0227C111.515 38.0227 110.993 37.9432 110.556 37.7841C110.122 37.625 109.767 37.4145 109.492 37.1527C109.217 36.8909 109.011 36.6042 108.875 36.2926L110.153 35.7656C110.243 35.9115 110.362 36.0656 110.511 36.228C110.664 36.3937 110.869 36.5346 111.128 36.6506C111.389 36.7666 111.726 36.8246 112.137 36.8246C112.7 36.8246 113.166 36.687 113.534 36.4119C113.902 36.1402 114.086 35.706 114.086 35.1094V33.608H113.991C113.902 33.7704 113.772 33.951 113.603 34.1499C113.438 34.3487 113.209 34.5211 112.917 34.6669C112.626 34.8127 112.246 34.8857 111.779 34.8857C111.176 34.8857 110.632 34.7448 110.148 34.4631C109.668 34.178 109.286 33.7588 109.005 33.2053C108.726 32.6484 108.587 31.964 108.587 31.152C108.587 30.34 108.725 29.6439 109 29.0639C109.278 28.4839 109.659 28.0398 110.143 27.7315C110.627 27.42 111.176 27.2642 111.789 27.2642C112.263 27.2642 112.646 27.3438 112.937 27.5028C113.229 27.6586 113.456 27.8409 113.618 28.0497C113.784 28.2585 113.912 28.4425 114.001 28.6016H114.111V27.3636H115.567V35.169C115.567 35.8253 115.415 36.3639 115.11 36.7848C114.805 37.2057 114.392 37.5173 113.872 37.7195C113.355 37.9216 112.772 38.0227 112.122 38.0227ZM112.107 33.6527C112.535 33.6527 112.896 33.5533 113.191 33.3544C113.489 33.1522 113.714 32.8639 113.867 32.4893C114.023 32.1115 114.101 31.6591 114.101 31.1321C114.101 30.6184 114.024 30.166 113.872 29.7749C113.719 29.3838 113.496 29.0788 113.201 28.8601C112.906 28.638 112.541 28.527 112.107 28.527C111.66 28.527 111.287 28.643 110.988 28.875C110.69 29.1037 110.465 29.4152 110.312 29.8097C110.163 30.2041 110.089 30.6449 110.089 31.1321C110.089 31.6326 110.165 32.0717 110.317 32.4496C110.47 32.8274 110.695 33.1224 110.993 33.3345C111.295 33.5466 111.666 33.6527 112.107 33.6527ZM122.752 30.4659V35H121.266V27.3636H122.693V28.6065H122.787C122.963 28.2022 123.238 27.8774 123.612 27.6321C123.99 27.3868 124.466 27.2642 125.039 27.2642C125.56 27.2642 126.015 27.3736 126.407 27.5923C126.798 27.8078 127.101 28.1293 127.316 28.5568C127.532 28.9844 127.639 29.513 127.639 30.1428V35H126.153V30.3217C126.153 29.7682 126.009 29.3357 125.72 29.0241C125.432 28.7093 125.036 28.5518 124.532 28.5518C124.188 28.5518 123.881 28.6264 123.612 28.7756C123.347 28.9247 123.137 29.1435 122.981 29.4318C122.829 29.7169 122.752 30.0616 122.752 30.4659ZM131.12 30.4659V35H129.633V24.8182H131.1V28.6065H131.194C131.373 28.1955 131.647 27.8691 132.014 27.6271C132.382 27.3852 132.863 27.2642 133.456 27.2642C133.98 27.2642 134.437 27.3719 134.828 27.5874C135.223 27.8028 135.528 28.1243 135.743 28.5518C135.962 28.9761 136.071 29.5064 136.071 30.1428V35H134.585V30.3217C134.585 29.7616 134.441 29.3274 134.152 29.0192C133.864 28.7076 133.463 28.5518 132.949 28.5518C132.598 28.5518 132.283 28.6264 132.005 28.7756C131.729 28.9247 131.512 29.1435 131.353 29.4318C131.197 29.7169 131.12 30.0616 131.12 30.4659ZM140.277 35.169C139.793 35.169 139.356 35.0795 138.965 34.9006C138.574 34.7183 138.264 34.4548 138.035 34.1101C137.81 33.7654 137.697 33.3428 137.697 32.8423C137.697 32.4115 137.78 32.0568 137.946 31.7784C138.111 31.5 138.335 31.2796 138.617 31.1172C138.898 30.9548 139.213 30.8321 139.561 30.7493C139.909 30.6664 140.264 30.6035 140.625 30.5604C141.083 30.5073 141.454 30.4643 141.739 30.4311C142.024 30.3946 142.231 30.3366 142.36 30.2571C142.49 30.1776 142.554 30.0483 142.554 29.8693V29.8345C142.554 29.4003 142.432 29.0639 142.186 28.8253C141.944 28.5866 141.583 28.4673 141.103 28.4673C140.602 28.4673 140.208 28.5784 139.919 28.8004C139.634 29.0192 139.437 29.2628 139.328 29.5312L137.931 29.2131C138.096 28.7491 138.338 28.3745 138.657 28.0895C138.978 27.8011 139.348 27.5923 139.765 27.4631C140.183 27.3305 140.622 27.2642 141.083 27.2642C141.388 27.2642 141.711 27.3007 142.052 27.3736C142.397 27.4432 142.718 27.5724 143.017 27.7614C143.318 27.9503 143.565 28.2204 143.757 28.5717C143.95 28.9197 144.046 29.3722 144.046 29.929V35H142.594V33.956H142.534C142.438 34.1482 142.294 34.3371 142.102 34.5227C141.91 34.7083 141.663 34.8625 141.361 34.9851C141.059 35.1077 140.698 35.169 140.277 35.169ZM140.6 33.9759C141.011 33.9759 141.363 33.8946 141.654 33.7322C141.949 33.5698 142.173 33.3577 142.326 33.0959C142.481 32.8307 142.559 32.5473 142.559 32.2457V31.2614C142.506 31.3144 142.403 31.3641 142.251 31.4105C142.102 31.4536 141.931 31.4917 141.739 31.5249C141.547 31.5547 141.359 31.5829 141.177 31.6094C140.995 31.6326 140.842 31.6525 140.72 31.669C140.431 31.7055 140.168 31.7668 139.929 31.853C139.694 31.9392 139.505 32.0634 139.362 32.2259C139.223 32.3849 139.154 32.5971 139.154 32.8622C139.154 33.2301 139.29 33.5085 139.561 33.6974C139.833 33.883 140.179 33.9759 140.6 33.9759ZM142.181 26.4489L141.162 25.1165L140.138 26.4489H138.796V26.3743L140.541 24.2663H141.779L143.529 26.3743V26.4489H142.181ZM141.093 37.6349C140.837 37.6349 140.617 37.5488 140.431 37.3764C140.246 37.2041 140.153 36.9953 140.153 36.75C140.153 36.5047 140.246 36.2959 140.431 36.1236C140.617 35.9512 140.837 35.8651 141.093 35.8651C141.351 35.8651 141.572 35.9512 141.754 36.1236C141.939 36.2959 142.032 36.5047 142.032 36.75C142.032 36.9953 141.939 37.2041 141.754 37.3764C141.572 37.5488 141.351 37.6349 141.093 37.6349ZM146.026 37.8636V27.3636H147.477V28.6016H147.602C147.688 28.4425 147.812 28.2585 147.975 28.0497C148.137 27.8409 148.362 27.6586 148.651 27.5028C148.939 27.3438 149.32 27.2642 149.794 27.2642C150.411 27.2642 150.961 27.42 151.445 27.7315C151.929 28.0431 152.308 28.4922 152.583 29.0788C152.862 29.6655 153.001 30.3714 153.001 31.1967C153.001 32.022 152.863 32.7296 152.588 33.3196C152.313 33.9062 151.935 34.3587 151.455 34.6768C150.974 34.9917 150.426 35.1491 149.809 35.1491C149.345 35.1491 148.966 35.0713 148.671 34.9155C148.379 34.7597 148.15 34.5774 147.984 34.3686C147.819 34.1598 147.691 33.9742 147.602 33.8118H147.512V37.8636H146.026ZM147.482 31.1818C147.482 31.7187 147.56 32.1894 147.716 32.5938C147.872 32.9981 148.097 33.3146 148.392 33.5433C148.687 33.7687 149.048 33.8814 149.476 33.8814C149.92 33.8814 150.291 33.7637 150.59 33.5284C150.888 33.2898 151.113 32.9666 151.266 32.5589C151.421 32.1513 151.499 31.6922 151.499 31.1818C151.499 30.678 151.423 30.2256 151.271 29.8246C151.122 29.4235 150.896 29.107 150.595 28.875C150.296 28.643 149.923 28.527 149.476 28.527C149.045 28.527 148.68 28.638 148.382 28.8601C148.087 29.0821 147.863 29.392 147.711 29.7898C147.559 30.1875 147.482 30.6515 147.482 31.1818ZM158.491 35V24.8182H159.977V28.6016H160.067C160.153 28.4425 160.277 28.2585 160.44 28.0497C160.602 27.8409 160.827 27.6586 161.116 27.5028C161.404 27.3438 161.785 27.2642 162.259 27.2642C162.876 27.2642 163.426 27.42 163.91 27.7315C164.394 28.0431 164.773 28.4922 165.048 29.0788C165.327 29.6655 165.466 30.3714 165.466 31.1967C165.466 32.022 165.328 32.7296 165.053 33.3196C164.778 33.9062 164.4 34.3587 163.92 34.6768C163.439 34.9917 162.891 35.1491 162.274 35.1491C161.81 35.1491 161.431 35.0713 161.136 34.9155C160.844 34.7597 160.615 34.5774 160.449 34.3686C160.284 34.1598 160.156 33.9742 160.067 33.8118H159.942V35H158.491ZM159.947 31.1818C159.947 31.7187 160.025 32.1894 160.181 32.5938C160.337 32.9981 160.562 33.3146 160.857 33.5433C161.152 33.7687 161.513 33.8814 161.941 33.8814C162.385 33.8814 162.756 33.7637 163.055 33.5284C163.353 33.2898 163.578 32.9666 163.731 32.5589C163.887 32.1513 163.964 31.6922 163.964 31.1818C163.964 30.678 163.888 30.2256 163.736 29.8246C163.587 29.4235 163.361 29.107 163.06 28.875C162.761 28.643 162.388 28.527 161.941 28.527C161.51 28.527 161.146 28.638 160.847 28.8601C160.552 29.0821 160.329 29.392 160.176 29.7898C160.024 30.1875 159.947 30.6515 159.947 31.1818ZM169.357 35.169C168.873 35.169 168.436 35.0795 168.045 34.9006C167.654 34.7183 167.344 34.4548 167.115 34.1101C166.89 33.7654 166.777 33.3428 166.777 32.8423C166.777 32.4115 166.86 32.0568 167.026 31.7784C167.191 31.5 167.415 31.2796 167.697 31.1172C167.979 30.9548 168.293 30.8321 168.641 30.7493C168.989 30.6664 169.344 30.6035 169.705 30.5604C170.163 30.5073 170.534 30.4643 170.819 30.4311C171.104 30.3946 171.311 30.3366 171.44 30.2571C171.57 30.1776 171.634 30.0483 171.634 29.8693V29.8345C171.634 29.4003 171.512 29.0639 171.266 28.8253C171.024 28.5866 170.663 28.4673 170.183 28.4673C169.682 28.4673 169.288 28.5784 168.999 28.8004C168.714 29.0192 168.517 29.2628 168.408 29.5312L167.011 29.2131C167.176 28.7491 167.418 28.3745 167.737 28.0895C168.058 27.8011 168.428 27.5923 168.845 27.4631C169.263 27.3305 169.702 27.2642 170.163 27.2642C170.468 27.2642 170.791 27.3007 171.132 27.3736C171.477 27.4432 171.798 27.5724 172.097 27.7614C172.398 27.9503 172.645 28.2204 172.837 28.5717C173.03 28.9197 173.126 29.3722 173.126 29.929V35H171.674V33.956H171.614C171.518 34.1482 171.374 34.3371 171.182 34.5227C170.99 34.7083 170.743 34.8625 170.441 34.9851C170.14 35.1077 169.778 35.169 169.357 35.169ZM169.68 33.9759C170.091 33.9759 170.443 33.8946 170.734 33.7322C171.029 33.5698 171.253 33.3577 171.406 33.0959C171.561 32.8307 171.639 32.5473 171.639 32.2457V31.2614C171.586 31.3144 171.484 31.3641 171.331 31.4105C171.182 31.4536 171.011 31.4917 170.819 31.5249C170.627 31.5547 170.439 31.5829 170.257 31.6094C170.075 31.6326 169.922 31.6525 169.8 31.669C169.511 31.7055 169.248 31.7668 169.009 31.853C168.774 31.9392 168.585 32.0634 168.443 32.2259C168.303 32.3849 168.234 32.5971 168.234 32.8622C168.234 33.2301 168.37 33.5085 168.641 33.6974C168.913 33.883 169.26 33.9759 169.68 33.9759ZM171.222 25.0021H172.42C172.42 25.4396 172.221 25.7992 171.823 26.081C171.429 26.3594 170.889 26.4986 170.203 26.4986C169.52 26.4986 168.979 26.3594 168.582 26.081C168.187 25.7992 167.99 25.4396 167.99 25.0021H169.183C169.183 25.2076 169.26 25.3883 169.412 25.544C169.568 25.6998 169.831 25.7777 170.203 25.7777C170.567 25.7777 170.827 25.6998 170.983 25.544C171.142 25.3883 171.222 25.2076 171.222 25.0021ZM169.894 24.9027L168.741 23.5803H169.969L170.749 24.9027H169.894ZM176.592 30.4659V35H175.106V27.3636H176.533V28.6065H176.627C176.803 28.2022 177.078 27.8774 177.452 27.6321C177.83 27.3868 178.306 27.2642 178.879 27.2642C179.4 27.2642 179.855 27.3736 180.246 27.5923C180.637 27.8078 180.941 28.1293 181.156 28.5568C181.372 28.9844 181.479 29.513 181.479 30.1428V35H179.993V30.3217C179.993 29.7682 179.849 29.3357 179.56 29.0241C179.272 28.7093 178.876 28.5518 178.372 28.5518C178.027 28.5518 177.721 28.6264 177.452 28.7756C177.187 28.9247 176.977 29.1435 176.821 29.4318C176.668 29.7169 176.592 30.0616 176.592 30.4659ZM186.675 38.0227C186.068 38.0227 185.546 37.9432 185.109 37.7841C184.674 37.625 184.32 37.4145 184.045 37.1527C183.77 36.8909 183.564 36.6042 183.428 36.2926L184.706 35.7656C184.795 35.9115 184.915 36.0656 185.064 36.228C185.216 36.3937 185.422 36.5346 185.68 36.6506C185.942 36.7666 186.279 36.8246 186.69 36.8246C187.253 36.8246 187.719 36.687 188.087 36.4119C188.454 36.1402 188.638 35.706 188.638 35.1094V33.608H188.544C188.454 33.7704 188.325 33.951 188.156 34.1499C187.99 34.3487 187.762 34.5211 187.47 34.6669C187.178 34.8127 186.799 34.8857 186.332 34.8857C185.728 34.8857 185.185 34.7448 184.701 34.4631C184.22 34.178 183.839 33.7588 183.557 33.2053C183.279 32.6484 183.14 31.964 183.14 31.152C183.14 30.34 183.277 29.6439 183.552 29.0639C183.831 28.4839 184.212 28.0398 184.696 27.7315C185.18 27.42 185.728 27.2642 186.342 27.2642C186.815 27.2642 187.198 27.3438 187.49 27.5028C187.782 27.6586 188.009 27.8409 188.171 28.0497C188.337 28.2585 188.464 28.4425 188.554 28.6016H188.663V27.3636H190.12V35.169C190.12 35.8253 189.967 36.3639 189.663 36.7848C189.358 37.2057 188.945 37.5173 188.425 37.7195C187.908 37.9216 187.324 38.0227 186.675 38.0227ZM186.66 33.6527C187.087 33.6527 187.449 33.5533 187.744 33.3544C188.042 33.1522 188.267 32.8639 188.42 32.4893C188.575 32.1115 188.653 31.6591 188.653 31.1321C188.653 30.6184 188.577 30.166 188.425 29.7749C188.272 29.3838 188.048 29.0788 187.753 28.8601C187.458 28.638 187.094 28.527 186.66 28.527C186.212 28.527 185.839 28.643 185.541 28.875C185.243 29.1037 185.017 29.4152 184.865 29.8097C184.716 30.2041 184.641 30.6449 184.641 31.1321C184.641 31.6326 184.717 32.0717 184.87 32.4496C185.022 32.8274 185.248 33.1224 185.546 33.3345C185.848 33.5466 186.219 33.6527 186.66 33.6527ZM202.829 28.0348C202.732 27.7332 202.603 27.4631 202.441 27.2244C202.282 26.9825 202.091 26.777 201.869 26.608C201.647 26.4356 201.393 26.3047 201.108 26.2152C200.827 26.1257 200.517 26.081 200.179 26.081C199.605 26.081 199.088 26.2285 198.628 26.5234C198.167 26.8184 197.802 27.2509 197.534 27.821C197.269 28.3878 197.136 29.0821 197.136 29.9041C197.136 30.7294 197.27 31.4271 197.539 31.9972C197.807 32.5672 198.175 32.9998 198.642 33.2947C199.11 33.5897 199.642 33.7372 200.238 33.7372C200.792 33.7372 201.274 33.6245 201.685 33.3991C202.099 33.1738 202.419 32.8556 202.645 32.4446C202.873 32.0303 202.988 31.5431 202.988 30.983L203.385 31.0575H200.472V29.7898H204.474V30.9482C204.474 31.8033 204.292 32.5457 203.927 33.1754C203.566 33.8018 203.066 34.2857 202.426 34.6271C201.79 34.9685 201.06 35.1392 200.238 35.1392C199.317 35.1392 198.508 34.9271 197.812 34.5028C197.12 34.0786 196.579 33.477 196.191 32.6982C195.804 31.916 195.61 30.9879 195.61 29.9141C195.61 29.102 195.723 28.3729 195.948 27.7266C196.173 27.0803 196.49 26.5317 196.897 26.081C197.308 25.6269 197.791 25.2805 198.344 25.0419C198.901 24.8 199.509 24.679 200.169 24.679C200.719 24.679 201.231 24.7602 201.705 24.9226C202.182 25.085 202.607 25.3153 202.978 25.6136C203.352 25.9119 203.662 26.2666 203.907 26.6776C204.153 27.0852 204.318 27.5376 204.405 28.0348H202.829ZM209.522 35.1541C208.806 35.1541 208.181 34.9901 207.647 34.6619C207.114 34.3338 206.699 33.8748 206.404 33.2848C206.109 32.6948 205.962 32.0054 205.962 31.2166C205.962 30.4245 206.109 29.7318 206.404 29.1385C206.699 28.5452 207.114 28.0845 207.647 27.7564C208.181 27.4283 208.806 27.2642 209.522 27.2642C210.237 27.2642 210.862 27.4283 211.396 27.7564C211.929 28.0845 212.344 28.5452 212.639 29.1385C212.934 29.7318 213.081 30.4245 213.081 31.2166C213.081 32.0054 212.934 32.6948 212.639 33.2848C212.344 33.8748 211.929 34.3338 211.396 34.6619C210.862 34.9901 210.237 35.1541 209.522 35.1541ZM209.527 33.9062C209.991 33.9062 210.375 33.7836 210.68 33.5384C210.985 33.2931 211.21 32.9666 211.356 32.5589C211.505 32.1513 211.58 31.7022 211.58 31.2116C211.58 30.7244 211.505 30.277 211.356 29.8693C211.21 29.4583 210.985 29.1286 210.68 28.88C210.375 28.6314 209.991 28.5071 209.527 28.5071C209.059 28.5071 208.671 28.6314 208.363 28.88C208.058 29.1286 207.831 29.4583 207.682 29.8693C207.536 30.277 207.463 30.7244 207.463 31.2116C207.463 31.7022 207.536 32.1513 207.682 32.5589C207.831 32.9666 208.058 33.2931 208.363 33.5384C208.671 33.7836 209.059 33.9062 209.527 33.9062ZM217.957 35.1541C217.241 35.1541 216.616 34.9901 216.083 34.6619C215.549 34.3338 215.135 33.8748 214.84 33.2848C214.545 32.6948 214.397 32.0054 214.397 31.2166C214.397 30.4245 214.545 29.7318 214.84 29.1385C215.135 28.5452 215.549 28.0845 216.083 27.7564C216.616 27.4283 217.241 27.2642 217.957 27.2642C218.673 27.2642 219.298 27.4283 219.831 27.7564C220.365 28.0845 220.779 28.5452 221.074 29.1385C221.369 29.7318 221.517 30.4245 221.517 31.2166C221.517 32.0054 221.369 32.6948 221.074 33.2848C220.779 33.8748 220.365 34.3338 219.831 34.6619C219.298 34.9901 218.673 35.1541 217.957 35.1541ZM217.962 33.9062C218.426 33.9062 218.811 33.7836 219.116 33.5384C219.42 33.2931 219.646 32.9666 219.792 32.5589C219.941 32.1513 220.015 31.7022 220.015 31.2116C220.015 30.7244 219.941 30.277 219.792 29.8693C219.646 29.4583 219.42 29.1286 219.116 28.88C218.811 28.6314 218.426 28.5071 217.962 28.5071C217.495 28.5071 217.107 28.6314 216.799 28.88C216.494 29.1286 216.267 29.4583 216.118 29.8693C215.972 30.277 215.899 30.7244 215.899 31.2116C215.899 31.7022 215.972 32.1513 216.118 32.5589C216.267 32.9666 216.494 33.2931 216.799 33.5384C217.107 33.7836 217.495 33.9062 217.962 33.9062ZM226.378 38.0227C225.771 38.0227 225.249 37.9432 224.812 37.7841C224.378 37.625 224.023 37.4145 223.748 37.1527C223.473 36.8909 223.267 36.6042 223.131 36.2926L224.409 35.7656C224.498 35.9115 224.618 36.0656 224.767 36.228C224.919 36.3937 225.125 36.5346 225.383 36.6506C225.645 36.7666 225.982 36.8246 226.393 36.8246C226.956 36.8246 227.422 36.687 227.79 36.4119C228.158 36.1402 228.342 35.706 228.342 35.1094V33.608H228.247C228.158 33.7704 228.028 33.951 227.859 34.1499C227.694 34.3487 227.465 34.5211 227.173 34.6669C226.882 34.8127 226.502 34.8857 226.035 34.8857C225.431 34.8857 224.888 34.7448 224.404 34.4631C223.923 34.178 223.542 33.7588 223.261 33.2053C222.982 32.6484 222.843 31.964 222.843 31.152C222.843 30.34 222.98 29.6439 223.256 29.0639C223.534 28.4839 223.915 28.0398 224.399 27.7315C224.883 27.42 225.431 27.2642 226.045 27.2642C226.519 27.2642 226.901 27.3438 227.193 27.5028C227.485 27.6586 227.712 27.8409 227.874 28.0497C228.04 28.2585 228.168 28.4425 228.257 28.6016H228.366V27.3636H229.823V35.169C229.823 35.8253 229.671 36.3639 229.366 36.7848C229.061 37.2057 228.648 37.5173 228.128 37.7195C227.611 37.9216 227.027 38.0227 226.378 38.0227ZM226.363 33.6527C226.79 33.6527 227.152 33.5533 227.447 33.3544C227.745 33.1522 227.97 32.8639 228.123 32.4893C228.279 32.1115 228.356 31.6591 228.356 31.1321C228.356 30.6184 228.28 30.166 228.128 29.7749C227.975 29.3838 227.752 29.0788 227.457 28.8601C227.162 28.638 226.797 28.527 226.363 28.527C225.915 28.527 225.543 28.643 225.244 28.875C224.946 29.1037 224.721 29.4152 224.568 29.8097C224.419 30.2041 224.344 30.6449 224.344 31.1321C224.344 31.6326 224.421 32.0717 224.573 32.4496C224.726 32.8274 224.951 33.1224 225.249 33.3345C225.551 33.5466 225.922 33.6527 226.363 33.6527ZM233.303 24.8182V35H231.817V24.8182H233.303ZM238.594 35.1541C237.842 35.1541 237.194 34.9934 236.65 34.6719C236.11 34.3471 235.692 33.8913 235.397 33.3047C235.106 32.7147 234.96 32.0237 234.96 31.2315C234.96 30.4493 235.106 29.7599 235.397 29.1634C235.692 28.5668 236.103 28.1011 236.63 27.7663C237.161 27.4316 237.781 27.2642 238.49 27.2642C238.921 27.2642 239.338 27.3355 239.743 27.478C240.147 27.6205 240.51 27.8442 240.831 28.1491C241.153 28.4541 241.406 28.8501 241.592 29.3374C241.778 29.8213 241.87 30.4096 241.87 31.1023V31.6293H235.8V30.5156H240.414C240.414 30.1245 240.334 29.7782 240.175 29.4766C240.016 29.1716 239.792 28.9313 239.504 28.7557C239.219 28.58 238.884 28.4922 238.5 28.4922C238.082 28.4922 237.718 28.5949 237.406 28.8004C237.098 29.0026 236.859 29.2678 236.69 29.5959C236.524 29.9207 236.441 30.2737 236.441 30.6548V31.5249C236.441 32.0353 236.531 32.4695 236.71 32.8274C236.892 33.1854 237.146 33.4588 237.471 33.6477C237.795 33.8333 238.175 33.9261 238.609 33.9261C238.891 33.9261 239.148 33.8864 239.38 33.8068C239.612 33.724 239.812 33.6013 239.981 33.4389C240.15 33.2765 240.28 33.076 240.369 32.8374L241.776 33.0909C241.663 33.5052 241.461 33.8681 241.169 34.1797C240.881 34.4879 240.518 34.7282 240.081 34.9006C239.647 35.0696 239.151 35.1541 238.594 35.1541Z" fill="black"/>
<defs>
<filter id="filter0_d_236_691" x="0" y="0" width="296.11" height="68" filterUnits="userSpaceOnUse" color-interpolation-filters="sRGB">
<feFlood flood-opacity="0" result="BackgroundImageFix"/>
<feColorMatrix in="SourceAlpha" type="matrix" values="0 0 0 0 0 0 0 0 0 0 0 0 0 0 0 0 0 0 127 0" result="hardAlpha"/>
<feOffset dy="4"/>
<feGaussianBlur stdDeviation="2"/>
<feComposite in2="hardAlpha" operator="out"/>
<feColorMatrix type="matrix" values="0 0 0 0 0 0 0 0 0 0 0 0 0 0 0 0 0 0 0.1 0"/>
<feBlend mode="normal" in2="BackgroundImageFix" result="effect1_dropShadow_236_691"/>
<feBlend mode="normal" in="SourceGraphic" in2="effect1_dropShadow_236_691" result="shape"/>
</filter>
<clipPath id="clip0_236_691">
<rect width="24" height="24" fill="white" transform="translate(34 19)"/>
</clipPath>
</defs>
</svg>
