<svg width="404" height="126" viewBox="0 0 404 126" fill="none" xmlns="http://www.w3.org/2000/svg">
<g filter="url(#filter0_d_451_1848)">
<rect x="4" width="396" height="118" rx="6" fill="white" shape-rendering="crispEdges"/>
<rect x="4.5" y="0.5" width="395" height="117" rx="5.5" stroke="#E5E7EB" shape-rendering="crispEdges"/>
<path d="M22.0043 32V21.8182H23.8487V26.4964H23.973L27.9453 21.8182H30.1974L26.2599 26.3871L30.2322 32H28.0149L24.9773 27.6349L23.8487 28.9673V32H22.0043ZM33.199 27.5256V32H31.3993V21.8182H33.1593V25.6612H33.2488C33.4277 25.2304 33.7045 24.8906 34.079 24.642C34.4569 24.3902 34.9374 24.2642 35.5208 24.2642C36.0511 24.2642 36.5134 24.3752 36.9078 24.5973C37.3023 24.8194 37.6072 25.1442 37.8226 25.5717C38.0414 25.9993 38.1507 26.5213 38.1507 27.1378V32H36.351V27.4162C36.351 26.9025 36.2185 26.5031 35.9533 26.218C35.6915 25.9297 35.3236 25.7855 34.8496 25.7855C34.5314 25.7855 34.2464 25.8551 33.9945 25.9943C33.7459 26.1302 33.5504 26.3274 33.4078 26.5859C33.2686 26.8445 33.199 27.1577 33.199 27.5256ZM43.3162 32.1491C42.5705 32.1491 41.9242 31.9851 41.3773 31.657C40.8304 31.3288 40.4062 30.8698 40.1046 30.2798C39.8063 29.6899 39.6571 29.0005 39.6571 28.2116C39.6571 27.4228 39.8063 26.7318 40.1046 26.1385C40.4062 25.5452 40.8304 25.0845 41.3773 24.7564C41.9242 24.4283 42.5705 24.2642 43.3162 24.2642C44.062 24.2642 44.7083 24.4283 45.2551 24.7564C45.802 25.0845 46.2246 25.5452 46.5229 26.1385C46.8245 26.7318 46.9753 27.4228 46.9753 28.2116C46.9753 29.0005 46.8245 29.6899 46.5229 30.2798C46.2246 30.8698 45.802 31.3288 45.2551 31.657C44.7083 31.9851 44.062 32.1491 43.3162 32.1491ZM43.3262 30.7074C43.7305 30.7074 44.0686 30.5964 44.3404 30.3743C44.6122 30.1489 44.8143 29.8473 44.9469 29.4695C45.0828 29.0916 45.1507 28.6707 45.1507 28.2067C45.1507 27.7393 45.0828 27.3168 44.9469 26.9389C44.8143 26.5578 44.6122 26.2545 44.3404 26.0291C44.0686 25.8037 43.7305 25.6911 43.3262 25.6911C42.9119 25.6911 42.5672 25.8037 42.2921 26.0291C42.0203 26.2545 41.8165 26.5578 41.6806 26.9389C41.548 27.3168 41.4817 27.7393 41.4817 28.2067C41.4817 28.6707 41.548 29.0916 41.6806 29.4695C41.8165 29.8473 42.0203 30.1489 42.2921 30.3743C42.5672 30.5964 42.9119 30.7074 43.3262 30.7074ZM40.736 23.4886L42.7495 21.853H43.873L45.8965 23.4886H44.4L43.3212 22.5739L42.2374 23.4886H40.736ZM45.3645 22.4943L46.4682 20.6598H48.0492L46.513 22.4943H45.3645ZM48.5028 32V24.3636H50.3026V32H48.5028ZM49.4077 23.2798C49.1226 23.2798 48.8774 23.1854 48.6719 22.9964C48.4664 22.8042 48.3636 22.5739 48.3636 22.3054C48.3636 22.0336 48.4664 21.8033 48.6719 21.6143C48.8774 21.4221 49.1226 21.326 49.4077 21.326C49.696 21.326 49.9413 21.4221 50.1435 21.6143C50.349 21.8033 50.4517 22.0336 50.4517 22.3054C50.4517 22.5739 50.349 22.8042 50.1435 22.9964C49.9413 23.1854 49.696 23.2798 49.4077 23.2798ZM59.3347 32.1392C58.8475 32.1359 58.3719 32.0514 57.9078 31.8857C57.4438 31.7166 57.0262 31.4432 56.655 31.0653C56.2838 30.6842 55.9888 30.1787 55.7701 29.549C55.5513 28.916 55.4436 28.1321 55.4469 27.1974C55.4469 26.3258 55.5397 25.5485 55.7253 24.8658C55.9109 24.183 56.1777 23.6063 56.5257 23.1357C56.8738 22.6617 57.293 22.3004 57.7836 22.0518C58.2774 21.8033 58.8292 21.679 59.4391 21.679C60.0788 21.679 60.6455 21.8049 61.1394 22.0568C61.6365 22.3087 62.0376 22.6534 62.3425 23.0909C62.6474 23.5251 62.8364 24.0156 62.9093 24.5625H61.0946C61.0018 24.1714 60.8113 23.8598 60.5229 23.6278C60.2379 23.3925 59.8766 23.2749 59.4391 23.2749C58.7331 23.2749 58.1896 23.5814 57.8084 24.1946C57.4306 24.8078 57.24 25.6496 57.2367 26.7202H57.3063C57.4687 26.4285 57.6792 26.1783 57.9377 25.9695C58.1962 25.7607 58.4879 25.5999 58.8127 25.4872C59.1408 25.3712 59.4872 25.3132 59.8517 25.3132C60.4483 25.3132 60.9836 25.4557 61.4576 25.7408C61.9348 26.0258 62.3127 26.4186 62.5911 26.919C62.8695 27.4162 63.007 27.9863 63.0037 28.6293C63.007 29.2988 62.8546 29.9003 62.5463 30.4339C62.2381 30.9643 61.8089 31.3819 61.2587 31.6868C60.7085 31.9917 60.0672 32.1425 59.3347 32.1392ZM59.3248 30.6477C59.686 30.6477 60.0092 30.5599 60.2942 30.3842C60.5792 30.2086 60.8046 29.9716 60.9703 29.6733C61.1361 29.375 61.2173 29.0402 61.214 28.669C61.2173 28.3045 61.1377 27.9747 60.9753 27.6797C60.8162 27.3847 60.5958 27.151 60.3141 26.9787C60.0324 26.8063 59.7109 26.7202 59.3496 26.7202C59.0811 26.7202 58.8309 26.7715 58.5989 26.8743C58.3669 26.977 58.1647 27.1196 57.9924 27.3018C57.82 27.4808 57.6841 27.6896 57.5847 27.9283C57.4886 28.1636 57.4389 28.4155 57.4355 28.6839C57.4389 29.0386 57.5217 29.3651 57.6841 29.6634C57.8465 29.9616 58.0703 30.2003 58.3553 30.3793C58.6403 30.5582 58.9635 30.6477 59.3248 30.6477ZM72.8052 26.1683V27.6499H68.2214V26.1683H72.8052ZM78.2504 32V21.8182H80.0948V30.4538H84.5792V32H78.2504ZM92.663 23.8764H93.8661C93.8661 24.6851 93.6772 25.3215 93.2994 25.7855C92.9248 26.2462 92.3017 26.4766 91.43 26.4766V25.6314C91.7747 25.6314 92.0349 25.5601 92.2106 25.4176C92.3896 25.2751 92.5089 25.0729 92.5685 24.8111C92.6315 24.5459 92.663 24.2344 92.663 23.8764ZM89.4315 32.1491C88.6857 32.1491 88.0394 31.9851 87.4925 31.657C86.9457 31.3288 86.5214 30.8698 86.2198 30.2798C85.9215 29.6899 85.7724 29.0005 85.7724 28.2116C85.7724 27.4228 85.9215 26.7318 86.2198 26.1385C86.5214 25.5452 86.9457 25.0845 87.4925 24.7564C88.0394 24.4283 88.6857 24.2642 89.4315 24.2642C90.1772 24.2642 90.8235 24.4283 91.3704 24.7564C91.9173 25.0845 92.3398 25.5452 92.6381 26.1385C92.9397 26.7318 93.0906 27.4228 93.0906 28.2116C93.0906 29.0005 92.9397 29.6899 92.6381 30.2798C92.3398 30.8698 91.9173 31.3288 91.3704 31.657C90.8235 31.9851 90.1772 32.1491 89.4315 32.1491ZM89.4414 30.7074C89.8458 30.7074 90.1838 30.5964 90.4556 30.3743C90.7274 30.1489 90.9296 29.8473 91.0621 29.4695C91.198 29.0916 91.266 28.6707 91.266 28.2067C91.266 27.7393 91.198 27.3168 91.0621 26.9389C90.9296 26.5578 90.7274 26.2545 90.4556 26.0291C90.1838 25.8037 89.8458 25.6911 89.4414 25.6911C89.0271 25.6911 88.6824 25.8037 88.4073 26.0291C88.1355 26.2545 87.9317 26.5578 87.7958 26.9389C87.6632 27.3168 87.5969 27.7393 87.5969 28.2067C87.5969 28.6707 87.6632 29.0916 87.7958 29.4695C87.9317 29.8473 88.1355 30.1489 88.4073 30.3743C88.6824 30.5964 89.0271 30.7074 89.4414 30.7074ZM88.7404 23.3594L89.854 21.0874H91.614L90.0877 23.3594H88.7404ZM94.7958 34.8636V24.3636H96.5657V25.6264H96.6701C96.7629 25.4408 96.8938 25.2436 97.0629 25.0348C97.2319 24.8227 97.4606 24.642 97.7489 24.4929C98.0373 24.3404 98.4052 24.2642 98.8526 24.2642C99.4426 24.2642 99.9746 24.415 100.449 24.7166C100.926 25.0149 101.304 25.4574 101.582 26.044C101.864 26.6274 102.005 27.3433 102.005 28.1918C102.005 29.0303 101.867 29.7429 101.592 30.3295C101.317 30.9162 100.942 31.3636 100.468 31.6719C99.9944 31.9801 99.4575 32.1342 98.8576 32.1342C98.4201 32.1342 98.0572 32.0613 97.7688 31.9155C97.4805 31.7696 97.2485 31.594 97.0728 31.3885C96.9004 31.1797 96.7662 30.9825 96.6701 30.7969H96.5955V34.8636H94.7958ZM96.5607 28.1818C96.5607 28.6757 96.6303 29.1082 96.7695 29.4794C96.9121 29.8506 97.1159 30.1406 97.381 30.3494C97.6495 30.5549 97.9743 30.6577 98.3555 30.6577C98.7532 30.6577 99.0863 30.5516 99.3548 30.3395C99.6232 30.1241 99.8254 29.8307 99.9613 29.4595C100.1 29.085 100.17 28.6591 100.17 28.1818C100.17 27.7079 100.102 27.2869 99.9663 26.919C99.8304 26.5511 99.6282 26.2628 99.3597 26.054C99.0913 25.8452 98.7565 25.7408 98.3555 25.7408C97.971 25.7408 97.6445 25.8419 97.3761 26.044C97.1076 26.2462 96.9038 26.5296 96.7646 26.8942C96.6287 27.2588 96.5607 27.688 96.5607 28.1818ZM110.727 32.1392C110.24 32.1359 109.764 32.0514 109.3 31.8857C108.836 31.7166 108.419 31.4432 108.048 31.0653C107.676 30.6842 107.381 30.1787 107.163 29.549C106.944 28.916 106.836 28.1321 106.839 27.1974C106.839 26.3258 106.932 25.5485 107.118 24.8658C107.304 24.183 107.57 23.6063 107.918 23.1357C108.266 22.6617 108.686 22.3004 109.176 22.0518C109.67 21.8033 110.222 21.679 110.832 21.679C111.471 21.679 112.038 21.8049 112.532 22.0568C113.029 22.3087 113.43 22.6534 113.735 23.0909C114.04 23.5251 114.229 24.0156 114.302 24.5625H112.487C112.394 24.1714 112.204 23.8598 111.915 23.6278C111.63 23.3925 111.269 23.2749 110.832 23.2749C110.126 23.2749 109.582 23.5814 109.201 24.1946C108.823 24.8078 108.633 25.6496 108.629 26.7202H108.699C108.861 26.4285 109.072 26.1783 109.33 25.9695C109.589 25.7607 109.88 25.5999 110.205 25.4872C110.533 25.3712 110.88 25.3132 111.244 25.3132C111.841 25.3132 112.376 25.4557 112.85 25.7408C113.327 26.0258 113.705 26.4186 113.984 26.919C114.262 27.4162 114.4 27.9863 114.396 28.6293C114.4 29.2988 114.247 29.9003 113.939 30.4339C113.631 30.9643 113.201 31.3819 112.651 31.6868C112.101 31.9917 111.46 32.1425 110.727 32.1392ZM110.717 30.6477C111.079 30.6477 111.402 30.5599 111.687 30.3842C111.972 30.2086 112.197 29.9716 112.363 29.6733C112.529 29.375 112.61 29.0402 112.607 28.669C112.61 28.3045 112.53 27.9747 112.368 27.6797C112.209 27.3847 111.988 27.151 111.707 26.9787C111.425 26.8063 111.103 26.7202 110.742 26.7202C110.474 26.7202 110.223 26.7715 109.991 26.8743C109.759 26.977 109.557 27.1196 109.385 27.3018C109.213 27.4808 109.077 27.6896 108.977 27.9283C108.881 28.1636 108.831 28.4155 108.828 28.6839C108.831 29.0386 108.914 29.3651 109.077 29.6634C109.239 29.9616 109.463 30.2003 109.748 30.3793C110.033 30.5582 110.356 30.6477 110.717 30.6477ZM124.891 25.2536H123.032C122.979 24.9486 122.881 24.6785 122.739 24.4432C122.596 24.2045 122.419 24.0024 122.207 23.8366C121.995 23.6709 121.753 23.5466 121.481 23.4638C121.212 23.3776 120.922 23.3345 120.611 23.3345C120.057 23.3345 119.567 23.4737 119.139 23.7521C118.712 24.0272 118.377 24.4316 118.135 24.9652C117.893 25.4955 117.772 26.1435 117.772 26.9091C117.772 27.688 117.893 28.3442 118.135 28.8778C118.38 29.4081 118.715 29.8092 119.139 30.081C119.567 30.3494 120.056 30.4837 120.606 30.4837C120.911 30.4837 121.196 30.4439 121.461 30.3643C121.729 30.2815 121.97 30.1605 122.182 30.0014C122.397 29.8423 122.578 29.6468 122.724 29.4148C122.873 29.1828 122.976 28.9176 123.032 28.6193L124.891 28.6293C124.822 29.1132 124.671 29.5672 124.439 29.9915C124.21 30.4157 123.91 30.7902 123.539 31.1151C123.168 31.4366 122.734 31.6884 122.237 31.8707C121.739 32.0497 121.188 32.1392 120.581 32.1392C119.686 32.1392 118.887 31.9321 118.185 31.5178C117.482 31.1035 116.929 30.5052 116.524 29.723C116.12 28.9408 115.918 28.0028 115.918 26.9091C115.918 25.812 116.121 24.8741 116.529 24.0952C116.937 23.313 117.492 22.7147 118.195 22.3004C118.897 21.8861 119.693 21.679 120.581 21.679C121.148 21.679 121.675 21.7585 122.162 21.9176C122.649 22.0767 123.083 22.3104 123.464 22.6186C123.846 22.9235 124.159 23.2981 124.404 23.7422C124.653 24.183 124.815 24.6868 124.891 25.2536Z" fill="#0F172A"/>
<path d="M30.3068 45.8182V56H29.1136L23.5653 48.0057H23.4659V56H22.233V45.8182H23.4261L28.9943 53.8324H29.0938V45.8182H30.3068ZM35.7172 56.1591C35.0278 56.1591 34.4229 55.995 33.9025 55.6669C33.3855 55.3388 32.9811 54.8797 32.6895 54.2898C32.4011 53.6998 32.2569 53.0104 32.2569 52.2216C32.2569 51.4261 32.4011 50.7318 32.6895 50.1385C32.9811 49.5452 33.3855 49.0845 33.9025 48.7564C34.4229 48.4283 35.0278 48.2642 35.7172 48.2642C36.4065 48.2642 37.0098 48.4283 37.5268 48.7564C38.0472 49.0845 38.4515 49.5452 38.7399 50.1385C39.0315 50.7318 39.1774 51.4261 39.1774 52.2216C39.1774 53.0104 39.0315 53.6998 38.7399 54.2898C38.4515 54.8797 38.0472 55.3388 37.5268 55.6669C37.0098 55.995 36.4065 56.1591 35.7172 56.1591ZM35.7172 55.1051C36.2408 55.1051 36.6717 54.9709 37.0098 54.7024C37.3478 54.4339 37.5981 54.081 37.7605 53.6435C37.9229 53.206 38.0041 52.732 38.0041 52.2216C38.0041 51.7112 37.9229 51.2356 37.7605 50.7947C37.5981 50.3539 37.3478 49.9976 37.0098 49.7259C36.6717 49.4541 36.2408 49.3182 35.7172 49.3182C35.1935 49.3182 34.7626 49.4541 34.4245 49.7259C34.0865 49.9976 33.8362 50.3539 33.6738 50.7947C33.5114 51.2356 33.4302 51.7112 33.4302 52.2216C33.4302 52.732 33.5114 53.206 33.6738 53.6435C33.8362 54.081 34.0865 54.4339 34.4245 54.7024C34.7626 54.9709 35.1935 55.1051 35.7172 55.1051ZM36.7512 47.4489L35.7172 46.0568L34.6831 47.4489H33.5694V47.3693L35.1802 45.3011H36.2541L37.8649 47.3693V47.4489H36.7512ZM35.7172 58.5256C35.4885 58.5256 35.2913 58.4477 35.1255 58.2919C34.9631 58.1361 34.8819 57.9489 34.8819 57.7301C34.8819 57.5114 34.9631 57.3241 35.1255 57.1683C35.2913 57.0125 35.4885 56.9347 35.7172 56.9347C35.9458 56.9347 36.1414 57.0125 36.3038 57.1683C36.4695 57.3241 36.5524 57.5114 36.5524 57.7301C36.5524 57.9489 36.4695 58.1361 36.3038 58.2919C36.1414 58.4477 35.9458 58.5256 35.7172 58.5256ZM40.9684 56V48.3636H42.1417V56H40.9684ZM41.565 47.0909C41.3363 47.0909 41.1391 47.013 40.9734 46.8572C40.811 46.7015 40.7298 46.5142 40.7298 46.2955C40.7298 46.0767 40.811 45.8894 40.9734 45.7337C41.1391 45.5779 41.3363 45.5 41.565 45.5C41.7937 45.5 41.9892 45.5779 42.1516 45.7337C42.3174 45.8894 42.4002 46.0767 42.4002 46.2955C42.4002 46.5142 42.3174 46.7015 42.1516 46.8572C41.9892 47.013 41.7937 47.0909 41.565 47.0909ZM51.5293 56H48.3873V45.8182H51.6685C52.6562 45.8182 53.5014 46.022 54.204 46.4297C54.9067 46.834 55.4453 47.4157 55.8198 48.1747C56.1943 48.9304 56.3816 49.8352 56.3816 50.8892C56.3816 51.9498 56.1926 52.8629 55.8148 53.6286C55.437 54.3909 54.8868 54.9775 54.1642 55.3885C53.4417 55.7962 52.5634 56 51.5293 56ZM49.6202 54.9062H51.4498C52.2916 54.9062 52.9893 54.7438 53.5428 54.419C54.0963 54.0942 54.5089 53.6319 54.7807 53.032C55.0525 52.4321 55.1884 51.7178 55.1884 50.8892C55.1884 50.0672 55.0542 49.3596 54.7857 48.7663C54.5172 48.1697 54.1162 47.7124 53.5826 47.3942C53.0489 47.0727 52.3844 46.9119 51.589 46.9119H49.6202V54.9062ZM63.1032 52.8778V48.3636H64.2765V56H63.1032V54.7074H63.0236C62.8446 55.0952 62.5662 55.425 62.1884 55.6967C61.8105 55.9652 61.3333 56.0994 60.7566 56.0994C60.2793 56.0994 59.8551 55.995 59.4838 55.7862C59.1126 55.5741 58.821 55.2559 58.6088 54.8317C58.3967 54.4041 58.2907 53.8655 58.2907 53.2159V48.3636H59.464V53.1364C59.464 53.6932 59.6197 54.1373 59.9313 54.4688C60.2462 54.8002 60.6472 54.9659 61.1344 54.9659C61.4261 54.9659 61.7227 54.8913 62.0243 54.7422C62.3292 54.593 62.5845 54.3643 62.79 54.0561C62.9988 53.7479 63.1032 53.3551 63.1032 52.8778ZM67.5987 51.4062V56H66.4254V48.3636H67.5589V49.5568H67.6584C67.8374 49.169 68.1091 48.8575 68.4737 48.6222C68.8383 48.3835 69.3089 48.2642 69.8857 48.2642C70.4027 48.2642 70.8551 48.3703 71.2429 48.5824C71.6307 48.7912 71.9323 49.1094 72.1477 49.5369C72.3632 49.9612 72.4709 50.4981 72.4709 51.1477V56H71.2976V51.2273C71.2976 50.6274 71.1418 50.16 70.8303 49.8253C70.5187 49.4872 70.0911 49.3182 69.5476 49.3182C69.1731 49.3182 68.8383 49.3994 68.5433 49.5618C68.2517 49.7242 68.0213 49.9612 67.8523 50.2727C67.6832 50.5843 67.5987 50.9621 67.5987 51.4062ZM77.6973 59.0227C77.1305 59.0227 76.6433 58.9498 76.2356 58.804C75.8279 58.6615 75.4882 58.4725 75.2164 58.2372C74.948 58.0052 74.7342 57.7566 74.5751 57.4915L75.5098 56.8352C75.6158 56.9744 75.7501 57.1335 75.9125 57.3125C76.0749 57.4948 76.2969 57.6522 76.5787 57.7848C76.8637 57.9207 77.2366 57.9886 77.6973 57.9886C78.3137 57.9886 78.8225 57.8395 79.2235 57.5412C79.6246 57.2429 79.8251 56.7756 79.8251 56.1392V54.5881H79.7257C79.6395 54.7273 79.5169 54.8996 79.3578 55.1051C79.202 55.3073 78.9766 55.4879 78.6816 55.647C78.39 55.8028 77.9956 55.8807 77.4984 55.8807C76.8819 55.8807 76.3284 55.7348 75.8379 55.4432C75.3507 55.1515 74.9645 54.7273 74.6795 54.1705C74.3978 53.6136 74.2569 52.9375 74.2569 52.142C74.2569 51.3598 74.3945 50.6787 74.6696 50.0987C74.9447 49.5154 75.3275 49.0646 75.818 48.7464C76.3085 48.425 76.8753 48.2642 77.5183 48.2642C78.0154 48.2642 78.4099 48.3471 78.7015 48.5128C78.9965 48.6752 79.2219 48.8608 79.3777 49.0696C79.5368 49.2751 79.6594 49.4441 79.7456 49.5767H79.8649V48.3636H80.9984V56.2188C80.9984 56.875 80.8493 57.4086 80.551 57.8196C80.256 58.2339 79.8583 58.5372 79.3578 58.7294C78.8606 58.925 78.3071 59.0227 77.6973 59.0227ZM77.6575 54.8267C78.1281 54.8267 78.5259 54.719 78.8507 54.5036C79.1755 54.2881 79.4224 53.9782 79.5914 53.5739C79.7605 53.1695 79.845 52.6856 79.845 52.1222C79.845 51.572 79.7621 51.0864 79.5964 50.6655C79.4307 50.2446 79.1854 49.9148 78.8606 49.6761C78.5358 49.4375 78.1348 49.3182 77.6575 49.3182C77.1603 49.3182 76.746 49.4441 76.4146 49.696C76.0865 49.9479 75.8395 50.286 75.6738 50.7102C75.5114 51.1345 75.4302 51.6051 75.4302 52.1222C75.4302 52.6525 75.5131 53.1214 75.6788 53.5291C75.8478 53.9335 76.0964 54.2517 76.4245 54.4837C76.756 54.7124 77.167 54.8267 77.6575 54.8267ZM87.9387 54.6974C87.6935 54.6974 87.483 54.6096 87.3074 54.4339C87.1317 54.2583 87.0439 54.0478 87.0439 53.8026C87.0439 53.5573 87.1317 53.3468 87.3074 53.1712C87.483 52.9955 87.6935 52.9077 87.9387 52.9077C88.184 52.9077 88.3945 52.9955 88.5701 53.1712C88.7458 53.3468 88.8336 53.5573 88.8336 53.8026C88.8336 53.965 88.7922 54.1141 88.7093 54.25C88.6298 54.3859 88.5221 54.4953 88.3862 54.5781C88.2536 54.6577 88.1045 54.6974 87.9387 54.6974ZM87.9387 49.5469C87.6935 49.5469 87.483 49.459 87.3074 49.2834C87.1317 49.1077 87.0439 48.8973 87.0439 48.652C87.0439 48.4067 87.1317 48.1963 87.3074 48.0206C87.483 47.8449 87.6935 47.7571 87.9387 47.7571C88.184 47.7571 88.3945 47.8449 88.5701 48.0206C88.7458 48.1963 88.8336 48.4067 88.8336 48.652C88.8336 48.8144 88.7922 48.9635 88.7093 49.0994C88.6298 49.2353 88.5221 49.3447 88.3862 49.4276C88.2536 49.5071 88.1045 49.5469 87.9387 49.5469ZM95.0357 45.8182H96.5073L99.9675 54.2699H100.087L103.547 45.8182H105.019V56H103.865V48.2642H103.766L100.584 56H99.4703L96.2885 48.2642H96.1891V56H95.0357V45.8182ZM107.332 56V48.3636H108.505V56H107.332ZM107.928 47.0909C107.7 47.0909 107.502 47.013 107.337 46.8572C107.174 46.7015 107.093 46.5142 107.093 46.2955C107.093 46.0767 107.174 45.8894 107.337 45.7337C107.502 45.5779 107.7 45.5 107.928 45.5C108.157 45.5 108.353 45.5779 108.515 45.7337C108.681 45.8894 108.763 46.0767 108.763 46.2955C108.763 46.5142 108.681 46.7015 108.515 46.8572C108.353 47.013 108.157 47.0909 107.928 47.0909ZM113.856 56.1591C113.12 56.1591 112.485 55.9967 111.952 55.6719C111.421 55.3438 111.012 54.8864 110.724 54.2997C110.439 53.7098 110.296 53.0237 110.296 52.2415C110.296 51.4593 110.439 50.7699 110.724 50.1733C111.012 49.5734 111.413 49.1061 111.927 48.7713C112.444 48.4332 113.047 48.2642 113.736 48.2642C114.134 48.2642 114.527 48.3305 114.915 48.4631C115.302 48.5956 115.655 48.8111 115.974 49.1094C116.292 49.4044 116.545 49.7955 116.734 50.2827C116.923 50.7699 117.018 51.3698 117.018 52.0824V52.5795H111.131V51.5653H115.824C115.824 51.1345 115.738 50.75 115.566 50.4119C115.397 50.0739 115.155 49.8071 114.84 49.6115C114.528 49.416 114.161 49.3182 113.736 49.3182C113.269 49.3182 112.865 49.4342 112.523 49.6662C112.185 49.8949 111.925 50.1932 111.743 50.5611C111.56 50.929 111.469 51.3234 111.469 51.7443V52.4205C111.469 52.9972 111.569 53.486 111.768 53.8871C111.97 54.2848 112.25 54.5881 112.608 54.7969C112.966 55.0024 113.382 55.1051 113.856 55.1051C114.164 55.1051 114.442 55.062 114.691 54.9759C114.943 54.8864 115.16 54.7538 115.342 54.5781C115.524 54.3991 115.665 54.1771 115.765 53.9119L116.898 54.2301C116.779 54.6146 116.578 54.9527 116.297 55.2443C116.015 55.5327 115.667 55.758 115.253 55.9205C114.838 56.0795 114.373 56.1591 113.856 56.1591ZM114.711 47.4489L113.677 46.0568L112.643 47.4489H111.529V47.3693L113.14 45.3011H114.214L115.824 47.3693V47.4489H114.711ZM123.615 52.8778V48.3636H124.788V56H123.615V54.7074H123.535C123.356 55.0952 123.078 55.425 122.7 55.6967C122.322 55.9652 121.845 56.0994 121.268 56.0994C120.791 56.0994 120.367 55.995 119.996 55.7862C119.624 55.5741 119.333 55.2559 119.121 54.8317C118.908 54.4041 118.802 53.8655 118.802 53.2159V48.3636H119.976V53.1364C119.976 53.6932 120.131 54.1373 120.443 54.4688C120.758 54.8002 121.159 54.9659 121.646 54.9659C121.938 54.9659 122.234 54.8913 122.536 54.7422C122.841 54.593 123.096 54.3643 123.302 54.0561C123.51 53.7479 123.615 53.3551 123.615 52.8778ZM134.196 48.3636V49.358H130.238V48.3636H134.196ZM131.392 46.5341H132.565V53.8125C132.565 54.1439 132.613 54.3925 132.709 54.5582C132.809 54.7206 132.935 54.83 133.087 54.8864C133.243 54.9394 133.407 54.9659 133.579 54.9659C133.708 54.9659 133.815 54.9593 133.897 54.946C133.98 54.9295 134.047 54.9162 134.096 54.9062L134.335 55.9602C134.255 55.9901 134.144 56.0199 134.002 56.0497C133.859 56.0829 133.679 56.0994 133.46 56.0994C133.128 56.0994 132.804 56.0282 132.485 55.8857C132.171 55.7431 131.909 55.526 131.7 55.2344C131.494 54.9427 131.392 54.5748 131.392 54.1307V46.5341ZM138.208 56.179C137.724 56.179 137.285 56.0878 136.89 55.9055C136.496 55.7199 136.183 55.4531 135.951 55.1051C135.719 54.7538 135.603 54.3295 135.603 53.8324C135.603 53.3949 135.689 53.0402 135.861 52.7685C136.033 52.4934 136.264 52.2779 136.552 52.1222C136.841 51.9664 137.159 51.8504 137.507 51.7741C137.858 51.6946 138.211 51.6316 138.566 51.5852C139.03 51.5256 139.406 51.4808 139.694 51.451C139.986 51.4179 140.198 51.3632 140.331 51.2869C140.467 51.2107 140.534 51.0781 140.534 50.8892V50.8494C140.534 50.3589 140.4 49.9777 140.132 49.706C139.867 49.4342 139.464 49.2983 138.924 49.2983C138.364 49.2983 137.924 49.4209 137.606 49.6662C137.288 49.9115 137.064 50.1733 136.935 50.4517L135.821 50.054C136.02 49.59 136.285 49.2287 136.617 48.9702C136.952 48.7083 137.316 48.526 137.711 48.4233C138.108 48.3172 138.499 48.2642 138.884 48.2642C139.129 48.2642 139.411 48.294 139.729 48.3537C140.051 48.41 140.36 48.5277 140.659 48.7067C140.96 48.8857 141.211 49.1558 141.409 49.517C141.608 49.8783 141.708 50.3622 141.708 50.9688V56H140.534V54.9659H140.475C140.395 55.1316 140.263 55.3089 140.077 55.4979C139.891 55.6868 139.645 55.8475 139.336 55.9801C139.028 56.1127 138.652 56.179 138.208 56.179ZM138.387 55.125C138.851 55.125 139.242 55.0339 139.56 54.8516C139.882 54.6693 140.123 54.4339 140.286 54.1456C140.452 53.8572 140.534 53.554 140.534 53.2358V52.1619C140.485 52.2216 140.375 52.2763 140.206 52.326C140.041 52.3724 139.848 52.4138 139.63 52.4503C139.414 52.4834 139.204 52.5133 138.998 52.5398C138.796 52.563 138.632 52.5829 138.506 52.5994C138.201 52.6392 137.916 52.7038 137.651 52.7933C137.389 52.8795 137.177 53.0104 137.015 53.1861C136.855 53.3584 136.776 53.5937 136.776 53.892C136.776 54.2997 136.927 54.608 137.228 54.8168C137.533 55.0223 137.919 55.125 138.387 55.125ZM139.48 47.3295H138.506V46.2557C138.854 46.2358 139.099 46.1877 139.242 46.1115C139.388 46.0353 139.461 45.9176 139.461 45.7585C139.461 45.5795 139.356 45.4486 139.147 45.3658C138.939 45.2829 138.685 45.2415 138.387 45.2415L138.426 44.4858C139.113 44.4858 139.631 44.6051 139.983 44.8438C140.337 45.0824 140.515 45.4006 140.515 45.7983C140.515 46.1364 140.407 46.3833 140.191 46.5391C139.976 46.6948 139.739 46.7926 139.48 46.8324V47.3295ZM154.031 48.3636L151.207 56H150.014L147.19 48.3636H148.463L150.571 54.4489H150.65L152.758 48.3636H154.031ZM158.508 56.1591C157.772 56.1591 157.137 55.9967 156.604 55.6719C156.074 55.3438 155.664 54.8864 155.376 54.2997C155.091 53.7098 154.948 53.0237 154.948 52.2415C154.948 51.4593 155.091 50.7699 155.376 50.1733C155.664 49.5734 156.065 49.1061 156.579 48.7713C157.096 48.4332 157.699 48.2642 158.389 48.2642C158.786 48.2642 159.179 48.3305 159.567 48.4631C159.955 48.5956 160.308 48.8111 160.626 49.1094C160.944 49.4044 161.198 49.7955 161.387 50.2827C161.575 50.7699 161.67 51.3698 161.67 52.0824V52.5795H155.784V51.5653H160.477C160.477 51.1345 160.391 50.75 160.218 50.4119C160.049 50.0739 159.807 49.8071 159.492 49.6115C159.181 49.416 158.813 49.3182 158.389 49.3182C157.921 49.3182 157.517 49.4342 157.176 49.6662C156.838 49.8949 156.577 50.1932 156.395 50.5611C156.213 50.929 156.122 51.3234 156.122 51.7443V52.4205C156.122 52.9972 156.221 53.486 156.42 53.8871C156.622 54.2848 156.902 54.5881 157.26 54.7969C157.618 55.0024 158.034 55.1051 158.508 55.1051C158.816 55.1051 159.095 55.062 159.343 54.9759C159.595 54.8864 159.812 54.7538 159.994 54.5781C160.177 54.3991 160.318 54.1771 160.417 53.9119L161.551 54.2301C161.431 54.6146 161.231 54.9527 160.949 55.2443C160.667 55.5327 160.319 55.758 159.905 55.9205C159.491 56.0795 159.025 56.1591 158.508 56.1591ZM158.866 45.6193L160.894 47.429H159.463L158.329 46.375L157.195 47.429H155.764L157.772 45.6193H158.866ZM155.326 44.4062L156.281 46.2159H155.267L153.855 44.4062H155.326ZM167.392 56V48.3636H168.526V49.5568H168.625C168.784 49.1491 169.041 48.8326 169.396 48.6072C169.75 48.3786 170.176 48.2642 170.673 48.2642C171.177 48.2642 171.597 48.3786 171.931 48.6072C172.269 48.8326 172.533 49.1491 172.722 49.5568H172.801C172.997 49.1624 173.29 48.8492 173.681 48.6172C174.072 48.3819 174.541 48.2642 175.088 48.2642C175.771 48.2642 176.329 48.478 176.764 48.9055C177.198 49.3298 177.415 49.991 177.415 50.8892V56H176.242V50.8892C176.242 50.3258 176.088 49.9231 175.779 49.6811C175.471 49.4392 175.108 49.3182 174.691 49.3182C174.154 49.3182 173.738 49.4806 173.443 49.8054C173.148 50.1269 173 50.5346 173 51.0284V56H171.807V50.7699C171.807 50.3357 171.666 49.986 171.384 49.7209C171.103 49.4524 170.74 49.3182 170.296 49.3182C169.991 49.3182 169.706 49.3994 169.441 49.5618C169.179 49.7242 168.967 49.9496 168.804 50.2379C168.645 50.523 168.566 50.8527 168.566 51.2273V56H167.392ZM182.762 56.1591C182.026 56.1591 181.391 55.9967 180.858 55.6719C180.327 55.3438 179.918 54.8864 179.63 54.2997C179.345 53.7098 179.202 53.0237 179.202 52.2415C179.202 51.4593 179.345 50.7699 179.63 50.1733C179.918 49.5734 180.319 49.1061 180.833 48.7713C181.35 48.4332 181.953 48.2642 182.643 48.2642C183.04 48.2642 183.433 48.3305 183.821 48.4631C184.209 48.5956 184.562 48.8111 184.88 49.1094C185.198 49.4044 185.452 49.7955 185.64 50.2827C185.829 50.7699 185.924 51.3698 185.924 52.0824V52.5795H180.037V51.5653H184.731C184.731 51.1345 184.644 50.75 184.472 50.4119C184.303 50.0739 184.061 49.8071 183.746 49.6115C183.435 49.416 183.067 49.3182 182.643 49.3182C182.175 49.3182 181.771 49.4342 181.43 49.6662C181.091 49.8949 180.831 50.1932 180.649 50.5611C180.467 50.929 180.376 51.3234 180.376 51.7443V52.4205C180.376 52.9972 180.475 53.486 180.674 53.8871C180.876 54.2848 181.156 54.5881 181.514 54.7969C181.872 55.0024 182.288 55.1051 182.762 55.1051C183.07 55.1051 183.349 55.062 183.597 54.9759C183.849 54.8864 184.066 54.7538 184.248 54.5781C184.431 54.3991 184.572 54.1771 184.671 53.9119L185.805 54.2301C185.685 54.6146 185.485 54.9527 185.203 55.2443C184.921 55.5327 184.573 55.758 184.159 55.9205C183.745 56.0795 183.279 56.1591 182.762 56.1591ZM182.583 58.5256C182.354 58.5256 182.157 58.4477 181.991 58.2919C181.829 58.1361 181.748 57.9489 181.748 57.7301C181.748 57.5114 181.829 57.3241 181.991 57.1683C182.157 57.0125 182.354 56.9347 182.583 56.9347C182.812 56.9347 183.007 57.0125 183.17 57.1683C183.335 57.3241 183.418 57.5114 183.418 57.7301C183.418 57.9489 183.335 58.1361 183.17 58.2919C183.007 58.4477 182.812 58.5256 182.583 58.5256ZM194.748 56.1591C194.032 56.1591 193.416 55.9901 192.899 55.652C192.382 55.3139 191.984 54.8482 191.706 54.255C191.427 53.6617 191.288 52.9839 191.288 52.2216C191.288 51.446 191.431 50.7616 191.716 50.1683C192.004 49.5717 192.405 49.1061 192.919 48.7713C193.436 48.4332 194.039 48.2642 194.729 48.2642C195.265 48.2642 195.749 48.3636 196.18 48.5625C196.611 48.7614 196.964 49.0398 197.239 49.3977C197.514 49.7557 197.685 50.1733 197.751 50.6506H196.578C196.488 50.3026 196.29 49.9943 195.981 49.7259C195.676 49.4541 195.265 49.3182 194.748 49.3182C194.291 49.3182 193.89 49.4375 193.545 49.6761C193.204 49.9115 192.937 50.2446 192.745 50.6754C192.556 51.103 192.461 51.6051 192.461 52.1818C192.461 52.7718 192.554 53.2855 192.74 53.723C192.929 54.1605 193.194 54.5002 193.535 54.7422C193.88 54.9841 194.284 55.1051 194.748 55.1051C195.053 55.1051 195.33 55.0521 195.579 54.946C195.827 54.84 196.038 54.6875 196.21 54.4886C196.382 54.2898 196.505 54.0511 196.578 53.7727H197.751C197.685 54.2235 197.521 54.6295 197.259 54.9908C197.001 55.3487 196.657 55.6338 196.23 55.8459C195.806 56.0547 195.312 56.1591 194.748 56.1591ZM204.279 52.8778V48.3636H205.452V56H204.279V54.7074H204.199C204.02 55.0952 203.742 55.425 203.364 55.6967C202.986 55.9652 202.509 56.0994 201.932 56.0994C201.455 56.0994 201.031 55.995 200.66 55.7862C200.288 55.5741 199.997 55.2559 199.785 54.8317C199.573 54.4041 199.466 53.8655 199.466 53.2159V48.3636H200.64V53.1364C200.64 53.6932 200.796 54.1373 201.107 54.4688C201.422 54.8002 201.823 54.9659 202.31 54.9659C202.602 54.9659 202.898 54.8913 203.2 54.7422C203.505 54.593 203.76 54.3643 203.966 54.0561C204.175 53.7479 204.279 53.3551 204.279 52.8778ZM202.986 47.3295H202.012V46.2557C202.36 46.2358 202.605 46.1877 202.748 46.1115C202.894 46.0353 202.966 45.9176 202.966 45.7585C202.966 45.5795 202.862 45.4486 202.653 45.3658C202.444 45.2829 202.191 45.2415 201.893 45.2415L201.932 44.4858C202.618 44.4858 203.137 44.6051 203.488 44.8438C203.843 45.0824 204.02 45.4006 204.02 45.7983C204.02 46.1364 203.913 46.3833 203.697 46.5391C203.482 46.6948 203.245 46.7926 202.986 46.8324V47.3295ZM209.848 56.179C209.364 56.179 208.925 56.0878 208.531 55.9055C208.136 55.7199 207.823 55.4531 207.591 55.1051C207.359 54.7538 207.243 54.3295 207.243 53.8324C207.243 53.3949 207.329 53.0402 207.502 52.7685C207.674 52.4934 207.904 52.2779 208.193 52.1222C208.481 51.9664 208.799 51.8504 209.147 51.7741C209.499 51.6946 209.852 51.6316 210.206 51.5852C210.67 51.5256 211.047 51.4808 211.335 51.451C211.627 51.4179 211.839 51.3632 211.971 51.2869C212.107 51.2107 212.175 51.0781 212.175 50.8892V50.8494C212.175 50.3589 212.041 49.9777 211.772 49.706C211.507 49.4342 211.105 49.2983 210.564 49.2983C210.004 49.2983 209.565 49.4209 209.247 49.6662C208.929 49.9115 208.705 50.1733 208.576 50.4517L207.462 50.054C207.661 49.59 207.926 49.2287 208.257 48.9702C208.592 48.7083 208.957 48.526 209.351 48.4233C209.749 48.3172 210.14 48.2642 210.525 48.2642C210.77 48.2642 211.051 48.294 211.37 48.3537C211.691 48.41 212.001 48.5277 212.299 48.7067C212.601 48.8857 212.851 49.1558 213.05 49.517C213.249 49.8783 213.348 50.3622 213.348 50.9688V56H212.175V54.9659H212.115C212.036 55.1316 211.903 55.3089 211.718 55.4979C211.532 55.6868 211.285 55.8475 210.977 55.9801C210.669 56.1127 210.292 56.179 209.848 56.179ZM210.027 55.125C210.491 55.125 210.882 55.0339 211.201 54.8516C211.522 54.6693 211.764 54.4339 211.926 54.1456C212.092 53.8572 212.175 53.554 212.175 53.2358V52.1619C212.125 52.2216 212.016 52.2763 211.847 52.326C211.681 52.3724 211.489 52.4138 211.27 52.4503C211.055 52.4834 210.844 52.5133 210.639 52.5398C210.437 52.563 210.273 52.5829 210.147 52.5994C209.842 52.6392 209.557 52.7038 209.292 52.7933C209.03 52.8795 208.818 53.0104 208.655 53.1861C208.496 53.3584 208.417 53.5937 208.417 53.892C208.417 54.2997 208.567 54.608 208.869 54.8168C209.174 55.0223 209.56 55.125 210.027 55.125ZM222.629 56.1591C221.893 56.1591 221.259 55.9967 220.725 55.6719C220.195 55.3438 219.785 54.8864 219.497 54.2997C219.212 53.7098 219.069 53.0237 219.069 52.2415C219.069 51.4593 219.212 50.7699 219.497 50.1733C219.785 49.5734 220.186 49.1061 220.7 48.7713C221.217 48.4332 221.82 48.2642 222.51 48.2642C222.907 48.2642 223.3 48.3305 223.688 48.4631C224.076 48.5956 224.429 48.8111 224.747 49.1094C225.065 49.4044 225.319 49.7955 225.508 50.2827C225.697 50.7699 225.791 51.3698 225.791 52.0824V52.5795H219.905V51.5653H224.598C224.598 51.1345 224.512 50.75 224.339 50.4119C224.17 50.0739 223.928 49.8071 223.613 49.6115C223.302 49.416 222.934 49.3182 222.51 49.3182C222.042 49.3182 221.638 49.4342 221.297 49.6662C220.959 49.8949 220.698 50.1932 220.516 50.5611C220.334 50.929 220.243 51.3234 220.243 51.7443V52.4205C220.243 52.9972 220.342 53.486 220.541 53.8871C220.743 54.2848 221.023 54.5881 221.381 54.7969C221.739 55.0024 222.155 55.1051 222.629 55.1051C222.937 55.1051 223.216 55.062 223.464 54.9759C223.716 54.8864 223.933 54.7538 224.116 54.5781C224.298 54.3991 224.439 54.1771 224.538 53.9119L225.672 54.2301C225.552 54.6146 225.352 54.9527 225.07 55.2443C224.788 55.5327 224.44 55.758 224.026 55.9205C223.612 56.0795 223.146 56.1591 222.629 56.1591ZM227.576 56V48.3636H228.709V49.5568H228.809C228.968 49.1491 229.225 48.8326 229.579 48.6072C229.934 48.3786 230.36 48.2642 230.857 48.2642C231.361 48.2642 231.78 48.3786 232.115 48.6072C232.453 48.8326 232.716 49.1491 232.905 49.5568H232.985C233.18 49.1624 233.474 48.8492 233.865 48.6172C234.256 48.3819 234.725 48.2642 235.272 48.2642C235.955 48.2642 236.513 48.478 236.947 48.9055C237.381 49.3298 237.599 49.991 237.599 50.8892V56H236.425V50.8892C236.425 50.3258 236.271 49.9231 235.963 49.6811C235.655 49.4392 235.292 49.3182 234.874 49.3182C234.337 49.3182 233.921 49.4806 233.626 49.8054C233.331 50.1269 233.184 50.5346 233.184 51.0284V56H231.991V50.7699C231.991 50.3357 231.85 49.986 231.568 49.7209C231.286 49.4524 230.923 49.3182 230.479 49.3182C230.174 49.3182 229.889 49.3994 229.624 49.5618C229.362 49.7242 229.15 49.9496 228.988 50.2379C228.829 50.523 228.749 50.8527 228.749 51.2273V56H227.576ZM240.599 56.0795C240.354 56.0795 240.143 55.9917 239.968 55.8161C239.792 55.6404 239.704 55.4299 239.704 55.1847C239.704 54.9394 239.792 54.7289 239.968 54.5533C240.143 54.3776 240.354 54.2898 240.599 54.2898C240.844 54.2898 241.055 54.3776 241.23 54.5533C241.406 54.7289 241.494 54.9394 241.494 55.1847C241.494 55.3471 241.452 55.4962 241.369 55.6321C241.29 55.768 241.182 55.8774 241.046 55.9602C240.914 56.0398 240.765 56.0795 240.599 56.0795ZM25.375 76H22.929V74.9062H25.2955C26.1373 74.9062 26.835 74.7438 27.3885 74.419C27.942 74.0942 28.3546 73.6319 28.6264 73.032C28.8982 72.4321 29.0341 71.7178 29.0341 70.8892C29.0341 70.0672 28.8999 69.3596 28.6314 68.7663C28.3629 68.1697 27.9619 67.7124 27.4283 67.3942C26.8946 67.0727 26.2301 66.9119 25.4347 66.9119H22.8693V65.8182H25.5142C26.5019 65.8182 27.3471 66.022 28.0497 66.4297C28.7524 66.834 29.291 67.4157 29.6655 68.1747C30.04 68.9304 30.2273 69.8352 30.2273 70.8892C30.2273 71.9498 30.0384 72.8629 29.6605 73.6286C29.2827 74.3909 28.7325 74.9775 28.0099 75.3885C27.2874 75.7962 26.4091 76 25.375 76ZM23.4659 65.8182V76H22.233V65.8182H23.4659ZM20.6619 71.2074V70.2926H25.0369V71.2074H20.6619ZM32.1364 76V68.3636H33.3097V76H32.1364ZM32.733 67.0909C32.5043 67.0909 32.3071 67.013 32.1413 66.8572C31.9789 66.7015 31.8977 66.5142 31.8977 66.2955C31.8977 66.0767 31.9789 65.8894 32.1413 65.7337C32.3071 65.5779 32.5043 65.5 32.733 65.5C32.9616 65.5 33.1572 65.5779 33.3196 65.7337C33.4853 65.8894 33.5682 66.0767 33.5682 66.2955C33.5682 66.5142 33.4853 66.7015 33.3196 66.8572C33.1572 67.013 32.9616 67.0909 32.733 67.0909ZM38.6603 76.1591C37.9245 76.1591 37.2898 75.9967 36.7562 75.6719C36.2259 75.3438 35.8166 74.8864 35.5282 74.2997C35.2432 73.7098 35.1007 73.0237 35.1007 72.2415C35.1007 71.4593 35.2432 70.7699 35.5282 70.1733C35.8166 69.5734 36.2176 69.1061 36.7314 68.7713C37.2484 68.4332 37.8516 68.2642 38.541 68.2642C38.9387 68.2642 39.3315 68.3305 39.7193 68.4631C40.1071 68.5956 40.4601 68.8111 40.7782 69.1094C41.0964 69.4044 41.35 69.7955 41.5389 70.2827C41.7278 70.7699 41.8223 71.3698 41.8223 72.0824V72.5795H35.9359V71.5653H40.6291C40.6291 71.1345 40.5429 70.75 40.3706 70.4119C40.2015 70.0739 39.9596 69.8071 39.6447 69.6115C39.3332 69.416 38.9653 69.3182 38.541 69.3182C38.0737 69.3182 37.6693 69.4342 37.3279 69.6662C36.9899 69.8949 36.7297 70.1932 36.5474 70.5611C36.3651 70.929 36.274 71.3234 36.274 71.7443V72.4205C36.274 72.9972 36.3734 73.486 36.5723 73.8871C36.7744 74.2848 37.0545 74.5881 37.4125 74.7969C37.7704 75.0024 38.1864 75.1051 38.6603 75.1051C38.9686 75.1051 39.247 75.062 39.4956 74.9759C39.7475 74.8864 39.9645 74.7538 40.1468 74.5781C40.3291 74.3991 40.47 74.1771 40.5694 73.9119L41.7029 74.2301C41.5836 74.6146 41.3831 74.9527 41.1014 75.2443C40.8197 75.5327 40.4717 75.758 40.0574 75.9205C39.6431 76.0795 39.1774 76.1591 38.6603 76.1591ZM39.1575 65.7386L41.0467 67.5483H39.8137L38.4615 66.2955L37.1291 67.5483H35.8961L37.7853 65.7386H39.1575ZM41.2456 66.5938H40.4103V65.679C40.6887 65.6591 40.8942 65.6226 41.0268 65.5696C41.1594 65.5133 41.2257 65.4105 41.2257 65.2614C41.2257 65.1023 41.1362 64.9896 40.9572 64.9233C40.7815 64.857 40.5595 64.8239 40.291 64.8239L40.3308 64.1676C40.9274 64.1676 41.3781 64.2687 41.6831 64.4709C41.988 64.6731 42.1404 64.9432 42.1404 65.2812C42.1404 65.5795 42.0476 65.7966 41.862 65.9325C41.6797 66.0651 41.4743 66.1463 41.2456 66.1761V66.5938ZM43.6071 76V68.3636H44.7406V69.5568H44.84C44.9991 69.1491 45.256 68.8326 45.6106 68.6072C45.9653 68.3786 46.3912 68.2642 46.8883 68.2642C47.3921 68.2642 47.8114 68.3786 48.1461 68.6072C48.4842 68.8326 48.7477 69.1491 48.9366 69.5568H49.0162C49.2117 69.1624 49.505 68.8492 49.8961 68.6172C50.2872 68.3819 50.7562 68.2642 51.3031 68.2642C51.9859 68.2642 52.5443 68.478 52.9785 68.9055C53.4127 69.3298 53.6298 69.991 53.6298 70.8892V76H52.4565V70.8892C52.4565 70.3258 52.3024 69.9231 51.9941 69.6811C51.6859 69.4392 51.323 69.3182 50.9054 69.3182C50.3684 69.3182 49.9525 69.4806 49.6575 69.8054C49.3625 70.1269 49.215 70.5346 49.215 71.0284V76H48.0218V70.7699C48.0218 70.3357 47.881 69.986 47.5993 69.7209C47.3175 69.4524 46.9546 69.3182 46.5105 69.3182C46.2056 69.3182 45.9205 69.3994 45.6554 69.5618C45.3935 69.7242 45.1814 69.9496 45.019 70.2379C44.8599 70.523 44.7804 70.8527 44.7804 71.2273V76H43.6071ZM56.6301 76.0795C56.3849 76.0795 56.1744 75.9917 55.9988 75.8161C55.8231 75.6404 55.7353 75.4299 55.7353 75.1847C55.7353 74.9394 55.8231 74.7289 55.9988 74.5533C56.1744 74.3776 56.3849 74.2898 56.6301 74.2898C56.8754 74.2898 57.0859 74.3776 57.2615 74.5533C57.4372 74.7289 57.525 74.9394 57.525 75.1847C57.525 75.3471 57.4836 75.4962 57.4007 75.6321C57.3212 75.768 57.2135 75.8774 57.0776 75.9602C56.945 76.0398 56.7959 76.0795 56.6301 76.0795ZM56.6301 70.4119C56.3849 70.4119 56.1744 70.3241 55.9988 70.1484C55.8231 69.9728 55.7353 69.7623 55.7353 69.517C55.7353 69.2718 55.8231 69.0613 55.9988 68.8857C56.1744 68.71 56.3849 68.6222 56.6301 68.6222C56.8754 68.6222 57.0859 68.71 57.2615 68.8857C57.4372 69.0613 57.525 69.2718 57.525 69.517C57.525 69.6795 57.4836 69.8286 57.4007 69.9645C57.3212 70.1004 57.2135 70.2098 57.0776 70.2926C56.945 70.3722 56.7959 70.4119 56.6301 70.4119Z" fill="#0F172A"/>
<path d="M66.7896 65.679C67.2072 65.6823 67.6248 65.7618 68.0424 65.9176C68.4601 66.0734 68.8412 66.3319 69.1859 66.6932C69.5306 67.0511 69.8074 67.54 70.0162 68.1598C70.225 68.7796 70.3294 69.5568 70.3294 70.4915C70.3294 71.3963 70.2432 72.2 70.0708 72.9027C69.9018 73.602 69.6565 74.192 69.335 74.6726C69.0169 75.1532 68.6291 75.5178 68.1717 75.7663C67.7176 76.0149 67.2039 76.1392 66.6305 76.1392C66.0604 76.1392 65.5517 76.0265 65.1042 75.8011C64.6601 75.5724 64.2955 75.2559 64.0105 74.8516C63.7288 74.4439 63.5481 73.9716 63.4686 73.4347H64.6816C64.791 73.902 65.0081 74.2881 65.3329 74.593C65.661 74.8946 66.0936 75.0455 66.6305 75.0455C67.416 75.0455 68.0358 74.7024 68.4899 74.0163C68.9473 73.3303 69.176 72.3608 69.176 71.108H69.0964C68.9108 71.3864 68.6904 71.6267 68.4352 71.8288C68.18 72.031 67.8966 72.1868 67.585 72.2962C67.2735 72.4055 66.9421 72.4602 66.5907 72.4602C66.0074 72.4602 65.4721 72.3161 64.9849 72.0277C64.501 71.736 64.1132 71.3366 63.8216 70.8295C63.5332 70.3191 63.389 69.7358 63.389 69.0795C63.389 68.4564 63.5282 67.8864 63.8066 67.3693C64.0884 66.849 64.4828 66.4347 64.9899 66.1264C65.5003 65.8182 66.1002 65.669 66.7896 65.679ZM66.7896 66.7727C66.372 66.7727 65.9958 66.8771 65.661 67.0859C65.3296 67.2914 65.0661 67.5698 64.8706 67.9212C64.6783 68.2692 64.5822 68.6553 64.5822 69.0795C64.5822 69.5038 64.675 69.8899 64.8606 70.2379C65.0495 70.5826 65.3064 70.8577 65.6312 71.0632C65.9593 71.2654 66.3322 71.3665 66.7498 71.3665C67.0647 71.3665 67.358 71.3052 67.6298 71.1825C67.9016 71.0566 68.1386 70.8859 68.3407 70.6705C68.5462 70.4517 68.707 70.2048 68.823 69.9297C68.939 69.6513 68.997 69.3613 68.997 69.0597C68.997 68.6619 68.9009 68.2891 68.7086 67.9411C68.5197 67.593 68.2579 67.3113 67.9231 67.0959C67.5917 66.8804 67.2138 66.7727 66.7896 66.7727ZM79.1254 76.1591C78.489 76.1591 77.9272 75.9983 77.44 75.6768C76.9528 75.352 76.5716 74.8946 76.2965 74.3047C76.0214 73.7114 75.8839 73.0104 75.8839 72.2017C75.8839 71.3996 76.0214 70.7036 76.2965 70.1136C76.5716 69.5237 76.9544 69.0679 77.445 68.7464C77.9355 68.425 78.5022 68.2642 79.1452 68.2642C79.6424 68.2642 80.0352 68.3471 80.3235 68.5128C80.6152 68.6752 80.8372 68.8608 80.9897 69.0696C81.1455 69.2751 81.2665 69.4441 81.3526 69.5767H81.4521V65.8182H82.6254V76H81.4918V74.8267H81.3526C81.2665 74.9659 81.1438 75.1416 80.9847 75.3537C80.8256 75.5625 80.5986 75.7498 80.3036 75.9155C80.0086 76.0779 79.6159 76.1591 79.1254 76.1591ZM79.2844 75.1051C79.7551 75.1051 80.1528 74.9825 80.4776 74.7372C80.8024 74.4886 81.0494 74.1456 81.2184 73.7081C81.3874 73.2673 81.4719 72.7585 81.4719 72.1818C81.4719 71.6117 81.3891 71.1129 81.2234 70.6854C81.0576 70.2545 80.8124 69.9197 80.4876 69.6811C80.1628 69.4392 79.7617 69.3182 79.2844 69.3182C78.7873 69.3182 78.373 69.4458 78.0415 69.701C77.7134 69.9529 77.4665 70.2959 77.3008 70.7301C77.1384 71.161 77.0572 71.6449 77.0572 72.1818C77.0572 72.7254 77.14 73.2192 77.3058 73.6634C77.4748 74.1042 77.7234 74.4555 78.0515 74.7173C78.3829 74.9759 78.7939 75.1051 79.2844 75.1051ZM79.3441 67.7074V66.7926H83.7191V67.7074H79.3441ZM85.4157 76V68.3636H86.589V76H85.4157ZM86.0123 67.0909C85.7836 67.0909 85.5864 67.013 85.4206 66.8572C85.2582 66.7015 85.177 66.5142 85.177 66.2955C85.177 66.0767 85.2582 65.8894 85.4206 65.7337C85.5864 65.5779 85.7836 65.5 86.0123 65.5C86.2409 65.5 86.4365 65.5779 86.5989 65.7337C86.7646 65.8894 86.8475 66.0767 86.8475 66.2955C86.8475 66.5142 86.7646 66.7015 86.5989 66.8572C86.4365 67.013 86.2409 67.0909 86.0123 67.0909ZM91.9396 76.1591C91.2038 76.1591 90.5691 75.9967 90.0355 75.6719C89.5052 75.3438 89.0959 74.8864 88.8075 74.2997C88.5225 73.7098 88.38 73.0237 88.38 72.2415C88.38 71.4593 88.5225 70.7699 88.8075 70.1733C89.0959 69.5734 89.4969 69.1061 90.0107 68.7713C90.5277 68.4332 91.1309 68.2642 91.8203 68.2642C92.218 68.2642 92.6108 68.3305 92.9986 68.4631C93.3864 68.5956 93.7393 68.8111 94.0575 69.1094C94.3757 69.4044 94.6293 69.7955 94.8182 70.2827C95.0071 70.7699 95.1016 71.3698 95.1016 72.0824V72.5795H89.2152V71.5653H93.9084C93.9084 71.1345 93.8222 70.75 93.6499 70.4119C93.4808 70.0739 93.2389 69.8071 92.924 69.6115C92.6125 69.416 92.2446 69.3182 91.8203 69.3182C91.353 69.3182 90.9486 69.4342 90.6072 69.6662C90.2692 69.8949 90.009 70.1932 89.8267 70.5611C89.6444 70.929 89.5533 71.3234 89.5533 71.7443V72.4205C89.5533 72.9972 89.6527 73.486 89.8516 73.8871C90.0537 74.2848 90.3338 74.5881 90.6918 74.7969C91.0497 75.0024 91.4657 75.1051 91.9396 75.1051C92.2479 75.1051 92.5263 75.062 92.7749 74.9759C93.0268 74.8864 93.2438 74.7538 93.4261 74.5781C93.6084 74.3991 93.7493 74.1771 93.8487 73.9119L94.9822 74.2301C94.8629 74.6146 94.6624 74.9527 94.3807 75.2443C94.099 75.5327 93.7509 75.758 93.3366 75.9205C92.9223 76.0795 92.4567 76.1591 91.9396 76.1591ZM92.4368 65.7386L94.326 67.5483H93.093L91.7408 66.2955L90.4084 67.5483H89.1754L91.0646 65.7386H92.4368ZM94.5249 66.5938H93.6896V65.679C93.968 65.6591 94.1735 65.6226 94.3061 65.5696C94.4387 65.5133 94.505 65.4105 94.505 65.2614C94.505 65.1023 94.4155 64.9896 94.2365 64.9233C94.0608 64.857 93.8388 64.8239 93.5703 64.8239L93.6101 64.1676C94.2067 64.1676 94.6574 64.2687 94.9624 64.4709C95.2673 64.6731 95.4197 64.9432 95.4197 65.2812C95.4197 65.5795 95.3269 65.7966 95.1413 65.9325C94.959 66.0651 94.7536 66.1463 94.5249 66.1761V66.5938ZM96.8864 76V68.3636H98.0199V69.5568H98.1193C98.2784 69.1491 98.5353 68.8326 98.8899 68.6072C99.2446 68.3786 99.6705 68.2642 100.168 68.2642C100.671 68.2642 101.091 68.3786 101.425 68.6072C101.763 68.8326 102.027 69.1491 102.216 69.5568H102.295C102.491 69.1624 102.784 68.8492 103.175 68.6172C103.567 68.3819 104.036 68.2642 104.582 68.2642C105.265 68.2642 105.824 68.478 106.258 68.9055C106.692 69.3298 106.909 69.991 106.909 70.8892V76H105.736V70.8892C105.736 70.3258 105.582 69.9231 105.273 69.6811C104.965 69.4392 104.602 69.3182 104.185 69.3182C103.648 69.3182 103.232 69.4806 102.937 69.8054C102.642 70.1269 102.494 70.5346 102.494 71.0284V76H101.301V70.7699C101.301 70.3357 101.16 69.986 100.879 69.7209C100.597 69.4524 100.234 69.3182 99.7898 69.3182C99.4848 69.3182 99.1998 69.3994 98.9347 69.5618C98.6728 69.7242 98.4607 69.9496 98.2983 70.2379C98.1392 70.523 98.0597 70.8527 98.0597 71.2273V76H96.8864Z" fill="#F31414"/>
<path d="M33.6667 87.6667H24.3333C23.597 87.6667 23 88.2637 23 89.0001V98.3334C23 99.0698 23.597 99.6667 24.3333 99.6667H33.6667C34.403 99.6667 35 99.0698 35 98.3334V89.0001C35 88.2637 34.403 87.6667 33.6667 87.6667Z" stroke="#64748B" stroke-width="1.33333" stroke-linecap="round" stroke-linejoin="round"/>
<path d="M31.6667 86.3333V88.9999" stroke="#64748B" stroke-width="1.33333" stroke-linecap="round" stroke-linejoin="round"/>
<path d="M26.3333 86.3333V88.9999" stroke="#64748B" stroke-width="1.33333" stroke-linecap="round" stroke-linejoin="round"/>
<path d="M23 91.6667H35" stroke="#64748B" stroke-width="1.33333" stroke-linecap="round" stroke-linejoin="round"/>
<path d="M26.3333 94.3333H26.3433" stroke="#64748B" stroke-width="1.33333" stroke-linecap="round" stroke-linejoin="round"/>
<path d="M29 94.3333H29.01" stroke="#64748B" stroke-width="1.33333" stroke-linecap="round" stroke-linejoin="round"/>
<path d="M31.6667 94.3333H31.6767" stroke="#64748B" stroke-width="1.33333" stroke-linecap="round" stroke-linejoin="round"/>
<path d="M26.3333 97H26.3433" stroke="#64748B" stroke-width="1.33333" stroke-linecap="round" stroke-linejoin="round"/>
<path d="M29 97H29.01" stroke="#64748B" stroke-width="1.33333" stroke-linecap="round" stroke-linejoin="round"/>
<path d="M31.6667 97H31.6767" stroke="#64748B" stroke-width="1.33333" stroke-linecap="round" stroke-linejoin="round"/>
<path d="M48.9773 88.2727V97H47.9545L43.1989 90.1477H43.1136V97H42.0568V88.2727H43.0795L47.8523 95.142H47.9375V88.2727H48.9773ZM53.5977 99.5909C53.1119 99.5909 52.6942 99.5284 52.3448 99.4034C51.9954 99.2812 51.7042 99.1193 51.4712 98.9176C51.2411 98.7188 51.0579 98.5057 50.9215 98.2784L51.7227 97.7159C51.8136 97.8352 51.9286 97.9716 52.0678 98.125C52.207 98.2812 52.3974 98.4162 52.6388 98.5298C52.8832 98.6463 53.2028 98.7045 53.5977 98.7045C54.1261 98.7045 54.5621 98.5767 54.9059 98.321C55.2496 98.0653 55.4215 97.6648 55.4215 97.1193V95.7898H55.3363C55.2624 95.9091 55.1573 96.0568 55.021 96.233C54.8874 96.4062 54.6942 96.5611 54.4414 96.6974C54.1914 96.831 53.8533 96.8977 53.4272 96.8977C52.8988 96.8977 52.4244 96.7727 52.0039 96.5227C51.5863 96.2727 51.2553 95.9091 51.011 95.4318C50.7695 94.9545 50.6488 94.375 50.6488 93.6932C50.6488 93.0227 50.7667 92.4389 51.0025 91.9418C51.2383 91.4418 51.5664 91.0554 51.9869 90.7827C52.4073 90.5071 52.8931 90.3693 53.4442 90.3693C53.8704 90.3693 54.2085 90.4403 54.4585 90.5824C54.7113 90.7216 54.9045 90.8807 55.038 91.0597C55.1744 91.2358 55.2795 91.3807 55.3533 91.4943H55.4556V90.4545H56.4272V97.1875C56.4272 97.75 56.2994 98.2074 56.0437 98.5597C55.7908 98.9148 55.4499 99.1747 55.021 99.3395C54.5948 99.5071 54.1204 99.5909 53.5977 99.5909ZM53.5636 95.9943C53.967 95.9943 54.3079 95.902 54.5863 95.7173C54.8647 95.5327 55.0763 95.267 55.2212 94.9205C55.3661 94.5739 55.4386 94.1591 55.4386 93.6761C55.4386 93.2045 55.3675 92.7884 55.2255 92.4276C55.0835 92.0668 54.8732 91.7841 54.5948 91.5795C54.3164 91.375 53.9727 91.2727 53.5636 91.2727C53.1374 91.2727 52.7823 91.3807 52.4982 91.5966C52.217 91.8125 52.0053 92.1023 51.8633 92.4659C51.7241 92.8295 51.6545 93.233 51.6545 93.6761C51.6545 94.1307 51.7255 94.5327 51.8675 94.8821C52.0124 95.2287 52.2255 95.5014 52.5067 95.7003C52.7908 95.8963 53.1431 95.9943 53.5636 95.9943ZM60.1942 97.1534C59.7795 97.1534 59.4031 97.0753 59.065 96.919C58.7269 96.7599 58.4585 96.5312 58.2596 96.233C58.0607 95.9318 57.9613 95.5682 57.9613 95.142C57.9613 94.767 58.0352 94.4631 58.1829 94.2301C58.3306 93.9943 58.5281 93.8097 58.7752 93.6761C59.0224 93.5426 59.2951 93.4432 59.5934 93.3778C59.8945 93.3097 60.1971 93.2557 60.5011 93.2159C60.8988 93.1648 61.2212 93.1264 61.4684 93.1009C61.7184 93.0724 61.9002 93.0256 62.0138 92.9602C62.1303 92.8949 62.1886 92.7812 62.1886 92.6193V92.5852C62.1886 92.1648 62.0735 91.8381 61.8434 91.6051C61.6161 91.3722 61.271 91.2557 60.8079 91.2557C60.3278 91.2557 59.9513 91.3608 59.6786 91.571C59.4059 91.7812 59.2141 92.0057 59.1033 92.2443L58.1488 91.9034C58.3192 91.5057 58.5465 91.196 58.8306 90.9744C59.1175 90.75 59.43 90.5937 59.7681 90.5057C60.109 90.4148 60.4442 90.3693 60.7738 90.3693C60.984 90.3693 61.2255 90.3949 61.4982 90.446C61.7738 90.4943 62.0394 90.5952 62.2951 90.7486C62.5536 90.902 62.7681 91.1335 62.9386 91.4432C63.109 91.7528 63.1942 92.1676 63.1942 92.6875V97H62.1886V96.1136H62.1374C62.0692 96.2557 61.9556 96.4077 61.7965 96.5696C61.6374 96.7315 61.4258 96.8693 61.1616 96.983C60.8974 97.0966 60.5749 97.1534 60.1942 97.1534ZM60.3477 96.25C60.7454 96.25 61.0806 96.1719 61.3533 96.0156C61.6289 95.8594 61.8363 95.6577 61.9755 95.4105C62.1175 95.1634 62.1886 94.9034 62.1886 94.6307V93.7102C62.146 93.7614 62.0522 93.8082 61.9073 93.8509C61.7653 93.8906 61.6005 93.9261 61.413 93.9574C61.2283 93.9858 61.0479 94.0114 60.8718 94.0341C60.6985 94.054 60.5579 94.071 60.4499 94.0852C60.1886 94.1193 59.9442 94.1747 59.717 94.2514C59.4925 94.3253 59.3107 94.4375 59.1715 94.5881C59.0352 94.7358 58.967 94.9375 58.967 95.1932C58.967 95.5426 59.0962 95.8068 59.3548 95.9858C59.6161 96.1619 59.9471 96.25 60.3477 96.25ZM60.4158 89.5682L59.0863 87.5909H60.2624L61.3022 89.5682H60.4158ZM65.4432 99.4545C65.2727 99.4545 65.1207 99.4403 64.9872 99.4119C64.8537 99.3864 64.7614 99.3608 64.7102 99.3352L64.9659 98.4489C65.2102 98.5114 65.4261 98.5341 65.6136 98.517C65.8011 98.5 65.9673 98.4162 66.1122 98.2656C66.2599 98.1179 66.3949 97.8778 66.517 97.5455L66.7045 97.0341L64.2841 90.4545H65.375L67.1818 95.6705H67.25L69.0568 90.4545H70.1477L67.3693 97.9545C67.2443 98.2926 67.0895 98.5724 66.9048 98.794C66.7202 99.0185 66.5057 99.1847 66.2614 99.2926C66.0199 99.4006 65.7472 99.4545 65.4432 99.4545ZM77.5092 97.1364C76.8956 97.1364 76.3672 96.9915 75.924 96.7017C75.4808 96.4119 75.1399 96.0128 74.9013 95.5043C74.6626 94.9957 74.5433 94.4148 74.5433 93.7614C74.5433 93.0966 74.6655 92.5099 74.9098 92.0014C75.157 91.4901 75.5007 91.0909 75.9411 90.804C76.3842 90.5142 76.9013 90.3693 77.4922 90.3693C77.9524 90.3693 78.3672 90.4545 78.7365 90.625C79.1058 90.7955 79.4084 91.0341 79.6442 91.3409C79.88 91.6477 80.0263 92.0057 80.0831 92.4148H79.0774C79.0007 92.1165 78.8303 91.8523 78.5661 91.6222C78.3047 91.3892 77.9524 91.2727 77.5092 91.2727C77.1172 91.2727 76.7734 91.375 76.478 91.5795C76.1854 91.7812 75.9567 92.0668 75.7919 92.4361C75.63 92.8026 75.549 93.233 75.549 93.7273C75.549 94.233 75.6286 94.6733 75.7876 95.0483C75.9496 95.4233 76.1768 95.7145 76.4695 95.9219C76.7649 96.1293 77.1115 96.233 77.5092 96.233C77.7706 96.233 78.0078 96.1875 78.2209 96.0966C78.4339 96.0057 78.6143 95.875 78.7621 95.7045C78.9098 95.5341 79.0149 95.3295 79.0774 95.0909H80.0831C80.0263 95.4773 79.8857 95.8253 79.6612 96.1349C79.4396 96.4418 79.1456 96.6861 78.7791 96.8679C78.4155 97.0469 77.9922 97.1364 77.5092 97.1364ZM82.5589 93.0625V97H81.5533V88.2727H82.5589V91.4773H82.6442C82.7976 91.1392 83.0277 90.8707 83.3345 90.6719C83.6442 90.4702 84.0561 90.3693 84.5703 90.3693C85.0163 90.3693 85.407 90.4588 85.7422 90.6378C86.0774 90.8139 86.3374 91.0852 86.522 91.4517C86.7095 91.8153 86.8033 92.2784 86.8033 92.8409V97H85.7976V92.9091C85.7976 92.3892 85.6626 91.9872 85.3928 91.7031C85.1257 91.4162 84.755 91.2727 84.2805 91.2727C83.951 91.2727 83.6555 91.3423 83.3942 91.4815C83.1357 91.6207 82.9311 91.8239 82.7805 92.0909C82.6328 92.358 82.5589 92.6818 82.5589 93.0625ZM90.5692 97.1534C90.1545 97.1534 89.7781 97.0753 89.44 96.919C89.1019 96.7599 88.8335 96.5312 88.6346 96.233C88.4357 95.9318 88.3363 95.5682 88.3363 95.142C88.3363 94.767 88.4102 94.4631 88.5579 94.2301C88.7056 93.9943 88.9031 93.8097 89.1502 93.6761C89.3974 93.5426 89.6701 93.4432 89.9684 93.3778C90.2695 93.3097 90.5721 93.2557 90.8761 93.2159C91.2738 93.1648 91.5962 93.1264 91.8434 93.1009C92.0934 93.0724 92.2752 93.0256 92.3888 92.9602C92.5053 92.8949 92.5636 92.7812 92.5636 92.6193V92.5852C92.5636 92.1648 92.4485 91.8381 92.2184 91.6051C91.9911 91.3722 91.646 91.2557 91.1829 91.2557C90.7028 91.2557 90.3263 91.3608 90.0536 91.571C89.7809 91.7812 89.5891 92.0057 89.4783 92.2443L88.5238 91.9034C88.6942 91.5057 88.9215 91.196 89.2056 90.9744C89.4925 90.75 89.805 90.5937 90.1431 90.5057C90.484 90.4148 90.8192 90.3693 91.1488 90.3693C91.359 90.3693 91.6005 90.3949 91.8732 90.446C92.1488 90.4943 92.4144 90.5952 92.6701 90.7486C92.9286 90.902 93.1431 91.1335 93.3136 91.4432C93.484 91.7528 93.5692 92.1676 93.5692 92.6875V97H92.5636V96.1136H92.5124C92.4442 96.2557 92.3306 96.4077 92.1715 96.5696C92.0124 96.7315 91.8008 96.8693 91.5366 96.983C91.2724 97.0966 90.9499 97.1534 90.5692 97.1534ZM90.7227 96.25C91.1204 96.25 91.4556 96.1719 91.7283 96.0156C92.0039 95.8594 92.2113 95.6577 92.3505 95.4105C92.4925 95.1634 92.5636 94.9034 92.5636 94.6307V93.7102C92.521 93.7614 92.4272 93.8082 92.2823 93.8509C92.1403 93.8906 91.9755 93.9261 91.788 93.9574C91.6033 93.9858 91.4229 94.0114 91.2468 94.0341C91.0735 94.054 90.9329 94.071 90.8249 94.0852C90.5636 94.1193 90.3192 94.1747 90.092 94.2514C89.8675 94.3253 89.6857 94.4375 89.5465 94.5881C89.4102 94.7358 89.342 94.9375 89.342 95.1932C89.342 95.5426 89.4712 95.8068 89.7298 95.9858C89.9911 96.1619 90.3221 96.25 90.7227 96.25ZM89.0181 89.6364L90.7567 88.0852H91.6942L93.4329 89.6364H92.2056L91.234 88.733L90.2624 89.6364H89.0181ZM92.9727 88.5966L93.8079 87.0625H95.0522L93.859 88.5966H92.9727ZM95.4048 97V90.4545H96.3764V91.4773H96.4616C96.598 91.1278 96.8182 90.8565 97.1222 90.6634C97.4261 90.4673 97.7912 90.3693 98.2173 90.3693C98.6491 90.3693 99.0085 90.4673 99.2955 90.6634C99.5852 90.8565 99.8111 91.1278 99.973 91.4773H100.041C100.209 91.1392 100.46 90.8707 100.795 90.6719C101.131 90.4702 101.533 90.3693 102.001 90.3693C102.587 90.3693 103.065 90.5526 103.438 90.919C103.81 91.2827 103.996 91.8494 103.996 92.6193V97H102.99V92.6193C102.99 92.1364 102.858 91.7912 102.594 91.5838C102.33 91.3764 102.018 91.2727 101.661 91.2727C101.2 91.2727 100.844 91.4119 100.591 91.6903C100.338 91.9659 100.212 92.3153 100.212 92.7386V97H99.1889V92.517C99.1889 92.1449 99.0682 91.8452 98.8267 91.6179C98.5852 91.3878 98.2741 91.2727 97.8935 91.2727C97.6321 91.2727 97.3878 91.3423 97.1605 91.4815C96.9361 91.6207 96.7543 91.8139 96.6151 92.0611C96.4787 92.3054 96.4105 92.5881 96.4105 92.9091V97H95.4048ZM106.567 97.0682C106.357 97.0682 106.177 96.9929 106.026 96.8423C105.876 96.6918 105.8 96.5114 105.8 96.3011C105.8 96.0909 105.876 95.9105 106.026 95.7599C106.177 95.6094 106.357 95.5341 106.567 95.5341C106.778 95.5341 106.958 95.6094 107.109 95.7599C107.259 95.9105 107.335 96.0909 107.335 96.3011C107.335 96.4403 107.299 96.5682 107.228 96.6847C107.16 96.8011 107.067 96.8949 106.951 96.9659C106.837 97.0341 106.71 97.0682 106.567 97.0682ZM106.567 92.2102C106.357 92.2102 106.177 92.1349 106.026 91.9844C105.876 91.8338 105.8 91.6534 105.8 91.4432C105.8 91.233 105.876 91.0526 106.026 90.902C106.177 90.7514 106.357 90.6761 106.567 90.6761C106.778 90.6761 106.958 90.7514 107.109 90.902C107.259 91.0526 107.335 91.233 107.335 91.4432C107.335 91.5824 107.299 91.7102 107.228 91.8267C107.16 91.9432 107.067 92.0369 106.951 92.108C106.837 92.1761 106.71 92.2102 106.567 92.2102ZM115.565 88.2727V97H114.509V89.3807H114.457L112.327 90.7955V89.7216L114.509 88.2727H115.565ZM120.973 97.1193C120.615 97.1136 120.257 97.0455 119.899 96.9148C119.541 96.7841 119.214 96.5639 118.919 96.2543C118.624 95.9418 118.386 95.5199 118.207 94.9886C118.028 94.4545 117.939 93.7841 117.939 92.9773C117.939 92.2045 118.011 91.5199 118.156 90.9233C118.301 90.3239 118.511 89.8196 118.787 89.4105C119.063 88.9986 119.395 88.6861 119.784 88.473C120.176 88.2599 120.618 88.1534 121.109 88.1534C121.598 88.1534 122.033 88.2514 122.413 88.4474C122.797 88.6406 123.109 88.9105 123.351 89.2571C123.592 89.6037 123.749 90.0028 123.82 90.4545H122.78C122.683 90.0625 122.496 89.7372 122.217 89.4787C121.939 89.2202 121.57 89.0909 121.109 89.0909C120.433 89.0909 119.901 89.3849 119.511 89.973C119.125 90.5611 118.93 91.3864 118.928 92.4489H118.996C119.155 92.2074 119.344 92.0014 119.562 91.831C119.784 91.6577 120.028 91.5241 120.295 91.4304C120.563 91.3366 120.845 91.2898 121.143 91.2898C121.643 91.2898 122.101 91.4148 122.516 91.6648C122.93 91.9119 123.263 92.2543 123.513 92.6918C123.763 93.1264 123.888 93.625 123.888 94.1875C123.888 94.7273 123.767 95.2216 123.526 95.6705C123.284 96.1165 122.945 96.4716 122.507 96.7358C122.072 96.9972 121.561 97.125 120.973 97.1193ZM120.973 96.1818C121.331 96.1818 121.652 96.0923 121.936 95.9134C122.223 95.7344 122.449 95.4943 122.614 95.1932C122.781 94.892 122.865 94.5568 122.865 94.1875C122.865 93.8267 122.784 93.4986 122.622 93.2031C122.463 92.9048 122.243 92.6676 121.962 92.4915C121.683 92.3153 121.365 92.2273 121.007 92.2273C120.737 92.2273 120.486 92.2812 120.253 92.3892C120.02 92.4943 119.815 92.6392 119.639 92.8239C119.466 93.0085 119.33 93.2202 119.23 93.4588C119.131 93.6946 119.081 93.9432 119.081 94.2045C119.081 94.5511 119.162 94.875 119.324 95.1761C119.489 95.4773 119.713 95.7202 119.997 95.9048C120.284 96.0895 120.609 96.1818 120.973 96.1818ZM128.666 87.8636L125.853 98.3125H124.933L127.745 87.8636H128.666ZM132.688 97.1193C132.045 97.1193 131.499 96.9446 131.047 96.5952C130.595 96.2429 130.25 95.733 130.011 95.0653C129.773 94.3949 129.653 93.5852 129.653 92.6364C129.653 91.6932 129.773 90.8878 130.011 90.2202C130.253 89.5497 130.599 89.0384 131.051 88.6861C131.506 88.331 132.051 88.1534 132.688 88.1534C133.324 88.1534 133.868 88.331 134.32 88.6861C134.774 89.0384 135.121 89.5497 135.359 90.2202C135.601 90.8878 135.722 91.6932 135.722 92.6364C135.722 93.5852 135.602 94.3949 135.364 95.0653C135.125 95.733 134.78 96.2429 134.328 96.5952C133.876 96.9446 133.33 97.1193 132.688 97.1193ZM132.688 96.1818C133.324 96.1818 133.818 95.875 134.17 95.2614C134.523 94.6477 134.699 93.7727 134.699 92.6364C134.699 91.8807 134.618 91.2372 134.456 90.706C134.297 90.1747 134.067 89.7699 133.766 89.4915C133.467 89.2131 133.108 89.0739 132.688 89.0739C132.057 89.0739 131.564 89.3849 131.209 90.0071C130.854 90.6264 130.676 91.5028 130.676 92.6364C130.676 93.392 130.756 94.0341 130.915 94.5625C131.074 95.0909 131.303 95.4929 131.601 95.7685C131.902 96.044 132.264 96.1818 132.688 96.1818ZM137.341 97V96.233L140.222 93.0795C140.56 92.7102 140.838 92.3892 141.057 92.1165C141.276 91.8409 141.438 91.5824 141.543 91.3409C141.651 91.0966 141.705 90.8409 141.705 90.5739C141.705 90.267 141.631 90.0014 141.483 89.777C141.338 89.5526 141.139 89.3793 140.886 89.2571C140.634 89.1349 140.349 89.0739 140.034 89.0739C139.699 89.0739 139.406 89.1435 139.156 89.2827C138.909 89.419 138.717 89.6108 138.581 89.858C138.447 90.1051 138.381 90.3949 138.381 90.7273H137.375C137.375 90.2159 137.493 89.767 137.729 89.3807C137.964 88.9943 138.286 88.6932 138.692 88.4773C139.101 88.2614 139.56 88.1534 140.068 88.1534C140.58 88.1534 141.033 88.2614 141.428 88.4773C141.822 88.6932 142.132 88.9844 142.357 89.3509C142.581 89.7173 142.693 90.125 142.693 90.5739C142.693 90.8949 142.635 91.2088 142.518 91.5156C142.405 91.8196 142.206 92.1591 141.922 92.5341C141.641 92.9062 141.25 93.3608 140.75 93.8977L138.79 95.9943V96.0625H142.847V97H137.341ZM147.709 87.8636L144.896 98.3125H143.976L146.788 87.8636H147.709ZM148.884 97V96.233L151.765 93.0795C152.103 92.7102 152.381 92.3892 152.6 92.1165C152.819 91.8409 152.98 91.5824 153.086 91.3409C153.194 91.0966 153.248 90.8409 153.248 90.5739C153.248 90.267 153.174 90.0014 153.026 89.777C152.881 89.5526 152.682 89.3793 152.429 89.2571C152.176 89.1349 151.892 89.0739 151.577 89.0739C151.242 89.0739 150.949 89.1435 150.699 89.2827C150.452 89.419 150.26 89.6108 150.124 89.858C149.99 90.1051 149.924 90.3949 149.924 90.7273H148.918C148.918 90.2159 149.036 89.767 149.272 89.3807C149.507 88.9943 149.828 88.6932 150.235 88.4773C150.644 88.2614 151.103 88.1534 151.611 88.1534C152.123 88.1534 152.576 88.2614 152.971 88.4773C153.365 88.6932 153.675 88.9844 153.9 89.3509C154.124 89.7173 154.236 90.125 154.236 90.5739C154.236 90.8949 154.178 91.2088 154.061 91.5156C153.948 91.8196 153.749 92.1591 153.465 92.5341C153.184 92.9062 152.793 93.3608 152.293 93.8977L150.333 95.9943V96.0625H154.39V97H148.884ZM158.996 97.1193C158.354 97.1193 157.807 96.9446 157.355 96.5952C156.904 96.2429 156.559 95.733 156.32 95.0653C156.081 94.3949 155.962 93.5852 155.962 92.6364C155.962 91.6932 156.081 90.8878 156.32 90.2202C156.561 89.5497 156.908 89.0384 157.36 88.6861C157.814 88.331 158.36 88.1534 158.996 88.1534C159.632 88.1534 160.176 88.331 160.628 88.6861C161.083 89.0384 161.429 89.5497 161.668 90.2202C161.909 90.8878 162.03 91.6932 162.03 92.6364C162.03 93.5852 161.911 94.3949 161.672 95.0653C161.434 95.733 161.088 96.2429 160.637 96.5952C160.185 96.9446 159.638 97.1193 158.996 97.1193ZM158.996 96.1818C159.632 96.1818 160.127 95.875 160.479 95.2614C160.831 94.6477 161.007 93.7727 161.007 92.6364C161.007 91.8807 160.926 91.2372 160.765 90.706C160.605 90.1747 160.375 89.7699 160.074 89.4915C159.776 89.2131 159.417 89.0739 158.996 89.0739C158.365 89.0739 157.873 89.3849 157.517 90.0071C157.162 90.6264 156.985 91.5028 156.985 92.6364C156.985 93.392 157.064 94.0341 157.223 94.5625C157.382 95.0909 157.611 95.4929 157.909 95.7685C158.211 96.044 158.573 96.1818 158.996 96.1818ZM163.65 97V96.233L166.53 93.0795C166.868 92.7102 167.147 92.3892 167.365 92.1165C167.584 91.8409 167.746 91.5824 167.851 91.3409C167.959 91.0966 168.013 90.8409 168.013 90.5739C168.013 90.267 167.939 90.0014 167.792 89.777C167.647 89.5526 167.448 89.3793 167.195 89.2571C166.942 89.1349 166.658 89.0739 166.343 89.0739C166.007 89.0739 165.715 89.1435 165.465 89.2827C165.218 89.419 165.026 89.6108 164.89 89.858C164.756 90.1051 164.689 90.3949 164.689 90.7273H163.684C163.684 90.2159 163.801 89.767 164.037 89.3807C164.273 88.9943 164.594 88.6932 165 88.4773C165.409 88.2614 165.868 88.1534 166.377 88.1534C166.888 88.1534 167.341 88.2614 167.736 88.4773C168.131 88.6932 168.441 88.9844 168.665 89.3509C168.89 89.7173 169.002 90.125 169.002 90.5739C169.002 90.8949 168.944 91.2088 168.827 91.5156C168.713 91.8196 168.515 92.1591 168.23 92.5341C167.949 92.9062 167.559 93.3608 167.059 93.8977L165.098 95.9943V96.0625H169.155V97H163.65ZM170.523 95.2102V94.3409L174.358 88.2727H174.989V89.6193H174.563L171.665 94.2045V94.2727H176.83V95.2102H170.523ZM174.631 97V94.946V94.5412V88.2727H175.637V97H174.631Z" fill="#64748B"/>
</g>
<defs>
<filter id="filter0_d_451_1848" x="0" y="0" width="404" height="126" filterUnits="userSpaceOnUse" color-interpolation-filters="sRGB">
<feFlood flood-opacity="0" result="BackgroundImageFix"/>
<feColorMatrix in="SourceAlpha" type="matrix" values="0 0 0 0 0 0 0 0 0 0 0 0 0 0 0 0 0 0 127 0" result="hardAlpha"/>
<feOffset dy="4"/>
<feGaussianBlur stdDeviation="2"/>
<feComposite in2="hardAlpha" operator="out"/>
<feColorMatrix type="matrix" values="0 0 0 0 0.683333 0 0 0 0 0.683333 0 0 0 0 0.683333 0 0 0 0.25 0"/>
<feBlend mode="normal" in2="BackgroundImageFix" result="effect1_dropShadow_451_1848"/>
<feBlend mode="normal" in="SourceGraphic" in2="effect1_dropShadow_451_1848" result="shape"/>
</filter>
</defs>
</svg>
