<svg width="406" height="126" viewBox="0 0 406 126" fill="none" xmlns="http://www.w3.org/2000/svg">
<g filter="url(#filter0_d_239_2089)">
<rect x="4" width="398" height="118" rx="6" fill="white" shape-rendering="crispEdges"/>
<rect x="4.5" y="0.5" width="397" height="117" rx="5.5" stroke="#E5E7EB" shape-rendering="crispEdges"/>
<path d="M22.0043 32V21.8182H23.8487V26.4964H23.973L27.9453 21.8182H30.1974L26.2599 26.3871L30.2322 32H28.0149L24.9773 27.6349L23.8487 28.9673V32H22.0043ZM33.199 27.5256V32H31.3993V21.8182H33.1593V25.6612H33.2488C33.4277 25.2304 33.7045 24.8906 34.079 24.642C34.4569 24.3902 34.9374 24.2642 35.5208 24.2642C36.0511 24.2642 36.5134 24.3752 36.9078 24.5973C37.3023 24.8194 37.6072 25.1442 37.8226 25.5717C38.0414 25.9993 38.1507 26.5213 38.1507 27.1378V32H36.351V27.4162C36.351 26.9025 36.2185 26.5031 35.9533 26.218C35.6915 25.9297 35.3236 25.7855 34.8496 25.7855C34.5314 25.7855 34.2464 25.8551 33.9945 25.9943C33.7459 26.1302 33.5504 26.3274 33.4078 26.5859C33.2686 26.8445 33.199 27.1577 33.199 27.5256ZM43.3162 32.1491C42.5705 32.1491 41.9242 31.9851 41.3773 31.657C40.8304 31.3288 40.4062 30.8698 40.1046 30.2798C39.8063 29.6899 39.6571 29.0005 39.6571 28.2116C39.6571 27.4228 39.8063 26.7318 40.1046 26.1385C40.4062 25.5452 40.8304 25.0845 41.3773 24.7564C41.9242 24.4283 42.5705 24.2642 43.3162 24.2642C44.062 24.2642 44.7083 24.4283 45.2551 24.7564C45.802 25.0845 46.2246 25.5452 46.5229 26.1385C46.8245 26.7318 46.9753 27.4228 46.9753 28.2116C46.9753 29.0005 46.8245 29.6899 46.5229 30.2798C46.2246 30.8698 45.802 31.3288 45.2551 31.657C44.7083 31.9851 44.062 32.1491 43.3162 32.1491ZM43.3262 30.7074C43.7305 30.7074 44.0686 30.5964 44.3404 30.3743C44.6122 30.1489 44.8143 29.8473 44.9469 29.4695C45.0828 29.0916 45.1507 28.6707 45.1507 28.2067C45.1507 27.7393 45.0828 27.3168 44.9469 26.9389C44.8143 26.5578 44.6122 26.2545 44.3404 26.0291C44.0686 25.8037 43.7305 25.6911 43.3262 25.6911C42.9119 25.6911 42.5672 25.8037 42.2921 26.0291C42.0203 26.2545 41.8165 26.5578 41.6806 26.9389C41.548 27.3168 41.4817 27.7393 41.4817 28.2067C41.4817 28.6707 41.548 29.0916 41.6806 29.4695C41.8165 29.8473 42.0203 30.1489 42.2921 30.3743C42.5672 30.5964 42.9119 30.7074 43.3262 30.7074ZM40.736 23.4886L42.7495 21.853H43.873L45.8965 23.4886H44.4L43.3212 22.5739L42.2374 23.4886H40.736ZM45.3645 22.4943L46.4682 20.6598H48.0492L46.513 22.4943H45.3645ZM48.5028 32V24.3636H50.3026V32H48.5028ZM49.4077 23.2798C49.1226 23.2798 48.8774 23.1854 48.6719 22.9964C48.4664 22.8042 48.3636 22.5739 48.3636 22.3054C48.3636 22.0336 48.4664 21.8033 48.6719 21.6143C48.8774 21.4221 49.1226 21.326 49.4077 21.326C49.696 21.326 49.9413 21.4221 50.1435 21.6143C50.349 21.8033 50.4517 22.0336 50.4517 22.3054C50.4517 22.5739 50.349 22.8042 50.1435 22.9964C49.9413 23.1854 49.696 23.2798 49.4077 23.2798ZM59.3347 32.1392C58.8475 32.1359 58.3719 32.0514 57.9078 31.8857C57.4438 31.7166 57.0262 31.4432 56.655 31.0653C56.2838 30.6842 55.9888 30.1787 55.7701 29.549C55.5513 28.916 55.4436 28.1321 55.4469 27.1974C55.4469 26.3258 55.5397 25.5485 55.7253 24.8658C55.9109 24.183 56.1777 23.6063 56.5257 23.1357C56.8738 22.6617 57.293 22.3004 57.7836 22.0518C58.2774 21.8033 58.8292 21.679 59.4391 21.679C60.0788 21.679 60.6455 21.8049 61.1394 22.0568C61.6365 22.3087 62.0376 22.6534 62.3425 23.0909C62.6474 23.5251 62.8364 24.0156 62.9093 24.5625H61.0946C61.0018 24.1714 60.8113 23.8598 60.5229 23.6278C60.2379 23.3925 59.8766 23.2749 59.4391 23.2749C58.7331 23.2749 58.1896 23.5814 57.8084 24.1946C57.4306 24.8078 57.24 25.6496 57.2367 26.7202H57.3063C57.4687 26.4285 57.6792 26.1783 57.9377 25.9695C58.1962 25.7607 58.4879 25.5999 58.8127 25.4872C59.1408 25.3712 59.4872 25.3132 59.8517 25.3132C60.4483 25.3132 60.9836 25.4557 61.4576 25.7408C61.9348 26.0258 62.3127 26.4186 62.5911 26.919C62.8695 27.4162 63.007 27.9863 63.0037 28.6293C63.007 29.2988 62.8546 29.9003 62.5463 30.4339C62.2381 30.9643 61.8089 31.3819 61.2587 31.6868C60.7085 31.9917 60.0672 32.1425 59.3347 32.1392ZM59.3248 30.6477C59.686 30.6477 60.0092 30.5599 60.2942 30.3842C60.5792 30.2086 60.8046 29.9716 60.9703 29.6733C61.1361 29.375 61.2173 29.0402 61.214 28.669C61.2173 28.3045 61.1377 27.9747 60.9753 27.6797C60.8162 27.3847 60.5958 27.151 60.3141 26.9787C60.0324 26.8063 59.7109 26.7202 59.3496 26.7202C59.0811 26.7202 58.8309 26.7715 58.5989 26.8743C58.3669 26.977 58.1647 27.1196 57.9924 27.3018C57.82 27.4808 57.6841 27.6896 57.5847 27.9283C57.4886 28.1636 57.4389 28.4155 57.4355 28.6839C57.4389 29.0386 57.5217 29.3651 57.6841 29.6634C57.8465 29.9616 58.0703 30.2003 58.3553 30.3793C58.6403 30.5582 58.9635 30.6477 59.3248 30.6477ZM72.8052 26.1683V27.6499H68.2214V26.1683H72.8052ZM78.2504 32V21.8182H80.0948V30.4538H84.5792V32H78.2504ZM92.663 23.8764H93.8661C93.8661 24.6851 93.6772 25.3215 93.2994 25.7855C92.9248 26.2462 92.3017 26.4766 91.43 26.4766V25.6314C91.7747 25.6314 92.0349 25.5601 92.2106 25.4176C92.3896 25.2751 92.5089 25.0729 92.5685 24.8111C92.6315 24.5459 92.663 24.2344 92.663 23.8764ZM89.4315 32.1491C88.6857 32.1491 88.0394 31.9851 87.4925 31.657C86.9457 31.3288 86.5214 30.8698 86.2198 30.2798C85.9215 29.6899 85.7724 29.0005 85.7724 28.2116C85.7724 27.4228 85.9215 26.7318 86.2198 26.1385C86.5214 25.5452 86.9457 25.0845 87.4925 24.7564C88.0394 24.4283 88.6857 24.2642 89.4315 24.2642C90.1772 24.2642 90.8235 24.4283 91.3704 24.7564C91.9173 25.0845 92.3398 25.5452 92.6381 26.1385C92.9397 26.7318 93.0906 27.4228 93.0906 28.2116C93.0906 29.0005 92.9397 29.6899 92.6381 30.2798C92.3398 30.8698 91.9173 31.3288 91.3704 31.657C90.8235 31.9851 90.1772 32.1491 89.4315 32.1491ZM89.4414 30.7074C89.8458 30.7074 90.1838 30.5964 90.4556 30.3743C90.7274 30.1489 90.9296 29.8473 91.0621 29.4695C91.198 29.0916 91.266 28.6707 91.266 28.2067C91.266 27.7393 91.198 27.3168 91.0621 26.9389C90.9296 26.5578 90.7274 26.2545 90.4556 26.0291C90.1838 25.8037 89.8458 25.6911 89.4414 25.6911C89.0271 25.6911 88.6824 25.8037 88.4073 26.0291C88.1355 26.2545 87.9317 26.5578 87.7958 26.9389C87.6632 27.3168 87.5969 27.7393 87.5969 28.2067C87.5969 28.6707 87.6632 29.0916 87.7958 29.4695C87.9317 29.8473 88.1355 30.1489 88.4073 30.3743C88.6824 30.5964 89.0271 30.7074 89.4414 30.7074ZM88.7404 23.3594L89.854 21.0874H91.614L90.0877 23.3594H88.7404ZM94.7958 34.8636V24.3636H96.5657V25.6264H96.6701C96.7629 25.4408 96.8938 25.2436 97.0629 25.0348C97.2319 24.8227 97.4606 24.642 97.7489 24.4929C98.0373 24.3404 98.4052 24.2642 98.8526 24.2642C99.4426 24.2642 99.9746 24.415 100.449 24.7166C100.926 25.0149 101.304 25.4574 101.582 26.044C101.864 26.6274 102.005 27.3433 102.005 28.1918C102.005 29.0303 101.867 29.7429 101.592 30.3295C101.317 30.9162 100.942 31.3636 100.468 31.6719C99.9944 31.9801 99.4575 32.1342 98.8576 32.1342C98.4201 32.1342 98.0572 32.0613 97.7688 31.9155C97.4805 31.7696 97.2485 31.594 97.0728 31.3885C96.9004 31.1797 96.7662 30.9825 96.6701 30.7969H96.5955V34.8636H94.7958ZM96.5607 28.1818C96.5607 28.6757 96.6303 29.1082 96.7695 29.4794C96.9121 29.8506 97.1159 30.1406 97.381 30.3494C97.6495 30.5549 97.9743 30.6577 98.3555 30.6577C98.7532 30.6577 99.0863 30.5516 99.3548 30.3395C99.6232 30.1241 99.8254 29.8307 99.9613 29.4595C100.1 29.085 100.17 28.6591 100.17 28.1818C100.17 27.7079 100.102 27.2869 99.9663 26.919C99.8304 26.5511 99.6282 26.2628 99.3597 26.054C99.0913 25.8452 98.7565 25.7408 98.3555 25.7408C97.971 25.7408 97.6445 25.8419 97.3761 26.044C97.1076 26.2462 96.9038 26.5296 96.7646 26.8942C96.6287 27.2588 96.5607 27.688 96.5607 28.1818ZM110.727 32.1392C110.24 32.1359 109.764 32.0514 109.3 31.8857C108.836 31.7166 108.419 31.4432 108.048 31.0653C107.676 30.6842 107.381 30.1787 107.163 29.549C106.944 28.916 106.836 28.1321 106.839 27.1974C106.839 26.3258 106.932 25.5485 107.118 24.8658C107.304 24.183 107.57 23.6063 107.918 23.1357C108.266 22.6617 108.686 22.3004 109.176 22.0518C109.67 21.8033 110.222 21.679 110.832 21.679C111.471 21.679 112.038 21.8049 112.532 22.0568C113.029 22.3087 113.43 22.6534 113.735 23.0909C114.04 23.5251 114.229 24.0156 114.302 24.5625H112.487C112.394 24.1714 112.204 23.8598 111.915 23.6278C111.63 23.3925 111.269 23.2749 110.832 23.2749C110.126 23.2749 109.582 23.5814 109.201 24.1946C108.823 24.8078 108.633 25.6496 108.629 26.7202H108.699C108.861 26.4285 109.072 26.1783 109.33 25.9695C109.589 25.7607 109.88 25.5999 110.205 25.4872C110.533 25.3712 110.88 25.3132 111.244 25.3132C111.841 25.3132 112.376 25.4557 112.85 25.7408C113.327 26.0258 113.705 26.4186 113.984 26.919C114.262 27.4162 114.4 27.9863 114.396 28.6293C114.4 29.2988 114.247 29.9003 113.939 30.4339C113.631 30.9643 113.201 31.3819 112.651 31.6868C112.101 31.9917 111.46 32.1425 110.727 32.1392ZM110.717 30.6477C111.079 30.6477 111.402 30.5599 111.687 30.3842C111.972 30.2086 112.197 29.9716 112.363 29.6733C112.529 29.375 112.61 29.0402 112.607 28.669C112.61 28.3045 112.53 27.9747 112.368 27.6797C112.209 27.3847 111.988 27.151 111.707 26.9787C111.425 26.8063 111.103 26.7202 110.742 26.7202C110.474 26.7202 110.223 26.7715 109.991 26.8743C109.759 26.977 109.557 27.1196 109.385 27.3018C109.213 27.4808 109.077 27.6896 108.977 27.9283C108.881 28.1636 108.831 28.4155 108.828 28.6839C108.831 29.0386 108.914 29.3651 109.077 29.6634C109.239 29.9616 109.463 30.2003 109.748 30.3793C110.033 30.5582 110.356 30.6477 110.717 30.6477ZM124.891 25.2536H123.032C122.979 24.9486 122.881 24.6785 122.739 24.4432C122.596 24.2045 122.419 24.0024 122.207 23.8366C121.995 23.6709 121.753 23.5466 121.481 23.4638C121.212 23.3776 120.922 23.3345 120.611 23.3345C120.057 23.3345 119.567 23.4737 119.139 23.7521C118.712 24.0272 118.377 24.4316 118.135 24.9652C117.893 25.4955 117.772 26.1435 117.772 26.9091C117.772 27.688 117.893 28.3442 118.135 28.8778C118.38 29.4081 118.715 29.8092 119.139 30.081C119.567 30.3494 120.056 30.4837 120.606 30.4837C120.911 30.4837 121.196 30.4439 121.461 30.3643C121.729 30.2815 121.97 30.1605 122.182 30.0014C122.397 29.8423 122.578 29.6468 122.724 29.4148C122.873 29.1828 122.976 28.9176 123.032 28.6193L124.891 28.6293C124.822 29.1132 124.671 29.5672 124.439 29.9915C124.21 30.4157 123.91 30.7902 123.539 31.1151C123.168 31.4366 122.734 31.6884 122.237 31.8707C121.739 32.0497 121.188 32.1392 120.581 32.1392C119.686 32.1392 118.887 31.9321 118.185 31.5178C117.482 31.1035 116.929 30.5052 116.524 29.723C116.12 28.9408 115.918 28.0028 115.918 26.9091C115.918 25.812 116.121 24.8741 116.529 24.0952C116.937 23.313 117.492 22.7147 118.195 22.3004C118.897 21.8861 119.693 21.679 120.581 21.679C121.148 21.679 121.675 21.7585 122.162 21.9176C122.649 22.0767 123.083 22.3104 123.464 22.6186C123.846 22.9235 124.159 23.2981 124.404 23.7422C124.653 24.183 124.815 24.6868 124.891 25.2536Z" fill="#0F172A"/>
<path d="M21.6761 46.9119V45.8182H29.3125V46.9119H26.1108V56H24.8778V46.9119H21.6761ZM32.2296 51.4062V56H31.0563V45.8182H32.2296V49.5568H32.329C32.508 49.1624 32.7765 48.8492 33.1344 48.6172C33.4957 48.3819 33.9763 48.2642 34.5762 48.2642C35.0965 48.2642 35.5523 48.3686 35.9434 48.5774C36.3345 48.7829 36.6377 49.0994 36.8532 49.527C37.0719 49.9512 37.1813 50.4915 37.1813 51.1477V56H36.008V51.2273C36.008 50.6207 35.8506 50.1518 35.5357 49.8203C35.2241 49.4856 34.7916 49.3182 34.2381 49.3182C33.8536 49.3182 33.5089 49.3994 33.204 49.5618C32.9024 49.7242 32.6638 49.9612 32.4881 50.2727C32.3158 50.5843 32.2296 50.9621 32.2296 51.4062ZM42.5295 56.1591C41.7937 56.1591 41.159 55.9967 40.6254 55.6719C40.0951 55.3438 39.6857 54.8864 39.3974 54.2997C39.1123 53.7098 38.9698 53.0237 38.9698 52.2415C38.9698 51.4593 39.1123 50.7699 39.3974 50.1733C39.6857 49.5734 40.0868 49.1061 40.6005 48.7713C41.1175 48.4332 41.7208 48.2642 42.4102 48.2642C42.8079 48.2642 43.2006 48.3305 43.5884 48.4631C43.9762 48.5956 44.3292 48.8111 44.6474 49.1094C44.9656 49.4044 45.2191 49.7955 45.408 50.2827C45.5969 50.7699 45.6914 51.3698 45.6914 52.0824V52.5795H39.805V51.5653H44.4982C44.4982 51.1345 44.4121 50.75 44.2397 50.4119C44.0707 50.0739 43.8287 49.8071 43.5138 49.6115C43.2023 49.416 42.8344 49.3182 42.4102 49.3182C41.9428 49.3182 41.5385 49.4342 41.1971 49.6662C40.859 49.8949 40.5988 50.1932 40.4165 50.5611C40.2343 50.929 40.1431 51.3234 40.1431 51.7443V52.4205C40.1431 52.9972 40.2425 53.486 40.4414 53.8871C40.6436 54.2848 40.9237 54.5881 41.2816 54.7969C41.6396 55.0024 42.0555 55.1051 42.5295 55.1051C42.8377 55.1051 43.1161 55.062 43.3647 54.9759C43.6166 54.8864 43.8337 54.7538 44.016 54.5781C44.1983 54.3991 44.3391 54.1771 44.4386 53.9119L45.5721 54.2301C45.4528 54.6146 45.2522 54.9527 44.9705 55.2443C44.6888 55.5327 44.3408 55.758 43.9265 55.9205C43.5122 56.0795 43.0465 56.1591 42.5295 56.1591ZM51.5728 56V45.8182H55.0131C55.8086 45.8182 56.4615 45.9541 56.9719 46.2259C57.4824 46.4943 57.8602 46.8639 58.1055 47.3345C58.3507 47.8052 58.4734 48.3404 58.4734 48.9403C58.4734 49.5402 58.3507 50.0722 58.1055 50.5362C57.8602 51.0002 57.484 51.3648 56.9769 51.63C56.4698 51.8918 55.8219 52.0227 55.033 52.0227H52.2489V50.9091H54.9933C55.5368 50.9091 55.9743 50.8295 56.3058 50.6705C56.6405 50.5114 56.8825 50.286 57.0316 49.9943C57.1841 49.6993 57.2603 49.348 57.2603 48.9403C57.2603 48.5327 57.1841 48.1764 57.0316 47.8714C56.8791 47.5665 56.6355 47.3312 56.3008 47.1655C55.966 46.9964 55.5236 46.9119 54.9734 46.9119H52.8058V56H51.5728ZM56.3654 51.4261L58.8711 56H57.4393L54.9734 51.4261H56.3654ZM63.4885 56.1591C62.7527 56.1591 62.118 55.9967 61.5843 55.6719C61.054 55.3438 60.6447 54.8864 60.3564 54.2997C60.0713 53.7098 59.9288 53.0237 59.9288 52.2415C59.9288 51.4593 60.0713 50.7699 60.3564 50.1733C60.6447 49.5734 61.0458 49.1061 61.5595 48.7713C62.0765 48.4332 62.6797 48.2642 63.3691 48.2642C63.7669 48.2642 64.1596 48.3305 64.5474 48.4631C64.9352 48.5956 65.2882 48.8111 65.6064 49.1094C65.9245 49.4044 66.1781 49.7955 66.367 50.2827C66.5559 50.7699 66.6504 51.3698 66.6504 52.0824V52.5795H60.764V51.5653H65.4572C65.4572 51.1345 65.371 50.75 65.1987 50.4119C65.0297 50.0739 64.7877 49.8071 64.4728 49.6115C64.1613 49.416 63.7934 49.3182 63.3691 49.3182C62.9018 49.3182 62.4975 49.4342 62.1561 49.6662C61.818 49.8949 61.5578 50.1932 61.3755 50.5611C61.1932 50.929 61.1021 51.3234 61.1021 51.7443V52.4205C61.1021 52.9972 61.2015 53.486 61.4004 53.8871C61.6026 54.2848 61.8826 54.5881 62.2406 54.7969C62.5985 55.0024 63.0145 55.1051 63.4885 55.1051C63.7967 55.1051 64.0751 55.062 64.3237 54.9759C64.5756 54.8864 64.7927 54.7538 64.975 54.5781C65.1573 54.3991 65.2981 54.1771 65.3975 53.9119L66.5311 54.2301C66.4118 54.6146 66.2112 54.9527 65.9295 55.2443C65.6478 55.5327 65.2998 55.758 64.8855 55.9205C64.4712 56.0795 64.0055 56.1591 63.4885 56.1591ZM70.6824 56.179C70.1984 56.179 69.7593 56.0878 69.3649 55.9055C68.9705 55.7199 68.6573 55.4531 68.4252 55.1051C68.1932 54.7538 68.0772 54.3295 68.0772 53.8324C68.0772 53.3949 68.1634 53.0402 68.3358 52.7685C68.5081 52.4934 68.7385 52.2779 69.0268 52.1222C69.3152 51.9664 69.6333 51.8504 69.9814 51.7741C70.3327 51.6946 70.6857 51.6316 71.0403 51.5852C71.5043 51.5256 71.8805 51.4808 72.1689 51.451C72.4605 51.4179 72.6726 51.3632 72.8052 51.2869C72.9411 51.2107 73.0091 51.0781 73.0091 50.8892V50.8494C73.0091 50.3589 72.8748 49.9777 72.6064 49.706C72.3412 49.4342 71.9385 49.2983 71.3983 49.2983C70.8381 49.2983 70.399 49.4209 70.0808 49.6662C69.7626 49.9115 69.5389 50.1733 69.4096 50.4517L68.296 50.054C68.4949 49.59 68.76 49.2287 69.0914 48.9702C69.4262 48.7083 69.7908 48.526 70.1852 48.4233C70.5829 48.3172 70.974 48.2642 71.3585 48.2642C71.6038 48.2642 71.8855 48.294 72.2037 48.3537C72.5252 48.41 72.835 48.5277 73.1333 48.7067C73.435 48.8857 73.6852 49.1558 73.8841 49.517C74.0829 49.8783 74.1824 50.3622 74.1824 50.9688V56H73.0091V54.9659H72.9494C72.8699 55.1316 72.7373 55.3089 72.5517 55.4979C72.3661 55.6868 72.1191 55.8475 71.8109 55.9801C71.5027 56.1127 71.1265 56.179 70.6824 56.179ZM70.8613 55.125C71.3253 55.125 71.7164 55.0339 72.0346 54.8516C72.3561 54.6693 72.5981 54.4339 72.7605 54.1456C72.9262 53.8572 73.0091 53.554 73.0091 53.2358V52.1619C72.9593 52.2216 72.85 52.2763 72.6809 52.326C72.5152 52.3724 72.323 52.4138 72.1042 52.4503C71.8888 52.4834 71.6783 52.5133 71.4728 52.5398C71.2707 52.563 71.1066 52.5829 70.9806 52.5994C70.6757 52.6392 70.3907 52.7038 70.1255 52.7933C69.8637 52.8795 69.6516 53.0104 69.4892 53.1861C69.3301 53.3584 69.2505 53.5937 69.2505 53.892C69.2505 54.2997 69.4013 54.608 69.7029 54.8168C70.0079 55.0223 70.394 55.125 70.8613 55.125ZM79.4261 56.1591C78.7102 56.1591 78.0938 55.9901 77.5767 55.652C77.0597 55.3139 76.6619 54.8482 76.3835 54.255C76.1051 53.6617 75.9659 52.9839 75.9659 52.2216C75.9659 51.446 76.1084 50.7616 76.3935 50.1683C76.6818 49.5717 77.0829 49.1061 77.5966 48.7713C78.1136 48.4332 78.7169 48.2642 79.4062 48.2642C79.9432 48.2642 80.4271 48.3636 80.858 48.5625C81.2888 48.7614 81.6418 49.0398 81.9169 49.3977C82.192 49.7557 82.3627 50.1733 82.429 50.6506H81.2557C81.1662 50.3026 80.9673 49.9943 80.6591 49.7259C80.3542 49.4541 79.9432 49.3182 79.4261 49.3182C78.9688 49.3182 78.5677 49.4375 78.223 49.6761C77.8816 49.9115 77.6148 50.2446 77.4226 50.6754C77.2337 51.103 77.1392 51.6051 77.1392 52.1818C77.1392 52.7718 77.232 53.2855 77.4176 53.723C77.6065 54.1605 77.8717 54.5002 78.2131 54.7422C78.5578 54.9841 78.9621 55.1051 79.4261 55.1051C79.7311 55.1051 80.0078 55.0521 80.2564 54.946C80.505 54.84 80.7154 54.6875 80.8878 54.4886C81.0601 54.2898 81.1828 54.0511 81.2557 53.7727H82.429C82.3627 54.2235 82.1986 54.6295 81.9368 54.9908C81.6783 55.3487 81.3352 55.6338 80.9077 55.8459C80.4834 56.0547 79.9896 56.1591 79.4261 56.1591ZM87.4652 48.3636V49.358H83.5078V48.3636H87.4652ZM84.6612 46.5341H85.8345V53.8125C85.8345 54.1439 85.8826 54.3925 85.9787 54.5582C86.0781 54.7206 86.2041 54.83 86.3565 54.8864C86.5123 54.9394 86.6764 54.9659 86.8487 54.9659C86.978 54.9659 87.084 54.9593 87.1669 54.946C87.2498 54.9295 87.3161 54.9162 87.3658 54.9062L87.6044 55.9602C87.5249 55.9901 87.4138 56.0199 87.2713 56.0497C87.1288 56.0829 86.9482 56.0994 86.7294 56.0994C86.398 56.0994 86.0732 56.0282 85.755 55.8857C85.4401 55.7431 85.1783 55.526 84.9695 55.2344C84.764 54.9427 84.6612 54.5748 84.6612 54.1307V46.5341ZM93.3267 56V45.8182H99.4318V46.9119H94.5597V50.3523H98.9744V51.446H94.5597V56H93.3267ZM101.302 56V48.3636H102.436V49.517H102.515C102.655 49.1392 102.907 48.8326 103.271 48.5973C103.636 48.362 104.047 48.2443 104.504 48.2443C104.59 48.2443 104.698 48.246 104.827 48.2493C104.956 48.2526 105.054 48.2576 105.121 48.2642V49.4574C105.081 49.4474 104.99 49.4325 104.847 49.4126C104.708 49.3894 104.56 49.3778 104.405 49.3778C104.033 49.3778 103.702 49.4557 103.41 49.6115C103.122 49.764 102.893 49.9761 102.724 50.2479C102.559 50.5163 102.476 50.8229 102.476 51.1676V56H101.302ZM108.759 56.179C108.275 56.179 107.835 56.0878 107.441 55.9055C107.047 55.7199 106.733 55.4531 106.501 55.1051C106.269 54.7538 106.153 54.3295 106.153 53.8324C106.153 53.3949 106.24 53.0402 106.412 52.7685C106.584 52.4934 106.815 52.2779 107.103 52.1222C107.391 51.9664 107.71 51.8504 108.058 51.7741C108.409 51.6946 108.762 51.6316 109.116 51.5852C109.58 51.5256 109.957 51.4808 110.245 51.451C110.537 51.4179 110.749 51.3632 110.881 51.2869C111.017 51.2107 111.085 51.0781 111.085 50.8892V50.8494C111.085 50.3589 110.951 49.9777 110.683 49.706C110.417 49.4342 110.015 49.2983 109.474 49.2983C108.914 49.2983 108.475 49.4209 108.157 49.6662C107.839 49.9115 107.615 50.1733 107.486 50.4517L106.372 50.054C106.571 49.59 106.836 49.2287 107.168 48.9702C107.502 48.7083 107.867 48.526 108.261 48.4233C108.659 48.3172 109.05 48.2642 109.435 48.2642C109.68 48.2642 109.962 48.294 110.28 48.3537C110.601 48.41 110.911 48.5277 111.21 48.7067C111.511 48.8857 111.761 49.1558 111.96 49.517C112.159 49.8783 112.259 50.3622 112.259 50.9688V56H111.085V54.9659H111.026C110.946 55.1316 110.813 55.3089 110.628 55.4979C110.442 55.6868 110.195 55.8475 109.887 55.9801C109.579 56.1127 109.203 56.179 108.759 56.179ZM108.938 55.125C109.402 55.125 109.793 55.0339 110.111 54.8516C110.432 54.6693 110.674 54.4339 110.837 54.1456C111.002 53.8572 111.085 53.554 111.085 53.2358V52.1619C111.036 52.2216 110.926 52.2763 110.757 52.326C110.591 52.3724 110.399 52.4138 110.18 52.4503C109.965 52.4834 109.754 52.5133 109.549 52.5398C109.347 52.563 109.183 52.5829 109.057 52.5994C108.752 52.6392 108.467 52.7038 108.202 52.7933C107.94 52.8795 107.728 53.0104 107.565 53.1861C107.406 53.3584 107.327 53.5937 107.327 53.892C107.327 54.2997 107.478 54.608 107.779 54.8168C108.084 55.0223 108.47 55.125 108.938 55.125ZM114.4 56V48.3636H115.534V49.5568H115.633C115.792 49.1491 116.049 48.8326 116.404 48.6072C116.758 48.3786 117.184 48.2642 117.681 48.2642C118.185 48.2642 118.604 48.3786 118.939 48.6072C119.277 48.8326 119.541 49.1491 119.73 49.5568H119.809C120.005 49.1624 120.298 48.8492 120.689 48.6172C121.08 48.3819 121.549 48.2642 122.096 48.2642C122.779 48.2642 123.337 48.478 123.771 48.9055C124.206 49.3298 124.423 49.991 124.423 50.8892V56H123.249V50.8892C123.249 50.3258 123.095 49.9231 122.787 49.6811C122.479 49.4392 122.116 49.3182 121.698 49.3182C121.161 49.3182 120.745 49.4806 120.45 49.8054C120.155 50.1269 120.008 50.5346 120.008 51.0284V56H118.815V50.7699C118.815 50.3357 118.674 49.986 118.392 49.7209C118.11 49.4524 117.748 49.3182 117.303 49.3182C116.999 49.3182 116.713 49.3994 116.448 49.5618C116.186 49.7242 115.974 49.9496 115.812 50.2379C115.653 50.523 115.573 50.8527 115.573 51.2273V56H114.4ZM129.77 56.1591C129.034 56.1591 128.399 55.9967 127.866 55.6719C127.335 55.3438 126.926 54.8864 126.638 54.2997C126.353 53.7098 126.21 53.0237 126.21 52.2415C126.21 51.4593 126.353 50.7699 126.638 50.1733C126.926 49.5734 127.327 49.1061 127.841 48.7713C128.358 48.4332 128.961 48.2642 129.65 48.2642C130.048 48.2642 130.441 48.3305 130.829 48.4631C131.216 48.5956 131.569 48.8111 131.888 49.1094C132.206 49.4044 132.459 49.7955 132.648 50.2827C132.837 50.7699 132.932 51.3698 132.932 52.0824V52.5795H127.045V51.5653H131.738C131.738 51.1345 131.652 50.75 131.48 50.4119C131.311 50.0739 131.069 49.8071 130.754 49.6115C130.443 49.416 130.075 49.3182 129.65 49.3182C129.183 49.3182 128.779 49.4342 128.437 49.6662C128.099 49.8949 127.839 50.1932 127.657 50.5611C127.474 50.929 127.383 51.3234 127.383 51.7443V52.4205C127.383 52.9972 127.483 53.486 127.682 53.8871C127.884 54.2848 128.164 54.5881 128.522 54.7969C128.88 55.0024 129.296 55.1051 129.77 55.1051C130.078 55.1051 130.356 55.062 130.605 54.9759C130.857 54.8864 131.074 54.7538 131.256 54.5781C131.439 54.3991 131.579 54.1771 131.679 53.9119L132.812 54.2301C132.693 54.6146 132.492 54.9527 132.211 55.2443C131.929 55.5327 131.581 55.758 131.167 55.9205C130.752 56.0795 130.287 56.1591 129.77 56.1591ZM136.447 56L134.12 48.3636H135.353L137.003 54.2102H137.083L138.714 48.3636H139.966L141.577 54.1903H141.657L143.307 48.3636H144.54L142.214 56H141.06L139.39 50.1335H139.27L137.6 56H136.447ZM148.934 56.1591C148.245 56.1591 147.64 55.995 147.119 55.6669C146.602 55.3388 146.198 54.8797 145.906 54.2898C145.618 53.6998 145.474 53.0104 145.474 52.2216C145.474 51.4261 145.618 50.7318 145.906 50.1385C146.198 49.5452 146.602 49.0845 147.119 48.7564C147.64 48.4283 148.245 48.2642 148.934 48.2642C149.623 48.2642 150.227 48.4283 150.744 48.7564C151.264 49.0845 151.668 49.5452 151.957 50.1385C152.248 50.7318 152.394 51.4261 152.394 52.2216C152.394 53.0104 152.248 53.6998 151.957 54.2898C151.668 54.8797 151.264 55.3388 150.744 55.6669C150.227 55.995 149.623 56.1591 148.934 56.1591ZM148.934 55.1051C149.458 55.1051 149.888 54.9709 150.227 54.7024C150.565 54.4339 150.815 54.081 150.977 53.6435C151.14 53.206 151.221 52.732 151.221 52.2216C151.221 51.7112 151.14 51.2356 150.977 50.7947C150.815 50.3539 150.565 49.9976 150.227 49.7259C149.888 49.4541 149.458 49.3182 148.934 49.3182C148.41 49.3182 147.979 49.4541 147.641 49.7259C147.303 49.9976 147.053 50.3539 146.891 50.7947C146.728 51.2356 146.647 51.7112 146.647 52.2216C146.647 52.732 146.728 53.206 146.891 53.6435C147.053 54.081 147.303 54.4339 147.641 54.7024C147.979 54.9709 148.41 55.1051 148.934 55.1051ZM154.185 56V48.3636H155.319V49.517H155.398C155.537 49.1392 155.789 48.8326 156.154 48.5973C156.519 48.362 156.93 48.2443 157.387 48.2443C157.473 48.2443 157.581 48.246 157.71 48.2493C157.839 48.2526 157.937 48.2576 158.003 48.2642V49.4574C157.964 49.4474 157.872 49.4325 157.73 49.4126C157.591 49.3894 157.443 49.3778 157.287 49.3778C156.916 49.3778 156.585 49.4557 156.293 49.6115C156.005 49.764 155.776 49.9761 155.607 50.2479C155.441 50.5163 155.358 50.8229 155.358 51.1676V56H154.185ZM160.488 53.2159L160.468 51.7642H160.707L164.048 48.3636H165.499L161.94 51.9631H161.84L160.488 53.2159ZM159.394 56V45.8182H160.567V56H159.394ZM164.246 56L161.263 52.2216L162.099 51.4062L165.738 56H164.246ZM175.322 51.0881V52.1818H170.867V51.0881H175.322ZM184.426 56.1591C183.71 56.1591 183.094 55.9901 182.577 55.652C182.06 55.3139 181.662 54.8482 181.384 54.255C181.105 53.6617 180.966 52.9839 180.966 52.2216C180.966 51.446 181.108 50.7616 181.393 50.1683C181.682 49.5717 182.083 49.1061 182.597 48.7713C183.114 48.4332 183.717 48.2642 184.406 48.2642C184.943 48.2642 185.427 48.3636 185.858 48.5625C186.289 48.7614 186.642 49.0398 186.917 49.3977C187.192 49.7557 187.363 50.1733 187.429 50.6506H186.256C186.166 50.3026 185.967 49.9943 185.659 49.7259C185.354 49.4541 184.943 49.3182 184.426 49.3182C183.969 49.3182 183.568 49.4375 183.223 49.6761C182.882 49.9115 182.615 50.2446 182.423 50.6754C182.234 51.103 182.139 51.6051 182.139 52.1818C182.139 52.7718 182.232 53.2855 182.418 53.723C182.607 54.1605 182.872 54.5002 183.213 54.7422C183.558 54.9841 183.962 55.1051 184.426 55.1051C184.731 55.1051 185.008 55.0521 185.256 54.946C185.505 54.84 185.715 54.6875 185.888 54.4886C186.06 54.2898 186.183 54.0511 186.256 53.7727H187.429C187.363 54.2235 187.199 54.6295 186.937 54.9908C186.678 55.3487 186.335 55.6338 185.908 55.8459C185.483 56.0547 184.99 56.1591 184.426 56.1591ZM189.144 56V48.3636H190.278V49.517H190.357C190.496 49.1392 190.748 48.8326 191.113 48.5973C191.478 48.362 191.888 48.2443 192.346 48.2443C192.432 48.2443 192.54 48.246 192.669 48.2493C192.798 48.2526 192.896 48.2576 192.962 48.2642V49.4574C192.923 49.4474 192.831 49.4325 192.689 49.4126C192.55 49.3894 192.402 49.3778 192.246 49.3778C191.875 49.3778 191.544 49.4557 191.252 49.6115C190.964 49.764 190.735 49.9761 190.566 50.2479C190.4 50.5163 190.317 50.8229 190.317 51.1676V56H189.144ZM197.322 56.1591C196.587 56.1591 195.952 55.9967 195.418 55.6719C194.888 55.3438 194.479 54.8864 194.19 54.2997C193.905 53.7098 193.763 53.0237 193.763 52.2415C193.763 51.4593 193.905 50.7699 194.19 50.1733C194.479 49.5734 194.88 49.1061 195.393 48.7713C195.911 48.4332 196.514 48.2642 197.203 48.2642C197.601 48.2642 197.994 48.3305 198.381 48.4631C198.769 48.5956 199.122 48.8111 199.44 49.1094C199.759 49.4044 200.012 49.7955 200.201 50.2827C200.39 50.7699 200.484 51.3698 200.484 52.0824V52.5795H194.598V51.5653H199.291C199.291 51.1345 199.205 50.75 199.033 50.4119C198.864 50.0739 198.622 49.8071 198.307 49.6115C197.995 49.416 197.627 49.3182 197.203 49.3182C196.736 49.3182 196.331 49.4342 195.99 49.6662C195.652 49.8949 195.392 50.1932 195.21 50.5611C195.027 50.929 194.936 51.3234 194.936 51.7443V52.4205C194.936 52.9972 195.036 53.486 195.234 53.8871C195.437 54.2848 195.717 54.5881 196.075 54.7969C196.433 55.0024 196.848 55.1051 197.322 55.1051C197.631 55.1051 197.909 55.062 198.158 54.9759C198.41 54.8864 198.627 54.7538 198.809 54.5781C198.991 54.3991 199.132 54.1771 199.232 53.9119L200.365 54.2301C200.246 54.6146 200.045 54.9527 199.763 55.2443C199.482 55.5327 199.134 55.758 198.719 55.9205C198.305 56.0795 197.839 56.1591 197.322 56.1591ZM204.516 56.179C204.032 56.179 203.593 56.0878 203.199 55.9055C202.804 55.7199 202.491 55.4531 202.259 55.1051C202.027 54.7538 201.911 54.3295 201.911 53.8324C201.911 53.3949 201.997 53.0402 202.17 52.7685C202.342 52.4934 202.572 52.2779 202.861 52.1222C203.149 51.9664 203.467 51.8504 203.815 51.7741C204.167 51.6946 204.52 51.6316 204.874 51.5852C205.338 51.5256 205.714 51.4808 206.003 51.451C206.295 51.4179 206.507 51.3632 206.639 51.2869C206.775 51.2107 206.843 51.0781 206.843 50.8892V50.8494C206.843 50.3589 206.709 49.9777 206.44 49.706C206.175 49.4342 205.772 49.2983 205.232 49.2983C204.672 49.2983 204.233 49.4209 203.915 49.6662C203.597 49.9115 203.373 50.1733 203.244 50.4517L202.13 50.054C202.329 49.59 202.594 49.2287 202.925 48.9702C203.26 48.7083 203.625 48.526 204.019 48.4233C204.417 48.3172 204.808 48.2642 205.192 48.2642C205.438 48.2642 205.719 48.294 206.038 48.3537C206.359 48.41 206.669 48.5277 206.967 48.7067C207.269 48.8857 207.519 49.1558 207.718 49.517C207.917 49.8783 208.016 50.3622 208.016 50.9688V56H206.843V54.9659H206.783C206.704 55.1316 206.571 55.3089 206.386 55.4979C206.2 55.6868 205.953 55.8475 205.645 55.9801C205.337 56.1127 204.96 56.179 204.516 56.179ZM204.695 55.125C205.159 55.125 205.55 55.0339 205.869 54.8516C206.19 54.6693 206.432 54.4339 206.594 54.1456C206.76 53.8572 206.843 53.554 206.843 53.2358V52.1619C206.793 52.2216 206.684 52.2763 206.515 52.326C206.349 52.3724 206.157 52.4138 205.938 52.4503C205.723 52.4834 205.512 52.5133 205.307 52.5398C205.105 52.563 204.941 52.5829 204.815 52.5994C204.51 52.6392 204.225 52.7038 203.96 52.7933C203.698 52.8795 203.486 53.0104 203.323 53.1861C203.164 53.3584 203.085 53.5937 203.085 53.892C203.085 54.2997 203.235 54.608 203.537 54.8168C203.842 55.0223 204.228 55.125 204.695 55.125ZM213.479 48.3636V49.358H209.521V48.3636H213.479ZM210.675 46.5341H211.848V53.8125C211.848 54.1439 211.896 54.3925 211.992 54.5582C212.092 54.7206 212.218 54.83 212.37 54.8864C212.526 54.9394 212.69 54.9659 212.862 54.9659C212.992 54.9659 213.098 54.9593 213.181 54.946C213.263 54.9295 213.33 54.9162 213.379 54.9062L213.618 55.9602C213.539 55.9901 213.427 56.0199 213.285 56.0497C213.142 56.0829 212.962 56.0994 212.743 56.0994C212.412 56.0994 212.087 56.0282 211.769 55.8857C211.454 55.7431 211.192 55.526 210.983 55.2344C210.778 54.9427 210.675 54.5748 210.675 54.1307V46.5341ZM218.363 56.1591C217.628 56.1591 216.993 55.9967 216.459 55.6719C215.929 55.3438 215.52 54.8864 215.231 54.2997C214.946 53.7098 214.804 53.0237 214.804 52.2415C214.804 51.4593 214.946 50.7699 215.231 50.1733C215.52 49.5734 215.921 49.1061 216.434 48.7713C216.952 48.4332 217.555 48.2642 218.244 48.2642C218.642 48.2642 219.035 48.3305 219.422 48.4631C219.81 48.5956 220.163 48.8111 220.481 49.1094C220.8 49.4044 221.053 49.7955 221.242 50.2827C221.431 50.7699 221.525 51.3698 221.525 52.0824V52.5795H215.639V51.5653H220.332C220.332 51.1345 220.246 50.75 220.074 50.4119C219.905 50.0739 219.663 49.8071 219.348 49.6115C219.036 49.416 218.668 49.3182 218.244 49.3182C217.777 49.3182 217.372 49.4342 217.031 49.6662C216.693 49.8949 216.433 50.1932 216.251 50.5611C216.068 50.929 215.977 51.3234 215.977 51.7443V52.4205C215.977 52.9972 216.077 53.486 216.275 53.8871C216.478 54.2848 216.758 54.5881 217.116 54.7969C217.474 55.0024 217.89 55.1051 218.363 55.1051C218.672 55.1051 218.95 55.062 219.199 54.9759C219.451 54.8864 219.668 54.7538 219.85 54.5781C220.032 54.3991 220.173 54.1771 220.273 53.9119L221.406 54.2301C221.287 54.6146 221.086 54.9527 220.805 55.2443C220.523 55.5327 220.175 55.758 219.76 55.9205C219.346 56.0795 218.881 56.1591 218.363 56.1591ZM226.194 56.1591C225.557 56.1591 224.996 55.9983 224.508 55.6768C224.021 55.352 223.64 54.8946 223.365 54.3047C223.09 53.7114 222.952 53.0104 222.952 52.2017C222.952 51.3996 223.09 50.7036 223.365 50.1136C223.64 49.5237 224.023 49.0679 224.513 48.7464C225.004 48.425 225.571 48.2642 226.214 48.2642C226.711 48.2642 227.104 48.3471 227.392 48.5128C227.684 48.6752 227.906 48.8608 228.058 49.0696C228.214 49.2751 228.335 49.4441 228.421 49.5767H228.52V45.8182H229.694V56H228.56V54.8267H228.421C228.335 54.9659 228.212 55.1416 228.053 55.3537C227.894 55.5625 227.667 55.7498 227.372 55.9155C227.077 56.0779 226.684 56.1591 226.194 56.1591ZM226.353 55.1051C226.823 55.1051 227.221 54.9825 227.546 54.7372C227.871 54.4886 228.118 54.1456 228.287 53.7081C228.456 53.2673 228.54 52.7585 228.54 52.1818C228.54 51.6117 228.457 51.1129 228.292 50.6854C228.126 50.2545 227.881 49.9197 227.556 49.6811C227.231 49.4392 226.83 49.3182 226.353 49.3182C225.856 49.3182 225.441 49.4458 225.11 49.701C224.782 49.9529 224.535 50.2959 224.369 50.7301C224.207 51.161 224.126 51.6449 224.126 52.1818C224.126 52.7254 224.208 53.2192 224.374 53.6634C224.543 54.1042 224.792 54.4555 225.12 54.7173C225.451 54.9759 225.862 55.1051 226.353 55.1051ZM24.321 76.179C23.8371 76.179 23.398 76.0878 23.0036 75.9055C22.6091 75.7199 22.2959 75.4531 22.0639 75.1051C21.8319 74.7538 21.7159 74.3295 21.7159 73.8324C21.7159 73.3949 21.8021 73.0402 21.9744 72.7685C22.1468 72.4934 22.3771 72.2779 22.6655 72.1222C22.9538 71.9664 23.272 71.8504 23.62 71.7741C23.9714 71.6946 24.3243 71.6316 24.679 71.5852C25.143 71.5256 25.5192 71.4808 25.8075 71.451C26.0992 71.4179 26.3113 71.3632 26.4439 71.2869C26.5798 71.2107 26.6477 71.0781 26.6477 70.8892V70.8494C26.6477 70.3589 26.5135 69.9777 26.245 69.706C25.9799 69.4342 25.5772 69.2983 25.0369 69.2983C24.4768 69.2983 24.0376 69.4209 23.7195 69.6662C23.4013 69.9115 23.1776 70.1733 23.0483 70.4517L21.9347 70.054C22.1335 69.59 22.3987 69.2287 22.7301 68.9702C23.0649 68.7083 23.4295 68.526 23.8239 68.4233C24.2216 68.3172 24.6127 68.2642 24.9972 68.2642C25.2424 68.2642 25.5241 68.294 25.8423 68.3537C26.1638 68.41 26.4737 68.5277 26.772 68.7067C27.0736 68.8857 27.3239 69.1558 27.5227 69.517C27.7216 69.8783 27.821 70.3622 27.821 70.9688V76H26.6477V74.9659H26.5881C26.5085 75.1316 26.3759 75.3089 26.1903 75.4979C26.0047 75.6868 25.7578 75.8475 25.4496 75.9801C25.1413 76.1127 24.7652 76.179 24.321 76.179ZM24.5 75.125C24.964 75.125 25.3551 75.0339 25.6733 74.8516C25.9948 74.6693 26.2367 74.4339 26.3991 74.1456C26.5649 73.8572 26.6477 73.554 26.6477 73.2358V72.1619C26.598 72.2216 26.4886 72.2763 26.3196 72.326C26.1539 72.3724 25.9616 72.4138 25.7429 72.4503C25.5275 72.4834 25.317 72.5133 25.1115 72.5398C24.9093 72.563 24.7453 72.5829 24.6193 72.5994C24.3144 72.6392 24.0294 72.7038 23.7642 72.7933C23.5024 72.8795 23.2902 73.0104 23.1278 73.1861C22.9688 73.3584 22.8892 73.5937 22.8892 73.892C22.8892 74.2997 23.04 74.608 23.3416 74.8168C23.6465 75.0223 24.0327 75.125 24.5 75.125ZM31.1358 71.4062V76H29.9625V68.3636H31.0961V69.5568H31.1955C31.3745 69.169 31.6462 68.8575 32.0108 68.6222C32.3754 68.3835 32.8461 68.2642 33.4228 68.2642C33.9398 68.2642 34.3922 68.3703 34.78 68.5824C35.1678 68.7912 35.4694 69.1094 35.6848 69.5369C35.9003 69.9612 36.008 70.4981 36.008 71.1477V76H34.8347V71.2273C34.8347 70.6274 34.6789 70.16 34.3674 69.8253C34.0558 69.4872 33.6283 69.3182 33.0847 69.3182C32.7102 69.3182 32.3754 69.3994 32.0804 69.5618C31.7888 69.7242 31.5584 69.9612 31.3894 70.2727C31.2203 70.5843 31.1358 70.9621 31.1358 71.4062ZM41.0355 76.1591C40.3991 76.1591 39.8374 75.9983 39.3501 75.6768C38.8629 75.352 38.4818 74.8946 38.2067 74.3047C37.9316 73.7114 37.794 73.0104 37.794 72.2017C37.794 71.3996 37.9316 70.7036 38.2067 70.1136C38.4818 69.5237 38.8646 69.0679 39.3551 68.7464C39.8456 68.425 40.4124 68.2642 41.0554 68.2642C41.5526 68.2642 41.9453 68.3471 42.2337 68.5128C42.5253 68.6752 42.7474 68.8608 42.8999 69.0696C43.0556 69.2751 43.1766 69.4441 43.2628 69.5767H43.3622V65.8182H44.5355V76H43.402V74.8267H43.2628C43.1766 74.9659 43.054 75.1416 42.8949 75.3537C42.7358 75.5625 42.5088 75.7498 42.2138 75.9155C41.9188 76.0779 41.526 76.1591 41.0355 76.1591ZM41.1946 75.1051C41.6652 75.1051 42.063 74.9825 42.3878 74.7372C42.7126 74.4886 42.9595 74.1456 43.1286 73.7081C43.2976 73.2673 43.3821 72.7585 43.3821 72.1818C43.3821 71.6117 43.2992 71.1129 43.1335 70.6854C42.9678 70.2545 42.7225 69.9197 42.3977 69.6811C42.0729 69.4392 41.6719 69.3182 41.1946 69.3182C40.6974 69.3182 40.2831 69.4458 39.9517 69.701C39.6236 69.9529 39.3767 70.2959 39.2109 70.7301C39.0485 71.161 38.9673 71.6449 38.9673 72.1818C38.9673 72.7254 39.0502 73.2192 39.2159 73.6634C39.3849 74.1042 39.6335 74.4555 39.9616 74.7173C40.2931 74.9759 40.7041 75.1051 41.1946 75.1051ZM50.7848 76V68.3636H51.9183V69.5568H52.0178C52.1768 69.1491 52.4337 68.8326 52.7884 68.6072C53.143 68.3786 53.5689 68.2642 54.0661 68.2642C54.5698 68.2642 54.9891 68.3786 55.3239 68.6072C55.6619 68.8326 55.9254 69.1491 56.1143 69.5568H56.1939C56.3894 69.1624 56.6828 68.8492 57.0739 68.6172C57.465 68.3819 57.9339 68.2642 58.4808 68.2642C59.1636 68.2642 59.7221 68.478 60.1562 68.9055C60.5904 69.3298 60.8075 69.991 60.8075 70.8892V76H59.6342V70.8892C59.6342 70.3258 59.4801 69.9231 59.1719 69.6811C58.8636 69.4392 58.5007 69.3182 58.0831 69.3182C57.5462 69.3182 57.1302 69.4806 56.8352 69.8054C56.5402 70.1269 56.3928 70.5346 56.3928 71.0284V76H55.1996V70.7699C55.1996 70.3357 55.0587 69.986 54.777 69.7209C54.4953 69.4524 54.1323 69.3182 53.6882 69.3182C53.3833 69.3182 53.0982 69.3994 52.8331 69.5618C52.5713 69.7242 52.3591 69.9496 52.1967 70.2379C52.0376 70.523 51.9581 70.8527 51.9581 71.2273V76H50.7848ZM65.1999 76.179C64.716 76.179 64.2769 76.0878 63.8825 75.9055C63.488 75.7199 63.1748 75.4531 62.9428 75.1051C62.7108 74.7538 62.5948 74.3295 62.5948 73.8324C62.5948 73.3949 62.681 73.0402 62.8533 72.7685C63.0257 72.4934 63.256 72.2779 63.5444 72.1222C63.8327 71.9664 64.1509 71.8504 64.4989 71.7741C64.8503 71.6946 65.2032 71.6316 65.5579 71.5852C66.0219 71.5256 66.3981 71.4808 66.6864 71.451C66.9781 71.4179 67.1902 71.3632 67.3228 71.2869C67.4587 71.2107 67.5266 71.0781 67.5266 70.8892V70.8494C67.5266 70.3589 67.3924 69.9777 67.1239 69.706C66.8588 69.4342 66.4561 69.2983 65.9158 69.2983C65.3557 69.2983 64.9165 69.4209 64.5984 69.6662C64.2802 69.9115 64.0565 70.1733 63.9272 70.4517L62.8136 70.054C63.0124 69.59 63.2776 69.2287 63.609 68.9702C63.9438 68.7083 64.3084 68.526 64.7028 68.4233C65.1005 68.3172 65.4916 68.2642 65.8761 68.2642C66.1213 68.2642 66.4031 68.294 66.7212 68.3537C67.0427 68.41 67.3526 68.5277 67.6509 68.7067C67.9525 68.8857 68.2028 69.1558 68.4016 69.517C68.6005 69.8783 68.6999 70.3622 68.6999 70.9688V76H67.5266V74.9659H67.467C67.3874 75.1316 67.2549 75.3089 67.0692 75.4979C66.8836 75.6868 66.6367 75.8475 66.3285 75.9801C66.0202 76.1127 65.6441 76.179 65.1999 76.179ZM65.3789 75.125C65.8429 75.125 66.234 75.0339 66.5522 74.8516C66.8737 74.6693 67.1156 74.4339 67.2781 74.1456C67.4438 73.8572 67.5266 73.554 67.5266 73.2358V72.1619C67.4769 72.2216 67.3675 72.2763 67.1985 72.326C67.0328 72.3724 66.8406 72.4138 66.6218 72.4503C66.4064 72.4834 66.1959 72.5133 65.9904 72.5398C65.7882 72.563 65.6242 72.5829 65.4982 72.5994C65.1933 72.6392 64.9083 72.7038 64.6431 72.7933C64.3813 72.8795 64.1692 73.0104 64.0067 73.1861C63.8477 73.3584 63.7681 73.5937 63.7681 73.892C63.7681 74.2997 63.9189 74.608 64.2205 74.8168C64.5254 75.0223 64.9116 75.125 65.3789 75.125ZM70.8414 76V68.3636H72.0147V76H70.8414ZM71.438 67.0909C71.2093 67.0909 71.0121 67.013 70.8464 66.8572C70.684 66.7015 70.6028 66.5142 70.6028 66.2955C70.6028 66.0767 70.684 65.8894 70.8464 65.7337C71.0121 65.5779 71.2093 65.5 71.438 65.5C71.6667 65.5 71.8623 65.5779 72.0247 65.7337C72.1904 65.8894 72.2733 66.0767 72.2733 66.2955C72.2733 66.5142 72.1904 66.7015 72.0247 66.8572C71.8623 67.013 71.6667 67.0909 71.438 67.0909ZM75.337 71.4062V76H74.1637V68.3636H75.2972V69.5568H75.3967C75.5756 69.169 75.8474 68.8575 76.212 68.6222C76.5766 68.3835 77.0472 68.2642 77.6239 68.2642C78.141 68.2642 78.5934 68.3703 78.9812 68.5824C79.369 68.7912 79.6706 69.1094 79.886 69.5369C80.1014 69.9612 80.2092 70.4981 80.2092 71.1477V76H79.0359V71.2273C79.0359 70.6274 78.8801 70.16 78.5685 69.8253C78.257 69.4872 77.8294 69.3182 77.2859 69.3182C76.9113 69.3182 76.5766 69.3994 76.2816 69.5618C75.9899 69.7242 75.7596 69.9612 75.5906 70.2727C75.4215 70.5843 75.337 70.9621 75.337 71.4062ZM85.6742 68.3636V69.358H81.7168V68.3636H85.6742ZM82.8702 66.5341H84.0435V73.8125C84.0435 74.1439 84.0916 74.3925 84.1877 74.5582C84.2871 74.7206 84.4131 74.83 84.5655 74.8864C84.7213 74.9394 84.8854 74.9659 85.0577 74.9659C85.187 74.9659 85.293 74.9593 85.3759 74.946C85.4587 74.9295 85.525 74.9162 85.5748 74.9062L85.8134 75.9602C85.7338 75.9901 85.6228 76.0199 85.4803 76.0497C85.3378 76.0829 85.1571 76.0994 84.9384 76.0994C84.6069 76.0994 84.2821 76.0282 83.964 75.8857C83.6491 75.7431 83.3873 75.526 83.1784 75.2344C82.973 74.9427 82.8702 74.5748 82.8702 74.1307V66.5341ZM89.6863 76.179C89.2024 76.179 88.7632 76.0878 88.3688 75.9055C87.9744 75.7199 87.6612 75.4531 87.4292 75.1051C87.1971 74.7538 87.0811 74.3295 87.0811 73.8324C87.0811 73.3949 87.1673 73.0402 87.3397 72.7685C87.512 72.4934 87.7424 72.2779 88.0307 72.1222C88.3191 71.9664 88.6373 71.8504 88.9853 71.7741C89.3366 71.6946 89.6896 71.6316 90.0442 71.5852C90.5082 71.5256 90.8844 71.4808 91.1728 71.451C91.4644 71.4179 91.6766 71.3632 91.8091 71.2869C91.945 71.2107 92.013 71.0781 92.013 70.8892V70.8494C92.013 70.3589 91.8787 69.9777 91.6103 69.706C91.3451 69.4342 90.9424 69.2983 90.4022 69.2983C89.842 69.2983 89.4029 69.4209 89.0847 69.6662C88.7665 69.9115 88.5428 70.1733 88.4135 70.4517L87.2999 70.054C87.4988 69.59 87.7639 69.2287 88.0953 68.9702C88.4301 68.7083 88.7947 68.526 89.1891 68.4233C89.5868 68.3172 89.9779 68.2642 90.3624 68.2642C90.6077 68.2642 90.8894 68.294 91.2076 68.3537C91.5291 68.41 91.839 68.5277 92.1373 68.7067C92.4389 68.8857 92.6891 69.1558 92.888 69.517C93.0868 69.8783 93.1863 70.3622 93.1863 70.9688V76H92.013V74.9659H91.9533C91.8738 75.1316 91.7412 75.3089 91.5556 75.4979C91.37 75.6868 91.123 75.8475 90.8148 75.9801C90.5066 76.1127 90.1304 76.179 89.6863 76.179ZM89.8652 75.125C90.3292 75.125 90.7203 75.0339 91.0385 74.8516C91.36 74.6693 91.602 74.4339 91.7644 74.1456C91.9301 73.8572 92.013 73.554 92.013 73.2358V72.1619C91.9632 72.2216 91.8539 72.2763 91.6848 72.326C91.5191 72.3724 91.3269 72.4138 91.1081 72.4503C90.8927 72.4834 90.6822 72.5133 90.4767 72.5398C90.2746 72.563 90.1105 72.5829 89.9846 72.5994C89.6796 72.6392 89.3946 72.7038 89.1294 72.7933C88.8676 72.8795 88.6555 73.0104 88.4931 73.1861C88.334 73.3584 88.2544 73.5937 88.2544 73.892C88.2544 74.2997 88.4052 74.608 88.7069 74.8168C89.0118 75.0223 89.3979 75.125 89.8652 75.125ZM95.3278 76V68.3636H96.5011V76H95.3278ZM95.9244 67.0909C95.6957 67.0909 95.4985 67.013 95.3327 66.8572C95.1703 66.7015 95.0891 66.5142 95.0891 66.2955C95.0891 66.0767 95.1703 65.8894 95.3327 65.7337C95.4985 65.5779 95.6957 65.5 95.9244 65.5C96.1531 65.5 96.3486 65.5779 96.511 65.7337C96.6767 65.8894 96.7596 66.0767 96.7596 66.2955C96.7596 66.5142 96.6767 66.7015 96.511 66.8572C96.3486 67.013 96.1531 67.0909 95.9244 67.0909ZM99.8233 71.4062V76H98.65V68.3636H99.7836V69.5568H99.883C100.062 69.169 100.334 68.8575 100.698 68.6222C101.063 68.3835 101.534 68.2642 102.11 68.2642C102.627 68.2642 103.08 68.3703 103.468 68.5824C103.855 68.7912 104.157 69.1094 104.372 69.5369C104.588 69.9612 104.695 70.4981 104.695 71.1477V76H103.522V71.2273C103.522 70.6274 103.366 70.16 103.055 69.8253C102.743 69.4872 102.316 69.3182 101.772 69.3182C101.398 69.3182 101.063 69.3994 100.768 69.5618C100.476 69.7242 100.246 69.9612 100.077 70.2727C99.9078 70.5843 99.8233 70.9621 99.8233 71.4062ZM110.041 76.1591C109.305 76.1591 108.671 75.9967 108.137 75.6719C107.607 75.3438 107.197 74.8864 106.909 74.2997C106.624 73.7098 106.482 73.0237 106.482 72.2415C106.482 71.4593 106.624 70.7699 106.909 70.1733C107.197 69.5734 107.598 69.1061 108.112 68.7713C108.629 68.4332 109.232 68.2642 109.922 68.2642C110.32 68.2642 110.712 68.3305 111.1 68.4631C111.488 68.5956 111.841 68.8111 112.159 69.1094C112.477 69.4044 112.731 69.7955 112.92 70.2827C113.109 70.7699 113.203 71.3698 113.203 72.0824V72.5795H107.317V71.5653H112.01C112.01 71.1345 111.924 70.75 111.751 70.4119C111.582 70.0739 111.34 69.8071 111.026 69.6115C110.714 69.416 110.346 69.3182 109.922 69.3182C109.455 69.3182 109.05 69.4342 108.709 69.6662C108.371 69.8949 108.111 70.1932 107.928 70.5611C107.746 70.929 107.655 71.3234 107.655 71.7443V72.4205C107.655 72.9972 107.754 73.486 107.953 73.8871C108.155 74.2848 108.435 74.5881 108.793 74.7969C109.151 75.0024 109.567 75.1051 110.041 75.1051C110.349 75.1051 110.628 75.062 110.876 74.9759C111.128 74.8864 111.345 74.7538 111.528 74.5781C111.71 74.3991 111.851 74.1771 111.95 73.9119L113.084 74.2301C112.964 74.6146 112.764 74.9527 112.482 75.2443C112.201 75.5327 111.853 75.758 111.438 75.9205C111.024 76.0795 110.558 76.1591 110.041 76.1591ZM117.871 76.1591C117.235 76.1591 116.673 75.9983 116.186 75.6768C115.699 75.352 115.318 74.8946 115.043 74.3047C114.768 73.7114 114.63 73.0104 114.63 72.2017C114.63 71.3996 114.768 70.7036 115.043 70.1136C115.318 69.5237 115.701 69.0679 116.191 68.7464C116.682 68.425 117.248 68.2642 117.891 68.2642C118.388 68.2642 118.781 68.3471 119.07 68.5128C119.361 68.6752 119.583 68.8608 119.736 69.0696C119.892 69.2751 120.013 69.4441 120.099 69.5767H120.198V65.8182H121.371V76H120.238V74.8267H120.099C120.013 74.9659 119.89 75.1416 119.731 75.3537C119.572 75.5625 119.345 75.7498 119.05 75.9155C118.755 76.0779 118.362 76.1591 117.871 76.1591ZM118.031 75.1051C118.501 75.1051 118.899 74.9825 119.224 74.7372C119.549 74.4886 119.795 74.1456 119.964 73.7081C120.134 73.2673 120.218 72.7585 120.218 72.1818C120.218 71.6117 120.135 71.1129 119.969 70.6854C119.804 70.2545 119.558 69.9197 119.234 69.6811C118.909 69.4392 118.508 69.3182 118.031 69.3182C117.533 69.3182 117.119 69.4458 116.788 69.701C116.46 69.9529 116.213 70.2959 116.047 70.7301C115.884 71.161 115.803 71.6449 115.803 72.1818C115.803 72.7254 115.886 73.2192 116.052 73.6634C116.221 74.1042 116.469 74.4555 116.798 74.7173C117.129 74.9759 117.54 75.1051 118.031 75.1051ZM127.78 76V65.8182H128.953V69.5767H129.053C129.139 69.4441 129.258 69.2751 129.411 69.0696C129.566 68.8608 129.788 68.6752 130.077 68.5128C130.368 68.3471 130.763 68.2642 131.26 68.2642C131.903 68.2642 132.47 68.425 132.96 68.7464C133.451 69.0679 133.834 69.5237 134.109 70.1136C134.384 70.7036 134.521 71.3996 134.521 72.2017C134.521 73.0104 134.384 73.7114 134.109 74.3047C133.834 74.8946 133.452 75.352 132.965 75.6768C132.478 75.9983 131.916 76.1591 131.28 76.1591C130.789 76.1591 130.397 76.0779 130.102 75.9155C129.807 75.7498 129.58 75.5625 129.42 75.3537C129.261 75.1416 129.139 74.9659 129.053 74.8267H128.913V76H127.78ZM128.933 72.1818C128.933 72.7585 129.018 73.2673 129.187 73.7081C129.356 74.1456 129.603 74.4886 129.928 74.7372C130.252 74.9825 130.65 75.1051 131.121 75.1051C131.611 75.1051 132.021 74.9759 132.349 74.7173C132.68 74.4555 132.929 74.1042 133.094 73.6634C133.263 73.2192 133.348 72.7254 133.348 72.1818C133.348 71.6449 133.265 71.161 133.099 70.7301C132.937 70.2959 132.69 69.9529 132.359 69.701C132.031 69.4458 131.618 69.3182 131.121 69.3182C130.643 69.3182 130.242 69.4392 129.918 69.6811C129.593 69.9197 129.348 70.2545 129.182 70.6854C129.016 71.1129 128.933 71.6117 128.933 72.1818ZM136.798 78.8636C136.599 78.8636 136.422 78.8471 136.266 78.8139C136.111 78.7841 136.003 78.7543 135.943 78.7244L136.241 77.6903C136.527 77.7633 136.778 77.7898 136.997 77.7699C137.216 77.75 137.41 77.6522 137.579 77.4766C137.751 77.3042 137.909 77.0241 138.051 76.6364L138.27 76.0398L135.446 68.3636H136.719L138.827 74.4489H138.906L141.014 68.3636H142.287L139.045 77.1136C138.9 77.508 138.719 77.8345 138.504 78.093C138.288 78.3549 138.038 78.5488 137.753 78.6747C137.471 78.8007 137.153 78.8636 136.798 78.8636ZM153.64 78.6847C152.625 78.6847 151.729 78.5455 150.95 78.267C150.171 77.992 149.516 77.5859 148.986 77.049C148.456 76.5121 148.055 75.8542 147.783 75.0753C147.511 74.2964 147.375 73.4048 147.375 72.4006C147.375 71.4295 147.513 70.5611 147.788 69.7955C148.066 69.0298 148.469 68.3802 148.996 67.8466C149.526 67.3097 150.169 66.9003 150.925 66.6186C151.684 66.3369 152.542 66.196 153.5 66.196C154.432 66.196 155.247 66.3485 155.946 66.6534C156.649 66.955 157.236 67.3643 157.706 67.8814C158.18 68.3951 158.535 68.9735 158.77 69.6165C159.009 70.2595 159.128 70.9223 159.128 71.6051C159.128 72.0857 159.105 72.5729 159.059 73.0668C159.012 73.5606 158.914 74.0147 158.765 74.429C158.616 74.84 158.386 75.1714 158.074 75.4233C157.766 75.6752 157.348 75.8011 156.821 75.8011C156.589 75.8011 156.334 75.7647 156.056 75.6918C155.777 75.6188 155.53 75.4979 155.315 75.3288C155.1 75.1598 154.972 74.9328 154.932 74.6477H154.873C154.793 74.84 154.67 75.0223 154.505 75.1946C154.342 75.367 154.128 75.5045 153.863 75.6072C153.601 75.71 153.282 75.7547 152.904 75.7415C152.473 75.7249 152.093 75.6288 151.765 75.4531C151.437 75.2741 151.162 75.0322 150.94 74.7273C150.721 74.419 150.556 74.0627 150.443 73.6584C150.333 73.2507 150.279 72.8116 150.279 72.3409C150.279 71.8935 150.345 71.4841 150.478 71.1129C150.61 70.7417 150.794 70.4169 151.029 70.1385C151.268 69.8601 151.547 69.638 151.865 69.4723C152.186 69.3033 152.533 69.1989 152.904 69.1591C153.235 69.1259 153.537 69.1409 153.809 69.2038C154.08 69.2635 154.304 69.3546 154.48 69.4773C154.655 69.5966 154.766 69.7292 154.813 69.875H154.873V69.3182H155.926V73.8125C155.926 74.0909 156.004 74.3362 156.16 74.5483C156.316 74.7604 156.543 74.8665 156.841 74.8665C157.179 74.8665 157.438 74.7505 157.617 74.5185C157.799 74.2865 157.923 73.9285 157.99 73.4446C158.059 72.9607 158.094 72.3409 158.094 71.5852C158.094 71.1411 158.033 70.7036 157.91 70.2727C157.791 69.8385 157.609 69.4325 157.363 69.0547C157.121 68.6768 156.815 68.3437 156.444 68.0554C156.072 67.767 155.636 67.5417 155.136 67.3793C154.639 67.2135 154.074 67.1307 153.441 67.1307C152.662 67.1307 151.964 67.2517 151.348 67.4936C150.734 67.7322 150.212 68.0819 149.782 68.5426C149.354 69 149.028 69.5568 148.802 70.2131C148.58 70.866 148.469 71.6084 148.469 72.4403C148.469 73.2855 148.58 74.0362 148.802 74.6925C149.028 75.3487 149.359 75.9022 149.797 76.353C150.237 76.8037 150.783 77.1451 151.432 77.3771C152.082 77.6125 152.831 77.7301 153.679 77.7301C154.044 77.7301 154.404 77.6953 154.758 77.6257C155.113 77.5561 155.426 77.4799 155.698 77.397C155.97 77.3142 156.165 77.2528 156.284 77.2131L156.563 78.1278C156.357 78.214 156.089 78.3002 155.757 78.3864C155.429 78.4725 155.078 78.5438 154.703 78.6001C154.332 78.6565 153.978 78.6847 153.64 78.6847ZM153.063 74.7273C153.507 74.7273 153.867 74.6378 154.142 74.4588C154.417 74.2798 154.617 74.0097 154.743 73.6484C154.869 73.2872 154.932 72.8314 154.932 72.2812C154.932 71.7244 154.863 71.2902 154.723 70.9787C154.584 70.6671 154.379 70.4484 154.107 70.3224C153.835 70.1965 153.5 70.1335 153.103 70.1335C152.725 70.1335 152.402 70.233 152.133 70.4318C151.868 70.6274 151.664 70.8892 151.522 71.2173C151.382 71.5421 151.313 71.8968 151.313 72.2812C151.313 72.7055 151.369 73.1049 151.482 73.4794C151.595 73.8506 151.779 74.1522 152.034 74.3842C152.289 74.6129 152.632 74.7273 153.063 74.7273ZM167.129 68.3636L164.305 76H163.112L160.288 68.3636H161.561L163.669 74.4489H163.748L165.856 68.3636H167.129ZM171.606 76.1591C170.87 76.1591 170.235 75.9967 169.702 75.6719C169.171 75.3438 168.762 74.8864 168.474 74.2997C168.189 73.7098 168.046 73.0237 168.046 72.2415C168.046 71.4593 168.189 70.7699 168.474 70.1733C168.762 69.5734 169.163 69.1061 169.677 68.7713C170.194 68.4332 170.797 68.2642 171.486 68.2642C171.884 68.2642 172.277 68.3305 172.665 68.4631C173.052 68.5956 173.405 68.8111 173.724 69.1094C174.042 69.4044 174.295 69.7955 174.484 70.2827C174.673 70.7699 174.768 71.3698 174.768 72.0824V72.5795H168.881V71.5653H173.574C173.574 71.1345 173.488 70.75 173.316 70.4119C173.147 70.0739 172.905 69.8071 172.59 69.6115C172.278 69.416 171.911 69.3182 171.486 69.3182C171.019 69.3182 170.615 69.4342 170.273 69.6662C169.935 69.8949 169.675 70.1932 169.493 70.5611C169.31 70.929 169.219 71.3234 169.219 71.7443V72.4205C169.219 72.9972 169.319 73.486 169.518 73.8871C169.72 74.2848 170 74.5881 170.358 74.7969C170.716 75.0024 171.132 75.1051 171.606 75.1051C171.914 75.1051 172.192 75.062 172.441 74.9759C172.693 74.8864 172.91 74.7538 173.092 74.5781C173.274 74.3991 173.415 74.1771 173.515 73.9119L174.648 74.2301C174.529 74.6146 174.328 74.9527 174.047 75.2443C173.765 75.5327 173.417 75.758 173.003 75.9205C172.588 76.0795 172.123 76.1591 171.606 76.1591ZM176.552 76V68.3636H177.686V69.517H177.765C177.905 69.1392 178.157 68.8326 178.521 68.5973C178.886 68.362 179.297 68.2443 179.754 68.2443C179.84 68.2443 179.948 68.246 180.077 68.2493C180.206 68.2526 180.304 68.2576 180.371 68.2642V69.4574C180.331 69.4474 180.24 69.4325 180.097 69.4126C179.958 69.3894 179.81 69.3778 179.655 69.3778C179.283 69.3778 178.952 69.4557 178.66 69.6115C178.372 69.764 178.143 69.9761 177.974 70.2479C177.809 70.5163 177.726 70.8229 177.726 71.1676V76H176.552ZM184.631 76.1591C183.915 76.1591 183.299 75.9901 182.782 75.652C182.265 75.3139 181.867 74.8482 181.589 74.255C181.31 73.6617 181.171 72.9839 181.171 72.2216C181.171 71.446 181.314 70.7616 181.599 70.1683C181.887 69.5717 182.288 69.1061 182.802 68.7713C183.319 68.4332 183.922 68.2642 184.611 68.2642C185.148 68.2642 185.632 68.3636 186.063 68.5625C186.494 68.7614 186.847 69.0398 187.122 69.3977C187.397 69.7557 187.568 70.1733 187.634 70.6506H186.461C186.371 70.3026 186.172 69.9943 185.864 69.7259C185.559 69.4541 185.148 69.3182 184.631 69.3182C184.174 69.3182 183.773 69.4375 183.428 69.6761C183.087 69.9115 182.82 70.2446 182.628 70.6754C182.439 71.103 182.344 71.6051 182.344 72.1818C182.344 72.7718 182.437 73.2855 182.623 73.723C182.812 74.1605 183.077 74.5002 183.418 74.7422C183.763 74.9841 184.167 75.1051 184.631 75.1051C184.936 75.1051 185.213 75.0521 185.461 74.946C185.71 74.84 185.921 74.6875 186.093 74.4886C186.265 74.2898 186.388 74.0511 186.461 73.7727H187.634C187.568 74.2235 187.404 74.6295 187.142 74.9908C186.883 75.3487 186.54 75.6338 186.113 75.8459C185.689 76.0547 185.195 76.1591 184.631 76.1591ZM192.551 76.1591C191.815 76.1591 191.18 75.9967 190.647 75.6719C190.117 75.3438 189.707 74.8864 189.419 74.2997C189.134 73.7098 188.991 73.0237 188.991 72.2415C188.991 71.4593 189.134 70.7699 189.419 70.1733C189.707 69.5734 190.108 69.1061 190.622 68.7713C191.139 68.4332 191.742 68.2642 192.432 68.2642C192.829 68.2642 193.222 68.3305 193.61 68.4631C193.998 68.5956 194.351 68.8111 194.669 69.1094C194.987 69.4044 195.241 69.7955 195.43 70.2827C195.618 70.7699 195.713 71.3698 195.713 72.0824V72.5795H189.827V71.5653H194.52C194.52 71.1345 194.434 70.75 194.261 70.4119C194.092 70.0739 193.85 69.8071 193.535 69.6115C193.224 69.416 192.856 69.3182 192.432 69.3182C191.964 69.3182 191.56 69.4342 191.219 69.6662C190.881 69.8949 190.62 70.1932 190.438 70.5611C190.256 70.929 190.165 71.3234 190.165 71.7443V72.4205C190.165 72.9972 190.264 73.486 190.463 73.8871C190.665 74.2848 190.945 74.5881 191.303 74.7969C191.661 75.0024 192.077 75.1051 192.551 75.1051C192.859 75.1051 193.138 75.062 193.386 74.9759C193.638 74.8864 193.855 74.7538 194.037 74.5781C194.22 74.3991 194.361 74.1771 194.46 73.9119L195.594 74.2301C195.474 74.6146 195.274 74.9527 194.992 75.2443C194.71 75.5327 194.362 75.758 193.948 75.9205C193.534 76.0795 193.068 76.1591 192.551 76.1591ZM198.671 65.8182V76H197.498V65.8182H198.671Z" fill="#0F172A"/>
<path d="M33.6667 87.6667H24.3333C23.597 87.6667 23 88.2637 23 89.0001V98.3334C23 99.0698 23.597 99.6667 24.3333 99.6667H33.6667C34.403 99.6667 35 99.0698 35 98.3334V89.0001C35 88.2637 34.403 87.6667 33.6667 87.6667Z" stroke="#64748B" stroke-width="1.33333" stroke-linecap="round" stroke-linejoin="round"/>
<path d="M31.6667 86.3333V88.9999" stroke="#64748B" stroke-width="1.33333" stroke-linecap="round" stroke-linejoin="round"/>
<path d="M26.3333 86.3333V88.9999" stroke="#64748B" stroke-width="1.33333" stroke-linecap="round" stroke-linejoin="round"/>
<path d="M23 91.6667H35" stroke="#64748B" stroke-width="1.33333" stroke-linecap="round" stroke-linejoin="round"/>
<path d="M26.3333 94.3333H26.3433" stroke="#64748B" stroke-width="1.33333" stroke-linecap="round" stroke-linejoin="round"/>
<path d="M29 94.3333H29.01" stroke="#64748B" stroke-width="1.33333" stroke-linecap="round" stroke-linejoin="round"/>
<path d="M31.6667 94.3333H31.6767" stroke="#64748B" stroke-width="1.33333" stroke-linecap="round" stroke-linejoin="round"/>
<path d="M26.3333 97H26.3433" stroke="#64748B" stroke-width="1.33333" stroke-linecap="round" stroke-linejoin="round"/>
<path d="M29 97H29.01" stroke="#64748B" stroke-width="1.33333" stroke-linecap="round" stroke-linejoin="round"/>
<path d="M31.6667 97H31.6767" stroke="#64748B" stroke-width="1.33333" stroke-linecap="round" stroke-linejoin="round"/>
<path d="M45.3977 88.2727H46.4545V94.5114C46.4545 95.0682 46.3523 95.5412 46.1477 95.9304C45.9432 96.3196 45.6548 96.6151 45.2827 96.8168C44.9105 97.0185 44.4716 97.1193 43.9659 97.1193C43.4886 97.1193 43.0639 97.0327 42.6918 96.8594C42.3196 96.6832 42.027 96.4332 41.8139 96.1094C41.6009 95.7855 41.4943 95.4006 41.4943 94.9545H42.5341C42.5341 95.2017 42.5952 95.4176 42.7173 95.6023C42.8423 95.7841 43.0128 95.9261 43.2287 96.0284C43.4446 96.1307 43.6903 96.1818 43.9659 96.1818C44.2699 96.1818 44.5284 96.1179 44.7415 95.9901C44.9545 95.8622 45.1165 95.6747 45.2273 95.4276C45.3409 95.1776 45.3977 94.8722 45.3977 94.5114V88.2727ZM51.0952 97.1364C50.5043 97.1364 49.9858 96.9957 49.5398 96.7145C49.0966 96.4332 48.75 96.0398 48.5 95.5341C48.2528 95.0284 48.1293 94.4375 48.1293 93.7614C48.1293 93.0795 48.2528 92.4844 48.5 91.9759C48.75 91.4673 49.0966 91.0724 49.5398 90.7912C49.9858 90.5099 50.5043 90.3693 51.0952 90.3693C51.6861 90.3693 52.2031 90.5099 52.6463 90.7912C53.0923 91.0724 53.4389 91.4673 53.6861 91.9759C53.9361 92.4844 54.0611 93.0795 54.0611 93.7614C54.0611 94.4375 53.9361 95.0284 53.6861 95.5341C53.4389 96.0398 53.0923 96.4332 52.6463 96.7145C52.2031 96.9957 51.6861 97.1364 51.0952 97.1364ZM51.0952 96.233C51.544 96.233 51.9134 96.1179 52.2031 95.8878C52.4929 95.6577 52.7074 95.3551 52.8466 94.9801C52.9858 94.6051 53.0554 94.1989 53.0554 93.7614C53.0554 93.3239 52.9858 92.9162 52.8466 92.5384C52.7074 92.1605 52.4929 91.8551 52.2031 91.6222C51.9134 91.3892 51.544 91.2727 51.0952 91.2727C50.6463 91.2727 50.277 91.3892 49.9872 91.6222C49.6974 91.8551 49.483 92.1605 49.3438 92.5384C49.2045 92.9162 49.1349 93.3239 49.1349 93.7614C49.1349 94.1989 49.2045 94.6051 49.3438 94.9801C49.483 95.3551 49.6974 95.6577 49.9872 95.8878C50.277 96.1179 50.6463 96.233 51.0952 96.233ZM55.5962 97V90.4545H56.6019V97H55.5962ZM56.1076 89.3636C55.9116 89.3636 55.7425 89.2969 55.6005 89.1634C55.4613 89.0298 55.3917 88.8693 55.3917 88.6818C55.3917 88.4943 55.4613 88.3338 55.6005 88.2003C55.7425 88.0668 55.9116 88 56.1076 88C56.3036 88 56.4712 88.0668 56.6104 88.2003C56.7525 88.3338 56.8235 88.4943 56.8235 88.6818C56.8235 88.8693 56.7525 89.0298 56.6104 89.1634C56.4712 89.2969 56.3036 89.3636 56.1076 89.3636ZM59.4496 93.0625V97H58.4439V90.4545H59.4155V91.4773H59.5007C59.6541 91.1449 59.8871 90.8778 60.1996 90.6761C60.5121 90.4716 60.9155 90.3693 61.4098 90.3693C61.853 90.3693 62.2408 90.4602 62.5732 90.642C62.9055 90.821 63.1641 91.0938 63.3487 91.4602C63.5334 91.8239 63.6257 92.2841 63.6257 92.8409V97H62.62V92.9091C62.62 92.3949 62.4865 91.9943 62.2195 91.7074C61.9524 91.4176 61.5859 91.2727 61.12 91.2727C60.799 91.2727 60.5121 91.3423 60.2592 91.4815C60.0092 91.6207 59.8118 91.8239 59.6669 92.0909C59.522 92.358 59.4496 92.6818 59.4496 93.0625ZM68.2077 97.1364C67.5771 97.1364 67.033 96.9972 66.5756 96.7188C66.1211 96.4375 65.7702 96.0455 65.5231 95.5426C65.2788 95.0369 65.1566 94.4489 65.1566 93.7784C65.1566 93.108 65.2788 92.517 65.5231 92.0057C65.7702 91.4915 66.114 91.0909 66.5543 90.804C66.9975 90.5142 67.5146 90.3693 68.1055 90.3693C68.4464 90.3693 68.783 90.4261 69.1154 90.5398C69.4478 90.6534 69.7504 90.8381 70.0231 91.0938C70.2958 91.3466 70.5131 91.6818 70.6751 92.0994C70.837 92.517 70.918 93.0312 70.918 93.642V94.0682H65.8725V93.1989H69.8952C69.8952 92.8295 69.8214 92.5 69.6737 92.2102C69.5288 91.9205 69.3214 91.6918 69.0515 91.5241C68.7844 91.3565 68.4691 91.2727 68.1055 91.2727C67.7049 91.2727 67.3583 91.3722 67.0657 91.571C66.7759 91.767 66.5529 92.0227 66.3967 92.3381C66.2404 92.6534 66.1623 92.9915 66.1623 93.3523V93.9318C66.1623 94.4261 66.2475 94.8452 66.418 95.1889C66.5913 95.5298 66.8313 95.7898 67.1381 95.9688C67.445 96.1449 67.8015 96.233 68.2077 96.233C68.4719 96.233 68.7106 96.196 68.9237 96.1222C69.1396 96.0455 69.3256 95.9318 69.4819 95.7812C69.6381 95.6278 69.7589 95.4375 69.8441 95.2102L70.8157 95.483C70.7134 95.8125 70.5415 96.1023 70.3001 96.3523C70.0586 96.5994 69.7603 96.7926 69.4052 96.9318C69.0501 97.0682 68.6509 97.1364 68.2077 97.1364ZM74.9194 97.1364C74.3739 97.1364 73.8924 96.9986 73.4748 96.723C73.0572 96.4446 72.7305 96.0526 72.4947 95.5469C72.2589 95.0384 72.141 94.4375 72.141 93.7443C72.141 93.0568 72.2589 92.4602 72.4947 91.9545C72.7305 91.4489 73.0586 91.0582 73.479 90.7827C73.8995 90.5071 74.3853 90.3693 74.9364 90.3693C75.3626 90.3693 75.6992 90.4403 75.9464 90.5824C76.1964 90.7216 76.3867 90.8807 76.5174 91.0597C76.6509 91.2358 76.7546 91.3807 76.8285 91.4943H76.9137V88.2727H77.9194V97H76.9478V95.9943H76.8285C76.7546 96.1136 76.6495 96.2642 76.5131 96.446C76.3768 96.625 76.1822 96.7855 75.9293 96.9276C75.6765 97.0668 75.3398 97.1364 74.9194 97.1364ZM75.0558 96.233C75.4592 96.233 75.8001 96.1278 76.0785 95.9176C76.3569 95.7045 76.5685 95.4105 76.7134 95.0355C76.8583 94.6577 76.9308 94.2216 76.9308 93.7273C76.9308 93.2386 76.8597 92.8111 76.7177 92.4446C76.5756 92.0753 76.3654 91.7884 76.087 91.5838C75.8086 91.3764 75.4648 91.2727 75.0558 91.2727C74.6296 91.2727 74.2745 91.3821 73.9904 91.6009C73.7092 91.8168 73.4975 92.1108 73.3555 92.483C73.2163 92.8523 73.1467 93.267 73.1467 93.7273C73.1467 94.1932 73.2177 94.6165 73.3597 94.9972C73.5046 95.375 73.7177 95.6761 73.9989 95.9006C74.283 96.1222 74.6353 96.233 75.0558 96.233ZM86.1055 97H83.4123V88.2727H86.2248C87.0714 88.2727 87.7958 88.4474 88.3981 88.7969C89.0004 89.1435 89.462 89.642 89.783 90.2926C90.104 90.9403 90.2646 91.7159 90.2646 92.6193C90.2646 93.5284 90.1026 94.3111 89.7788 94.9673C89.4549 95.6207 88.9833 96.1236 88.364 96.4759C87.7447 96.8253 86.9918 97 86.1055 97ZM84.4691 96.0625H86.0373C86.7589 96.0625 87.3569 95.9233 87.8313 95.6449C88.3058 95.3665 88.6594 94.9702 88.8924 94.456C89.1254 93.9418 89.2418 93.3295 89.2418 92.6193C89.2418 91.9148 89.1268 91.3082 88.8967 90.7997C88.6665 90.2884 88.3228 89.8963 87.8654 89.6236C87.408 89.348 86.8384 89.2102 86.1566 89.2102H84.4691V96.0625ZM94.6452 97.1364C94.0146 97.1364 93.4705 96.9972 93.0131 96.7188C92.5586 96.4375 92.2077 96.0455 91.9606 95.5426C91.7163 95.0369 91.5941 94.4489 91.5941 93.7784C91.5941 93.108 91.7163 92.517 91.9606 92.0057C92.2077 91.4915 92.5515 91.0909 92.9918 90.804C93.435 90.5142 93.9521 90.3693 94.543 90.3693C94.8839 90.3693 95.2205 90.4261 95.5529 90.5398C95.8853 90.6534 96.1879 90.8381 96.4606 91.0938C96.7333 91.3466 96.9506 91.6818 97.1126 92.0994C97.2745 92.517 97.3555 93.0312 97.3555 93.642V94.0682H92.31V93.1989H96.3327C96.3327 92.8295 96.2589 92.5 96.1112 92.2102C95.9663 91.9205 95.7589 91.6918 95.489 91.5241C95.2219 91.3565 94.9066 91.2727 94.543 91.2727C94.1424 91.2727 93.7958 91.3722 93.5032 91.571C93.2134 91.767 92.9904 92.0227 92.8342 92.3381C92.6779 92.6534 92.5998 92.9915 92.5998 93.3523V93.9318C92.5998 94.4261 92.685 94.8452 92.8555 95.1889C93.0288 95.5298 93.2688 95.7898 93.5756 95.9688C93.8825 96.1449 94.239 96.233 94.6452 96.233C94.9094 96.233 95.1481 96.196 95.3612 96.1222C95.5771 96.0455 95.7631 95.9318 95.9194 95.7812C96.0756 95.6278 96.1964 95.4375 96.2816 95.2102L97.2532 95.483C97.1509 95.8125 96.979 96.1023 96.7376 96.3523C96.4961 96.5994 96.1978 96.7926 95.8427 96.9318C95.4876 97.0682 95.0884 97.1364 94.6452 97.1364ZM101.544 97.1364C100.931 97.1364 100.402 96.9915 99.9592 96.7017C99.516 96.4119 99.1751 96.0128 98.9364 95.5043C98.6978 94.9957 98.5785 94.4148 98.5785 93.7614C98.5785 93.0966 98.7006 92.5099 98.945 92.0014C99.1921 91.4901 99.5359 91.0909 99.9762 90.804C100.419 90.5142 100.936 90.3693 101.527 90.3693C101.988 90.3693 102.402 90.4545 102.772 90.625C103.141 90.7955 103.444 91.0341 103.679 91.3409C103.915 91.6477 104.061 92.0057 104.118 92.4148H103.113C103.036 92.1165 102.865 91.8523 102.601 91.6222C102.34 91.3892 101.988 91.2727 101.544 91.2727C101.152 91.2727 100.809 91.375 100.513 91.5795C100.221 91.7812 99.9918 92.0668 99.8271 92.4361C99.6651 92.8026 99.5842 93.233 99.5842 93.7273C99.5842 94.233 99.6637 94.6733 99.8228 95.0483C99.9847 95.4233 100.212 95.7145 100.505 95.9219C100.8 96.1293 101.147 96.233 101.544 96.233C101.806 96.233 102.043 96.1875 102.256 96.0966C102.469 96.0057 102.65 95.875 102.797 95.7045C102.945 95.5341 103.05 95.3295 103.113 95.0909H104.118C104.061 95.4773 103.921 95.8253 103.696 96.1349C103.475 96.4418 103.181 96.6861 102.814 96.8679C102.451 97.0469 102.027 97.1364 101.544 97.1364ZM108.333 97.1364C107.702 97.1364 107.158 96.9972 106.701 96.7188C106.246 96.4375 105.895 96.0455 105.648 95.5426C105.404 95.0369 105.282 94.4489 105.282 93.7784C105.282 93.108 105.404 92.517 105.648 92.0057C105.895 91.4915 106.239 91.0909 106.679 90.804C107.123 90.5142 107.64 90.3693 108.23 90.3693C108.571 90.3693 108.908 90.4261 109.24 90.5398C109.573 90.6534 109.875 90.8381 110.148 91.0938C110.421 91.3466 110.638 91.6818 110.8 92.0994C110.962 92.517 111.043 93.0312 111.043 93.642V94.0682H105.998V93.1989H110.02C110.02 92.8295 109.946 92.5 109.799 92.2102C109.654 91.9205 109.446 91.6918 109.176 91.5241C108.909 91.3565 108.594 91.2727 108.23 91.2727C107.83 91.2727 107.483 91.3722 107.191 91.571C106.901 91.767 106.678 92.0227 106.522 92.3381C106.365 92.6534 106.287 92.9915 106.287 93.3523V93.9318C106.287 94.4261 106.373 94.8452 106.543 95.1889C106.716 95.5298 106.956 95.7898 107.263 95.9688C107.57 96.1449 107.926 96.233 108.333 96.233C108.597 96.233 108.836 96.196 109.049 96.1222C109.265 96.0455 109.451 95.9318 109.607 95.7812C109.763 95.6278 109.884 95.4375 109.969 95.2102L110.941 95.483C110.838 95.8125 110.667 96.1023 110.425 96.3523C110.184 96.5994 109.885 96.7926 109.53 96.9318C109.175 97.0682 108.776 97.1364 108.333 97.1364ZM112.573 97V90.4545H113.544V91.4773H113.63C113.766 91.1278 113.986 90.8565 114.29 90.6634C114.594 90.4673 114.959 90.3693 115.385 90.3693C115.817 90.3693 116.176 90.4673 116.463 90.6634C116.753 90.8565 116.979 91.1278 117.141 91.4773H117.209C117.377 91.1392 117.628 90.8707 117.963 90.6719C118.299 90.4702 118.701 90.3693 119.169 90.3693C119.755 90.3693 120.233 90.5526 120.605 90.919C120.978 91.2827 121.164 91.8494 121.164 92.6193V97H120.158V92.6193C120.158 92.1364 120.026 91.7912 119.762 91.5838C119.498 91.3764 119.186 91.2727 118.828 91.2727C118.368 91.2727 118.012 91.4119 117.759 91.6903C117.506 91.9659 117.38 92.3153 117.38 92.7386V97H116.357V92.517C116.357 92.1449 116.236 91.8452 115.995 91.6179C115.753 91.3878 115.442 91.2727 115.061 91.2727C114.8 91.2727 114.556 91.3423 114.328 91.4815C114.104 91.6207 113.922 91.8139 113.783 92.0611C113.647 92.3054 113.578 92.5881 113.578 92.9091V97H112.573ZM123.139 97V88.2727H124.145V91.4943H124.23C124.304 91.3807 124.406 91.2358 124.537 91.0597C124.67 90.8807 124.86 90.7216 125.108 90.5824C125.358 90.4403 125.696 90.3693 126.122 90.3693C126.673 90.3693 127.159 90.5071 127.579 90.7827C128 91.0582 128.328 91.4489 128.564 91.9545C128.799 92.4602 128.917 93.0568 128.917 93.7443C128.917 94.4375 128.799 95.0384 128.564 95.5469C128.328 96.0526 128.001 96.4446 127.583 96.723C127.166 96.9986 126.684 97.1364 126.139 97.1364C125.718 97.1364 125.382 97.0668 125.129 96.9276C124.876 96.7855 124.681 96.625 124.545 96.446C124.409 96.2642 124.304 96.1136 124.23 95.9943H124.11V97H123.139ZM124.127 93.7273C124.127 94.2216 124.2 94.6577 124.345 95.0355C124.49 95.4105 124.701 95.7045 124.98 95.9176C125.258 96.1278 125.599 96.233 126.002 96.233C126.423 96.233 126.774 96.1222 127.055 95.9006C127.339 95.6761 127.552 95.375 127.694 94.9972C127.839 94.6165 127.912 94.1932 127.912 93.7273C127.912 93.267 127.841 92.8523 127.699 92.483C127.559 92.1108 127.348 91.8168 127.064 91.6009C126.782 91.3821 126.429 91.2727 126.002 91.2727C125.593 91.2727 125.25 91.3764 124.971 91.5838C124.693 91.7884 124.483 92.0753 124.341 92.4446C124.199 92.8111 124.127 93.2386 124.127 93.7273ZM133.2 97.1364C132.569 97.1364 132.025 96.9972 131.568 96.7188C131.113 96.4375 130.762 96.0455 130.515 95.5426C130.271 95.0369 130.149 94.4489 130.149 93.7784C130.149 93.108 130.271 92.517 130.515 92.0057C130.762 91.4915 131.106 91.0909 131.547 90.804C131.99 90.5142 132.507 90.3693 133.098 90.3693C133.439 90.3693 133.775 90.4261 134.108 90.5398C134.44 90.6534 134.743 90.8381 135.015 91.0938C135.288 91.3466 135.505 91.6818 135.667 92.0994C135.829 92.517 135.91 93.0312 135.91 93.642V94.0682H130.865V93.1989H134.887C134.887 92.8295 134.814 92.5 134.666 92.2102C134.521 91.9205 134.314 91.6918 134.044 91.5241C133.777 91.3565 133.461 91.2727 133.098 91.2727C132.697 91.2727 132.35 91.3722 132.058 91.571C131.768 91.767 131.545 92.0227 131.389 92.3381C131.233 92.6534 131.154 92.9915 131.154 93.3523V93.9318C131.154 94.4261 131.24 94.8452 131.41 95.1889C131.583 95.5298 131.824 95.7898 132.13 95.9688C132.437 96.1449 132.794 96.233 133.2 96.233C133.464 96.233 133.703 96.196 133.916 96.1222C134.132 96.0455 134.318 95.9318 134.474 95.7812C134.63 95.6278 134.751 95.4375 134.836 95.2102L135.808 95.483C135.706 95.8125 135.534 96.1023 135.292 96.3523C135.051 96.5994 134.752 96.7926 134.397 96.9318C134.042 97.0682 133.643 97.1364 133.2 97.1364ZM137.44 97V90.4545H138.412V91.4432H138.48C138.599 91.1193 138.815 90.8565 139.127 90.6548C139.44 90.4531 139.792 90.3523 140.184 90.3523C140.258 90.3523 140.35 90.3537 140.461 90.3565C140.572 90.3594 140.656 90.3636 140.713 90.3693V91.392C140.679 91.3835 140.6 91.3707 140.478 91.3537C140.359 91.3338 140.233 91.3239 140.099 91.3239C139.781 91.3239 139.497 91.3906 139.247 91.5241C139 91.6548 138.804 91.8366 138.659 92.0696C138.517 92.2997 138.446 92.5625 138.446 92.858V97H137.44ZM145.263 97V96.233L148.143 93.0795C148.482 92.7102 148.76 92.3892 148.979 92.1165C149.197 91.8409 149.359 91.5824 149.464 91.3409C149.572 91.0966 149.626 90.8409 149.626 90.5739C149.626 90.267 149.553 90.0014 149.405 89.777C149.26 89.5526 149.061 89.3793 148.808 89.2571C148.555 89.1349 148.271 89.0739 147.956 89.0739C147.621 89.0739 147.328 89.1435 147.078 89.2827C146.831 89.419 146.639 89.6108 146.503 89.858C146.369 90.1051 146.303 90.3949 146.303 90.7273H145.297C145.297 90.2159 145.415 89.767 145.651 89.3807C145.886 88.9943 146.207 88.6932 146.614 88.4773C147.023 88.2614 147.482 88.1534 147.99 88.1534C148.501 88.1534 148.955 88.2614 149.349 88.4773C149.744 88.6932 150.054 88.9844 150.278 89.3509C150.503 89.7173 150.615 90.125 150.615 90.5739C150.615 90.8949 150.557 91.2088 150.44 91.5156C150.327 91.8196 150.128 92.1591 149.844 92.5341C149.562 92.9062 149.172 93.3608 148.672 93.8977L146.712 95.9943V96.0625H150.768V97H145.263ZM155.375 97.1193C154.733 97.1193 154.186 96.9446 153.734 96.5952C153.283 96.2429 152.938 95.733 152.699 95.0653C152.46 94.3949 152.341 93.5852 152.341 92.6364C152.341 91.6932 152.46 90.8878 152.699 90.2202C152.94 89.5497 153.287 89.0384 153.739 88.6861C154.193 88.331 154.739 88.1534 155.375 88.1534C156.011 88.1534 156.555 88.331 157.007 88.6861C157.462 89.0384 157.808 89.5497 158.047 90.2202C158.288 90.8878 158.409 91.6932 158.409 92.6364C158.409 93.5852 158.29 94.3949 158.051 95.0653C157.812 95.733 157.467 96.2429 157.016 96.5952C156.564 96.9446 156.017 97.1193 155.375 97.1193ZM155.375 96.1818C156.011 96.1818 156.506 95.875 156.858 95.2614C157.21 94.6477 157.386 93.7727 157.386 92.6364C157.386 91.8807 157.305 91.2372 157.143 90.706C156.984 90.1747 156.754 89.7699 156.453 89.4915C156.155 89.2131 155.795 89.0739 155.375 89.0739C154.744 89.0739 154.251 89.3849 153.896 90.0071C153.541 90.6264 153.364 91.5028 153.364 92.6364C153.364 93.392 153.443 94.0341 153.602 94.5625C153.761 95.0909 153.99 95.4929 154.288 95.7685C154.589 96.044 154.952 96.1818 155.375 96.1818ZM160.028 97V96.233L162.909 93.0795C163.247 92.7102 163.526 92.3892 163.744 92.1165C163.963 91.8409 164.125 91.5824 164.23 91.3409C164.338 91.0966 164.392 90.8409 164.392 90.5739C164.392 90.267 164.318 90.0014 164.17 89.777C164.026 89.5526 163.827 89.3793 163.574 89.2571C163.321 89.1349 163.037 89.0739 162.722 89.0739C162.386 89.0739 162.094 89.1435 161.844 89.2827C161.597 89.419 161.405 89.6108 161.268 89.858C161.135 90.1051 161.068 90.3949 161.068 90.7273H160.062C160.062 90.2159 160.18 89.767 160.416 89.3807C160.652 88.9943 160.973 88.6932 161.379 88.4773C161.788 88.2614 162.247 88.1534 162.756 88.1534C163.267 88.1534 163.72 88.2614 164.115 88.4773C164.51 88.6932 164.82 88.9844 165.044 89.3509C165.268 89.7173 165.381 90.125 165.381 90.5739C165.381 90.8949 165.322 91.2088 165.206 91.5156C165.092 91.8196 164.893 92.1591 164.609 92.5341C164.328 92.9062 163.938 93.3608 163.438 93.8977L161.477 95.9943V96.0625H165.534V97H160.028ZM170.362 88.2727V97H169.305V89.3807H169.254L167.124 90.7955V89.7216L169.305 88.2727H170.362Z" fill="#64748B"/>
</g>
<defs>
<filter id="filter0_d_239_2089" x="0" y="0" width="406" height="126" filterUnits="userSpaceOnUse" color-interpolation-filters="sRGB">
<feFlood flood-opacity="0" result="BackgroundImageFix"/>
<feColorMatrix in="SourceAlpha" type="matrix" values="0 0 0 0 0 0 0 0 0 0 0 0 0 0 0 0 0 0 127 0" result="hardAlpha"/>
<feOffset dy="4"/>
<feGaussianBlur stdDeviation="2"/>
<feComposite in2="hardAlpha" operator="out"/>
<feColorMatrix type="matrix" values="0 0 0 0 0.683333 0 0 0 0 0.683333 0 0 0 0 0.683333 0 0 0 0.25 0"/>
<feBlend mode="normal" in2="BackgroundImageFix" result="effect1_dropShadow_239_2089"/>
<feBlend mode="normal" in="SourceGraphic" in2="effect1_dropShadow_239_2089" result="shape"/>
</filter>
</defs>
</svg>
