<svg width="404" height="126" viewBox="0 0 404 126" fill="none" xmlns="http://www.w3.org/2000/svg">
<g filter="url(#filter0_d_242_4252)">
<rect x="4" width="396" height="118" rx="6" fill="white" shape-rendering="crispEdges"/>
<rect x="4.5" y="0.5" width="395" height="117" rx="5.5" stroke="#E5E7EB" shape-rendering="crispEdges"/>
<path d="M22.0043 32V21.8182H23.8487V26.4964H23.973L27.9453 21.8182H30.1974L26.2599 26.3871L30.2322 32H28.0149L24.9773 27.6349L23.8487 28.9673V32H22.0043ZM33.199 27.5256V32H31.3993V21.8182H33.1593V25.6612H33.2488C33.4277 25.2304 33.7045 24.8906 34.079 24.642C34.4569 24.3902 34.9374 24.2642 35.5208 24.2642C36.0511 24.2642 36.5134 24.3752 36.9078 24.5973C37.3023 24.8194 37.6072 25.1442 37.8226 25.5717C38.0414 25.9993 38.1507 26.5213 38.1507 27.1378V32H36.351V27.4162C36.351 26.9025 36.2185 26.5031 35.9533 26.218C35.6915 25.9297 35.3236 25.7855 34.8496 25.7855C34.5314 25.7855 34.2464 25.8551 33.9945 25.9943C33.7459 26.1302 33.5504 26.3274 33.4078 26.5859C33.2686 26.8445 33.199 27.1577 33.199 27.5256ZM43.3162 32.1491C42.5705 32.1491 41.9242 31.9851 41.3773 31.657C40.8304 31.3288 40.4062 30.8698 40.1046 30.2798C39.8063 29.6899 39.6571 29.0005 39.6571 28.2116C39.6571 27.4228 39.8063 26.7318 40.1046 26.1385C40.4062 25.5452 40.8304 25.0845 41.3773 24.7564C41.9242 24.4283 42.5705 24.2642 43.3162 24.2642C44.062 24.2642 44.7083 24.4283 45.2551 24.7564C45.802 25.0845 46.2246 25.5452 46.5229 26.1385C46.8245 26.7318 46.9753 27.4228 46.9753 28.2116C46.9753 29.0005 46.8245 29.6899 46.5229 30.2798C46.2246 30.8698 45.802 31.3288 45.2551 31.657C44.7083 31.9851 44.062 32.1491 43.3162 32.1491ZM43.3262 30.7074C43.7305 30.7074 44.0686 30.5964 44.3404 30.3743C44.6122 30.1489 44.8143 29.8473 44.9469 29.4695C45.0828 29.0916 45.1507 28.6707 45.1507 28.2067C45.1507 27.7393 45.0828 27.3168 44.9469 26.9389C44.8143 26.5578 44.6122 26.2545 44.3404 26.0291C44.0686 25.8037 43.7305 25.6911 43.3262 25.6911C42.9119 25.6911 42.5672 25.8037 42.2921 26.0291C42.0203 26.2545 41.8165 26.5578 41.6806 26.9389C41.548 27.3168 41.4817 27.7393 41.4817 28.2067C41.4817 28.6707 41.548 29.0916 41.6806 29.4695C41.8165 29.8473 42.0203 30.1489 42.2921 30.3743C42.5672 30.5964 42.9119 30.7074 43.3262 30.7074ZM40.736 23.4886L42.7495 21.853H43.873L45.8965 23.4886H44.4L43.3212 22.5739L42.2374 23.4886H40.736ZM45.3645 22.4943L46.4682 20.6598H48.0492L46.513 22.4943H45.3645ZM48.5028 32V24.3636H50.3026V32H48.5028ZM49.4077 23.2798C49.1226 23.2798 48.8774 23.1854 48.6719 22.9964C48.4664 22.8042 48.3636 22.5739 48.3636 22.3054C48.3636 22.0336 48.4664 21.8033 48.6719 21.6143C48.8774 21.4221 49.1226 21.326 49.4077 21.326C49.696 21.326 49.9413 21.4221 50.1435 21.6143C50.349 21.8033 50.4517 22.0336 50.4517 22.3054C50.4517 22.5739 50.349 22.8042 50.1435 22.9964C49.9413 23.1854 49.696 23.2798 49.4077 23.2798ZM59.3347 32.1392C58.8475 32.1359 58.3719 32.0514 57.9078 31.8857C57.4438 31.7166 57.0262 31.4432 56.655 31.0653C56.2838 30.6842 55.9888 30.1787 55.7701 29.549C55.5513 28.916 55.4436 28.1321 55.4469 27.1974C55.4469 26.3258 55.5397 25.5485 55.7253 24.8658C55.9109 24.183 56.1777 23.6063 56.5257 23.1357C56.8738 22.6617 57.293 22.3004 57.7836 22.0518C58.2774 21.8033 58.8292 21.679 59.4391 21.679C60.0788 21.679 60.6455 21.8049 61.1394 22.0568C61.6365 22.3087 62.0376 22.6534 62.3425 23.0909C62.6474 23.5251 62.8364 24.0156 62.9093 24.5625H61.0946C61.0018 24.1714 60.8113 23.8598 60.5229 23.6278C60.2379 23.3925 59.8766 23.2749 59.4391 23.2749C58.7331 23.2749 58.1896 23.5814 57.8084 24.1946C57.4306 24.8078 57.24 25.6496 57.2367 26.7202H57.3063C57.4687 26.4285 57.6792 26.1783 57.9377 25.9695C58.1962 25.7607 58.4879 25.5999 58.8127 25.4872C59.1408 25.3712 59.4872 25.3132 59.8517 25.3132C60.4483 25.3132 60.9836 25.4557 61.4576 25.7408C61.9348 26.0258 62.3127 26.4186 62.5911 26.919C62.8695 27.4162 63.007 27.9863 63.0037 28.6293C63.007 29.2988 62.8546 29.9003 62.5463 30.4339C62.2381 30.9643 61.8089 31.3819 61.2587 31.6868C60.7085 31.9917 60.0672 32.1425 59.3347 32.1392ZM59.3248 30.6477C59.686 30.6477 60.0092 30.5599 60.2942 30.3842C60.5792 30.2086 60.8046 29.9716 60.9703 29.6733C61.1361 29.375 61.2173 29.0402 61.214 28.669C61.2173 28.3045 61.1377 27.9747 60.9753 27.6797C60.8162 27.3847 60.5958 27.151 60.3141 26.9787C60.0324 26.8063 59.7109 26.7202 59.3496 26.7202C59.0811 26.7202 58.8309 26.7715 58.5989 26.8743C58.3669 26.977 58.1647 27.1196 57.9924 27.3018C57.82 27.4808 57.6841 27.6896 57.5847 27.9283C57.4886 28.1636 57.4389 28.4155 57.4355 28.6839C57.4389 29.0386 57.5217 29.3651 57.6841 29.6634C57.8465 29.9616 58.0703 30.2003 58.3553 30.3793C58.6403 30.5582 58.9635 30.6477 59.3248 30.6477ZM72.8052 26.1683V27.6499H68.2214V26.1683H72.8052ZM78.2504 32V21.8182H80.0948V30.4538H84.5792V32H78.2504ZM92.663 23.8764H93.8661C93.8661 24.6851 93.6772 25.3215 93.2994 25.7855C92.9248 26.2462 92.3017 26.4766 91.43 26.4766V25.6314C91.7747 25.6314 92.0349 25.5601 92.2106 25.4176C92.3896 25.2751 92.5089 25.0729 92.5685 24.8111C92.6315 24.5459 92.663 24.2344 92.663 23.8764ZM89.4315 32.1491C88.6857 32.1491 88.0394 31.9851 87.4925 31.657C86.9457 31.3288 86.5214 30.8698 86.2198 30.2798C85.9215 29.6899 85.7724 29.0005 85.7724 28.2116C85.7724 27.4228 85.9215 26.7318 86.2198 26.1385C86.5214 25.5452 86.9457 25.0845 87.4925 24.7564C88.0394 24.4283 88.6857 24.2642 89.4315 24.2642C90.1772 24.2642 90.8235 24.4283 91.3704 24.7564C91.9173 25.0845 92.3398 25.5452 92.6381 26.1385C92.9397 26.7318 93.0906 27.4228 93.0906 28.2116C93.0906 29.0005 92.9397 29.6899 92.6381 30.2798C92.3398 30.8698 91.9173 31.3288 91.3704 31.657C90.8235 31.9851 90.1772 32.1491 89.4315 32.1491ZM89.4414 30.7074C89.8458 30.7074 90.1838 30.5964 90.4556 30.3743C90.7274 30.1489 90.9296 29.8473 91.0621 29.4695C91.198 29.0916 91.266 28.6707 91.266 28.2067C91.266 27.7393 91.198 27.3168 91.0621 26.9389C90.9296 26.5578 90.7274 26.2545 90.4556 26.0291C90.1838 25.8037 89.8458 25.6911 89.4414 25.6911C89.0271 25.6911 88.6824 25.8037 88.4073 26.0291C88.1355 26.2545 87.9317 26.5578 87.7958 26.9389C87.6632 27.3168 87.5969 27.7393 87.5969 28.2067C87.5969 28.6707 87.6632 29.0916 87.7958 29.4695C87.9317 29.8473 88.1355 30.1489 88.4073 30.3743C88.6824 30.5964 89.0271 30.7074 89.4414 30.7074ZM88.7404 23.3594L89.854 21.0874H91.614L90.0877 23.3594H88.7404ZM94.7958 34.8636V24.3636H96.5657V25.6264H96.6701C96.7629 25.4408 96.8938 25.2436 97.0629 25.0348C97.2319 24.8227 97.4606 24.642 97.7489 24.4929C98.0373 24.3404 98.4052 24.2642 98.8526 24.2642C99.4426 24.2642 99.9746 24.415 100.449 24.7166C100.926 25.0149 101.304 25.4574 101.582 26.044C101.864 26.6274 102.005 27.3433 102.005 28.1918C102.005 29.0303 101.867 29.7429 101.592 30.3295C101.317 30.9162 100.942 31.3636 100.468 31.6719C99.9944 31.9801 99.4575 32.1342 98.8576 32.1342C98.4201 32.1342 98.0572 32.0613 97.7688 31.9155C97.4805 31.7696 97.2485 31.594 97.0728 31.3885C96.9004 31.1797 96.7662 30.9825 96.6701 30.7969H96.5955V34.8636H94.7958ZM96.5607 28.1818C96.5607 28.6757 96.6303 29.1082 96.7695 29.4794C96.9121 29.8506 97.1159 30.1406 97.381 30.3494C97.6495 30.5549 97.9743 30.6577 98.3555 30.6577C98.7532 30.6577 99.0863 30.5516 99.3548 30.3395C99.6232 30.1241 99.8254 29.8307 99.9613 29.4595C100.1 29.085 100.17 28.6591 100.17 28.1818C100.17 27.7079 100.102 27.2869 99.9663 26.919C99.8304 26.5511 99.6282 26.2628 99.3597 26.054C99.0913 25.8452 98.7565 25.7408 98.3555 25.7408C97.971 25.7408 97.6445 25.8419 97.3761 26.044C97.1076 26.2462 96.9038 26.5296 96.7646 26.8942C96.6287 27.2588 96.5607 27.688 96.5607 28.1818ZM110.727 32.1392C110.24 32.1359 109.764 32.0514 109.3 31.8857C108.836 31.7166 108.419 31.4432 108.048 31.0653C107.676 30.6842 107.381 30.1787 107.163 29.549C106.944 28.916 106.836 28.1321 106.839 27.1974C106.839 26.3258 106.932 25.5485 107.118 24.8658C107.304 24.183 107.57 23.6063 107.918 23.1357C108.266 22.6617 108.686 22.3004 109.176 22.0518C109.67 21.8033 110.222 21.679 110.832 21.679C111.471 21.679 112.038 21.8049 112.532 22.0568C113.029 22.3087 113.43 22.6534 113.735 23.0909C114.04 23.5251 114.229 24.0156 114.302 24.5625H112.487C112.394 24.1714 112.204 23.8598 111.915 23.6278C111.63 23.3925 111.269 23.2749 110.832 23.2749C110.126 23.2749 109.582 23.5814 109.201 24.1946C108.823 24.8078 108.633 25.6496 108.629 26.7202H108.699C108.861 26.4285 109.072 26.1783 109.33 25.9695C109.589 25.7607 109.88 25.5999 110.205 25.4872C110.533 25.3712 110.88 25.3132 111.244 25.3132C111.841 25.3132 112.376 25.4557 112.85 25.7408C113.327 26.0258 113.705 26.4186 113.984 26.919C114.262 27.4162 114.4 27.9863 114.396 28.6293C114.4 29.2988 114.247 29.9003 113.939 30.4339C113.631 30.9643 113.201 31.3819 112.651 31.6868C112.101 31.9917 111.46 32.1425 110.727 32.1392ZM110.717 30.6477C111.079 30.6477 111.402 30.5599 111.687 30.3842C111.972 30.2086 112.197 29.9716 112.363 29.6733C112.529 29.375 112.61 29.0402 112.607 28.669C112.61 28.3045 112.53 27.9747 112.368 27.6797C112.209 27.3847 111.988 27.151 111.707 26.9787C111.425 26.8063 111.103 26.7202 110.742 26.7202C110.474 26.7202 110.223 26.7715 109.991 26.8743C109.759 26.977 109.557 27.1196 109.385 27.3018C109.213 27.4808 109.077 27.6896 108.977 27.9283C108.881 28.1636 108.831 28.4155 108.828 28.6839C108.831 29.0386 108.914 29.3651 109.077 29.6634C109.239 29.9616 109.463 30.2003 109.748 30.3793C110.033 30.5582 110.356 30.6477 110.717 30.6477ZM124.891 25.2536H123.032C122.979 24.9486 122.881 24.6785 122.739 24.4432C122.596 24.2045 122.419 24.0024 122.207 23.8366C121.995 23.6709 121.753 23.5466 121.481 23.4638C121.212 23.3776 120.922 23.3345 120.611 23.3345C120.057 23.3345 119.567 23.4737 119.139 23.7521C118.712 24.0272 118.377 24.4316 118.135 24.9652C117.893 25.4955 117.772 26.1435 117.772 26.9091C117.772 27.688 117.893 28.3442 118.135 28.8778C118.38 29.4081 118.715 29.8092 119.139 30.081C119.567 30.3494 120.056 30.4837 120.606 30.4837C120.911 30.4837 121.196 30.4439 121.461 30.3643C121.729 30.2815 121.97 30.1605 122.182 30.0014C122.397 29.8423 122.578 29.6468 122.724 29.4148C122.873 29.1828 122.976 28.9176 123.032 28.6193L124.891 28.6293C124.822 29.1132 124.671 29.5672 124.439 29.9915C124.21 30.4157 123.91 30.7902 123.539 31.1151C123.168 31.4366 122.734 31.6884 122.237 31.8707C121.739 32.0497 121.188 32.1392 120.581 32.1392C119.686 32.1392 118.887 31.9321 118.185 31.5178C117.482 31.1035 116.929 30.5052 116.524 29.723C116.12 28.9408 115.918 28.0028 115.918 26.9091C115.918 25.812 116.121 24.8741 116.529 24.0952C116.937 23.313 117.492 22.7147 118.195 22.3004C118.897 21.8861 119.693 21.679 120.581 21.679C121.148 21.679 121.675 21.7585 122.162 21.9176C122.649 22.0767 123.083 22.3104 123.464 22.6186C123.846 22.9235 124.159 23.2981 124.404 23.7422C124.653 24.183 124.815 24.6868 124.891 25.2536Z" fill="#0F172A"/>
<path d="M30.3068 45.8182V56H29.1136L23.5653 48.0057H23.4659V56H22.233V45.8182H23.4261L28.9943 53.8324H29.0938V45.8182H30.3068ZM35.7172 56.1591C35.0278 56.1591 34.4229 55.995 33.9025 55.6669C33.3855 55.3388 32.9811 54.8797 32.6895 54.2898C32.4011 53.6998 32.2569 53.0104 32.2569 52.2216C32.2569 51.4261 32.4011 50.7318 32.6895 50.1385C32.9811 49.5452 33.3855 49.0845 33.9025 48.7564C34.4229 48.4283 35.0278 48.2642 35.7172 48.2642C36.4065 48.2642 37.0098 48.4283 37.5268 48.7564C38.0472 49.0845 38.4515 49.5452 38.7399 50.1385C39.0315 50.7318 39.1774 51.4261 39.1774 52.2216C39.1774 53.0104 39.0315 53.6998 38.7399 54.2898C38.4515 54.8797 38.0472 55.3388 37.5268 55.6669C37.0098 55.995 36.4065 56.1591 35.7172 56.1591ZM35.7172 55.1051C36.2408 55.1051 36.6717 54.9709 37.0098 54.7024C37.3478 54.4339 37.5981 54.081 37.7605 53.6435C37.9229 53.206 38.0041 52.732 38.0041 52.2216C38.0041 51.7112 37.9229 51.2356 37.7605 50.7947C37.5981 50.3539 37.3478 49.9976 37.0098 49.7259C36.6717 49.4541 36.2408 49.3182 35.7172 49.3182C35.1935 49.3182 34.7626 49.4541 34.4245 49.7259C34.0865 49.9976 33.8362 50.3539 33.6738 50.7947C33.5114 51.2356 33.4302 51.7112 33.4302 52.2216C33.4302 52.732 33.5114 53.206 33.6738 53.6435C33.8362 54.081 34.0865 54.4339 34.4245 54.7024C34.7626 54.9709 35.1935 55.1051 35.7172 55.1051ZM36.7512 47.4489L35.7172 46.0568L34.6831 47.4489H33.5694V47.3693L35.1802 45.3011H36.2541L37.8649 47.3693V47.4489H36.7512ZM35.7172 58.5256C35.4885 58.5256 35.2913 58.4477 35.1255 58.2919C34.9631 58.1361 34.8819 57.9489 34.8819 57.7301C34.8819 57.5114 34.9631 57.3241 35.1255 57.1683C35.2913 57.0125 35.4885 56.9347 35.7172 56.9347C35.9458 56.9347 36.1414 57.0125 36.3038 57.1683C36.4695 57.3241 36.5524 57.5114 36.5524 57.7301C36.5524 57.9489 36.4695 58.1361 36.3038 58.2919C36.1414 58.4477 35.9458 58.5256 35.7172 58.5256ZM40.9684 56V48.3636H42.1417V56H40.9684ZM41.565 47.0909C41.3363 47.0909 41.1391 47.013 40.9734 46.8572C40.811 46.7015 40.7298 46.5142 40.7298 46.2955C40.7298 46.0767 40.811 45.8894 40.9734 45.7337C41.1391 45.5779 41.3363 45.5 41.565 45.5C41.7937 45.5 41.9892 45.5779 42.1516 45.7337C42.3174 45.8894 42.4002 46.0767 42.4002 46.2955C42.4002 46.5142 42.3174 46.7015 42.1516 46.8572C41.9892 47.013 41.7937 47.0909 41.565 47.0909ZM51.5293 56H48.3873V45.8182H51.6685C52.6562 45.8182 53.5014 46.022 54.204 46.4297C54.9067 46.834 55.4453 47.4157 55.8198 48.1747C56.1943 48.9304 56.3816 49.8352 56.3816 50.8892C56.3816 51.9498 56.1926 52.8629 55.8148 53.6286C55.437 54.3909 54.8868 54.9775 54.1642 55.3885C53.4417 55.7962 52.5634 56 51.5293 56ZM49.6202 54.9062H51.4498C52.2916 54.9062 52.9893 54.7438 53.5428 54.419C54.0963 54.0942 54.5089 53.6319 54.7807 53.032C55.0525 52.4321 55.1884 51.7178 55.1884 50.8892C55.1884 50.0672 55.0542 49.3596 54.7857 48.7663C54.5172 48.1697 54.1162 47.7124 53.5826 47.3942C53.0489 47.0727 52.3844 46.9119 51.589 46.9119H49.6202V54.9062ZM63.1032 52.8778V48.3636H64.2765V56H63.1032V54.7074H63.0236C62.8446 55.0952 62.5662 55.425 62.1884 55.6967C61.8105 55.9652 61.3333 56.0994 60.7566 56.0994C60.2793 56.0994 59.8551 55.995 59.4838 55.7862C59.1126 55.5741 58.821 55.2559 58.6088 54.8317C58.3967 54.4041 58.2907 53.8655 58.2907 53.2159V48.3636H59.464V53.1364C59.464 53.6932 59.6197 54.1373 59.9313 54.4688C60.2462 54.8002 60.6472 54.9659 61.1344 54.9659C61.4261 54.9659 61.7227 54.8913 62.0243 54.7422C62.3292 54.593 62.5845 54.3643 62.79 54.0561C62.9988 53.7479 63.1032 53.3551 63.1032 52.8778ZM67.5987 51.4062V56H66.4254V48.3636H67.5589V49.5568H67.6584C67.8374 49.169 68.1091 48.8575 68.4737 48.6222C68.8383 48.3835 69.3089 48.2642 69.8857 48.2642C70.4027 48.2642 70.8551 48.3703 71.2429 48.5824C71.6307 48.7912 71.9323 49.1094 72.1477 49.5369C72.3632 49.9612 72.4709 50.4981 72.4709 51.1477V56H71.2976V51.2273C71.2976 50.6274 71.1418 50.16 70.8303 49.8253C70.5187 49.4872 70.0911 49.3182 69.5476 49.3182C69.1731 49.3182 68.8383 49.3994 68.5433 49.5618C68.2517 49.7242 68.0213 49.9612 67.8523 50.2727C67.6832 50.5843 67.5987 50.9621 67.5987 51.4062ZM77.6973 59.0227C77.1305 59.0227 76.6433 58.9498 76.2356 58.804C75.8279 58.6615 75.4882 58.4725 75.2164 58.2372C74.948 58.0052 74.7342 57.7566 74.5751 57.4915L75.5098 56.8352C75.6158 56.9744 75.7501 57.1335 75.9125 57.3125C76.0749 57.4948 76.2969 57.6522 76.5787 57.7848C76.8637 57.9207 77.2366 57.9886 77.6973 57.9886C78.3137 57.9886 78.8225 57.8395 79.2235 57.5412C79.6246 57.2429 79.8251 56.7756 79.8251 56.1392V54.5881H79.7257C79.6395 54.7273 79.5169 54.8996 79.3578 55.1051C79.202 55.3073 78.9766 55.4879 78.6816 55.647C78.39 55.8028 77.9956 55.8807 77.4984 55.8807C76.8819 55.8807 76.3284 55.7348 75.8379 55.4432C75.3507 55.1515 74.9645 54.7273 74.6795 54.1705C74.3978 53.6136 74.2569 52.9375 74.2569 52.142C74.2569 51.3598 74.3945 50.6787 74.6696 50.0987C74.9447 49.5154 75.3275 49.0646 75.818 48.7464C76.3085 48.425 76.8753 48.2642 77.5183 48.2642C78.0154 48.2642 78.4099 48.3471 78.7015 48.5128C78.9965 48.6752 79.2219 48.8608 79.3777 49.0696C79.5368 49.2751 79.6594 49.4441 79.7456 49.5767H79.8649V48.3636H80.9984V56.2188C80.9984 56.875 80.8493 57.4086 80.551 57.8196C80.256 58.2339 79.8583 58.5372 79.3578 58.7294C78.8606 58.925 78.3071 59.0227 77.6973 59.0227ZM77.6575 54.8267C78.1281 54.8267 78.5259 54.719 78.8507 54.5036C79.1755 54.2881 79.4224 53.9782 79.5914 53.5739C79.7605 53.1695 79.845 52.6856 79.845 52.1222C79.845 51.572 79.7621 51.0864 79.5964 50.6655C79.4307 50.2446 79.1854 49.9148 78.8606 49.6761C78.5358 49.4375 78.1348 49.3182 77.6575 49.3182C77.1603 49.3182 76.746 49.4441 76.4146 49.696C76.0865 49.9479 75.8395 50.286 75.6738 50.7102C75.5114 51.1345 75.4302 51.6051 75.4302 52.1222C75.4302 52.6525 75.5131 53.1214 75.6788 53.5291C75.8478 53.9335 76.0964 54.2517 76.4245 54.4837C76.756 54.7124 77.167 54.8267 77.6575 54.8267ZM87.9387 54.6974C87.6935 54.6974 87.483 54.6096 87.3074 54.4339C87.1317 54.2583 87.0439 54.0478 87.0439 53.8026C87.0439 53.5573 87.1317 53.3468 87.3074 53.1712C87.483 52.9955 87.6935 52.9077 87.9387 52.9077C88.184 52.9077 88.3945 52.9955 88.5701 53.1712C88.7458 53.3468 88.8336 53.5573 88.8336 53.8026C88.8336 53.965 88.7922 54.1141 88.7093 54.25C88.6298 54.3859 88.5221 54.4953 88.3862 54.5781C88.2536 54.6577 88.1045 54.6974 87.9387 54.6974ZM87.9387 49.5469C87.6935 49.5469 87.483 49.459 87.3074 49.2834C87.1317 49.1077 87.0439 48.8973 87.0439 48.652C87.0439 48.4067 87.1317 48.1963 87.3074 48.0206C87.483 47.8449 87.6935 47.7571 87.9387 47.7571C88.184 47.7571 88.3945 47.8449 88.5701 48.0206C88.7458 48.1963 88.8336 48.4067 88.8336 48.652C88.8336 48.8144 88.7922 48.9635 88.7093 49.0994C88.6298 49.2353 88.5221 49.3447 88.3862 49.4276C88.2536 49.5071 88.1045 49.5469 87.9387 49.5469ZM95.0357 45.8182H96.5073L99.9675 54.2699H100.087L103.547 45.8182H105.019V56H103.865V48.2642H103.766L100.584 56H99.4703L96.2885 48.2642H96.1891V56H95.0357V45.8182ZM107.332 56V48.3636H108.505V56H107.332ZM107.928 47.0909C107.7 47.0909 107.502 47.013 107.337 46.8572C107.174 46.7015 107.093 46.5142 107.093 46.2955C107.093 46.0767 107.174 45.8894 107.337 45.7337C107.502 45.5779 107.7 45.5 107.928 45.5C108.157 45.5 108.353 45.5779 108.515 45.7337C108.681 45.8894 108.763 46.0767 108.763 46.2955C108.763 46.5142 108.681 46.7015 108.515 46.8572C108.353 47.013 108.157 47.0909 107.928 47.0909ZM113.856 56.1591C113.12 56.1591 112.485 55.9967 111.952 55.6719C111.421 55.3438 111.012 54.8864 110.724 54.2997C110.439 53.7098 110.296 53.0237 110.296 52.2415C110.296 51.4593 110.439 50.7699 110.724 50.1733C111.012 49.5734 111.413 49.1061 111.927 48.7713C112.444 48.4332 113.047 48.2642 113.736 48.2642C114.134 48.2642 114.527 48.3305 114.915 48.4631C115.302 48.5956 115.655 48.8111 115.974 49.1094C116.292 49.4044 116.545 49.7955 116.734 50.2827C116.923 50.7699 117.018 51.3698 117.018 52.0824V52.5795H111.131V51.5653H115.824C115.824 51.1345 115.738 50.75 115.566 50.4119C115.397 50.0739 115.155 49.8071 114.84 49.6115C114.528 49.416 114.161 49.3182 113.736 49.3182C113.269 49.3182 112.865 49.4342 112.523 49.6662C112.185 49.8949 111.925 50.1932 111.743 50.5611C111.56 50.929 111.469 51.3234 111.469 51.7443V52.4205C111.469 52.9972 111.569 53.486 111.768 53.8871C111.97 54.2848 112.25 54.5881 112.608 54.7969C112.966 55.0024 113.382 55.1051 113.856 55.1051C114.164 55.1051 114.442 55.062 114.691 54.9759C114.943 54.8864 115.16 54.7538 115.342 54.5781C115.524 54.3991 115.665 54.1771 115.765 53.9119L116.898 54.2301C116.779 54.6146 116.578 54.9527 116.297 55.2443C116.015 55.5327 115.667 55.758 115.253 55.9205C114.838 56.0795 114.373 56.1591 113.856 56.1591ZM114.711 47.4489L113.677 46.0568L112.643 47.4489H111.529V47.3693L113.14 45.3011H114.214L115.824 47.3693V47.4489H114.711ZM123.615 52.8778V48.3636H124.788V56H123.615V54.7074H123.535C123.356 55.0952 123.078 55.425 122.7 55.6967C122.322 55.9652 121.845 56.0994 121.268 56.0994C120.791 56.0994 120.367 55.995 119.996 55.7862C119.624 55.5741 119.333 55.2559 119.121 54.8317C118.908 54.4041 118.802 53.8655 118.802 53.2159V48.3636H119.976V53.1364C119.976 53.6932 120.131 54.1373 120.443 54.4688C120.758 54.8002 121.159 54.9659 121.646 54.9659C121.938 54.9659 122.234 54.8913 122.536 54.7422C122.841 54.593 123.096 54.3643 123.302 54.0561C123.51 53.7479 123.615 53.3551 123.615 52.8778ZM134.196 48.3636V49.358H130.238V48.3636H134.196ZM131.392 46.5341H132.565V53.8125C132.565 54.1439 132.613 54.3925 132.709 54.5582C132.809 54.7206 132.935 54.83 133.087 54.8864C133.243 54.9394 133.407 54.9659 133.579 54.9659C133.708 54.9659 133.815 54.9593 133.897 54.946C133.98 54.9295 134.047 54.9162 134.096 54.9062L134.335 55.9602C134.255 55.9901 134.144 56.0199 134.002 56.0497C133.859 56.0829 133.679 56.0994 133.46 56.0994C133.128 56.0994 132.804 56.0282 132.485 55.8857C132.171 55.7431 131.909 55.526 131.7 55.2344C131.494 54.9427 131.392 54.5748 131.392 54.1307V46.5341ZM138.208 56.179C137.724 56.179 137.285 56.0878 136.89 55.9055C136.496 55.7199 136.183 55.4531 135.951 55.1051C135.719 54.7538 135.603 54.3295 135.603 53.8324C135.603 53.3949 135.689 53.0402 135.861 52.7685C136.033 52.4934 136.264 52.2779 136.552 52.1222C136.841 51.9664 137.159 51.8504 137.507 51.7741C137.858 51.6946 138.211 51.6316 138.566 51.5852C139.03 51.5256 139.406 51.4808 139.694 51.451C139.986 51.4179 140.198 51.3632 140.331 51.2869C140.467 51.2107 140.534 51.0781 140.534 50.8892V50.8494C140.534 50.3589 140.4 49.9777 140.132 49.706C139.867 49.4342 139.464 49.2983 138.924 49.2983C138.364 49.2983 137.924 49.4209 137.606 49.6662C137.288 49.9115 137.064 50.1733 136.935 50.4517L135.821 50.054C136.02 49.59 136.285 49.2287 136.617 48.9702C136.952 48.7083 137.316 48.526 137.711 48.4233C138.108 48.3172 138.499 48.2642 138.884 48.2642C139.129 48.2642 139.411 48.294 139.729 48.3537C140.051 48.41 140.36 48.5277 140.659 48.7067C140.96 48.8857 141.211 49.1558 141.409 49.517C141.608 49.8783 141.708 50.3622 141.708 50.9688V56H140.534V54.9659H140.475C140.395 55.1316 140.263 55.3089 140.077 55.4979C139.891 55.6868 139.645 55.8475 139.336 55.9801C139.028 56.1127 138.652 56.179 138.208 56.179ZM138.387 55.125C138.851 55.125 139.242 55.0339 139.56 54.8516C139.882 54.6693 140.123 54.4339 140.286 54.1456C140.452 53.8572 140.534 53.554 140.534 53.2358V52.1619C140.485 52.2216 140.375 52.2763 140.206 52.326C140.041 52.3724 139.848 52.4138 139.63 52.4503C139.414 52.4834 139.204 52.5133 138.998 52.5398C138.796 52.563 138.632 52.5829 138.506 52.5994C138.201 52.6392 137.916 52.7038 137.651 52.7933C137.389 52.8795 137.177 53.0104 137.015 53.1861C136.855 53.3584 136.776 53.5937 136.776 53.892C136.776 54.2997 136.927 54.608 137.228 54.8168C137.533 55.0223 137.919 55.125 138.387 55.125ZM139.48 47.3295H138.506V46.2557C138.854 46.2358 139.099 46.1877 139.242 46.1115C139.388 46.0353 139.461 45.9176 139.461 45.7585C139.461 45.5795 139.356 45.4486 139.147 45.3658C138.939 45.2829 138.685 45.2415 138.387 45.2415L138.426 44.4858C139.113 44.4858 139.631 44.6051 139.983 44.8438C140.337 45.0824 140.515 45.4006 140.515 45.7983C140.515 46.1364 140.407 46.3833 140.191 46.5391C139.976 46.6948 139.739 46.7926 139.48 46.8324V47.3295ZM154.031 48.3636L151.207 56H150.014L147.19 48.3636H148.463L150.571 54.4489H150.65L152.758 48.3636H154.031ZM158.508 56.1591C157.772 56.1591 157.137 55.9967 156.604 55.6719C156.074 55.3438 155.664 54.8864 155.376 54.2997C155.091 53.7098 154.948 53.0237 154.948 52.2415C154.948 51.4593 155.091 50.7699 155.376 50.1733C155.664 49.5734 156.065 49.1061 156.579 48.7713C157.096 48.4332 157.699 48.2642 158.389 48.2642C158.786 48.2642 159.179 48.3305 159.567 48.4631C159.955 48.5956 160.308 48.8111 160.626 49.1094C160.944 49.4044 161.198 49.7955 161.387 50.2827C161.575 50.7699 161.67 51.3698 161.67 52.0824V52.5795H155.784V51.5653H160.477C160.477 51.1345 160.391 50.75 160.218 50.4119C160.049 50.0739 159.807 49.8071 159.492 49.6115C159.181 49.416 158.813 49.3182 158.389 49.3182C157.921 49.3182 157.517 49.4342 157.176 49.6662C156.838 49.8949 156.577 50.1932 156.395 50.5611C156.213 50.929 156.122 51.3234 156.122 51.7443V52.4205C156.122 52.9972 156.221 53.486 156.42 53.8871C156.622 54.2848 156.902 54.5881 157.26 54.7969C157.618 55.0024 158.034 55.1051 158.508 55.1051C158.816 55.1051 159.095 55.062 159.343 54.9759C159.595 54.8864 159.812 54.7538 159.994 54.5781C160.177 54.3991 160.318 54.1771 160.417 53.9119L161.551 54.2301C161.431 54.6146 161.231 54.9527 160.949 55.2443C160.667 55.5327 160.319 55.758 159.905 55.9205C159.491 56.0795 159.025 56.1591 158.508 56.1591ZM158.866 45.6193L160.894 47.429H159.463L158.329 46.375L157.195 47.429H155.764L157.772 45.6193H158.866ZM155.326 44.4062L156.281 46.2159H155.267L153.855 44.4062H155.326ZM167.392 56V48.3636H168.526V49.5568H168.625C168.784 49.1491 169.041 48.8326 169.396 48.6072C169.75 48.3786 170.176 48.2642 170.673 48.2642C171.177 48.2642 171.597 48.3786 171.931 48.6072C172.269 48.8326 172.533 49.1491 172.722 49.5568H172.801C172.997 49.1624 173.29 48.8492 173.681 48.6172C174.072 48.3819 174.541 48.2642 175.088 48.2642C175.771 48.2642 176.329 48.478 176.764 48.9055C177.198 49.3298 177.415 49.991 177.415 50.8892V56H176.242V50.8892C176.242 50.3258 176.088 49.9231 175.779 49.6811C175.471 49.4392 175.108 49.3182 174.691 49.3182C174.154 49.3182 173.738 49.4806 173.443 49.8054C173.148 50.1269 173 50.5346 173 51.0284V56H171.807V50.7699C171.807 50.3357 171.666 49.986 171.384 49.7209C171.103 49.4524 170.74 49.3182 170.296 49.3182C169.991 49.3182 169.706 49.3994 169.441 49.5618C169.179 49.7242 168.967 49.9496 168.804 50.2379C168.645 50.523 168.566 50.8527 168.566 51.2273V56H167.392ZM182.762 56.1591C182.026 56.1591 181.391 55.9967 180.858 55.6719C180.327 55.3438 179.918 54.8864 179.63 54.2997C179.345 53.7098 179.202 53.0237 179.202 52.2415C179.202 51.4593 179.345 50.7699 179.63 50.1733C179.918 49.5734 180.319 49.1061 180.833 48.7713C181.35 48.4332 181.953 48.2642 182.643 48.2642C183.04 48.2642 183.433 48.3305 183.821 48.4631C184.209 48.5956 184.562 48.8111 184.88 49.1094C185.198 49.4044 185.452 49.7955 185.64 50.2827C185.829 50.7699 185.924 51.3698 185.924 52.0824V52.5795H180.037V51.5653H184.731C184.731 51.1345 184.644 50.75 184.472 50.4119C184.303 50.0739 184.061 49.8071 183.746 49.6115C183.435 49.416 183.067 49.3182 182.643 49.3182C182.175 49.3182 181.771 49.4342 181.43 49.6662C181.091 49.8949 180.831 50.1932 180.649 50.5611C180.467 50.929 180.376 51.3234 180.376 51.7443V52.4205C180.376 52.9972 180.475 53.486 180.674 53.8871C180.876 54.2848 181.156 54.5881 181.514 54.7969C181.872 55.0024 182.288 55.1051 182.762 55.1051C183.07 55.1051 183.349 55.062 183.597 54.9759C183.849 54.8864 184.066 54.7538 184.248 54.5781C184.431 54.3991 184.572 54.1771 184.671 53.9119L185.805 54.2301C185.685 54.6146 185.485 54.9527 185.203 55.2443C184.921 55.5327 184.573 55.758 184.159 55.9205C183.745 56.0795 183.279 56.1591 182.762 56.1591ZM182.583 58.5256C182.354 58.5256 182.157 58.4477 181.991 58.2919C181.829 58.1361 181.748 57.9489 181.748 57.7301C181.748 57.5114 181.829 57.3241 181.991 57.1683C182.157 57.0125 182.354 56.9347 182.583 56.9347C182.812 56.9347 183.007 57.0125 183.17 57.1683C183.335 57.3241 183.418 57.5114 183.418 57.7301C183.418 57.9489 183.335 58.1361 183.17 58.2919C183.007 58.4477 182.812 58.5256 182.583 58.5256ZM194.748 56.1591C194.032 56.1591 193.416 55.9901 192.899 55.652C192.382 55.3139 191.984 54.8482 191.706 54.255C191.427 53.6617 191.288 52.9839 191.288 52.2216C191.288 51.446 191.431 50.7616 191.716 50.1683C192.004 49.5717 192.405 49.1061 192.919 48.7713C193.436 48.4332 194.039 48.2642 194.729 48.2642C195.265 48.2642 195.749 48.3636 196.18 48.5625C196.611 48.7614 196.964 49.0398 197.239 49.3977C197.514 49.7557 197.685 50.1733 197.751 50.6506H196.578C196.488 50.3026 196.29 49.9943 195.981 49.7259C195.676 49.4541 195.265 49.3182 194.748 49.3182C194.291 49.3182 193.89 49.4375 193.545 49.6761C193.204 49.9115 192.937 50.2446 192.745 50.6754C192.556 51.103 192.461 51.6051 192.461 52.1818C192.461 52.7718 192.554 53.2855 192.74 53.723C192.929 54.1605 193.194 54.5002 193.535 54.7422C193.88 54.9841 194.284 55.1051 194.748 55.1051C195.053 55.1051 195.33 55.0521 195.579 54.946C195.827 54.84 196.038 54.6875 196.21 54.4886C196.382 54.2898 196.505 54.0511 196.578 53.7727H197.751C197.685 54.2235 197.521 54.6295 197.259 54.9908C197.001 55.3487 196.657 55.6338 196.23 55.8459C195.806 56.0547 195.312 56.1591 194.748 56.1591ZM204.279 52.8778V48.3636H205.452V56H204.279V54.7074H204.199C204.02 55.0952 203.742 55.425 203.364 55.6967C202.986 55.9652 202.509 56.0994 201.932 56.0994C201.455 56.0994 201.031 55.995 200.66 55.7862C200.288 55.5741 199.997 55.2559 199.785 54.8317C199.573 54.4041 199.466 53.8655 199.466 53.2159V48.3636H200.64V53.1364C200.64 53.6932 200.796 54.1373 201.107 54.4688C201.422 54.8002 201.823 54.9659 202.31 54.9659C202.602 54.9659 202.898 54.8913 203.2 54.7422C203.505 54.593 203.76 54.3643 203.966 54.0561C204.175 53.7479 204.279 53.3551 204.279 52.8778ZM202.986 47.3295H202.012V46.2557C202.36 46.2358 202.605 46.1877 202.748 46.1115C202.894 46.0353 202.966 45.9176 202.966 45.7585C202.966 45.5795 202.862 45.4486 202.653 45.3658C202.444 45.2829 202.191 45.2415 201.893 45.2415L201.932 44.4858C202.618 44.4858 203.137 44.6051 203.488 44.8438C203.843 45.0824 204.02 45.4006 204.02 45.7983C204.02 46.1364 203.913 46.3833 203.697 46.5391C203.482 46.6948 203.245 46.7926 202.986 46.8324V47.3295ZM209.848 56.179C209.364 56.179 208.925 56.0878 208.531 55.9055C208.136 55.7199 207.823 55.4531 207.591 55.1051C207.359 54.7538 207.243 54.3295 207.243 53.8324C207.243 53.3949 207.329 53.0402 207.502 52.7685C207.674 52.4934 207.904 52.2779 208.193 52.1222C208.481 51.9664 208.799 51.8504 209.147 51.7741C209.499 51.6946 209.852 51.6316 210.206 51.5852C210.67 51.5256 211.047 51.4808 211.335 51.451C211.627 51.4179 211.839 51.3632 211.971 51.2869C212.107 51.2107 212.175 51.0781 212.175 50.8892V50.8494C212.175 50.3589 212.041 49.9777 211.772 49.706C211.507 49.4342 211.105 49.2983 210.564 49.2983C210.004 49.2983 209.565 49.4209 209.247 49.6662C208.929 49.9115 208.705 50.1733 208.576 50.4517L207.462 50.054C207.661 49.59 207.926 49.2287 208.257 48.9702C208.592 48.7083 208.957 48.526 209.351 48.4233C209.749 48.3172 210.14 48.2642 210.525 48.2642C210.77 48.2642 211.051 48.294 211.37 48.3537C211.691 48.41 212.001 48.5277 212.299 48.7067C212.601 48.8857 212.851 49.1558 213.05 49.517C213.249 49.8783 213.348 50.3622 213.348 50.9688V56H212.175V54.9659H212.115C212.036 55.1316 211.903 55.3089 211.718 55.4979C211.532 55.6868 211.285 55.8475 210.977 55.9801C210.669 56.1127 210.292 56.179 209.848 56.179ZM210.027 55.125C210.491 55.125 210.882 55.0339 211.201 54.8516C211.522 54.6693 211.764 54.4339 211.926 54.1456C212.092 53.8572 212.175 53.554 212.175 53.2358V52.1619C212.125 52.2216 212.016 52.2763 211.847 52.326C211.681 52.3724 211.489 52.4138 211.27 52.4503C211.055 52.4834 210.844 52.5133 210.639 52.5398C210.437 52.563 210.273 52.5829 210.147 52.5994C209.842 52.6392 209.557 52.7038 209.292 52.7933C209.03 52.8795 208.818 53.0104 208.655 53.1861C208.496 53.3584 208.417 53.5937 208.417 53.892C208.417 54.2997 208.567 54.608 208.869 54.8168C209.174 55.0223 209.56 55.125 210.027 55.125ZM222.629 56.1591C221.893 56.1591 221.259 55.9967 220.725 55.6719C220.195 55.3438 219.785 54.8864 219.497 54.2997C219.212 53.7098 219.069 53.0237 219.069 52.2415C219.069 51.4593 219.212 50.7699 219.497 50.1733C219.785 49.5734 220.186 49.1061 220.7 48.7713C221.217 48.4332 221.82 48.2642 222.51 48.2642C222.907 48.2642 223.3 48.3305 223.688 48.4631C224.076 48.5956 224.429 48.8111 224.747 49.1094C225.065 49.4044 225.319 49.7955 225.508 50.2827C225.697 50.7699 225.791 51.3698 225.791 52.0824V52.5795H219.905V51.5653H224.598C224.598 51.1345 224.512 50.75 224.339 50.4119C224.17 50.0739 223.928 49.8071 223.613 49.6115C223.302 49.416 222.934 49.3182 222.51 49.3182C222.042 49.3182 221.638 49.4342 221.297 49.6662C220.959 49.8949 220.698 50.1932 220.516 50.5611C220.334 50.929 220.243 51.3234 220.243 51.7443V52.4205C220.243 52.9972 220.342 53.486 220.541 53.8871C220.743 54.2848 221.023 54.5881 221.381 54.7969C221.739 55.0024 222.155 55.1051 222.629 55.1051C222.937 55.1051 223.216 55.062 223.464 54.9759C223.716 54.8864 223.933 54.7538 224.116 54.5781C224.298 54.3991 224.439 54.1771 224.538 53.9119L225.672 54.2301C225.552 54.6146 225.352 54.9527 225.07 55.2443C224.788 55.5327 224.44 55.758 224.026 55.9205C223.612 56.0795 223.146 56.1591 222.629 56.1591ZM227.576 56V48.3636H228.709V49.5568H228.809C228.968 49.1491 229.225 48.8326 229.579 48.6072C229.934 48.3786 230.36 48.2642 230.857 48.2642C231.361 48.2642 231.78 48.3786 232.115 48.6072C232.453 48.8326 232.716 49.1491 232.905 49.5568H232.985C233.18 49.1624 233.474 48.8492 233.865 48.6172C234.256 48.3819 234.725 48.2642 235.272 48.2642C235.955 48.2642 236.513 48.478 236.947 48.9055C237.381 49.3298 237.599 49.991 237.599 50.8892V56H236.425V50.8892C236.425 50.3258 236.271 49.9231 235.963 49.6811C235.655 49.4392 235.292 49.3182 234.874 49.3182C234.337 49.3182 233.921 49.4806 233.626 49.8054C233.331 50.1269 233.184 50.5346 233.184 51.0284V56H231.991V50.7699C231.991 50.3357 231.85 49.986 231.568 49.7209C231.286 49.4524 230.923 49.3182 230.479 49.3182C230.174 49.3182 229.889 49.3994 229.624 49.5618C229.362 49.7242 229.15 49.9496 228.988 50.2379C228.829 50.523 228.749 50.8527 228.749 51.2273V56H227.576ZM240.599 56.0795C240.354 56.0795 240.143 55.9917 239.968 55.8161C239.792 55.6404 239.704 55.4299 239.704 55.1847C239.704 54.9394 239.792 54.7289 239.968 54.5533C240.143 54.3776 240.354 54.2898 240.599 54.2898C240.844 54.2898 241.055 54.3776 241.23 54.5533C241.406 54.7289 241.494 54.9394 241.494 55.1847C241.494 55.3471 241.452 55.4962 241.369 55.6321C241.29 55.768 241.182 55.8774 241.046 55.9602C240.914 56.0398 240.765 56.0795 240.599 56.0795ZM21.6761 66.9119V65.8182H29.3125V66.9119H26.1108V76H24.8778V66.9119H21.6761ZM30.2633 76V68.3636H31.3968V69.517H31.4764C31.6156 69.1392 31.8675 68.8326 32.2321 68.5973C32.5967 68.362 33.0076 68.2443 33.465 68.2443C33.5512 68.2443 33.6589 68.246 33.7882 68.2493C33.9174 68.2526 34.0152 68.2576 34.0815 68.2642V69.4574C34.0417 69.4474 33.9506 69.4325 33.8081 69.4126C33.6689 69.3894 33.5214 69.3778 33.3656 69.3778C32.9944 69.3778 32.6629 69.4557 32.3713 69.6115C32.0829 69.764 31.8542 69.9761 31.6852 70.2479C31.5195 70.5163 31.4366 70.8229 31.4366 71.1676V76H30.2633ZM37.7195 76.179C37.2356 76.179 36.7964 76.0878 36.402 75.9055C36.0076 75.7199 35.6944 75.4531 35.4624 75.1051C35.2304 74.7538 35.1143 74.3295 35.1143 73.8324C35.1143 73.3949 35.2005 73.0402 35.3729 72.7685C35.5452 72.4934 35.7756 72.2779 36.0639 72.1222C36.3523 71.9664 36.6705 71.8504 37.0185 71.7741C37.3698 71.6946 37.7228 71.6316 38.0774 71.5852C38.5414 71.5256 38.9176 71.4808 39.206 71.451C39.4976 71.4179 39.7098 71.3632 39.8423 71.2869C39.9782 71.2107 40.0462 71.0781 40.0462 70.8892V70.8494C40.0462 70.3589 39.9119 69.9777 39.6435 69.706C39.3783 69.4342 38.9756 69.2983 38.4354 69.2983C37.8752 69.2983 37.4361 69.4209 37.1179 69.6662C36.7997 69.9115 36.576 70.1733 36.4467 70.4517L35.3331 70.054C35.532 69.59 35.7971 69.2287 36.1286 68.9702C36.4633 68.7083 36.8279 68.526 37.2223 68.4233C37.62 68.3172 38.0111 68.2642 38.3956 68.2642C38.6409 68.2642 38.9226 68.294 39.2408 68.3537C39.5623 68.41 39.8722 68.5277 40.1705 68.7067C40.4721 68.8857 40.7223 69.1558 40.9212 69.517C41.12 69.8783 41.2195 70.3622 41.2195 70.9688V76H40.0462V74.9659H39.9865C39.907 75.1316 39.7744 75.3089 39.5888 75.4979C39.4032 75.6868 39.1563 75.8475 38.848 75.9801C38.5398 76.1127 38.1636 76.179 37.7195 76.179ZM37.8984 75.125C38.3625 75.125 38.7536 75.0339 39.0717 74.8516C39.3932 74.6693 39.6352 74.4339 39.7976 74.1456C39.9633 73.8572 40.0462 73.554 40.0462 73.2358V72.1619C39.9964 72.2216 39.8871 72.2763 39.718 72.326C39.5523 72.3724 39.3601 72.4138 39.1413 72.4503C38.9259 72.4834 38.7154 72.5133 38.5099 72.5398C38.3078 72.563 38.1437 72.5829 38.0178 72.5994C37.7128 72.6392 37.4278 72.7038 37.1626 72.7933C36.9008 72.8795 36.6887 73.0104 36.5263 73.1861C36.3672 73.3584 36.2876 73.5937 36.2876 73.892C36.2876 74.2997 36.4384 74.608 36.7401 74.8168C37.045 75.0223 37.4311 75.125 37.8984 75.125ZM38.4155 78.5256C38.1868 78.5256 37.9896 78.4477 37.8239 78.2919C37.6615 78.1361 37.5803 77.9489 37.5803 77.7301C37.5803 77.5114 37.6615 77.3241 37.8239 77.1683C37.9896 77.0125 38.1868 76.9347 38.4155 76.9347C38.6442 76.9347 38.8397 77.0125 39.0021 77.1683C39.1679 77.3241 39.2507 77.5114 39.2507 77.7301C39.2507 77.9489 39.1679 78.1361 39.0021 78.2919C38.8397 78.4477 38.6442 78.5256 38.4155 78.5256ZM44.5343 71.4062V76H43.361V68.3636H44.4945V69.5568H44.5939C44.7729 69.169 45.0447 68.8575 45.4093 68.6222C45.7739 68.3835 46.2445 68.2642 46.8212 68.2642C47.3382 68.2642 47.7907 68.3703 48.1784 68.5824C48.5662 68.7912 48.8678 69.1094 49.0833 69.5369C49.2987 69.9612 49.4064 70.4981 49.4064 71.1477V76H48.2331V71.2273C48.2331 70.6274 48.0774 70.16 47.7658 69.8253C47.4542 69.4872 47.0267 69.3182 46.4831 69.3182C46.1086 69.3182 45.7739 69.3994 45.4789 69.5618C45.1872 69.7242 44.9569 69.9612 44.7878 70.2727C44.6188 70.5843 44.5343 70.9621 44.5343 71.4062ZM54.6328 79.0227C54.0661 79.0227 53.5788 78.9498 53.1712 78.804C52.7635 78.6615 52.4238 78.4725 52.152 78.2372C51.8835 78.0052 51.6697 77.7566 51.5107 77.4915L52.4453 76.8352C52.5514 76.9744 52.6856 77.1335 52.848 77.3125C53.0104 77.4948 53.2325 77.6522 53.5142 77.7848C53.7992 77.9207 54.1721 77.9886 54.6328 77.9886C55.2493 77.9886 55.758 77.8395 56.1591 77.5412C56.5601 77.2429 56.7607 76.7756 56.7607 76.1392V74.5881H56.6612C56.575 74.7273 56.4524 74.8996 56.2933 75.1051C56.1375 75.3073 55.9122 75.4879 55.6172 75.647C55.3255 75.8028 54.9311 75.8807 54.4339 75.8807C53.8175 75.8807 53.264 75.7348 52.7734 75.4432C52.2862 75.1515 51.9001 74.7273 51.6151 74.1705C51.3333 73.6136 51.1925 72.9375 51.1925 72.142C51.1925 71.3598 51.33 70.6787 51.6051 70.0987C51.8802 69.5154 52.263 69.0646 52.7536 68.7464C53.2441 68.425 53.8108 68.2642 54.4538 68.2642C54.951 68.2642 55.3454 68.3471 55.6371 68.5128C55.9321 68.6752 56.1574 68.8608 56.3132 69.0696C56.4723 69.2751 56.5949 69.4441 56.6811 69.5767H56.8004V68.3636H57.9339V76.2188C57.9339 76.875 57.7848 77.4086 57.4865 77.8196C57.1915 78.2339 56.7938 78.5372 56.2933 78.7294C55.7962 78.925 55.2427 79.0227 54.6328 79.0227ZM54.593 74.8267C55.0637 74.8267 55.4614 74.719 55.7862 74.5036C56.111 74.2881 56.358 73.9782 56.527 73.5739C56.696 73.1695 56.7805 72.6856 56.7805 72.1222C56.7805 71.572 56.6977 71.0864 56.532 70.6655C56.3662 70.2446 56.121 69.9148 55.7962 69.6761C55.4714 69.4375 55.0703 69.3182 54.593 69.3182C54.0959 69.3182 53.6816 69.4441 53.3501 69.696C53.022 69.9479 52.7751 70.286 52.6094 70.7102C52.447 71.1345 52.3658 71.6051 52.3658 72.1222C52.3658 72.6525 52.4486 73.1214 52.6143 73.5291C52.7834 73.9335 53.032 74.2517 53.3601 74.4837C53.6915 74.7124 54.1025 74.8267 54.593 74.8267ZM67.3402 68.3636V69.358H63.3828V68.3636H67.3402ZM64.5362 66.5341H65.7095V73.8125C65.7095 74.1439 65.7576 74.3925 65.8537 74.5582C65.9531 74.7206 66.0791 74.83 66.2315 74.8864C66.3873 74.9394 66.5514 74.9659 66.7237 74.9659C66.853 74.9659 66.959 74.9593 67.0419 74.946C67.1248 74.9295 67.1911 74.9162 67.2408 74.9062L67.4794 75.9602C67.3999 75.9901 67.2888 76.0199 67.1463 76.0497C67.0038 76.0829 66.8232 76.0994 66.6044 76.0994C66.273 76.0994 65.9482 76.0282 65.63 75.8857C65.3151 75.7431 65.0533 75.526 64.8445 75.2344C64.639 74.9427 64.5362 74.5748 64.5362 74.1307V66.5341ZM70.4425 71.4062V76H69.2692V65.8182H70.4425V69.5568H70.5419C70.7209 69.1624 70.9893 68.8492 71.3473 68.6172C71.7086 68.3819 72.1892 68.2642 72.7891 68.2642C73.3094 68.2642 73.7652 68.3686 74.1562 68.5774C74.5473 68.7829 74.8506 69.0994 75.0661 69.527C75.2848 69.9512 75.3942 70.4915 75.3942 71.1477V76H74.2209V71.2273C74.2209 70.6207 74.0634 70.1518 73.7486 69.8203C73.437 69.4856 73.0045 69.3182 72.451 69.3182C72.0665 69.3182 71.7218 69.3994 71.4169 69.5618C71.1153 69.7242 70.8767 69.9612 70.701 70.2727C70.5286 70.5843 70.4425 70.9621 70.4425 71.4062ZM79.7878 76.179C79.3039 76.179 78.8648 76.0878 78.4703 75.9055C78.0759 75.7199 77.7627 75.4531 77.5307 75.1051C77.2987 74.7538 77.1827 74.3295 77.1827 73.8324C77.1827 73.3949 77.2689 73.0402 77.4412 72.7685C77.6136 72.4934 77.8439 72.2779 78.1323 72.1222C78.4206 71.9664 78.7388 71.8504 79.0868 71.7741C79.4382 71.6946 79.7911 71.6316 80.1458 71.5852C80.6098 71.5256 80.986 71.4808 81.2743 71.451C81.566 71.4179 81.7781 71.3632 81.9107 71.2869C82.0466 71.2107 82.1145 71.0781 82.1145 70.8892V70.8494C82.1145 70.3589 81.9803 69.9777 81.7118 69.706C81.4467 69.4342 81.044 69.2983 80.5037 69.2983C79.9436 69.2983 79.5044 69.4209 79.1863 69.6662C78.8681 69.9115 78.6444 70.1733 78.5151 70.4517L77.4015 70.054C77.6003 69.59 77.8655 69.2287 78.1969 68.9702C78.5317 68.7083 78.8962 68.526 79.2907 68.4233C79.6884 68.3172 80.0795 68.2642 80.464 68.2642C80.7092 68.2642 80.9909 68.294 81.3091 68.3537C81.6306 68.41 81.9405 68.5277 82.2388 68.7067C82.5404 68.8857 82.7907 69.1558 82.9895 69.517C83.1884 69.8783 83.2878 70.3622 83.2878 70.9688V76H82.1145V74.9659H82.0549C81.9753 75.1316 81.8427 75.3089 81.6571 75.4979C81.4715 75.6868 81.2246 75.8475 80.9164 75.9801C80.6081 76.1127 80.2319 76.179 79.7878 76.179ZM79.9668 75.125C80.4308 75.125 80.8219 75.0339 81.1401 74.8516C81.4616 74.6693 81.7035 74.4339 81.8659 74.1456C82.0317 73.8572 82.1145 73.554 82.1145 73.2358V72.1619C82.0648 72.2216 81.9554 72.2763 81.7864 72.326C81.6207 72.3724 81.4284 72.4138 81.2097 72.4503C80.9943 72.4834 80.7838 72.5133 80.5783 72.5398C80.3761 72.563 80.2121 72.5829 80.0861 72.5994C79.7812 72.6392 79.4962 72.7038 79.231 72.7933C78.9692 72.8795 78.757 73.0104 78.5946 73.1861C78.4355 73.3584 78.356 73.5937 78.356 73.892C78.356 74.2997 78.5068 74.608 78.8084 74.8168C79.1133 75.0223 79.4995 75.125 79.9668 75.125ZM80.0066 67.3295L81.2196 65.0227H82.5918L81.0407 67.3295H80.0066ZM85.4293 76V68.3636H86.6026V76H85.4293ZM86.0259 67.0909C85.7972 67.0909 85.6 67.013 85.4343 66.8572C85.2719 66.7015 85.1907 66.5142 85.1907 66.2955C85.1907 66.0767 85.2719 65.8894 85.4343 65.7337C85.6 65.5779 85.7972 65.5 86.0259 65.5C86.2546 65.5 86.4502 65.5779 86.6126 65.7337C86.7783 65.8894 86.8612 66.0767 86.8612 66.2955C86.8612 66.5142 86.7783 66.7015 86.6126 66.8572C86.4502 67.013 86.2546 67.0909 86.0259 67.0909ZM89.6067 76.0795C89.3614 76.0795 89.151 75.9917 88.9753 75.8161C88.7997 75.6404 88.7118 75.4299 88.7118 75.1847C88.7118 74.9394 88.7997 74.7289 88.9753 74.5533C89.151 74.3776 89.3614 74.2898 89.6067 74.2898C89.852 74.2898 90.0624 74.3776 90.2381 74.5533C90.4138 74.7289 90.5016 74.9394 90.5016 75.1847C90.5016 75.3471 90.4602 75.4962 90.3773 75.6321C90.2978 75.768 90.19 75.8774 90.0542 75.9602C89.9216 76.0398 89.7724 76.0795 89.6067 76.0795ZM89.6067 70.4119C89.3614 70.4119 89.151 70.3241 88.9753 70.1484C88.7997 69.9728 88.7118 69.7623 88.7118 69.517C88.7118 69.2718 88.7997 69.0613 88.9753 68.8857C89.151 68.71 89.3614 68.6222 89.6067 68.6222C89.852 68.6222 90.0624 68.71 90.2381 68.8857C90.4138 69.0613 90.5016 69.2718 90.5016 69.517C90.5016 69.6795 90.4602 69.8286 90.3773 69.9645C90.2978 70.1004 90.19 70.2098 90.0542 70.2926C89.9216 70.3722 89.7724 70.4119 89.6067 70.4119Z" fill="#0F172A"/>
<path d="M104.897 69H103.664C103.591 68.6454 103.463 68.3338 103.281 68.0653C103.102 67.7969 102.883 67.5715 102.625 67.3892C102.37 67.2036 102.086 67.0644 101.775 66.9716C101.463 66.8788 101.138 66.8324 100.8 66.8324C100.184 66.8324 99.6253 66.9882 99.1248 67.2997C98.6277 67.6113 98.2316 68.0703 97.9366 68.6768C97.6449 69.2834 97.4991 70.0275 97.4991 70.9091C97.4991 71.7907 97.6449 72.5348 97.9366 73.1413C98.2316 73.7479 98.6277 74.2069 99.1248 74.5185C99.6253 74.83 100.184 74.9858 100.8 74.9858C101.138 74.9858 101.463 74.9394 101.775 74.8466C102.086 74.7538 102.37 74.6162 102.625 74.4339C102.883 74.2483 103.102 74.0213 103.281 73.7528C103.463 73.4811 103.591 73.1695 103.664 72.8182H104.897C104.804 73.3385 104.635 73.8042 104.39 74.2152C104.144 74.6262 103.84 74.9759 103.475 75.2642C103.11 75.5492 102.701 75.7663 102.247 75.9155C101.796 76.0646 101.314 76.1392 100.8 76.1392C99.9319 76.1392 99.1596 75.9271 98.4835 75.5028C97.8074 75.0786 97.2754 74.4754 96.8876 73.6932C96.4998 72.911 96.3059 71.983 96.3059 70.9091C96.3059 69.8352 96.4998 68.9072 96.8876 68.125C97.2754 67.3428 97.8074 66.7396 98.4835 66.3153C99.1596 65.8911 99.9319 65.679 100.8 65.679C101.314 65.679 101.796 65.7536 102.247 65.9027C102.701 66.0518 103.11 66.2706 103.475 66.5589C103.84 66.844 104.144 67.192 104.39 67.603C104.635 68.0107 104.804 68.4763 104.897 69ZM107.903 71.4062V76H106.73V65.8182H107.903V69.5568H108.003C108.182 69.1624 108.45 68.8492 108.808 68.6172C109.17 68.3819 109.65 68.2642 110.25 68.2642C110.77 68.2642 111.226 68.3686 111.617 68.5774C112.008 68.7829 112.312 69.0994 112.527 69.527C112.746 69.9512 112.855 70.4915 112.855 71.1477V76H111.682V71.2273C111.682 70.6207 111.524 70.1518 111.21 69.8203C110.898 69.4856 110.465 69.3182 109.912 69.3182C109.527 69.3182 109.183 69.3994 108.878 69.5618C108.576 69.7242 108.338 69.9612 108.162 70.2727C107.99 70.5843 107.903 70.9621 107.903 71.4062ZM121.882 68.0256H122.916C122.916 68.5294 122.85 68.9519 122.718 69.2933C122.585 69.6314 122.353 69.8866 122.021 70.0589C121.69 70.228 121.226 70.3125 120.629 70.3125V69.4972C121.04 69.4972 121.332 69.4474 121.504 69.348C121.68 69.2453 121.786 69.0862 121.823 68.8707C121.862 68.652 121.882 68.3703 121.882 68.0256ZM119.814 72.8778V68.3636H120.987V76H119.814V74.7074H119.735C119.556 75.0952 119.277 75.425 118.899 75.6967C118.521 75.9652 118.044 76.0994 117.468 76.0994C116.99 76.0994 116.566 75.995 116.195 75.7862C115.824 75.5741 115.532 75.2559 115.32 74.8317C115.108 74.4041 115.002 73.8655 115.002 73.2159V68.3636H116.175V73.1364C116.175 73.6932 116.331 74.1373 116.642 74.4688C116.957 74.8002 117.358 74.9659 117.845 74.9659C118.137 74.9659 118.434 74.8913 118.735 74.7422C119.04 74.593 119.295 74.3643 119.501 74.0561C119.71 73.7479 119.814 73.3551 119.814 72.8778ZM125.958 76.179C125.474 76.179 125.035 76.0878 124.64 75.9055C124.246 75.7199 123.933 75.4531 123.701 75.1051C123.469 74.7538 123.353 74.3295 123.353 73.8324C123.353 73.3949 123.439 73.0402 123.611 72.7685C123.783 72.4934 124.014 72.2779 124.302 72.1222C124.591 71.9664 124.909 71.8504 125.257 71.7741C125.608 71.6946 125.961 71.6316 126.316 71.5852C126.78 71.5256 127.156 71.4808 127.444 71.451C127.736 71.4179 127.948 71.3632 128.081 71.2869C128.217 71.2107 128.284 71.0781 128.284 70.8892V70.8494C128.284 70.3589 128.15 69.9777 127.882 69.706C127.617 69.4342 127.214 69.2983 126.674 69.2983C126.114 69.2983 125.674 69.4209 125.356 69.6662C125.038 69.9115 124.814 70.1733 124.685 70.4517L123.571 70.054C123.77 69.59 124.035 69.2287 124.367 68.9702C124.702 68.7083 125.066 68.526 125.461 68.4233C125.858 68.3172 126.249 68.2642 126.634 68.2642C126.879 68.2642 127.161 68.294 127.479 68.3537C127.801 68.41 128.11 68.5277 128.409 68.7067C128.71 68.8857 128.961 69.1558 129.159 69.517C129.358 69.8783 129.458 70.3622 129.458 70.9688V76H128.284V74.9659H128.225C128.145 75.1316 128.013 75.3089 127.827 75.4979C127.641 75.6868 127.395 75.8475 127.086 75.9801C126.778 76.1127 126.402 76.179 125.958 76.179ZM126.137 75.125C126.601 75.125 126.992 75.0339 127.31 74.8516C127.632 74.6693 127.873 74.4339 128.036 74.1456C128.202 73.8572 128.284 73.554 128.284 73.2358V72.1619C128.235 72.2216 128.125 72.2763 127.956 72.326C127.791 72.3724 127.598 72.4138 127.38 72.4503C127.164 72.4834 126.954 72.5133 126.748 72.5398C126.546 72.563 126.382 72.5829 126.256 72.5994C125.951 72.6392 125.666 72.7038 125.401 72.7933C125.139 72.8795 124.927 73.0104 124.765 73.1861C124.605 73.3584 124.526 73.5937 124.526 73.892C124.526 74.2997 124.677 74.608 124.978 74.8168C125.283 75.0223 125.669 75.125 126.137 75.125ZM136.71 65.8182V76H135.537V65.8182H136.71ZM141.106 76.179C140.622 76.179 140.183 76.0878 139.789 75.9055C139.394 75.7199 139.081 75.4531 138.849 75.1051C138.617 74.7538 138.501 74.3295 138.501 73.8324C138.501 73.3949 138.587 73.0402 138.76 72.7685C138.932 72.4934 139.162 72.2779 139.451 72.1222C139.739 71.9664 140.057 71.8504 140.405 71.7741C140.757 71.6946 141.109 71.6316 141.464 71.5852C141.928 71.5256 142.304 71.4808 142.593 71.451C142.884 71.4179 143.096 71.3632 143.229 71.2869C143.365 71.2107 143.433 71.0781 143.433 70.8892V70.8494C143.433 70.3589 143.299 69.9777 143.03 69.706C142.765 69.4342 142.362 69.2983 141.822 69.2983C141.262 69.2983 140.823 69.4209 140.505 69.6662C140.186 69.9115 139.963 70.1733 139.833 70.4517L138.72 70.054C138.919 69.59 139.184 69.2287 139.515 68.9702C139.85 68.7083 140.215 68.526 140.609 68.4233C141.007 68.3172 141.398 68.2642 141.782 68.2642C142.028 68.2642 142.309 68.294 142.627 68.3537C142.949 68.41 143.259 68.5277 143.557 68.7067C143.859 68.8857 144.109 69.1558 144.308 69.517C144.507 69.8783 144.606 70.3622 144.606 70.9688V76H143.433V74.9659H143.373C143.294 75.1316 143.161 75.3089 142.975 75.4979C142.79 75.6868 142.543 75.8475 142.235 75.9801C141.926 76.1127 141.55 76.179 141.106 76.179ZM141.285 75.125C141.749 75.125 142.14 75.0339 142.458 74.8516C142.78 74.6693 143.022 74.4339 143.184 74.1456C143.35 73.8572 143.433 73.554 143.433 73.2358V72.1619C143.383 72.2216 143.274 72.2763 143.105 72.326C142.939 72.3724 142.747 72.4138 142.528 72.4503C142.313 72.4834 142.102 72.5133 141.897 72.5398C141.694 72.563 141.53 72.5829 141.404 72.5994C141.1 72.6392 140.815 72.7038 140.549 72.7933C140.288 72.8795 140.075 73.0104 139.913 73.1861C139.754 73.3584 139.674 73.5937 139.674 73.892C139.674 74.2997 139.825 74.608 140.127 74.8168C140.432 75.0223 140.818 75.125 141.285 75.125ZM141.365 67.3295L139.814 65.0227H141.186L142.399 67.3295H141.365ZM146.748 76V68.3636H147.881V69.5568H147.981C148.14 69.1491 148.397 68.8326 148.751 68.6072C149.106 68.3786 149.532 68.2642 150.029 68.2642C150.533 68.2642 150.952 68.3786 151.287 68.6072C151.625 68.8326 151.888 69.1491 152.077 69.5568H152.157C152.352 69.1624 152.646 68.8492 153.037 68.6172C153.428 68.3819 153.897 68.2642 154.444 68.2642C155.126 68.2642 155.685 68.478 156.119 68.9055C156.553 69.3298 156.77 69.991 156.77 70.8892V76H155.597V70.8892C155.597 70.3258 155.443 69.9231 155.135 69.6811C154.827 69.4392 154.464 69.3182 154.046 69.3182C153.509 69.3182 153.093 69.4806 152.798 69.8054C152.503 70.1269 152.356 70.5346 152.356 71.0284V76H151.162V70.7699C151.162 70.3357 151.022 69.986 150.74 69.7209C150.458 69.4524 150.095 69.3182 149.651 69.3182C149.346 69.3182 149.061 69.3994 148.796 69.5618C148.534 69.7242 148.322 69.9496 148.16 70.2379C148.001 70.523 147.921 70.8527 147.921 71.2273V76H146.748Z" fill="#B91C1C"/>
<path d="M33.6667 87.6667H24.3333C23.597 87.6667 23 88.2637 23 89.0001V98.3334C23 99.0698 23.597 99.6667 24.3333 99.6667H33.6667C34.403 99.6667 35 99.0698 35 98.3334V89.0001C35 88.2637 34.403 87.6667 33.6667 87.6667Z" stroke="#64748B" stroke-width="1.33333" stroke-linecap="round" stroke-linejoin="round"/>
<path d="M31.6667 86.3333V88.9999" stroke="#64748B" stroke-width="1.33333" stroke-linecap="round" stroke-linejoin="round"/>
<path d="M26.3333 86.3333V88.9999" stroke="#64748B" stroke-width="1.33333" stroke-linecap="round" stroke-linejoin="round"/>
<path d="M23 91.6667H35" stroke="#64748B" stroke-width="1.33333" stroke-linecap="round" stroke-linejoin="round"/>
<path d="M26.3333 94.3333H26.3433" stroke="#64748B" stroke-width="1.33333" stroke-linecap="round" stroke-linejoin="round"/>
<path d="M29 94.3333H29.01" stroke="#64748B" stroke-width="1.33333" stroke-linecap="round" stroke-linejoin="round"/>
<path d="M31.6667 94.3333H31.6767" stroke="#64748B" stroke-width="1.33333" stroke-linecap="round" stroke-linejoin="round"/>
<path d="M26.3333 97H26.3433" stroke="#64748B" stroke-width="1.33333" stroke-linecap="round" stroke-linejoin="round"/>
<path d="M29 97H29.01" stroke="#64748B" stroke-width="1.33333" stroke-linecap="round" stroke-linejoin="round"/>
<path d="M31.6667 97H31.6767" stroke="#64748B" stroke-width="1.33333" stroke-linecap="round" stroke-linejoin="round"/>
<path d="M42.0568 97V88.2727H43.1136V92.1591H47.767V88.2727H48.8239V97H47.767V93.0966H43.1136V97H42.0568ZM52.7294 97.1534C52.3146 97.1534 51.9382 97.0753 51.6001 96.919C51.2621 96.7599 50.9936 96.5312 50.7947 96.233C50.5959 95.9318 50.4964 95.5682 50.4964 95.142C50.4964 94.767 50.5703 94.4631 50.718 94.2301C50.8658 93.9943 51.0632 93.8097 51.3104 93.6761C51.5575 93.5426 51.8303 93.4432 52.1286 93.3778C52.4297 93.3097 52.7322 93.2557 53.0362 93.2159C53.4339 93.1648 53.7564 93.1264 54.0036 93.1009C54.2536 93.0724 54.4354 93.0256 54.549 92.9602C54.6655 92.8949 54.7237 92.7812 54.7237 92.6193V92.5852C54.7237 92.1648 54.6087 91.8381 54.3786 91.6051C54.1513 91.3722 53.8061 91.2557 53.343 91.2557C52.8629 91.2557 52.4865 91.3608 52.2138 91.571C51.9411 91.7812 51.7493 92.0057 51.6385 92.2443L50.6839 91.9034C50.8544 91.5057 51.0817 91.196 51.3658 90.9744C51.6527 90.75 51.9652 90.5937 52.3033 90.5057C52.6442 90.4148 52.9794 90.3693 53.3089 90.3693C53.5192 90.3693 53.7607 90.3949 54.0334 90.446C54.3089 90.4943 54.5746 90.5952 54.8303 90.7486C55.0888 90.902 55.3033 91.1335 55.4737 91.4432C55.6442 91.7528 55.7294 92.1676 55.7294 92.6875V97H54.7237V96.1136H54.6726C54.6044 96.2557 54.4908 96.4077 54.3317 96.5696C54.1726 96.7315 53.9609 96.8693 53.6967 96.983C53.4325 97.0966 53.1101 97.1534 52.7294 97.1534ZM52.8828 96.25C53.2805 96.25 53.6158 96.1719 53.8885 96.0156C54.1641 95.8594 54.3714 95.6577 54.5107 95.4105C54.6527 95.1634 54.7237 94.9034 54.7237 94.6307V93.7102C54.6811 93.7614 54.5874 93.8082 54.4425 93.8509C54.3004 93.8906 54.1357 93.9261 53.9482 93.9574C53.7635 93.9858 53.5831 94.0114 53.407 94.0341C53.2337 94.054 53.093 94.071 52.9851 94.0852C52.7237 94.1193 52.4794 94.1747 52.2521 94.2514C52.0277 94.3253 51.8459 94.4375 51.7067 94.5881C51.5703 94.7358 51.5021 94.9375 51.5021 95.1932C51.5021 95.5426 51.6314 95.8068 51.8899 95.9858C52.1513 96.1619 52.4822 96.25 52.8828 96.25ZM53.326 99.1648C53.13 99.1648 52.9609 99.098 52.8189 98.9645C52.6797 98.831 52.6101 98.6705 52.6101 98.483C52.6101 98.2955 52.6797 98.1349 52.8189 98.0014C52.9609 97.8679 53.13 97.8011 53.326 97.8011C53.522 97.8011 53.6896 97.8679 53.8288 98.0014C53.9709 98.1349 54.0419 98.2955 54.0419 98.483C54.0419 98.6705 53.9709 98.831 53.8288 98.9645C53.6896 99.098 53.522 99.1648 53.326 99.1648ZM58.5707 93.0625V97H57.565V90.4545H58.5366V91.4773H58.6218C58.7752 91.1449 59.0082 90.8778 59.3207 90.6761C59.6332 90.4716 60.0366 90.3693 60.5309 90.3693C60.9741 90.3693 61.3619 90.4602 61.6942 90.642C62.0266 90.821 62.2852 91.0938 62.4698 91.4602C62.6545 91.8239 62.7468 92.2841 62.7468 92.8409V97H61.7411V92.9091C61.7411 92.3949 61.6076 91.9943 61.3406 91.7074C61.0735 91.4176 60.707 91.2727 60.2411 91.2727C59.9201 91.2727 59.6332 91.3423 59.3803 91.4815C59.1303 91.6207 58.9329 91.8239 58.788 92.0909C58.6431 92.358 58.5707 92.6818 58.5707 93.0625ZM68.0959 97V88.2727H69.1016V91.4943H69.1868C69.2607 91.3807 69.3629 91.2358 69.4936 91.0597C69.6271 90.8807 69.8175 90.7216 70.0646 90.5824C70.3146 90.4403 70.6527 90.3693 71.0788 90.3693C71.63 90.3693 72.1158 90.5071 72.5362 90.7827C72.9567 91.0582 73.2848 91.4489 73.5206 91.9545C73.7564 92.4602 73.8743 93.0568 73.8743 93.7443C73.8743 94.4375 73.7564 95.0384 73.5206 95.5469C73.2848 96.0526 72.9581 96.4446 72.5405 96.723C72.1229 96.9986 71.6413 97.1364 71.0959 97.1364C70.6754 97.1364 70.3388 97.0668 70.0859 96.9276C69.8331 96.7855 69.6385 96.625 69.5021 96.446C69.3658 96.2642 69.2607 96.1136 69.1868 95.9943H69.0675V97H68.0959ZM69.0845 93.7273C69.0845 94.2216 69.157 94.6577 69.3018 95.0355C69.4467 95.4105 69.6584 95.7045 69.9368 95.9176C70.2152 96.1278 70.5561 96.233 70.9595 96.233C71.38 96.233 71.7308 96.1222 72.0121 95.9006C72.2962 95.6761 72.5092 95.375 72.6513 94.9972C72.7962 94.6165 72.8686 94.1932 72.8686 93.7273C72.8686 93.267 72.7976 92.8523 72.6555 92.483C72.5163 92.1108 72.3047 91.8168 72.0206 91.6009C71.7393 91.3821 71.3857 91.2727 70.9595 91.2727C70.5504 91.2727 70.2067 91.3764 69.9283 91.5838C69.6499 91.7884 69.4396 92.0753 69.2976 92.4446C69.1555 92.8111 69.0845 93.2386 69.0845 93.7273ZM77.3388 97.1534C76.924 97.1534 76.5476 97.0753 76.2095 96.919C75.8714 96.7599 75.603 96.5312 75.4041 96.233C75.2053 95.9318 75.1058 95.5682 75.1058 95.142C75.1058 94.767 75.1797 94.4631 75.3274 94.2301C75.4751 93.9943 75.6726 93.8097 75.9197 93.6761C76.1669 93.5426 76.4396 93.4432 76.7379 93.3778C77.0391 93.3097 77.3416 93.2557 77.6456 93.2159C78.0433 93.1648 78.3658 93.1264 78.6129 93.1009C78.8629 93.0724 79.0447 93.0256 79.1584 92.9602C79.2749 92.8949 79.3331 92.7812 79.3331 92.6193V92.5852C79.3331 92.1648 79.218 91.8381 78.9879 91.6051C78.7607 91.3722 78.4155 91.2557 77.9524 91.2557C77.4723 91.2557 77.0959 91.3608 76.8232 91.571C76.5504 91.7812 76.3587 92.0057 76.2479 92.2443L75.2933 91.9034C75.4638 91.5057 75.6911 91.196 75.9751 90.9744C76.2621 90.75 76.5746 90.5937 76.9126 90.5057C77.2536 90.4148 77.5888 90.3693 77.9183 90.3693C78.1286 90.3693 78.37 90.3949 78.6428 90.446C78.9183 90.4943 79.1839 90.5952 79.4396 90.7486C79.6982 90.902 79.9126 91.1335 80.0831 91.4432C80.2536 91.7528 80.3388 92.1676 80.3388 92.6875V97H79.3331V96.1136H79.282C79.2138 96.2557 79.1001 96.4077 78.9411 96.5696C78.782 96.7315 78.5703 96.8693 78.3061 96.983C78.0419 97.0966 77.7195 97.1534 77.3388 97.1534ZM77.4922 96.25C77.8899 96.25 78.2251 96.1719 78.4979 96.0156C78.7734 95.8594 78.9808 95.6577 79.12 95.4105C79.2621 95.1634 79.3331 94.9034 79.3331 94.6307V93.7102C79.2905 93.7614 79.1967 93.8082 79.0518 93.8509C78.9098 93.8906 78.745 93.9261 78.5575 93.9574C78.3729 93.9858 78.1925 94.0114 78.0163 94.0341C77.843 94.054 77.7024 94.071 77.5945 94.0852C77.3331 94.1193 77.0888 94.1747 76.8615 94.2514C76.6371 94.3253 76.4553 94.4375 76.3161 94.5881C76.1797 94.7358 76.1115 94.9375 76.1115 95.1932C76.1115 95.5426 76.2408 95.8068 76.4993 95.9858C76.7607 96.1619 77.0916 96.25 77.4922 96.25ZM77.5604 89.5682L76.2308 87.5909H77.407L78.4467 89.5682H77.5604ZM82.1744 97V90.4545H83.18V97H82.1744ZM82.6857 89.3636C82.4897 89.3636 82.3207 89.2969 82.1786 89.1634C82.0394 89.0298 81.9698 88.8693 81.9698 88.6818C81.9698 88.4943 82.0394 88.3338 82.1786 88.2003C82.3207 88.0668 82.4897 88 82.6857 88C82.8817 88 83.0494 88.0668 83.1886 88.2003C83.3306 88.3338 83.4016 88.4943 83.4016 88.6818C83.4016 88.8693 83.3306 89.0298 83.1886 89.1634C83.0494 89.2969 82.8817 89.3636 82.6857 89.3636ZM91.2436 90.4545V91.3068H87.8516V90.4545H91.2436ZM88.8402 88.8864H89.8459V95.125C89.8459 95.4091 89.8871 95.6222 89.9695 95.7642C90.0547 95.9034 90.1626 95.9972 90.2933 96.0455C90.4268 96.0909 90.5675 96.1136 90.7152 96.1136C90.826 96.1136 90.9169 96.108 90.9879 96.0966C91.0589 96.0824 91.1158 96.071 91.1584 96.0625L91.3629 96.9659C91.2947 96.9915 91.1996 97.017 91.0774 97.0426C90.9553 97.071 90.8004 97.0852 90.6129 97.0852C90.3288 97.0852 90.0504 97.0241 89.7777 96.902C89.5078 96.7798 89.2834 96.5938 89.1044 96.3438C88.9283 96.0938 88.8402 95.7784 88.8402 95.3977V88.8864ZM94.6825 97.1534C94.2678 97.1534 93.8913 97.0753 93.5533 96.919C93.2152 96.7599 92.9467 96.5312 92.7479 96.233C92.549 95.9318 92.4496 95.5682 92.4496 95.142C92.4496 94.767 92.5234 94.4631 92.6712 94.2301C92.8189 93.9943 93.0163 93.8097 93.2635 93.6761C93.5107 93.5426 93.7834 93.4432 94.0817 93.3778C94.3828 93.3097 94.6854 93.2557 94.9893 93.2159C95.3871 93.1648 95.7095 93.1264 95.9567 93.1009C96.2067 93.0724 96.3885 93.0256 96.5021 92.9602C96.6186 92.8949 96.6768 92.7812 96.6768 92.6193V92.5852C96.6768 92.1648 96.5618 91.8381 96.3317 91.6051C96.1044 91.3722 95.7592 91.2557 95.2962 91.2557C94.8161 91.2557 94.4396 91.3608 94.1669 91.571C93.8942 91.7812 93.7024 92.0057 93.5916 92.2443L92.6371 91.9034C92.8075 91.5057 93.0348 91.196 93.3189 90.9744C93.6058 90.75 93.9183 90.5937 94.2564 90.5057C94.5973 90.4148 94.9325 90.3693 95.2621 90.3693C95.4723 90.3693 95.7138 90.3949 95.9865 90.446C96.2621 90.4943 96.5277 90.5952 96.7834 90.7486C97.0419 90.902 97.2564 91.1335 97.4268 91.4432C97.5973 91.7528 97.6825 92.1676 97.6825 92.6875V97H96.6768V96.1136H96.6257C96.5575 96.2557 96.4439 96.4077 96.2848 96.5696C96.1257 96.7315 95.9141 96.8693 95.6499 96.983C95.3857 97.0966 95.0632 97.1534 94.6825 97.1534ZM94.8359 96.25C95.2337 96.25 95.5689 96.1719 95.8416 96.0156C96.1172 95.8594 96.3246 95.6577 96.4638 95.4105C96.6058 95.1634 96.6768 94.9034 96.6768 94.6307V93.7102C96.6342 93.7614 96.5405 93.8082 96.3956 93.8509C96.2536 93.8906 96.0888 93.9261 95.9013 93.9574C95.7166 93.9858 95.5362 94.0114 95.3601 94.0341C95.1868 94.054 95.0462 94.071 94.9382 94.0852C94.6768 94.1193 94.4325 94.1747 94.2053 94.2514C93.9808 94.3253 93.799 94.4375 93.6598 94.5881C93.5234 94.7358 93.4553 94.9375 93.4553 95.1932C93.4553 95.5426 93.5845 95.8068 93.843 95.9858C94.1044 96.1619 94.4354 96.25 94.8359 96.25ZM96.2166 89.6705L95.3303 88.4773L94.4439 89.6705H93.4893V89.6023L94.87 87.8295H95.7905L97.1712 89.6023V89.6705H96.2166ZM95.2791 99.1648C95.0831 99.1648 94.9141 99.098 94.772 98.9645C94.6328 98.831 94.5632 98.6705 94.5632 98.483C94.5632 98.2955 94.6328 98.1349 94.772 98.0014C94.9141 97.8679 95.0831 97.8011 95.2791 97.8011C95.4751 97.8011 95.6428 97.8679 95.782 98.0014C95.924 98.1349 95.995 98.2955 95.995 98.483C95.995 98.6705 95.924 98.831 95.782 98.9645C95.6428 99.098 95.4751 99.1648 95.2791 99.1648ZM99.5181 99.4545V90.4545H100.49V91.4943H100.609C100.683 91.3807 100.785 91.2358 100.916 91.0597C101.049 90.8807 101.24 90.7216 101.487 90.5824C101.737 90.4403 102.075 90.3693 102.501 90.3693C103.052 90.3693 103.538 90.5071 103.958 90.7827C104.379 91.0582 104.707 91.4489 104.943 91.9545C105.179 92.4602 105.297 93.0568 105.297 93.7443C105.297 94.4375 105.179 95.0384 104.943 95.5469C104.707 96.0526 104.38 96.4446 103.963 96.723C103.545 96.9986 103.064 97.1364 102.518 97.1364C102.098 97.1364 101.761 97.0668 101.508 96.9276C101.255 96.7855 101.061 96.625 100.924 96.446C100.788 96.2642 100.683 96.1136 100.609 95.9943H100.524V99.4545H99.5181ZM100.507 93.7273C100.507 94.2216 100.579 94.6577 100.724 95.0355C100.869 95.4105 101.081 95.7045 101.359 95.9176C101.637 96.1278 101.978 96.233 102.382 96.233C102.802 96.233 103.153 96.1222 103.434 95.9006C103.718 95.6761 103.931 95.375 104.074 94.9972C104.218 94.6165 104.291 94.1932 104.291 93.7273C104.291 93.267 104.22 92.8523 104.078 92.483C103.939 92.1108 103.727 91.8168 103.443 91.6009C103.162 91.3821 102.808 91.2727 102.382 91.2727C101.973 91.2727 101.629 91.3764 101.35 91.5838C101.072 91.7884 100.862 92.0753 100.72 92.4446C100.578 92.8111 100.507 93.2386 100.507 93.7273ZM107.564 97.0682C107.353 97.0682 107.173 96.9929 107.022 96.8423C106.872 96.6918 106.797 96.5114 106.797 96.3011C106.797 96.0909 106.872 95.9105 107.022 95.7599C107.173 95.6094 107.353 95.5341 107.564 95.5341C107.774 95.5341 107.954 95.6094 108.105 95.7599C108.255 95.9105 108.331 96.0909 108.331 96.3011C108.331 96.4403 108.295 96.5682 108.224 96.6847C108.156 96.8011 108.064 96.8949 107.947 96.9659C107.833 97.0341 107.706 97.0682 107.564 97.0682ZM107.564 92.2102C107.353 92.2102 107.173 92.1349 107.022 91.9844C106.872 91.8338 106.797 91.6534 106.797 91.4432C106.797 91.233 106.872 91.0526 107.022 90.902C107.173 90.7514 107.353 90.6761 107.564 90.6761C107.774 90.6761 107.954 90.7514 108.105 90.902C108.255 91.0526 108.331 91.233 108.331 91.4432C108.331 91.5824 108.295 91.7102 108.224 91.8267C108.156 91.9432 108.064 92.0369 107.947 92.108C107.833 92.1761 107.706 92.2102 107.564 92.2102ZM116.561 88.2727V97H115.505V89.3807H115.453L113.323 90.7955V89.7216L115.505 88.2727H116.561ZM121.969 97.1193C121.611 97.1136 121.253 97.0455 120.895 96.9148C120.537 96.7841 120.211 96.5639 119.915 96.2543C119.62 95.9418 119.382 95.5199 119.203 94.9886C119.025 94.4545 118.935 93.7841 118.935 92.9773C118.935 92.2045 119.007 91.5199 119.152 90.9233C119.297 90.3239 119.507 89.8196 119.783 89.4105C120.059 88.9986 120.391 88.6861 120.78 88.473C121.172 88.2599 121.614 88.1534 122.105 88.1534C122.594 88.1534 123.029 88.2514 123.409 88.4474C123.793 88.6406 124.105 88.9105 124.347 89.2571C124.588 89.6037 124.745 90.0028 124.816 90.4545H123.776C123.679 90.0625 123.492 89.7372 123.213 89.4787C122.935 89.2202 122.566 89.0909 122.105 89.0909C121.429 89.0909 120.897 89.3849 120.507 89.973C120.121 90.5611 119.926 91.3864 119.924 92.4489H119.992C120.151 92.2074 120.34 92.0014 120.559 91.831C120.78 91.6577 121.025 91.5241 121.292 91.4304C121.559 91.3366 121.841 91.2898 122.14 91.2898C122.64 91.2898 123.097 91.4148 123.512 91.6648C123.926 91.9119 124.259 92.2543 124.509 92.6918C124.759 93.1264 124.884 93.625 124.884 94.1875C124.884 94.7273 124.763 95.2216 124.522 95.6705C124.28 96.1165 123.941 96.4716 123.503 96.7358C123.069 96.9972 122.557 97.125 121.969 97.1193ZM121.969 96.1818C122.327 96.1818 122.648 96.0923 122.932 95.9134C123.219 95.7344 123.445 95.4943 123.61 95.1932C123.777 94.892 123.861 94.5568 123.861 94.1875C123.861 93.8267 123.78 93.4986 123.618 93.2031C123.459 92.9048 123.239 92.6676 122.958 92.4915C122.679 92.3153 122.361 92.2273 122.003 92.2273C121.733 92.2273 121.482 92.2812 121.249 92.3892C121.016 92.4943 120.811 92.6392 120.635 92.8239C120.462 93.0085 120.326 93.2202 120.226 93.4588C120.127 93.6946 120.077 93.9432 120.077 94.2045C120.077 94.5511 120.158 94.875 120.32 95.1761C120.485 95.4773 120.709 95.7202 120.993 95.9048C121.28 96.0895 121.605 96.1818 121.969 96.1818ZM129.662 87.8636L126.849 98.3125H125.929L128.741 87.8636H129.662ZM133.684 97.1193C133.042 97.1193 132.495 96.9446 132.043 96.5952C131.591 96.2429 131.246 95.733 131.007 95.0653C130.769 94.3949 130.65 93.5852 130.65 92.6364C130.65 91.6932 130.769 90.8878 131.007 90.2202C131.249 89.5497 131.596 89.0384 132.047 88.6861C132.502 88.331 133.047 88.1534 133.684 88.1534C134.32 88.1534 134.864 88.331 135.316 88.6861C135.77 89.0384 136.117 89.5497 136.355 90.2202C136.597 90.8878 136.718 91.6932 136.718 92.6364C136.718 93.5852 136.598 94.3949 136.36 95.0653C136.121 95.733 135.776 96.2429 135.324 96.5952C134.873 96.9446 134.326 97.1193 133.684 97.1193ZM133.684 96.1818C134.32 96.1818 134.814 95.875 135.167 95.2614C135.519 94.6477 135.695 93.7727 135.695 92.6364C135.695 91.8807 135.614 91.2372 135.452 90.706C135.293 90.1747 135.063 89.7699 134.762 89.4915C134.463 89.2131 134.104 89.0739 133.684 89.0739C133.053 89.0739 132.56 89.3849 132.205 90.0071C131.85 90.6264 131.672 91.5028 131.672 92.6364C131.672 93.392 131.752 94.0341 131.911 94.5625C132.07 95.0909 132.299 95.4929 132.597 95.7685C132.898 96.044 133.26 96.1818 133.684 96.1818ZM138.337 97V96.233L141.218 93.0795C141.556 92.7102 141.834 92.3892 142.053 92.1165C142.272 91.8409 142.434 91.5824 142.539 91.3409C142.647 91.0966 142.701 90.8409 142.701 90.5739C142.701 90.267 142.627 90.0014 142.479 89.777C142.334 89.5526 142.135 89.3793 141.882 89.2571C141.63 89.1349 141.346 89.0739 141.03 89.0739C140.695 89.0739 140.402 89.1435 140.152 89.2827C139.905 89.419 139.713 89.6108 139.577 89.858C139.444 90.1051 139.377 90.3949 139.377 90.7273H138.371C138.371 90.2159 138.489 89.767 138.725 89.3807C138.961 88.9943 139.282 88.6932 139.688 88.4773C140.097 88.2614 140.556 88.1534 141.064 88.1534C141.576 88.1534 142.029 88.2614 142.424 88.4773C142.819 88.6932 143.128 88.9844 143.353 89.3509C143.577 89.7173 143.689 90.125 143.689 90.5739C143.689 90.8949 143.631 91.2088 143.515 91.5156C143.401 91.8196 143.202 92.1591 142.918 92.5341C142.637 92.9062 142.246 93.3608 141.746 93.8977L139.786 95.9943V96.0625H143.843V97H138.337ZM148.705 87.8636L145.892 98.3125H144.972L147.784 87.8636H148.705ZM149.88 97V96.233L152.761 93.0795C153.099 92.7102 153.377 92.3892 153.596 92.1165C153.815 91.8409 153.977 91.5824 154.082 91.3409C154.19 91.0966 154.244 90.8409 154.244 90.5739C154.244 90.267 154.17 90.0014 154.022 89.777C153.877 89.5526 153.678 89.3793 153.425 89.2571C153.173 89.1349 152.888 89.0739 152.573 89.0739C152.238 89.0739 151.945 89.1435 151.695 89.2827C151.448 89.419 151.256 89.6108 151.12 89.858C150.987 90.1051 150.92 90.3949 150.92 90.7273H149.914C149.914 90.2159 150.032 89.767 150.268 89.3807C150.504 88.9943 150.825 88.6932 151.231 88.4773C151.64 88.2614 152.099 88.1534 152.607 88.1534C153.119 88.1534 153.572 88.2614 153.967 88.4773C154.362 88.6932 154.671 88.9844 154.896 89.3509C155.12 89.7173 155.232 90.125 155.232 90.5739C155.232 90.8949 155.174 91.2088 155.058 91.5156C154.944 91.8196 154.745 92.1591 154.461 92.5341C154.18 92.9062 153.789 93.3608 153.289 93.8977L151.329 95.9943V96.0625H155.386V97H149.88ZM159.992 97.1193C159.35 97.1193 158.803 96.9446 158.352 96.5952C157.9 96.2429 157.555 95.733 157.316 95.0653C157.077 94.3949 156.958 93.5852 156.958 92.6364C156.958 91.6932 157.077 90.8878 157.316 90.2202C157.558 89.5497 157.904 89.0384 158.356 88.6861C158.81 88.331 159.356 88.1534 159.992 88.1534C160.629 88.1534 161.173 88.331 161.624 88.6861C162.079 89.0384 162.425 89.5497 162.664 90.2202C162.906 90.8878 163.026 91.6932 163.026 92.6364C163.026 93.5852 162.907 94.3949 162.668 95.0653C162.43 95.733 162.085 96.2429 161.633 96.5952C161.181 96.9446 160.634 97.1193 159.992 97.1193ZM159.992 96.1818C160.629 96.1818 161.123 95.875 161.475 95.2614C161.827 94.6477 162.004 93.7727 162.004 92.6364C162.004 91.8807 161.923 91.2372 161.761 90.706C161.602 90.1747 161.371 89.7699 161.07 89.4915C160.772 89.2131 160.413 89.0739 159.992 89.0739C159.362 89.0739 158.869 89.3849 158.513 90.0071C158.158 90.6264 157.981 91.5028 157.981 92.6364C157.981 93.392 158.06 94.0341 158.219 94.5625C158.379 95.0909 158.607 95.4929 158.906 95.7685C159.207 96.044 159.569 96.1818 159.992 96.1818ZM164.646 97V96.233L167.526 93.0795C167.864 92.7102 168.143 92.3892 168.362 92.1165C168.58 91.8409 168.742 91.5824 168.847 91.3409C168.955 91.0966 169.009 90.8409 169.009 90.5739C169.009 90.267 168.935 90.0014 168.788 89.777C168.643 89.5526 168.444 89.3793 168.191 89.2571C167.938 89.1349 167.654 89.0739 167.339 89.0739C167.004 89.0739 166.711 89.1435 166.461 89.2827C166.214 89.419 166.022 89.6108 165.886 89.858C165.752 90.1051 165.685 90.3949 165.685 90.7273H164.68C164.68 90.2159 164.798 89.767 165.033 89.3807C165.269 88.9943 165.59 88.6932 165.996 88.4773C166.406 88.2614 166.864 88.1534 167.373 88.1534C167.884 88.1534 168.337 88.2614 168.732 88.4773C169.127 88.6932 169.437 88.9844 169.661 89.3509C169.886 89.7173 169.998 90.125 169.998 90.5739C169.998 90.8949 169.94 91.2088 169.823 91.5156C169.71 91.8196 169.511 92.1591 169.227 92.5341C168.945 92.9062 168.555 93.3608 168.055 93.8977L166.094 95.9943V96.0625H170.151V97H164.646ZM171.519 95.2102V94.3409L175.354 88.2727H175.985V89.6193H175.559L172.661 94.2045V94.2727H177.826V95.2102H171.519ZM175.627 97V94.946V94.5412V88.2727H176.633V97H175.627Z" fill="#64748B"/>
</g>
<defs>
<filter id="filter0_d_242_4252" x="0" y="0" width="404" height="126" filterUnits="userSpaceOnUse" color-interpolation-filters="sRGB">
<feFlood flood-opacity="0" result="BackgroundImageFix"/>
<feColorMatrix in="SourceAlpha" type="matrix" values="0 0 0 0 0 0 0 0 0 0 0 0 0 0 0 0 0 0 127 0" result="hardAlpha"/>
<feOffset dy="4"/>
<feGaussianBlur stdDeviation="2"/>
<feComposite in2="hardAlpha" operator="out"/>
<feColorMatrix type="matrix" values="0 0 0 0 0.683333 0 0 0 0 0.683333 0 0 0 0 0.683333 0 0 0 0.25 0"/>
<feBlend mode="normal" in2="BackgroundImageFix" result="effect1_dropShadow_242_4252"/>
<feBlend mode="normal" in="SourceGraphic" in2="effect1_dropShadow_242_4252" result="shape"/>
</filter>
</defs>
</svg>
