<svg width="286" height="62" viewBox="0 0 286 62" fill="none" xmlns="http://www.w3.org/2000/svg">
<path d="M19.6364 10.5433H15.652C15.5384 9.88991 15.3289 9.31108 15.0235 8.80682C14.7181 8.29545 14.3381 7.86222 13.8836 7.5071C13.429 7.15199 12.9106 6.88565 12.3282 6.7081C11.7529 6.52344 11.1314 6.43111 10.4638 6.43111C9.27774 6.43111 8.2266 6.7294 7.31041 7.32599C6.39422 7.91548 5.67689 8.78196 5.15842 9.92543C4.63996 11.0618 4.38072 12.4503 4.38072 14.0909C4.38072 15.7599 4.63996 17.1662 5.15842 18.3097C5.68399 19.446 6.40132 20.3054 7.31041 20.8878C8.2266 21.4631 9.27419 21.7507 10.4532 21.7507C11.1066 21.7507 11.7174 21.6655 12.2856 21.495C12.8608 21.3175 13.3758 21.0582 13.8303 20.7173C14.2919 20.3764 14.679 19.9574 14.9915 19.4602C15.3111 18.9631 15.5313 18.3949 15.652 17.7557L19.6364 17.777C19.4873 18.8139 19.1641 19.7869 18.6669 20.696C18.1769 21.6051 17.5341 22.4077 16.7387 23.1037C15.9432 23.7926 15.0128 24.3324 13.9475 24.723C12.8821 25.1065 11.6996 25.2983 10.3999 25.2983C8.48229 25.2983 6.77064 24.8544 5.26496 23.9666C3.75927 23.0788 2.5732 21.7969 1.70672 20.1207C0.840241 18.4446 0.407002 16.4347 0.407002 14.0909C0.407002 11.7401 0.843792 9.73011 1.71737 8.06108C2.59095 6.38494 3.78058 5.10298 5.28626 4.2152C6.79195 3.32741 8.49649 2.88352 10.3999 2.88352C11.6144 2.88352 12.7437 3.05398 13.7877 3.39489C14.8317 3.7358 15.7621 4.23651 16.5789 4.89702C17.3956 5.55043 18.0668 6.35298 18.5924 7.30469C19.125 8.24929 19.4731 9.32884 19.6364 10.5433ZM26.717 15.4119V25H22.8604V3.18182H26.6318V11.4169H26.8235C27.207 10.4936 27.8001 9.76562 28.6026 9.23295C29.4123 8.69318 30.4421 8.4233 31.6921 8.4233C32.8285 8.4233 33.8193 8.66122 34.6644 9.13707C35.5096 9.61293 36.163 10.3089 36.6247 11.2251C37.0934 12.1413 37.3278 13.2599 37.3278 14.581V25H33.4712V15.1776C33.4712 14.0767 33.1872 13.2209 32.619 12.6101C32.0579 11.9922 31.2695 11.6832 30.2539 11.6832C29.5721 11.6832 28.9613 11.8324 28.4215 12.1307C27.8889 12.4219 27.4698 12.8445 27.1644 13.3984C26.8661 13.9524 26.717 14.6236 26.717 15.4119ZM45.7427 25.3303C44.7058 25.3303 43.7718 25.1456 42.9408 24.7763C42.117 24.3999 41.4636 23.8459 40.9806 23.1143C40.5048 22.3828 40.2668 21.4808 40.2668 20.4084C40.2668 19.4851 40.4373 18.7216 40.7782 18.1179C41.1191 17.5142 41.5843 17.0312 42.1738 16.669C42.7633 16.3068 43.4273 16.0334 44.166 15.8487C44.9117 15.657 45.6823 15.5185 46.4778 15.4332C47.4366 15.3338 48.2143 15.245 48.8109 15.1669C49.4075 15.0817 49.8407 14.9538 50.1106 14.7834C50.3876 14.6058 50.5261 14.3324 50.5261 13.9631V13.8991C50.5261 13.0966 50.2881 12.4751 49.8123 12.0348C49.3364 11.5945 48.6511 11.3743 47.7562 11.3743C46.8116 11.3743 46.0623 11.5803 45.5083 11.9922C44.9614 12.4041 44.5921 12.8906 44.4004 13.4517L40.7995 12.9403C41.0836 11.946 41.5523 11.1151 42.2058 10.4474C42.8592 9.77273 43.6582 9.26847 44.6028 8.93466C45.5474 8.59375 46.5914 8.4233 47.7349 8.4233C48.5232 8.4233 49.308 8.51563 50.0893 8.70028C50.8705 8.88494 51.5843 9.19034 52.2306 9.61648C52.8769 10.0355 53.3954 10.6072 53.786 11.3317C54.1837 12.0561 54.3826 12.9616 54.3826 14.0483V25H50.6752V22.7521H50.5474C50.313 23.2067 49.9827 23.6328 49.5566 24.0305C49.1376 24.4212 48.6085 24.7372 47.9693 24.9787C47.3372 25.2131 46.595 25.3303 45.7427 25.3303ZM46.7441 22.4964C47.5183 22.4964 48.1894 22.3437 48.7576 22.0384C49.3258 21.7259 49.7626 21.3139 50.068 20.8026C50.3805 20.2912 50.5367 19.7337 50.5367 19.13V17.2017C50.416 17.3011 50.21 17.3935 49.9188 17.4787C49.6347 17.5639 49.3151 17.6385 48.96 17.7024C48.6049 17.7663 48.2533 17.8232 47.9053 17.8729C47.5573 17.9226 47.2555 17.9652 46.9998 18.0007C46.4245 18.0788 45.9096 18.2067 45.455 18.3842C45.0005 18.5618 44.6418 18.8104 44.3791 19.13C44.1163 19.4425 43.9849 19.8473 43.9849 20.3445C43.9849 21.0547 44.2441 21.5909 44.7626 21.9531C45.281 22.3153 45.9416 22.4964 46.7441 22.4964ZM46.4991 6.48438L43.2285 1.61577H47.0104L49.3862 6.48438H46.4991ZM65.1732 25.3196C63.5752 25.3196 62.1903 24.968 61.0184 24.2649C59.8465 23.5618 58.9374 22.5781 58.2911 21.3139C57.6519 20.0497 57.3323 18.5724 57.3323 16.8821C57.3323 15.1918 57.6519 13.7109 58.2911 12.4396C58.9374 11.1683 59.8465 10.1811 61.0184 9.47798C62.1903 8.77486 63.5752 8.4233 65.1732 8.4233C66.7712 8.4233 68.1562 8.77486 69.3281 9.47798C70.4999 10.1811 71.4055 11.1683 72.0447 12.4396C72.691 13.7109 73.0141 15.1918 73.0141 16.8821C73.0141 18.5724 72.691 20.0497 72.0447 21.3139C71.4055 22.5781 70.4999 23.5618 69.3281 24.2649C68.1562 24.968 66.7712 25.3196 65.1732 25.3196ZM65.1945 22.2301C66.061 22.2301 66.7854 21.9922 67.3678 21.5163C67.9502 21.0334 68.3835 20.3871 68.6675 19.5774C68.9587 18.7678 69.1043 17.8658 69.1043 16.8714C69.1043 15.87 68.9587 14.9645 68.6675 14.1548C68.3835 13.3381 67.9502 12.6882 67.3678 12.2053C66.7854 11.7223 66.061 11.4808 65.1945 11.4808C64.3068 11.4808 63.5681 11.7223 62.9786 12.2053C62.3962 12.6882 61.9594 13.3381 61.6683 14.1548C61.3842 14.9645 61.2421 15.87 61.2421 16.8714C61.2421 17.8658 61.3842 18.7678 61.6683 19.5774C61.9594 20.3871 62.3962 21.0334 62.9786 21.5163C63.5681 21.9922 64.3068 22.2301 65.1945 22.2301ZM83.2788 25V8.63636H86.9649V11.4169H87.1566C87.4976 10.4794 88.0622 9.74787 88.8505 9.2223C89.6389 8.68963 90.5799 8.4233 91.6737 8.4233C92.7816 8.4233 93.7156 8.69318 94.4755 9.23295C95.2426 9.76562 95.7824 10.4936 96.0949 11.4169H96.2653C96.6275 10.5078 97.2383 9.78338 98.0977 9.24361C98.9642 8.69673 99.9905 8.4233 101.177 8.4233C102.682 8.4233 103.911 8.89915 104.863 9.85085C105.814 10.8026 106.29 12.1911 106.29 14.0163V25H102.423V14.6129C102.423 13.5973 102.153 12.8551 101.613 12.3864C101.074 11.9105 100.413 11.6726 99.6318 11.6726C98.7014 11.6726 97.9734 11.9638 97.4478 12.5462C96.9294 13.1214 96.6701 13.8707 96.6701 14.794V25H92.8882V14.4531C92.8882 13.608 92.6325 12.9332 92.1211 12.429C91.6169 11.9247 90.9564 11.6726 90.1396 11.6726C89.5856 11.6726 89.0814 11.8146 88.6268 12.0987C88.1723 12.3757 87.8101 12.7699 87.5402 13.2812C87.2703 13.7855 87.1353 14.375 87.1353 15.0497V25H83.2788ZM126.427 7.79474H128.909C128.909 8.97372 128.738 9.96449 128.397 10.767C128.064 11.5625 127.492 12.1626 126.682 12.5675C125.873 12.9723 124.754 13.1747 123.326 13.1747V11.2358C124.278 11.2358 124.971 11.1151 125.404 10.8736C125.837 10.625 126.114 10.245 126.235 9.73366C126.355 9.2223 126.419 8.57599 126.427 7.79474ZM120.471 18.1179V8.63636H124.338V25H120.588V22.0916H120.418C120.049 23.0078 119.441 23.7571 118.596 24.3395C117.758 24.9219 116.725 25.2131 115.496 25.2131C114.424 25.2131 113.476 24.9751 112.652 24.4993C111.835 24.0163 111.196 23.3168 110.734 22.4006C110.272 21.4773 110.042 20.3622 110.042 19.0554V8.63636H113.898V18.4588C113.905 19.4957 114.189 20.3196 114.75 20.9304C115.319 21.5412 116.064 21.8466 116.988 21.8466C117.556 21.8466 118.106 21.7081 118.639 21.4311C119.179 21.1541 119.619 20.7422 119.96 20.1953C120.308 19.6413 120.478 18.9489 120.471 18.1179ZM115.794 6.48438L112.524 1.61577H116.306L118.681 6.48438H115.794ZM134 15.4119V25H130.143V8.63636H133.829V11.4169H134.021C134.398 10.5007 134.998 9.77273 135.822 9.23295C136.652 8.69318 137.679 8.4233 138.9 8.4233C140.03 8.4233 141.013 8.66477 141.851 9.14773C142.697 9.63068 143.35 10.3303 143.812 11.2464C144.28 12.1626 144.511 13.2741 144.504 14.581V25H140.648V15.1776C140.648 14.0838 140.363 13.228 139.795 12.6101C139.234 11.9922 138.456 11.6832 137.462 11.6832C136.787 11.6832 136.187 11.8324 135.662 12.1307C135.143 12.4219 134.735 12.8445 134.437 13.3984C134.145 13.9524 134 14.6236 134 15.4119ZM155.316 31.4773C153.931 31.4773 152.741 31.2891 151.747 30.9126C150.753 30.5433 149.954 30.0462 149.35 29.4212C148.746 28.7962 148.327 28.1037 148.093 27.3438L151.566 26.5021C151.722 26.8217 151.95 27.1378 152.248 27.4503C152.546 27.7699 152.947 28.0327 153.452 28.2386C153.963 28.4517 154.606 28.5582 155.38 28.5582C156.474 28.5582 157.379 28.2919 158.097 27.7592C158.814 27.2337 159.173 26.3672 159.173 25.1598V22.0597H158.981C158.782 22.4574 158.491 22.8658 158.107 23.2848C157.731 23.7038 157.23 24.0554 156.605 24.3395C155.987 24.6236 155.209 24.7656 154.272 24.7656C153.015 24.7656 151.875 24.4709 150.852 23.8814C149.837 23.2848 149.027 22.397 148.423 21.218C147.827 20.032 147.528 18.5476 147.528 16.7649C147.528 14.968 147.827 13.4517 148.423 12.2159C149.027 10.973 149.84 10.032 150.863 9.39276C151.886 8.74645 153.026 8.4233 154.283 8.4233C155.241 8.4233 156.03 8.58665 156.648 8.91335C157.273 9.23295 157.77 9.62003 158.139 10.0746C158.508 10.522 158.789 10.9446 158.981 11.3423H159.194V8.63636H162.997V25.2663C162.997 26.6655 162.663 27.8232 161.996 28.7393C161.328 29.6555 160.415 30.3409 159.258 30.7955C158.1 31.25 156.786 31.4773 155.316 31.4773ZM155.348 21.7401C156.165 21.7401 156.861 21.5412 157.436 21.1435C158.011 20.7457 158.448 20.174 158.746 19.4283C159.045 18.6825 159.194 17.7876 159.194 16.7436C159.194 15.7138 159.045 14.8118 158.746 14.0376C158.455 13.2635 158.022 12.6634 157.447 12.2372C156.878 11.804 156.179 11.5874 155.348 11.5874C154.489 11.5874 153.771 11.8111 153.196 12.2585C152.621 12.706 152.187 13.3203 151.896 14.1016C151.605 14.8757 151.459 15.7564 151.459 16.7436C151.459 17.745 151.605 18.6222 151.896 19.375C152.195 20.1207 152.631 20.7031 153.207 21.1222C153.789 21.5341 154.503 21.7401 155.348 21.7401ZM174.111 25V3.18182H177.968V11.3423H178.128C178.327 10.9446 178.607 10.522 178.969 10.0746C179.332 9.62003 179.822 9.23295 180.439 8.91335C181.057 8.58665 181.846 8.4233 182.805 8.4233C184.069 8.4233 185.209 8.74645 186.224 9.39276C187.247 10.032 188.057 10.9801 188.653 12.2372C189.257 13.4872 189.559 15.0213 189.559 16.8395C189.559 18.6364 189.264 20.1634 188.675 21.4205C188.085 22.6776 187.283 23.6364 186.267 24.2969C185.251 24.9574 184.101 25.2876 182.815 25.2876C181.878 25.2876 181.1 25.1314 180.482 24.8189C179.864 24.5064 179.367 24.13 178.991 23.6896C178.621 23.2422 178.334 22.8196 178.128 22.4219H177.904V25H174.111ZM177.893 16.8182C177.893 17.8764 178.042 18.8033 178.341 19.5987C178.646 20.3942 179.083 21.0156 179.651 21.4631C180.226 21.9034 180.922 22.1236 181.739 22.1236C182.591 22.1236 183.305 21.8963 183.881 21.4418C184.456 20.9801 184.889 20.3516 185.18 19.5561C185.479 18.7536 185.628 17.8409 185.628 16.8182C185.628 15.8026 185.482 14.9006 185.191 14.1122C184.9 13.3239 184.466 12.706 183.891 12.2585C183.316 11.8111 182.599 11.5874 181.739 11.5874C180.915 11.5874 180.216 11.804 179.64 12.2372C179.065 12.6705 178.628 13.2777 178.33 14.0589C178.039 14.8402 177.893 15.7599 177.893 16.8182ZM197.321 25.3303C196.284 25.3303 195.35 25.1456 194.519 24.7763C193.695 24.3999 193.042 23.8459 192.559 23.1143C192.083 22.3828 191.845 21.4808 191.845 20.4084C191.845 19.4851 192.016 18.7216 192.357 18.1179C192.698 17.5142 193.163 17.0312 193.752 16.669C194.342 16.3068 195.006 16.0334 195.744 15.8487C196.49 15.657 197.261 15.5185 198.056 15.4332C199.015 15.3338 199.793 15.245 200.389 15.1669C200.986 15.0817 201.419 14.9538 201.689 14.7834C201.966 14.6058 202.105 14.3324 202.105 13.9631V13.8991C202.105 13.0966 201.867 12.4751 201.391 12.0348C200.915 11.5945 200.23 11.3743 199.335 11.3743C198.39 11.3743 197.641 11.5803 197.087 11.9922C196.54 12.4041 196.171 12.8906 195.979 13.4517L192.378 12.9403C192.662 11.946 193.131 11.1151 193.784 10.4474C194.438 9.77273 195.237 9.26847 196.181 8.93466C197.126 8.59375 198.17 8.4233 199.313 8.4233C200.102 8.4233 200.887 8.51563 201.668 8.70028C202.449 8.88494 203.163 9.19034 203.809 9.61648C204.455 10.0355 204.974 10.6072 205.365 11.3317C205.762 12.0561 205.961 12.9616 205.961 14.0483V25H202.254V22.7521H202.126C201.892 23.2067 201.561 23.6328 201.135 24.0305C200.716 24.4212 200.187 24.7372 199.548 24.9787C198.916 25.2131 198.173 25.3303 197.321 25.3303ZM198.323 22.4964C199.097 22.4964 199.768 22.3437 200.336 22.0384C200.904 21.7259 201.341 21.3139 201.646 20.8026C201.959 20.2912 202.115 19.7337 202.115 19.13V17.2017C201.994 17.3011 201.789 17.3935 201.497 17.4787C201.213 17.5639 200.894 17.6385 200.539 17.7024C200.183 17.7663 199.832 17.8232 199.484 17.8729C199.136 17.9226 198.834 17.9652 198.578 18.0007C198.003 18.0788 197.488 18.2067 197.034 18.3842C196.579 18.5618 196.22 18.8104 195.958 19.13C195.695 19.4425 195.563 19.8473 195.563 20.3445C195.563 21.0547 195.823 21.5909 196.341 21.9531C196.86 22.3153 197.52 22.4964 198.323 22.4964ZM199.335 30.8913C198.717 30.8913 198.188 30.6854 197.747 30.2734C197.314 29.8615 197.097 29.3679 197.097 28.7926C197.097 28.2173 197.314 27.7237 197.747 27.3118C198.188 26.8999 198.713 26.6939 199.324 26.6939C199.942 26.6939 200.468 26.8999 200.901 27.3118C201.341 27.7237 201.561 28.2173 201.561 28.7926C201.561 29.3679 201.341 29.8615 200.901 30.2734C200.468 30.6854 199.945 30.8913 199.335 30.8913ZM213.47 15.4119V25H209.614V8.63636H213.3V11.4169H213.492C213.868 10.5007 214.468 9.77273 215.292 9.23295C216.123 8.69318 217.149 8.4233 218.371 8.4233C219.5 8.4233 220.484 8.66477 221.322 9.14773C222.167 9.63068 222.821 10.3303 223.282 11.2464C223.751 12.1626 223.982 13.2741 223.975 14.581V25H220.118V15.1776C220.118 14.0838 219.834 13.228 219.266 12.6101C218.705 11.9922 217.927 11.6832 216.933 11.6832C216.258 11.6832 215.658 11.8324 215.132 12.1307C214.614 12.4219 214.206 12.8445 213.907 13.3984C213.616 13.9524 213.47 14.6236 213.47 15.4119ZM240.959 25.2876C239.674 25.2876 238.523 24.9574 237.507 24.2969C236.492 23.6364 235.689 22.6776 235.1 21.4205C234.51 20.1634 234.215 18.6364 234.215 16.8395C234.215 15.0213 234.514 13.4872 235.11 12.2372C235.714 10.9801 236.527 10.032 237.55 9.39276C238.573 8.74645 239.713 8.4233 240.97 8.4233C241.929 8.4233 242.717 8.58665 243.335 8.91335C243.953 9.23295 244.443 9.62003 244.805 10.0746C245.167 10.522 245.448 10.9446 245.647 11.3423H245.806V3.18182H249.674V25H245.881V22.4219H245.647C245.448 22.8196 245.16 23.2422 244.784 23.6896C244.407 24.13 243.91 24.5064 243.292 24.8189C242.674 25.1314 241.897 25.2876 240.959 25.2876ZM242.035 22.1236C242.852 22.1236 243.548 21.9034 244.123 21.4631C244.698 21.0156 245.135 20.3942 245.433 19.5987C245.732 18.8033 245.881 17.8764 245.881 16.8182C245.881 15.7599 245.732 14.8402 245.433 14.0589C245.142 13.2777 244.709 12.6705 244.134 12.2372C243.566 11.804 242.866 11.5874 242.035 11.5874C241.176 11.5874 240.458 11.8111 239.883 12.2585C239.308 12.706 238.875 13.3239 238.583 14.1122C238.292 14.9006 238.147 15.8026 238.147 16.8182C238.147 17.8409 238.292 18.7536 238.583 19.5561C238.882 20.3516 239.318 20.9801 239.894 21.4418C240.476 21.8963 241.19 22.1236 242.035 22.1236ZM241.481 7.41122V4.97159H251.687V7.41122H241.481ZM260.802 25.3196C259.162 25.3196 257.745 24.9787 256.552 24.2969C255.366 23.608 254.453 22.6349 253.814 21.3778C253.175 20.1136 252.855 18.6257 252.855 16.9141C252.855 15.2308 253.175 13.7536 253.814 12.4822C254.46 11.2038 255.362 10.2095 256.52 9.49929C257.677 8.78196 259.038 8.4233 260.6 8.4233C261.609 8.4233 262.56 8.58665 263.455 8.91335C264.357 9.23295 265.153 9.73011 265.841 10.4048C266.538 11.0795 267.084 11.9389 267.482 12.983C267.88 14.0199 268.079 15.2557 268.079 16.6903V17.8729H254.666V15.2734H264.382C264.375 14.5348 264.215 13.8778 263.903 13.3026C263.59 12.7202 263.153 12.2621 262.592 11.9283C262.038 11.5945 261.392 11.4276 260.653 11.4276C259.865 11.4276 259.172 11.6193 258.576 12.0028C257.979 12.3793 257.514 12.8764 257.18 13.4943C256.854 14.1051 256.687 14.7763 256.68 15.5078V17.777C256.68 18.7287 256.854 19.5455 257.202 20.2273C257.55 20.902 258.036 21.4205 258.661 21.7827C259.286 22.1378 260.018 22.3153 260.856 22.3153C261.417 22.3153 261.925 22.2372 262.379 22.081C262.834 21.9176 263.228 21.6797 263.562 21.3672C263.895 21.0547 264.148 20.6676 264.318 20.206L267.919 20.6108C267.692 21.5625 267.258 22.3935 266.619 23.1037C265.987 23.8068 265.177 24.3537 264.19 24.7443C263.203 25.1278 262.074 25.3196 260.802 25.3196ZM254.954 6.76136L259.268 3.25639H261.676L266.012 6.76136H262.805L260.493 4.80114L258.171 6.76136H254.954ZM264.872 4.63068L267.237 0.699573H270.625L267.333 4.63068H264.872ZM274.973 15.4119V25H271.116V8.63636H274.802V11.4169H274.994C275.371 10.5007 275.971 9.77273 276.795 9.23295C277.626 8.69318 278.652 8.4233 279.873 8.4233C281.003 8.4233 281.986 8.66477 282.824 9.14773C283.67 9.63068 284.323 10.3303 284.785 11.2464C285.253 12.1626 285.484 13.2741 285.477 14.581V25H281.621V15.1776C281.621 14.0838 281.336 13.228 280.768 12.6101C280.207 11.9922 279.43 11.6832 278.435 11.6832C277.76 11.6832 277.16 11.8324 276.635 12.1307C276.116 12.4219 275.708 12.8445 275.41 13.3984C275.118 13.9524 274.973 14.6236 274.973 15.4119ZM89.463 44.6364L83.6356 61H79.3743L73.5469 44.6364H77.6591L81.4197 56.7919H81.5902L85.3615 44.6364H89.463ZM105.413 43.5923H107.991C107.991 45.3253 107.586 46.6889 106.776 47.6832C105.974 48.6705 104.638 49.1641 102.771 49.1641V47.353C103.509 47.353 104.067 47.2003 104.443 46.8949C104.827 46.5895 105.082 46.1562 105.21 45.5952C105.345 45.027 105.413 44.3594 105.413 43.5923ZM98.4879 61.3196C96.8899 61.3196 95.5049 60.968 94.333 60.2649C93.1612 59.5618 92.2521 58.5781 91.6058 57.3139C90.9666 56.0497 90.647 54.5724 90.647 52.8821C90.647 51.1918 90.9666 49.7109 91.6058 48.4396C92.2521 47.1683 93.1612 46.1811 94.333 45.478C95.5049 44.7749 96.8899 44.4233 98.4879 44.4233C100.086 44.4233 101.471 44.7749 102.643 45.478C103.815 46.1811 104.72 47.1683 105.359 48.4396C106.006 49.7109 106.329 51.1918 106.329 52.8821C106.329 54.5724 106.006 56.0497 105.359 57.3139C104.72 58.5781 103.815 59.5618 102.643 60.2649C101.471 60.968 100.086 61.3196 98.4879 61.3196ZM98.5092 58.2301C99.3757 58.2301 100.1 57.9922 100.682 57.5163C101.265 57.0334 101.698 56.3871 101.982 55.5774C102.273 54.7678 102.419 53.8658 102.419 52.8714C102.419 51.87 102.273 50.9645 101.982 50.1548C101.698 49.3381 101.265 48.6882 100.682 48.2053C100.1 47.7223 99.3757 47.4808 98.5092 47.4808C97.6214 47.4808 96.8828 47.7223 96.2933 48.2053C95.7109 48.6882 95.2741 49.3381 94.9829 50.1548C94.6988 50.9645 94.5568 51.87 94.5568 52.8714C94.5568 53.8658 94.6988 54.7678 94.9829 55.5774C95.2741 56.3871 95.7109 57.0334 96.2933 57.5163C96.8828 57.9922 97.6214 58.2301 98.5092 58.2301ZM97.007 42.4844L99.3934 37.6158H103.165L99.8941 42.4844H97.007ZM109.758 61V44.6364H113.614V61H109.758ZM111.697 42.3139C111.086 42.3139 110.56 42.1115 110.12 41.7067C109.68 41.2947 109.46 40.8011 109.46 40.2259C109.46 39.6435 109.68 39.1499 110.12 38.745C110.56 38.3331 111.086 38.1271 111.697 38.1271C112.315 38.1271 112.84 38.3331 113.274 38.745C113.714 39.1499 113.934 39.6435 113.934 40.2259C113.934 40.8011 113.714 41.2947 113.274 41.7067C112.84 42.1115 112.315 42.3139 111.697 42.3139ZM132.104 38.8835C133.148 38.8906 134.163 39.0753 135.15 39.4375C136.145 39.7926 137.04 40.375 137.835 41.1847C138.631 41.9872 139.263 43.0632 139.731 44.4126C140.2 45.7621 140.434 47.4311 140.434 49.4197C140.442 51.2947 140.243 52.9709 139.838 54.4482C139.44 55.9183 138.868 57.1612 138.123 58.1768C137.377 59.1925 136.479 59.9666 135.427 60.4993C134.376 61.032 133.194 61.2983 131.88 61.2983C130.502 61.2983 129.28 61.0284 128.215 60.4886C127.157 59.9489 126.301 59.2102 125.648 58.2727C124.994 57.3352 124.593 56.2628 124.444 55.0554H128.332C128.531 55.9219 128.936 56.6108 129.547 57.1222C130.165 57.6264 130.942 57.8786 131.88 57.8786C133.393 57.8786 134.557 57.2216 135.374 55.9077C136.191 54.5937 136.599 52.7685 136.599 50.4318H136.45C136.102 51.0568 135.651 51.5966 135.097 52.0511C134.543 52.4986 133.915 52.843 133.211 53.0845C132.515 53.326 131.777 53.4467 130.996 53.4467C129.717 53.4467 128.567 53.1413 127.544 52.5305C126.528 51.9197 125.722 51.0817 125.126 50.0163C124.536 48.951 124.238 47.733 124.231 46.3622C124.231 44.9418 124.557 43.6669 125.211 42.5376C125.871 41.4013 126.791 40.5064 127.97 39.853C129.149 39.1925 130.527 38.8693 132.104 38.8835ZM132.114 42.0795C131.347 42.0795 130.655 42.2678 130.037 42.6442C129.426 43.0135 128.943 43.5178 128.588 44.157C128.24 44.7891 128.066 45.4957 128.066 46.277C128.073 47.0511 128.247 47.7543 128.588 48.3864C128.936 49.0185 129.408 49.5192 130.005 49.8885C130.608 50.2578 131.297 50.4425 132.072 50.4425C132.647 50.4425 133.183 50.3324 133.68 50.1122C134.177 49.892 134.611 49.5866 134.98 49.196C135.356 48.7983 135.648 48.3473 135.854 47.843C136.067 47.3388 136.17 46.8061 136.162 46.245C136.162 45.4993 135.985 44.8104 135.63 44.1783C135.282 43.5462 134.802 43.0384 134.192 42.6548C133.588 42.2713 132.895 42.0795 132.114 42.0795ZM154.106 39.1818L159.784 56.3551H160.008L165.675 39.1818H170.022L162.33 61H157.451L149.77 39.1818H154.106ZM175.51 61.3303C174.473 61.3303 173.539 61.1456 172.708 60.7763C171.884 60.3999 171.231 59.8459 170.748 59.1143C170.272 58.3828 170.034 57.4808 170.034 56.4084C170.034 55.4851 170.204 54.7216 170.545 54.1179C170.886 53.5142 171.351 53.0312 171.941 52.669C172.53 52.3068 173.194 52.0334 173.933 51.8487C174.679 51.657 175.449 51.5185 176.245 51.4332C177.204 51.3338 177.981 51.245 178.578 51.1669C179.174 51.0817 179.608 50.9538 179.878 50.7834C180.155 50.6058 180.293 50.3324 180.293 49.9631V49.8991C180.293 49.0966 180.055 48.4751 179.579 48.0348C179.103 47.5945 178.418 47.3743 177.523 47.3743C176.579 47.3743 175.829 47.5803 175.275 47.9922C174.728 48.4041 174.359 48.8906 174.167 49.4517L170.566 48.9403C170.851 47.946 171.319 47.1151 171.973 46.4474C172.626 45.7727 173.425 45.2685 174.37 44.9347C175.314 44.5938 176.358 44.4233 177.502 44.4233C178.29 44.4233 179.075 44.5156 179.856 44.7003C180.638 44.8849 181.351 45.1903 181.998 45.6165C182.644 46.0355 183.162 46.6072 183.553 47.3317C183.951 48.0561 184.15 48.9616 184.15 50.0483V61H180.442V58.7521H180.314C180.08 59.2067 179.75 59.6328 179.324 60.0305C178.905 60.4212 178.375 60.7372 177.736 60.9787C177.104 61.2131 176.362 61.3303 175.51 61.3303ZM176.511 58.4964C177.285 58.4964 177.956 58.3437 178.525 58.0384C179.093 57.7259 179.53 57.3139 179.835 56.8026C180.147 56.2912 180.304 55.7337 180.304 55.13V53.2017C180.183 53.3011 179.977 53.3935 179.686 53.4787C179.402 53.5639 179.082 53.6385 178.727 53.7024C178.372 53.7663 178.02 53.8232 177.672 53.8729C177.324 53.9226 177.022 53.9652 176.767 54.0007C176.191 54.0788 175.677 54.2067 175.222 54.3842C174.767 54.5618 174.409 54.8104 174.146 55.13C173.883 55.4425 173.752 55.8473 173.752 56.3445C173.752 57.0547 174.011 57.5909 174.53 57.9531C175.048 58.3153 175.709 58.4964 176.511 58.4964ZM179.782 39.0114H182.669C182.669 40.2543 182.218 41.2628 181.316 42.0369C180.421 42.804 179.206 43.1875 177.672 43.1875C176.152 43.1875 174.941 42.804 174.04 42.0369C173.145 41.2628 172.701 40.2543 172.708 39.0114H175.574C175.574 39.5227 175.73 39.9808 176.042 40.3857C176.362 40.7834 176.905 40.9822 177.672 40.9822C178.425 40.9822 178.961 40.7834 179.281 40.3857C179.608 39.9879 179.775 39.5298 179.782 39.0114ZM191.659 51.4119V61H187.802V44.6364H191.489V47.4169H191.68C192.057 46.5007 192.657 45.7727 193.481 45.233C194.312 44.6932 195.338 44.4233 196.56 44.4233C197.689 44.4233 198.672 44.6648 199.511 45.1477C200.356 45.6307 201.009 46.3303 201.471 47.2464C201.94 48.1626 202.17 49.2741 202.163 50.581V61H198.307V51.1776C198.307 50.0838 198.023 49.228 197.454 48.6101C196.893 47.9922 196.116 47.6832 195.121 47.6832C194.447 47.6832 193.846 47.8324 193.321 48.1307C192.802 48.4219 192.394 48.8445 192.096 49.3984C191.805 49.9524 191.659 50.6236 191.659 51.4119ZM210.578 39.1818L210.227 54.5866H206.796L206.455 39.1818H210.578ZM208.511 61.2344C207.865 61.2344 207.311 61.0071 206.849 60.5526C206.395 60.098 206.168 59.544 206.168 58.8906C206.168 58.2514 206.395 57.7045 206.849 57.25C207.311 56.7955 207.865 56.5682 208.511 56.5682C209.143 56.5682 209.69 56.7955 210.152 57.25C210.621 57.7045 210.855 58.2514 210.855 58.8906C210.855 59.3239 210.745 59.718 210.525 60.0732C210.312 60.4283 210.028 60.7124 209.673 60.9254C209.325 61.1314 208.938 61.2344 208.511 61.2344Z" fill="#64748B"/>
</svg>
