<svg width="297" height="68" viewBox="0 0 297 68" fill="none" xmlns="http://www.w3.org/2000/svg">
<g filter="url(#filter0_d_236_682)">
<rect x="4" width="288.11" height="60" rx="10" fill="white" shape-rendering="crispEdges"/>
<rect x="4.5" y="0.5" width="287.11" height="59" rx="9.5" stroke="#C1BFBF" shape-rendering="crispEdges"/>
</g>
<path d="M80.321 34H77.8054V32.6577H80.2365C81.0121 32.6577 81.6567 32.5118 82.1705 32.2202C82.6842 31.9252 83.0687 31.4993 83.3239 30.9425C83.5791 30.3823 83.7067 29.6996 83.7067 28.8942C83.7067 28.0954 83.5791 27.4176 83.3239 26.8608C83.072 26.304 82.6958 25.8814 82.1953 25.593C81.6948 25.3047 81.0734 25.1605 80.331 25.1605H77.7507V23.8182H80.4254C81.4231 23.8182 82.2798 24.022 82.9957 24.4297C83.7116 24.834 84.2602 25.4157 84.6413 26.1747C85.0258 26.9304 85.218 27.8369 85.218 28.8942C85.218 29.9548 85.0241 30.8662 84.6364 31.6286C84.2519 32.3909 83.6951 32.9775 82.9659 33.3885C82.2367 33.7962 81.3551 34 80.321 34ZM78.5611 23.8182V34H77.0249V23.8182H78.5611ZM75.5036 29.2223V28.1982H80.0724V29.2223H75.5036ZM89.2314 34.169C88.7475 34.169 88.31 34.0795 87.9189 33.9006C87.5278 33.7183 87.2179 33.4548 86.9892 33.1101C86.7638 32.7654 86.6511 32.3428 86.6511 31.8423C86.6511 31.4115 86.734 31.0568 86.8997 30.7784C87.0654 30.5 87.2891 30.2796 87.5708 30.1172C87.8526 29.9548 88.1674 29.8321 88.5154 29.7493C88.8635 29.6664 89.2181 29.6035 89.5794 29.5604C90.0368 29.5073 90.408 29.4643 90.693 29.4311C90.978 29.3946 91.1852 29.3366 91.3145 29.2571C91.4437 29.1776 91.5083 29.0483 91.5083 28.8693V28.8345C91.5083 28.4003 91.3857 28.0639 91.1404 27.8253C90.8985 27.5866 90.5372 27.4673 90.0566 27.4673C89.5562 27.4673 89.1618 27.5784 88.8734 27.8004C88.5884 28.0192 88.3912 28.2628 88.2818 28.5312L86.8848 28.2131C87.0505 27.7491 87.2924 27.3745 87.6106 27.0895C87.9321 26.8011 88.3017 26.5923 88.7193 26.4631C89.1369 26.3305 89.5761 26.2642 90.0368 26.2642C90.3417 26.2642 90.6648 26.3007 91.0062 26.3736C91.3509 26.4432 91.6724 26.5724 91.9707 26.7614C92.2723 26.9503 92.5192 27.2204 92.7115 27.5717C92.9037 27.9197 92.9998 28.3722 92.9998 28.929V34H91.5481V32.956H91.4885C91.3923 33.1482 91.2482 33.3371 91.0559 33.5227C90.8637 33.7083 90.6168 33.8625 90.3152 33.9851C90.0136 34.1077 89.6523 34.169 89.2314 34.169ZM89.5545 32.9759C89.9655 32.9759 90.3168 32.8946 90.6085 32.7322C90.9035 32.5698 91.1272 32.3577 91.2797 32.0959C91.4354 31.8307 91.5133 31.5473 91.5133 31.2457V30.2614C91.4603 30.3144 91.3575 30.3641 91.2051 30.4105C91.0559 30.4536 90.8852 30.4917 90.693 30.5249C90.5008 30.5547 90.3135 30.5829 90.1312 30.6094C89.9489 30.6326 89.7965 30.6525 89.6738 30.669C89.3855 30.7055 89.122 30.7668 88.8833 30.853C88.648 30.9392 88.4591 31.0634 88.3166 31.2259C88.1774 31.3849 88.1078 31.5971 88.1078 31.8622C88.1078 32.2301 88.2437 32.5085 88.5154 32.6974C88.7872 32.883 89.1336 32.9759 89.5545 32.9759ZM91.0907 23.7784H92.3137C92.3137 24.3385 92.1149 24.7943 91.7172 25.1456C91.3227 25.4936 90.7891 25.6676 90.1163 25.6676C89.4468 25.6676 88.9148 25.4936 88.5204 25.1456C88.126 24.7943 87.9288 24.3385 87.9288 23.7784H89.1468C89.1468 24.027 89.2198 24.2474 89.3656 24.4396C89.5114 24.6286 89.7617 24.723 90.1163 24.723C90.4643 24.723 90.7129 24.6286 90.862 24.4396C91.0145 24.2507 91.0907 24.0303 91.0907 23.7784ZM96.4663 29.4659V34H94.9798V26.3636H96.4066V27.6065H96.5011C96.6767 27.2022 96.9518 26.8774 97.3263 26.6321C97.7042 26.3868 98.1798 26.2642 98.7532 26.2642C99.2736 26.2642 99.7293 26.3736 100.12 26.5923C100.511 26.8078 100.815 27.1293 101.03 27.5568C101.246 27.9844 101.353 28.513 101.353 29.1428V34H99.8668V29.3217C99.8668 28.7682 99.7227 28.3357 99.4343 28.0241C99.146 27.7093 98.7499 27.5518 98.2461 27.5518C97.9014 27.5518 97.5948 27.6264 97.3263 27.7756C97.0612 27.9247 96.8507 28.1435 96.695 28.4318C96.5425 28.7169 96.4663 29.0616 96.4663 29.4659ZM106.549 37.0227C105.942 37.0227 105.42 36.9432 104.983 36.7841C104.548 36.625 104.194 36.4145 103.919 36.1527C103.644 35.8909 103.438 35.6042 103.302 35.2926L104.58 34.7656C104.669 34.9115 104.789 35.0656 104.938 35.228C105.09 35.3937 105.296 35.5346 105.554 35.6506C105.816 35.7666 106.153 35.8246 106.564 35.8246C107.127 35.8246 107.593 35.687 107.961 35.4119C108.328 35.1402 108.512 34.706 108.512 34.1094V32.608H108.418C108.328 32.7704 108.199 32.951 108.03 33.1499C107.864 33.3487 107.636 33.5211 107.344 33.6669C107.052 33.8127 106.673 33.8857 106.206 33.8857C105.602 33.8857 105.059 33.7448 104.575 33.4631C104.094 33.178 103.713 32.7588 103.431 32.2053C103.153 31.6484 103.014 30.964 103.014 30.152C103.014 29.34 103.151 28.6439 103.426 28.0639C103.705 27.4839 104.086 27.0398 104.57 26.7315C105.054 26.42 105.602 26.2642 106.216 26.2642C106.69 26.2642 107.072 26.3438 107.364 26.5028C107.656 26.6586 107.883 26.8409 108.045 27.0497C108.211 27.2585 108.338 27.4425 108.428 27.6016H108.537V26.3636H109.994V34.169C109.994 34.8253 109.842 35.3639 109.537 35.7848C109.232 36.2057 108.819 36.5173 108.299 36.7195C107.782 36.9216 107.198 37.0227 106.549 37.0227ZM106.534 32.6527C106.961 32.6527 107.323 32.5533 107.618 32.3544C107.916 32.1522 108.141 31.8639 108.294 31.4893C108.449 31.1115 108.527 30.6591 108.527 30.1321C108.527 29.6184 108.451 29.166 108.299 28.7749C108.146 28.3838 107.922 28.0788 107.627 27.8601C107.333 27.638 106.968 27.527 106.534 27.527C106.086 27.527 105.713 27.643 105.415 27.875C105.117 28.1037 104.891 28.4152 104.739 28.8097C104.59 29.2041 104.515 29.6449 104.515 30.1321C104.515 30.6326 104.592 31.0717 104.744 31.4496C104.896 31.8274 105.122 32.1224 105.42 32.3345C105.722 32.5466 106.093 32.6527 106.534 32.6527ZM117.179 29.4659V34H115.693V26.3636H117.119V27.6065H117.214C117.39 27.2022 117.665 26.8774 118.039 26.6321C118.417 26.3868 118.893 26.2642 119.466 26.2642C119.986 26.2642 120.442 26.3736 120.833 26.5923C121.224 26.8078 121.528 27.1293 121.743 27.5568C121.959 27.9844 122.066 28.513 122.066 29.1428V34H120.58V29.3217C120.58 28.7682 120.436 28.3357 120.147 28.0241C119.859 27.7093 119.463 27.5518 118.959 27.5518C118.614 27.5518 118.308 27.6264 118.039 27.7756C117.774 27.9247 117.564 28.1435 117.408 28.4318C117.255 28.7169 117.179 29.0616 117.179 29.4659ZM125.546 29.4659V34H124.06V23.8182H125.526V27.6065H125.621C125.8 27.1955 126.073 26.8691 126.441 26.6271C126.809 26.3852 127.29 26.2642 127.883 26.2642C128.407 26.2642 128.864 26.3719 129.255 26.5874C129.65 26.8028 129.954 27.1243 130.17 27.5518C130.389 27.9761 130.498 28.5064 130.498 29.1428V34H129.012V29.3217C129.012 28.7616 128.867 28.3274 128.579 28.0192C128.291 27.7076 127.89 27.5518 127.376 27.5518C127.025 27.5518 126.71 27.6264 126.431 27.7756C126.156 27.9247 125.939 28.1435 125.78 28.4318C125.624 28.7169 125.546 29.0616 125.546 29.4659ZM134.704 34.169C134.22 34.169 133.783 34.0795 133.392 33.9006C133 33.7183 132.691 33.4548 132.462 33.1101C132.236 32.7654 132.124 32.3428 132.124 31.8423C132.124 31.4115 132.207 31.0568 132.372 30.7784C132.538 30.5 132.762 30.2796 133.044 30.1172C133.325 29.9548 133.64 29.8321 133.988 29.7493C134.336 29.6664 134.691 29.6035 135.052 29.5604C135.509 29.5073 135.881 29.4643 136.166 29.4311C136.451 29.3946 136.658 29.3366 136.787 29.2571C136.916 29.1776 136.981 29.0483 136.981 28.8693V28.8345C136.981 28.4003 136.858 28.0639 136.613 27.8253C136.371 27.5866 136.01 27.4673 135.529 27.4673C135.029 27.4673 134.634 27.5784 134.346 27.8004C134.061 28.0192 133.864 28.2628 133.754 28.5312L132.357 28.2131C132.523 27.7491 132.765 27.3745 133.083 27.0895C133.405 26.8011 133.774 26.5923 134.192 26.4631C134.61 26.3305 135.049 26.2642 135.509 26.2642C135.814 26.2642 136.137 26.3007 136.479 26.3736C136.824 26.4432 137.145 26.5724 137.443 26.7614C137.745 26.9503 137.992 27.2204 138.184 27.5717C138.376 27.9197 138.472 28.3722 138.472 28.929V34H137.021V32.956H136.961C136.865 33.1482 136.721 33.3371 136.529 33.5227C136.336 33.7083 136.089 33.8625 135.788 33.9851C135.486 34.1077 135.125 34.169 134.704 34.169ZM135.027 32.9759C135.438 32.9759 135.789 32.8946 136.081 32.7322C136.376 32.5698 136.6 32.3577 136.752 32.0959C136.908 31.8307 136.986 31.5473 136.986 31.2457V30.2614C136.933 30.3144 136.83 30.3641 136.678 30.4105C136.529 30.4536 136.358 30.4917 136.166 30.5249C135.973 30.5547 135.786 30.5829 135.604 30.6094C135.422 30.6326 135.269 30.6525 135.146 30.669C134.858 30.7055 134.595 30.7668 134.356 30.853C134.121 30.9392 133.932 31.0634 133.789 31.2259C133.65 31.3849 133.58 31.5971 133.58 31.8622C133.58 32.2301 133.716 32.5085 133.988 32.6974C134.26 32.883 134.606 32.9759 135.027 32.9759ZM136.608 25.4489L135.589 24.1165L134.565 25.4489H133.222V25.3743L134.968 23.2663H136.205L137.955 25.3743V25.4489H136.608ZM135.519 36.6349C135.264 36.6349 135.044 36.5488 134.858 36.3764C134.673 36.2041 134.58 35.9953 134.58 35.75C134.58 35.5047 134.673 35.2959 134.858 35.1236C135.044 34.9512 135.264 34.8651 135.519 34.8651C135.778 34.8651 135.998 34.9512 136.181 35.1236C136.366 35.2959 136.459 35.5047 136.459 35.75C136.459 35.9953 136.366 36.2041 136.181 36.3764C135.998 36.5488 135.778 36.6349 135.519 36.6349ZM140.452 36.8636V26.3636H141.904V27.6016H142.028C142.115 27.4425 142.239 27.2585 142.401 27.0497C142.564 26.8409 142.789 26.6586 143.077 26.5028C143.366 26.3438 143.747 26.2642 144.221 26.2642C144.837 26.2642 145.388 26.42 145.871 26.7315C146.355 27.0431 146.735 27.4922 147.01 28.0788C147.288 28.6655 147.428 29.3714 147.428 30.1967C147.428 31.022 147.29 31.7296 147.015 32.3196C146.74 32.9062 146.362 33.3587 145.881 33.6768C145.401 33.9917 144.852 34.1491 144.236 34.1491C143.772 34.1491 143.392 34.0713 143.097 33.9155C142.806 33.7597 142.577 33.5774 142.411 33.3686C142.246 33.1598 142.118 32.9742 142.028 32.8118H141.939V36.8636H140.452ZM141.909 30.1818C141.909 30.7187 141.987 31.1894 142.143 31.5938C142.299 31.9981 142.524 32.3146 142.819 32.5433C143.114 32.7687 143.475 32.8814 143.903 32.8814C144.347 32.8814 144.718 32.7637 145.016 32.5284C145.315 32.2898 145.54 31.9666 145.692 31.5589C145.848 31.1513 145.926 30.6922 145.926 30.1818C145.926 29.678 145.85 29.2256 145.697 28.8246C145.548 28.4235 145.323 28.107 145.021 27.875C144.723 27.643 144.35 27.527 143.903 27.527C143.472 27.527 143.107 27.638 142.809 27.8601C142.514 28.0821 142.29 28.392 142.138 28.7898C141.985 29.1875 141.909 29.6515 141.909 30.1818ZM152.917 34V23.8182H154.404V27.6016H154.493C154.58 27.4425 154.704 27.2585 154.866 27.0497C155.029 26.8409 155.254 26.6586 155.542 26.5028C155.831 26.3438 156.212 26.2642 156.686 26.2642C157.302 26.2642 157.853 26.42 158.336 26.7315C158.82 27.0431 159.2 27.4922 159.475 28.0788C159.753 28.6655 159.893 29.3714 159.893 30.1967C159.893 31.022 159.755 31.7296 159.48 32.3196C159.205 32.9062 158.827 33.3587 158.346 33.6768C157.866 33.9917 157.317 34.1491 156.701 34.1491C156.237 34.1491 155.857 34.0713 155.562 33.9155C155.271 33.7597 155.042 33.5774 154.876 33.3686C154.711 33.1598 154.583 32.9742 154.493 32.8118H154.369V34H152.917ZM154.374 30.1818C154.374 30.7187 154.452 31.1894 154.608 31.5938C154.764 31.9981 154.989 32.3146 155.284 32.5433C155.579 32.7687 155.94 32.8814 156.368 32.8814C156.812 32.8814 157.183 32.7637 157.481 32.5284C157.78 32.2898 158.005 31.9666 158.157 31.5589C158.313 31.1513 158.391 30.6922 158.391 30.1818C158.391 29.678 158.315 29.2256 158.162 28.8246C158.013 28.4235 157.788 28.107 157.486 27.875C157.188 27.643 156.815 27.527 156.368 27.527C155.937 27.527 155.572 27.638 155.274 27.8601C154.979 28.0821 154.755 28.392 154.603 28.7898C154.45 29.1875 154.374 29.6515 154.374 30.1818ZM163.784 34.169C163.3 34.169 162.863 34.0795 162.472 33.9006C162.08 33.7183 161.771 33.4548 161.542 33.1101C161.317 32.7654 161.204 32.3428 161.204 31.8423C161.204 31.4115 161.287 31.0568 161.452 30.7784C161.618 30.5 161.842 30.2796 162.124 30.1172C162.405 29.9548 162.72 29.8321 163.068 29.7493C163.416 29.6664 163.771 29.6035 164.132 29.5604C164.589 29.5073 164.961 29.4643 165.246 29.4311C165.531 29.3946 165.738 29.3366 165.867 29.2571C165.996 29.1776 166.061 29.0483 166.061 28.8693V28.8345C166.061 28.4003 165.938 28.0639 165.693 27.8253C165.451 27.5866 165.09 27.4673 164.609 27.4673C164.109 27.4673 163.714 27.5784 163.426 27.8004C163.141 28.0192 162.944 28.2628 162.835 28.5312L161.438 28.2131C161.603 27.7491 161.845 27.3745 162.163 27.0895C162.485 26.8011 162.854 26.5923 163.272 26.4631C163.69 26.3305 164.129 26.2642 164.589 26.2642C164.894 26.2642 165.218 26.3007 165.559 26.3736C165.904 26.4432 166.225 26.5724 166.523 26.7614C166.825 26.9503 167.072 27.2204 167.264 27.5717C167.456 27.9197 167.553 28.3722 167.553 28.929V34H166.101V32.956H166.041C165.945 33.1482 165.801 33.3371 165.609 33.5227C165.416 33.7083 165.17 33.8625 164.868 33.9851C164.566 34.1077 164.205 34.169 163.784 34.169ZM164.107 32.9759C164.518 32.9759 164.87 32.8946 165.161 32.7322C165.456 32.5698 165.68 32.3577 165.832 32.0959C165.988 31.8307 166.066 31.5473 166.066 31.2457V30.2614C166.013 30.3144 165.91 30.3641 165.758 30.4105C165.609 30.4536 165.438 30.4917 165.246 30.5249C165.054 30.5547 164.866 30.5829 164.684 30.6094C164.502 30.6326 164.349 30.6525 164.227 30.669C163.938 30.7055 163.675 30.7668 163.436 30.853C163.201 30.9392 163.012 31.0634 162.869 31.2259C162.73 31.3849 162.661 31.5971 162.661 31.8622C162.661 32.2301 162.796 32.5085 163.068 32.6974C163.34 32.883 163.686 32.9759 164.107 32.9759ZM165.648 24.0021H166.847C166.847 24.4396 166.648 24.7992 166.25 25.081C165.856 25.3594 165.315 25.4986 164.629 25.4986C163.946 25.4986 163.406 25.3594 163.009 25.081C162.614 24.7992 162.417 24.4396 162.417 24.0021H163.61C163.61 24.2076 163.686 24.3883 163.839 24.544C163.995 24.6998 164.258 24.7777 164.629 24.7777C164.994 24.7777 165.254 24.6998 165.41 24.544C165.569 24.3883 165.648 24.2076 165.648 24.0021ZM164.321 23.9027L163.168 22.5803H164.396L165.176 23.9027H164.321ZM171.019 29.4659V34H169.532V26.3636H170.959V27.6065H171.054C171.229 27.2022 171.505 26.8774 171.879 26.6321C172.257 26.3868 172.733 26.2642 173.306 26.2642C173.826 26.2642 174.282 26.3736 174.673 26.5923C175.064 26.8078 175.367 27.1293 175.583 27.5568C175.798 27.9844 175.906 28.513 175.906 29.1428V34H174.42V29.3217C174.42 28.7682 174.275 28.3357 173.987 28.0241C173.699 27.7093 173.303 27.5518 172.799 27.5518C172.454 27.5518 172.148 27.6264 171.879 27.7756C171.614 27.9247 171.403 28.1435 171.248 28.4318C171.095 28.7169 171.019 29.0616 171.019 29.4659ZM181.101 37.0227C180.495 37.0227 179.973 36.9432 179.535 36.7841C179.101 36.625 178.747 36.4145 178.471 36.1527C178.196 35.8909 177.991 35.6042 177.855 35.2926L179.133 34.7656C179.222 34.9115 179.341 35.0656 179.491 35.228C179.643 35.3937 179.849 35.5346 180.107 35.6506C180.369 35.7666 180.705 35.8246 181.116 35.8246C181.68 35.8246 182.145 35.687 182.513 35.4119C182.881 35.1402 183.065 34.706 183.065 34.1094V32.608H182.971C182.881 32.7704 182.752 32.951 182.583 33.1499C182.417 33.3487 182.189 33.5211 181.897 33.6669C181.605 33.8127 181.226 33.8857 180.758 33.8857C180.155 33.8857 179.612 33.7448 179.128 33.4631C178.647 33.178 178.266 32.7588 177.984 32.2053C177.706 31.6484 177.567 30.964 177.567 30.152C177.567 29.34 177.704 28.6439 177.979 28.0639C178.258 27.4839 178.639 27.0398 179.123 26.7315C179.607 26.42 180.155 26.2642 180.768 26.2642C181.242 26.2642 181.625 26.3438 181.917 26.5028C182.208 26.6586 182.435 26.8409 182.598 27.0497C182.764 27.2585 182.891 27.4425 182.981 27.6016H183.09V26.3636H184.547V34.169C184.547 34.8253 184.394 35.3639 184.089 35.7848C183.784 36.2057 183.372 36.5173 182.851 36.7195C182.334 36.9216 181.751 37.0227 181.101 37.0227ZM181.086 32.6527C181.514 32.6527 181.875 32.5533 182.17 32.3544C182.469 32.1522 182.694 31.8639 182.846 31.4893C183.002 31.1115 183.08 30.6591 183.08 30.1321C183.08 29.6184 183.004 29.166 182.851 28.7749C182.699 28.3838 182.475 28.0788 182.18 27.8601C181.885 27.638 181.521 27.527 181.086 27.527C180.639 27.527 180.266 27.643 179.968 27.875C179.67 28.1037 179.444 28.4152 179.292 28.8097C179.143 29.2041 179.068 29.6449 179.068 30.1321C179.068 30.6326 179.144 31.0717 179.297 31.4496C179.449 31.8274 179.675 32.1224 179.973 32.3345C180.274 32.5466 180.646 32.6527 181.086 32.6527ZM190.365 23.8182H192.229L195.471 31.733H195.59L198.831 23.8182H200.696V34H199.234V26.6321H199.14L196.137 33.9851H194.924L191.921 26.6271H191.826V34H190.365V23.8182ZM202.81 34V26.3636H204.296V34H202.81ZM203.561 25.1854C203.302 25.1854 203.08 25.0992 202.894 24.9268C202.712 24.7512 202.621 24.5424 202.621 24.3004C202.621 24.0552 202.712 23.8464 202.894 23.674C203.08 23.4983 203.302 23.4105 203.561 23.4105C203.819 23.4105 204.039 23.4983 204.222 23.674C204.407 23.8464 204.5 24.0552 204.5 24.3004C204.5 24.5424 204.407 24.7512 204.222 24.9268C204.039 25.0992 203.819 25.1854 203.561 25.1854ZM209.513 34.1541C208.774 34.1541 208.137 33.9867 207.604 33.652C207.073 33.3139 206.666 32.8482 206.381 32.255C206.096 31.6617 205.953 30.9822 205.953 30.2166C205.953 29.4411 206.099 28.7566 206.391 28.1634C206.682 27.5668 207.093 27.1011 207.624 26.7663C208.154 26.4316 208.779 26.2642 209.498 26.2642C210.078 26.2642 210.595 26.3719 211.049 26.5874C211.503 26.7995 211.869 27.0978 212.148 27.4822C212.429 27.8667 212.597 28.3158 212.65 28.8295H211.203C211.124 28.4716 210.941 28.1634 210.656 27.9048C210.375 27.6463 209.997 27.517 209.523 27.517C209.108 27.517 208.746 27.6264 208.434 27.8452C208.126 28.0606 207.885 28.3688 207.713 28.7699C207.541 29.1676 207.455 29.6383 207.455 30.1818C207.455 30.7386 207.539 31.2192 207.708 31.6236C207.877 32.0279 208.116 32.3411 208.424 32.5632C208.736 32.7853 209.102 32.8963 209.523 32.8963C209.804 32.8963 210.06 32.8449 210.288 32.7422C210.52 32.6361 210.714 32.4853 210.87 32.2898C211.029 32.0942 211.14 31.8589 211.203 31.5838H212.65C212.597 32.0777 212.436 32.5185 212.168 32.9062C211.899 33.294 211.54 33.599 211.089 33.821C210.641 34.0431 210.116 34.1541 209.513 34.1541ZM214.24 34V26.3636H215.676V27.5767H215.756C215.895 27.1657 216.14 26.8426 216.492 26.6072C216.846 26.3686 217.247 26.2493 217.695 26.2493C217.788 26.2493 217.897 26.2526 218.023 26.2592C218.152 26.2659 218.253 26.2741 218.326 26.2841V27.706C218.267 27.6894 218.16 27.6712 218.008 27.6513C217.856 27.6281 217.703 27.6165 217.551 27.6165C217.199 27.6165 216.886 27.6911 216.611 27.8402C216.339 27.986 216.124 28.1899 215.965 28.4517C215.806 28.7102 215.726 29.0052 215.726 29.3366V34H214.24ZM222.556 34.1541C221.84 34.1541 221.215 33.9901 220.681 33.6619C220.148 33.3338 219.734 32.8748 219.439 32.2848C219.144 31.6948 218.996 31.0054 218.996 30.2166C218.996 29.4245 219.144 28.7318 219.439 28.1385C219.734 27.5452 220.148 27.0845 220.681 26.7564C221.215 26.4283 221.84 26.2642 222.556 26.2642C223.272 26.2642 223.896 26.4283 224.43 26.7564C224.964 27.0845 225.378 27.5452 225.673 28.1385C225.968 28.7318 226.115 29.4245 226.115 30.2166C226.115 31.0054 225.968 31.6948 225.673 32.2848C225.378 32.8748 224.964 33.3338 224.43 33.6619C223.896 33.9901 223.272 34.1541 222.556 34.1541ZM222.561 32.9062C223.025 32.9062 223.409 32.7836 223.714 32.5384C224.019 32.2931 224.244 31.9666 224.39 31.5589C224.539 31.1513 224.614 30.7022 224.614 30.2116C224.614 29.7244 224.539 29.277 224.39 28.8693C224.244 28.4583 224.019 28.1286 223.714 27.88C223.409 27.6314 223.025 27.5071 222.561 27.5071C222.093 27.5071 221.706 27.6314 221.397 27.88C221.092 28.1286 220.865 28.4583 220.716 28.8693C220.57 29.277 220.498 29.7244 220.498 30.2116C220.498 30.7022 220.57 31.1513 220.716 31.5589C220.865 31.9666 221.092 32.2931 221.397 32.5384C221.706 32.7836 222.093 32.9062 222.561 32.9062ZM233.497 28.228L232.15 28.4666C232.093 28.2943 232.004 28.1302 231.881 27.9744C231.762 27.8187 231.599 27.6911 231.394 27.5916C231.189 27.4922 230.932 27.4425 230.623 27.4425C230.202 27.4425 229.851 27.5369 229.569 27.7259C229.288 27.9115 229.147 28.1518 229.147 28.4467C229.147 28.7019 229.241 28.9074 229.43 29.0632C229.619 29.219 229.924 29.3466 230.345 29.446L231.558 29.7244C232.261 29.8868 232.784 30.1371 233.129 30.4751C233.474 30.8132 233.646 31.2524 233.646 31.7926C233.646 32.25 233.514 32.6577 233.248 33.0156C232.987 33.3703 232.62 33.6487 232.15 33.8509C231.682 34.053 231.14 34.1541 230.524 34.1541C229.669 34.1541 228.971 33.9718 228.431 33.6072C227.891 33.2393 227.559 32.7173 227.437 32.0412L228.873 31.8224C228.963 32.197 229.147 32.4804 229.425 32.6726C229.704 32.8615 230.067 32.956 230.514 32.956C231.001 32.956 231.391 32.8549 231.682 32.6527C231.974 32.4472 232.12 32.197 232.12 31.902C232.12 31.6634 232.03 31.4628 231.851 31.3004C231.676 31.138 231.406 31.0154 231.041 30.9325L229.748 30.6491C229.036 30.4867 228.509 30.2282 228.167 29.8736C227.829 29.5189 227.66 29.0698 227.66 28.5263C227.66 28.0755 227.786 27.6811 228.038 27.343C228.29 27.005 228.638 26.7415 229.082 26.5526C229.526 26.3603 230.035 26.2642 230.608 26.2642C231.434 26.2642 232.083 26.4432 232.557 26.8011C233.031 27.1558 233.345 27.6314 233.497 28.228ZM238.497 34.1541C237.781 34.1541 237.156 33.9901 236.623 33.6619C236.089 33.3338 235.675 32.8748 235.38 32.2848C235.085 31.6948 234.938 31.0054 234.938 30.2166C234.938 29.4245 235.085 28.7318 235.38 28.1385C235.675 27.5452 236.089 27.0845 236.623 26.7564C237.156 26.4283 237.781 26.2642 238.497 26.2642C239.213 26.2642 239.838 26.4283 240.371 26.7564C240.905 27.0845 241.319 27.5452 241.614 28.1385C241.909 28.7318 242.057 29.4245 242.057 30.2166C242.057 31.0054 241.909 31.6948 241.614 32.2848C241.319 32.8748 240.905 33.3338 240.371 33.6619C239.838 33.9901 239.213 34.1541 238.497 34.1541ZM238.502 32.9062C238.966 32.9062 239.351 32.7836 239.656 32.5384C239.96 32.2931 240.186 31.9666 240.332 31.5589C240.481 31.1513 240.555 30.7022 240.555 30.2116C240.555 29.7244 240.481 29.277 240.332 28.8693C240.186 28.4583 239.96 28.1286 239.656 27.88C239.351 27.6314 238.966 27.5071 238.502 27.5071C238.035 27.5071 237.647 27.6314 237.339 27.88C237.034 28.1286 236.807 28.4583 236.658 28.8693C236.512 29.277 236.439 29.7244 236.439 30.2116C236.439 30.7022 236.512 31.1513 236.658 31.5589C236.807 31.9666 237.034 32.2931 237.339 32.5384C237.647 32.7836 238.035 32.9062 238.502 32.9062ZM247.35 26.3636V27.5568H243.035V26.3636H247.35ZM244.218 34V25.4787C244.218 25.0014 244.323 24.6053 244.531 24.2905C244.74 23.9723 245.017 23.7353 245.362 23.5795C245.706 23.4205 246.081 23.3409 246.485 23.3409C246.784 23.3409 247.039 23.3658 247.251 23.4155C247.463 23.4619 247.62 23.505 247.723 23.5447L247.375 24.7479C247.306 24.728 247.216 24.7048 247.107 24.6783C246.997 24.6484 246.865 24.6335 246.709 24.6335C246.348 24.6335 246.089 24.723 245.933 24.902C245.781 25.081 245.705 25.3395 245.705 25.6776V34H244.218ZM252.449 26.3636V27.5568H248.278V26.3636H252.449ZM249.396 24.5341H250.883V31.7578C250.883 32.0462 250.926 32.2633 251.012 32.4091C251.098 32.5516 251.209 32.6494 251.345 32.7024C251.484 32.7521 251.635 32.777 251.797 32.777C251.917 32.777 252.021 32.7687 252.111 32.7521C252.2 32.7356 252.27 32.7223 252.319 32.7124L252.588 33.9403C252.502 33.9735 252.379 34.0066 252.22 34.0398C252.061 34.0762 251.862 34.0961 251.623 34.0994C251.232 34.1061 250.868 34.0365 250.53 33.8906C250.192 33.7448 249.918 33.5194 249.709 33.2145C249.501 32.9096 249.396 32.5268 249.396 32.0661V24.5341Z" fill="black"/>
<path d="M47 29H39V21H47V29Z" fill="#FF5722"/>
<path d="M57 29H49V21H57V29Z" fill="#4CAF50"/>
<path d="M57 39H49V31H57V39Z" fill="#FFC107"/>
<path d="M47 39H39V31H47V39Z" fill="#03A9F4"/>
<defs>
<filter id="filter0_d_236_682" x="0" y="0" width="296.11" height="68" filterUnits="userSpaceOnUse" color-interpolation-filters="sRGB">
<feFlood flood-opacity="0" result="BackgroundImageFix"/>
<feColorMatrix in="SourceAlpha" type="matrix" values="0 0 0 0 0 0 0 0 0 0 0 0 0 0 0 0 0 0 127 0" result="hardAlpha"/>
<feOffset dy="4"/>
<feGaussianBlur stdDeviation="2"/>
<feComposite in2="hardAlpha" operator="out"/>
<feColorMatrix type="matrix" values="0 0 0 0 0 0 0 0 0 0 0 0 0 0 0 0 0 0 0.1 0"/>
<feBlend mode="normal" in2="BackgroundImageFix" result="effect1_dropShadow_236_682"/>
<feBlend mode="normal" in="SourceGraphic" in2="effect1_dropShadow_236_682" result="shape"/>
</filter>
</defs>
</svg>
