<svg width="396" height="247" viewBox="0 0 396 247" fill="none" xmlns="http://www.w3.org/2000/svg">
<g filter="url(#filter0_d_253_2564)">
<rect x="4" width="388" height="239" rx="6" fill="white" shape-rendering="crispEdges"/>
<rect x="4.5" y="0.5" width="387" height="238" rx="5.5" stroke="#E5E7EB" shape-rendering="crispEdges"/>
<path d="M23.3665 21.8182L26.0163 29.8324H26.1207L28.7656 21.8182H30.794L27.2045 32H24.9276L21.343 21.8182H23.3665ZM32.0556 32V24.3636H33.8553V32H32.0556ZM32.9604 23.2798C32.6754 23.2798 32.4301 23.1854 32.2246 22.9964C32.0191 22.8042 31.9164 22.5739 31.9164 22.3054C31.9164 22.0336 32.0191 21.8033 32.2246 21.6143C32.4301 21.4221 32.6754 21.326 32.9604 21.326C33.2488 21.326 33.494 21.4221 33.6962 21.6143C33.9017 21.8033 34.0044 22.0336 34.0044 22.3054C34.0044 22.5739 33.9017 22.8042 33.6962 22.9964C33.494 23.1854 33.2488 23.2798 32.9604 23.2798ZM39.0866 32.1491C38.321 32.1491 37.6598 31.9901 37.103 31.6719C36.5495 31.3504 36.1236 30.8963 35.8253 30.3097C35.527 29.7197 35.3778 29.0253 35.3778 28.2266C35.3778 27.4411 35.527 26.7517 35.8253 26.1584C36.1269 25.5618 36.5478 25.0978 37.0881 24.7663C37.6283 24.4316 38.263 24.2642 38.9922 24.2642C39.4628 24.2642 39.907 24.3404 40.3246 24.4929C40.7455 24.642 41.1167 24.8741 41.4382 25.1889C41.763 25.5038 42.0182 25.9048 42.2038 26.392C42.3894 26.8759 42.4822 27.4527 42.4822 28.1222V28.674H36.223V27.4609H40.7571C40.7538 27.1162 40.6792 26.8097 40.5334 26.5412C40.3875 26.2694 40.1837 26.0556 39.9219 25.8999C39.6634 25.7441 39.3617 25.6662 39.017 25.6662C38.6491 25.6662 38.326 25.7557 38.0476 25.9347C37.7692 26.1103 37.5521 26.3423 37.3963 26.6307C37.2438 26.9157 37.166 27.2289 37.1626 27.5703V28.6293C37.1626 29.0734 37.2438 29.4545 37.4062 29.7727C37.5687 30.0876 37.7957 30.3295 38.0874 30.4986C38.379 30.6643 38.7204 30.7472 39.1115 30.7472C39.3733 30.7472 39.6103 30.7107 39.8224 30.6378C40.0346 30.5616 40.2185 30.4505 40.3743 30.3047C40.5301 30.1589 40.6477 29.9782 40.7273 29.7628L42.4077 29.9517C42.3016 30.3958 42.0994 30.7836 41.8011 31.1151C41.5062 31.4432 41.1283 31.6984 40.6676 31.8807C40.2069 32.0597 39.6799 32.1491 39.0866 32.1491ZM36.3572 23.4886L38.3707 21.853H39.4943L41.5178 23.4886H40.0213L38.9425 22.5739L37.8587 23.4886H36.3572ZM40.9858 22.4943L42.0895 20.6598H43.6705L42.1342 22.4943H40.9858ZM47.818 24.3636V25.7557H43.4281V24.3636H47.818ZM44.5119 22.5341H46.3116V29.7031C46.3116 29.9451 46.3481 30.1307 46.421 30.2599C46.4972 30.3859 46.5967 30.4721 46.7193 30.5185C46.8419 30.5649 46.9778 30.5881 47.127 30.5881C47.2396 30.5881 47.3424 30.5798 47.4352 30.5632C47.5313 30.5466 47.6042 30.5317 47.6539 30.5185L47.9572 31.9254C47.8611 31.9586 47.7235 31.995 47.5446 32.0348C47.3689 32.0746 47.1535 32.0978 46.8983 32.1044C46.4475 32.1177 46.0415 32.0497 45.6802 31.9006C45.319 31.7481 45.0323 31.5128 44.8201 31.1946C44.6113 30.8764 44.5086 30.4787 44.5119 30.0014V22.5341ZM59.6168 24.3636L56.8974 32H54.9087L52.1893 24.3636H54.1083L55.8633 30.0362H55.9428L57.7028 24.3636H59.6168ZM62.8409 32.1541C62.357 32.1541 61.9212 32.0679 61.5334 31.8956C61.1489 31.7199 60.844 31.4614 60.6186 31.12C60.3965 30.7786 60.2855 30.3577 60.2855 29.8572C60.2855 29.4264 60.3651 29.0701 60.5241 28.7884C60.6832 28.5066 60.9003 28.2812 61.1754 28.1122C61.4505 27.9432 61.7604 27.8156 62.1051 27.7294C62.4531 27.6399 62.8127 27.5753 63.1839 27.5355C63.6314 27.4891 63.9943 27.4477 64.2727 27.4112C64.5511 27.3714 64.7533 27.3118 64.8793 27.2322C65.0085 27.1494 65.0732 27.0218 65.0732 26.8494V26.8196C65.0732 26.4451 64.9621 26.1551 64.7401 25.9496C64.518 25.7441 64.1982 25.6413 63.7805 25.6413C63.3397 25.6413 62.9901 25.7375 62.7315 25.9297C62.4763 26.1219 62.304 26.349 62.2145 26.6108L60.5341 26.3722C60.6667 25.9081 60.8854 25.5204 61.1903 25.2088C61.4953 24.8939 61.8681 24.6586 62.3089 24.5028C62.7498 24.3438 63.237 24.2642 63.7706 24.2642C64.1385 24.2642 64.5047 24.3073 64.8693 24.3935C65.2339 24.4796 65.567 24.6222 65.8686 24.821C66.1702 25.0166 66.4122 25.2834 66.5945 25.6214C66.7801 25.9595 66.8729 26.3821 66.8729 26.8892V32H65.1428V30.951H65.0831C64.9737 31.1631 64.8196 31.362 64.6207 31.5476C64.4252 31.7299 64.1783 31.8774 63.88 31.9901C63.585 32.0994 63.2386 32.1541 62.8409 32.1541ZM63.3082 30.8317C63.6695 30.8317 63.9827 30.7604 64.2479 30.6179C64.513 30.4721 64.7169 30.2798 64.8594 30.0412C65.0052 29.8026 65.0781 29.5424 65.0781 29.2607V28.3608C65.0218 28.4072 64.9257 28.4503 64.7898 28.4901C64.6572 28.5298 64.508 28.5646 64.3423 28.5945C64.1766 28.6243 64.0125 28.6508 63.8501 28.674C63.6877 28.6972 63.5469 28.7171 63.4276 28.7337C63.1591 28.7701 62.9188 28.8298 62.7067 28.9126C62.4946 28.9955 62.3272 29.1115 62.2045 29.2607C62.0819 29.4065 62.0206 29.5954 62.0206 29.8274C62.0206 30.1589 62.1416 30.4091 62.3835 30.5781C62.6255 30.7472 62.9337 30.8317 63.3082 30.8317ZM63.1939 23.3594L61.6676 21.0874H63.4325L64.5412 23.3594H63.1939ZM68.6825 32V24.3636H70.4822V32H68.6825ZM69.5874 23.2798C69.3023 23.2798 69.0571 23.1854 68.8516 22.9964C68.6461 22.8042 68.5433 22.5739 68.5433 22.3054C68.5433 22.0336 68.6461 21.8033 68.8516 21.6143C69.0571 21.4221 69.3023 21.326 69.5874 21.326C69.8757 21.326 70.121 21.4221 70.3232 21.6143C70.5286 21.8033 70.6314 22.0336 70.6314 22.3054C70.6314 22.5739 70.5286 22.8042 70.3232 22.9964C70.121 23.1854 69.8757 23.2798 69.5874 23.2798ZM82.6266 24.3636L79.9071 32H77.9185L75.199 24.3636H77.1181L78.873 30.0362H78.9526L80.7125 24.3636H82.6266ZM85.8507 32.1541C85.3668 32.1541 84.9309 32.0679 84.5431 31.8956C84.1587 31.7199 83.8538 31.4614 83.6284 31.12C83.4063 30.7786 83.2953 30.3577 83.2953 29.8572C83.2953 29.4264 83.3748 29.0701 83.5339 28.7884C83.693 28.5066 83.9101 28.2812 84.1852 28.1122C84.4603 27.9432 84.7702 27.8156 85.1149 27.7294C85.4629 27.6399 85.8225 27.5753 86.1937 27.5355C86.6412 27.4891 87.0041 27.4477 87.2825 27.4112C87.5609 27.3714 87.7631 27.3118 87.889 27.2322C88.0183 27.1494 88.0829 27.0218 88.0829 26.8494V26.8196C88.0829 26.4451 87.9719 26.1551 87.7498 25.9496C87.5278 25.7441 87.2079 25.6413 86.7903 25.6413C86.3495 25.6413 85.9998 25.7375 85.7413 25.9297C85.4861 26.1219 85.3137 26.349 85.2243 26.6108L83.5439 26.3722C83.6764 25.9081 83.8952 25.5204 84.2001 25.2088C84.505 24.8939 84.8779 24.6586 85.3187 24.5028C85.7595 24.3438 86.2467 24.2642 86.7804 24.2642C87.1483 24.2642 87.5145 24.3073 87.8791 24.3935C88.2437 24.4796 88.5768 24.6222 88.8784 24.821C89.18 25.0166 89.4219 25.2834 89.6042 25.6214C89.7898 25.9595 89.8826 26.3821 89.8826 26.8892V32H88.1525V30.951H88.0929C87.9835 31.1631 87.8294 31.362 87.6305 31.5476C87.435 31.7299 87.188 31.8774 86.8897 31.9901C86.5948 32.0994 86.2484 32.1541 85.8507 32.1541ZM86.318 30.8317C86.6793 30.8317 86.9925 30.7604 87.2576 30.6179C87.5228 30.4721 87.7266 30.2798 87.8691 30.0412C88.015 29.8026 88.0879 29.5424 88.0879 29.2607V28.3608C88.0315 28.4072 87.9354 28.4503 87.7995 28.4901C87.667 28.5298 87.5178 28.5646 87.3521 28.5945C87.1864 28.6243 87.0223 28.6508 86.8599 28.674C86.6975 28.6972 86.5566 28.7171 86.4373 28.7337C86.1689 28.7701 85.9286 28.8298 85.7164 28.9126C85.5043 28.9955 85.3369 29.1115 85.2143 29.2607C85.0917 29.4065 85.0304 29.5954 85.0304 29.8274C85.0304 30.1589 85.1513 30.4091 85.3933 30.5781C85.6352 30.7472 85.9435 30.8317 86.318 30.8317ZM87.8443 21.7386H89.1916C89.1916 22.3187 88.9811 22.7893 88.5602 23.1506C88.1426 23.5085 87.5758 23.6875 86.8599 23.6875C86.1506 23.6875 85.5855 23.5085 85.1646 23.1506C84.747 22.7893 84.5398 22.3187 84.5431 21.7386H85.8805C85.8805 21.9773 85.9534 22.1911 86.0993 22.38C86.2484 22.5656 86.502 22.6584 86.8599 22.6584C87.2112 22.6584 87.4615 22.5656 87.6106 22.38C87.7631 22.1944 87.841 21.9806 87.8443 21.7386ZM93.492 27.5256V32H91.6923V24.3636H93.4125V25.6612H93.502C93.6776 25.2337 93.9577 24.8939 94.3422 24.642C94.7299 24.3902 95.2089 24.2642 95.7789 24.2642C96.3059 24.2642 96.765 24.3769 97.1561 24.6023C97.5505 24.8277 97.8554 25.1541 98.0708 25.5817C98.2896 26.0092 98.3973 26.5279 98.394 27.1378V32H96.5943V27.4162C96.5943 26.9058 96.4617 26.5064 96.1966 26.218C95.9347 25.9297 95.5718 25.7855 95.1078 25.7855C94.7929 25.7855 94.5128 25.8551 94.2676 25.9943C94.0256 26.1302 93.835 26.3274 93.6958 26.5859C93.56 26.8445 93.492 27.1577 93.492 27.5256ZM105.337 29.6037L105.332 27.4311H105.62L108.365 24.3636H110.468L107.092 28.1222H106.719L105.337 29.6037ZM103.696 32V21.8182H105.496V32H103.696ZM108.489 32L106.003 28.5249L107.216 27.2571L110.642 32H108.489ZM114.733 32.1491C113.968 32.1491 113.306 31.9901 112.749 31.6719C112.196 31.3504 111.77 30.8963 111.472 30.3097C111.173 29.7197 111.024 29.0253 111.024 28.2266C111.024 27.4411 111.173 26.7517 111.472 26.1584C111.773 25.5618 112.194 25.0978 112.735 24.7663C113.275 24.4316 113.91 24.2642 114.639 24.2642C115.109 24.2642 115.553 24.3404 115.971 24.4929C116.392 24.642 116.763 24.8741 117.085 25.1889C117.41 25.5038 117.665 25.9048 117.85 26.392C118.036 26.8759 118.129 27.4527 118.129 28.1222V28.674H111.869V27.4609H116.404C116.4 27.1162 116.326 26.8097 116.18 26.5412C116.034 26.2694 115.83 26.0556 115.568 25.8999C115.31 25.7441 115.008 25.6662 114.664 25.6662C114.296 25.6662 113.972 25.7557 113.694 25.9347C113.416 26.1103 113.199 26.3423 113.043 26.6307C112.89 26.9157 112.812 27.2289 112.809 27.5703V28.6293C112.809 29.0734 112.89 29.4545 113.053 29.7727C113.215 30.0876 113.442 30.3295 113.734 30.4986C114.026 30.6643 114.367 30.7472 114.758 30.7472C115.02 30.7472 115.257 30.7107 115.469 30.6378C115.681 30.5616 115.865 30.4505 116.021 30.3047C116.177 30.1589 116.294 29.9782 116.374 29.7628L118.054 29.9517C117.948 30.3958 117.746 30.7836 117.448 31.1151C117.153 31.4432 116.775 31.6984 116.314 31.8807C115.853 32.0597 115.326 32.1491 114.733 32.1491ZM115.28 23.2898H113.908L113.838 22.3352C114.19 22.322 114.438 22.2772 114.584 22.201C114.73 22.1214 114.801 22.0121 114.798 21.8729C114.801 21.6939 114.705 21.5696 114.509 21.5C114.314 21.4304 114.072 21.3956 113.784 21.3956L113.828 20.5057C114.65 20.5057 115.273 20.625 115.698 20.8636C116.122 21.1023 116.332 21.4271 116.329 21.8381C116.332 22.1529 116.225 22.3883 116.006 22.544C115.787 22.6965 115.545 22.7926 115.28 22.8324V23.2898ZM124.924 21.8182V32H123.124V21.8182H124.924ZM128.972 32.1541C128.488 32.1541 128.052 32.0679 127.664 31.8956C127.28 31.7199 126.975 31.4614 126.749 31.12C126.527 30.7786 126.416 30.3577 126.416 29.8572C126.416 29.4264 126.496 29.0701 126.655 28.7884C126.814 28.5066 127.031 28.2812 127.306 28.1122C127.581 27.9432 127.891 27.8156 128.236 27.7294C128.584 27.6399 128.944 27.5753 129.315 27.5355C129.762 27.4891 130.125 27.4477 130.404 27.4112C130.682 27.3714 130.884 27.3118 131.01 27.2322C131.139 27.1494 131.204 27.0218 131.204 26.8494V26.8196C131.204 26.4451 131.093 26.1551 130.871 25.9496C130.649 25.7441 130.329 25.6413 129.911 25.6413C129.471 25.6413 129.121 25.7375 128.862 25.9297C128.607 26.1219 128.435 26.349 128.345 26.6108L126.665 26.3722C126.798 25.9081 127.016 25.5204 127.321 25.2088C127.626 24.8939 127.999 24.6586 128.44 24.5028C128.881 24.3438 129.368 24.2642 129.901 24.2642C130.269 24.2642 130.636 24.3073 131 24.3935C131.365 24.4796 131.698 24.6222 131.999 24.821C132.301 25.0166 132.543 25.2834 132.725 25.6214C132.911 25.9595 133.004 26.3821 133.004 26.8892V32H131.274V30.951H131.214C131.105 31.1631 130.95 31.362 130.752 31.5476C130.556 31.7299 130.309 31.8774 130.011 31.9901C129.716 32.0994 129.369 32.1541 128.972 32.1541ZM129.439 30.8317C129.8 30.8317 130.114 30.7604 130.379 30.6179C130.644 30.4721 130.848 30.2798 130.99 30.0412C131.136 29.8026 131.209 29.5424 131.209 29.2607V28.3608C131.153 28.4072 131.057 28.4503 130.921 28.4901C130.788 28.5298 130.639 28.5646 130.473 28.5945C130.307 28.6243 130.143 28.6508 129.981 28.674C129.819 28.6972 129.678 28.7171 129.558 28.7337C129.29 28.7701 129.05 28.8298 128.838 28.9126C128.625 28.9955 128.458 29.1115 128.335 29.2607C128.213 29.4065 128.151 29.5954 128.151 29.8274C128.151 30.1589 128.272 30.4091 128.514 30.5781C128.756 30.7472 129.065 30.8317 129.439 30.8317ZM129.911 34.7493C129.623 34.7493 129.376 34.6532 129.171 34.4609C128.968 34.2687 128.867 34.0384 128.867 33.7699C128.867 33.5014 128.968 33.2711 129.171 33.0788C129.376 32.8866 129.621 32.7905 129.906 32.7905C130.195 32.7905 130.44 32.8866 130.642 33.0788C130.848 33.2711 130.95 33.5014 130.95 33.7699C130.95 34.0384 130.848 34.2687 130.642 34.4609C130.44 34.6532 130.196 34.7493 129.911 34.7493ZM134.813 32V24.3636H136.613V32H134.813ZM135.718 23.2798C135.433 23.2798 135.188 23.1854 134.982 22.9964C134.777 22.8042 134.674 22.5739 134.674 22.3054C134.674 22.0336 134.777 21.8033 134.982 21.6143C135.188 21.4221 135.433 21.326 135.718 21.326C136.007 21.326 136.252 21.4221 136.454 21.6143C136.66 21.8033 136.762 22.0336 136.762 22.3054C136.762 22.5739 136.66 22.8042 136.454 22.9964C136.252 23.1854 136.007 23.2798 135.718 23.2798ZM145.75 24.3636V25.7557H141.36V24.3636H145.75ZM142.444 22.5341H144.243V29.7031C144.243 29.9451 144.28 30.1307 144.353 30.2599C144.429 30.3859 144.528 30.4721 144.651 30.5185C144.774 30.5649 144.909 30.5881 145.059 30.5881C145.171 30.5881 145.274 30.5798 145.367 30.5632C145.463 30.5466 145.536 30.5317 145.586 30.5185L145.889 31.9254C145.793 31.9586 145.655 31.995 145.476 32.0348C145.301 32.0746 145.085 32.0978 144.83 32.1044C144.379 32.1177 143.973 32.0497 143.612 31.9006C143.251 31.7481 142.964 31.5128 142.752 31.1946C142.543 30.8764 142.44 30.4787 142.444 30.0014V22.5341ZM147.255 32V24.3636H149V25.6364H149.079C149.219 25.1955 149.457 24.8558 149.795 24.6172C150.137 24.3752 150.526 24.2543 150.964 24.2543C151.063 24.2543 151.174 24.2592 151.297 24.2692C151.423 24.2758 151.527 24.2874 151.61 24.304V25.9595C151.534 25.933 151.413 25.9098 151.247 25.8899C151.085 25.8667 150.927 25.8551 150.775 25.8551C150.447 25.8551 150.152 25.9264 149.89 26.0689C149.631 26.2081 149.427 26.402 149.278 26.6506C149.129 26.8991 149.055 27.1858 149.055 27.5107V32H147.255ZM154.866 32.1541C154.382 32.1541 153.947 32.0679 153.559 31.8956C153.174 31.7199 152.869 31.4614 152.644 31.12C152.422 30.7786 152.311 30.3577 152.311 29.8572C152.311 29.4264 152.39 29.0701 152.55 28.7884C152.709 28.5066 152.926 28.2812 153.201 28.1122C153.476 27.9432 153.786 27.8156 154.131 27.7294C154.479 27.6399 154.838 27.5753 155.209 27.5355C155.657 27.4891 156.02 27.4477 156.298 27.4112C156.577 27.3714 156.779 27.3118 156.905 27.2322C157.034 27.1494 157.099 27.0218 157.099 26.8494V26.8196C157.099 26.4451 156.988 26.1551 156.765 25.9496C156.543 25.7441 156.224 25.6413 155.806 25.6413C155.365 25.6413 155.015 25.7375 154.757 25.9297C154.502 26.1219 154.329 26.349 154.24 26.6108L152.559 26.3722C152.692 25.9081 152.911 25.5204 153.216 25.2088C153.521 24.8939 153.894 24.6586 154.334 24.5028C154.775 24.3438 155.262 24.2642 155.796 24.2642C156.164 24.2642 156.53 24.3073 156.895 24.3935C157.259 24.4796 157.592 24.6222 157.894 24.821C158.196 25.0166 158.438 25.2834 158.62 25.6214C158.805 25.9595 158.898 26.3821 158.898 26.8892V32H157.168V30.951H157.108C156.999 31.1631 156.845 31.362 156.646 31.5476C156.451 31.7299 156.204 31.8774 155.905 31.9901C155.61 32.0994 155.264 32.1541 154.866 32.1541ZM155.334 30.8317C155.695 30.8317 156.008 30.7604 156.273 30.6179C156.538 30.4721 156.742 30.2798 156.885 30.0412C157.031 29.8026 157.104 29.5424 157.104 29.2607V28.3608C157.047 28.4072 156.951 28.4503 156.815 28.4901C156.683 28.5298 156.533 28.5646 156.368 28.5945C156.202 28.6243 156.038 28.6508 155.876 28.674C155.713 28.6972 155.572 28.7171 155.453 28.7337C155.184 28.7701 154.944 28.8298 154.732 28.9126C154.52 28.9955 154.353 29.1115 154.23 29.2607C154.107 29.4065 154.046 29.5954 154.046 29.8274C154.046 30.1589 154.167 30.4091 154.409 30.5781C154.651 30.7472 154.959 30.8317 155.334 30.8317ZM156.567 23.2898H155.194L155.125 22.3352C155.476 22.322 155.725 22.2772 155.871 22.201C156.016 22.1214 156.088 22.0121 156.084 21.8729C156.088 21.6939 155.992 21.5696 155.796 21.5C155.6 21.4304 155.358 21.3956 155.07 21.3956L155.115 20.5057C155.937 20.5057 156.56 20.625 156.984 20.8636C157.408 21.1023 157.619 21.4271 157.616 21.8381C157.619 22.1529 157.511 22.3883 157.292 22.544C157.074 22.6965 156.832 22.7926 156.567 22.8324V23.2898ZM160.708 32V24.3636H162.508V32H160.708ZM161.613 23.2798C161.328 23.2798 161.082 23.1854 160.877 22.9964C160.671 22.8042 160.569 22.5739 160.569 22.3054C160.569 22.0336 160.671 21.8033 160.877 21.6143C161.082 21.4221 161.328 21.326 161.613 21.326C161.901 21.326 162.146 21.4221 162.349 21.6143C162.554 21.8033 162.657 22.0336 162.657 22.3054C162.657 22.5739 162.554 22.8042 162.349 22.9964C162.146 23.1854 161.901 23.2798 161.613 23.2798ZM169.631 27.5256V32H167.831V24.3636H169.551V25.6612H169.641C169.816 25.2337 170.096 24.8939 170.481 24.642C170.869 24.3902 171.348 24.2642 171.918 24.2642C172.445 24.2642 172.904 24.3769 173.295 24.6023C173.689 24.8277 173.994 25.1541 174.21 25.5817C174.428 26.0092 174.536 26.5279 174.533 27.1378V32H172.733V27.4162C172.733 26.9058 172.6 26.5064 172.335 26.218C172.073 25.9297 171.71 25.7855 171.246 25.7855C170.932 25.7855 170.652 25.8551 170.406 25.9943C170.164 26.1302 169.974 26.3274 169.835 26.5859C169.699 26.8445 169.631 27.1577 169.631 27.5256ZM179.683 35.0227C179.037 35.0227 178.482 34.9349 178.018 34.7592C177.554 34.5869 177.181 34.3549 176.899 34.0632C176.617 33.7715 176.422 33.4484 176.312 33.0938L177.933 32.701C178.006 32.8501 178.112 32.9976 178.251 33.1435C178.391 33.2926 178.578 33.4152 178.813 33.5114C179.052 33.6108 179.352 33.6605 179.713 33.6605C180.223 33.6605 180.646 33.5362 180.981 33.2876C181.316 33.0424 181.483 32.638 181.483 32.0746V30.6278H181.393C181.301 30.8134 181.165 31.004 180.986 31.1996C180.81 31.3951 180.576 31.5592 180.285 31.6918C179.996 31.8243 179.634 31.8906 179.196 31.8906C178.609 31.8906 178.077 31.7531 177.6 31.478C177.126 31.1996 176.748 30.7853 176.467 30.2351C176.188 29.6816 176.049 28.9889 176.049 28.157C176.049 27.3184 176.188 26.6108 176.467 26.0341C176.748 25.4541 177.128 25.0149 177.605 24.7166C178.082 24.415 178.614 24.2642 179.201 24.2642C179.648 24.2642 180.016 24.3404 180.305 24.4929C180.596 24.642 180.828 24.8227 181.001 25.0348C181.173 25.2436 181.304 25.4408 181.393 25.6264H181.493V24.3636H183.268V32.1243C183.268 32.7772 183.112 33.3175 182.8 33.745C182.489 34.1726 182.063 34.4924 181.523 34.7045C180.982 34.9167 180.369 35.0227 179.683 35.0227ZM179.698 30.4787C180.079 30.4787 180.404 30.3859 180.673 30.2003C180.941 30.0147 181.145 29.7479 181.284 29.3999C181.423 29.0518 181.493 28.6342 181.493 28.147C181.493 27.6664 181.423 27.2455 181.284 26.8842C181.148 26.523 180.946 26.2429 180.678 26.044C180.412 25.8419 180.086 25.7408 179.698 25.7408C179.297 25.7408 178.962 25.8452 178.694 26.054C178.425 26.2628 178.223 26.5495 178.087 26.9141C177.951 27.2753 177.884 27.6863 177.884 28.147C177.884 28.6143 177.951 29.0237 178.087 29.375C178.227 29.723 178.43 29.9948 178.699 30.1903C178.971 30.3826 179.304 30.4787 179.698 30.4787ZM186.912 27.5256V32H185.112V21.8182H186.872V25.6612H186.962C187.141 25.2304 187.417 24.8906 187.792 24.642C188.17 24.3902 188.65 24.2642 189.234 24.2642C189.764 24.2642 190.226 24.3752 190.621 24.5973C191.015 24.8194 191.32 25.1442 191.536 25.5717C191.754 25.9993 191.864 26.5213 191.864 27.1378V32H190.064V27.4162C190.064 26.9025 189.931 26.5031 189.666 26.218C189.404 25.9297 189.036 25.7855 188.562 25.7855C188.244 25.7855 187.959 25.8551 187.707 25.9943C187.459 26.1302 187.263 26.3274 187.121 26.5859C186.982 26.8445 186.912 27.1577 186.912 27.5256ZM193.698 32V24.3636H195.498V32H193.698ZM194.603 23.2798C194.318 23.2798 194.073 23.1854 193.867 22.9964C193.662 22.8042 193.559 22.5739 193.559 22.3054C193.559 22.0336 193.662 21.8033 193.867 21.6143C194.073 21.4221 194.318 21.326 194.603 21.326C194.891 21.326 195.137 21.4221 195.339 21.6143C195.544 21.8033 195.647 22.0336 195.647 22.3054C195.647 22.5739 195.544 22.8042 195.339 22.9964C195.137 23.1854 194.891 23.2798 194.603 23.2798ZM200.729 32.1491C199.964 32.1491 199.302 31.9901 198.746 31.6719C198.192 31.3504 197.766 30.8963 197.468 30.3097C197.17 29.7197 197.02 29.0253 197.02 28.2266C197.02 27.4411 197.17 26.7517 197.468 26.1584C197.769 25.5618 198.19 25.0978 198.731 24.7663C199.271 24.4316 199.906 24.2642 200.635 24.2642C201.105 24.2642 201.55 24.3404 201.967 24.4929C202.388 24.642 202.759 24.8741 203.081 25.1889C203.406 25.5038 203.661 25.9048 203.846 26.392C204.032 26.8759 204.125 27.4527 204.125 28.1222V28.674H197.866V27.4609H202.4C202.396 27.1162 202.322 26.8097 202.176 26.5412C202.03 26.2694 201.826 26.0556 201.564 25.8999C201.306 25.7441 201.004 25.6662 200.66 25.6662C200.292 25.6662 199.969 25.7557 199.69 25.9347C199.412 26.1103 199.195 26.3423 199.039 26.6307C198.886 26.9157 198.809 27.2289 198.805 27.5703V28.6293C198.805 29.0734 198.886 29.4545 199.049 29.7727C199.211 30.0876 199.438 30.3295 199.73 30.4986C200.022 30.6643 200.363 30.7472 200.754 30.7472C201.016 30.7472 201.253 30.7107 201.465 30.6378C201.677 30.5616 201.861 30.4505 202.017 30.3047C202.173 30.1589 202.29 29.9782 202.37 29.7628L204.05 29.9517C203.944 30.3958 203.742 30.7836 203.444 31.1151C203.149 31.4432 202.771 31.6984 202.31 31.8807C201.849 32.0597 201.323 32.1491 200.729 32.1491ZM201.594 23.4489L200.585 22.1761L199.576 23.4489H198V23.3793L199.884 21.2315H201.291L203.17 23.3793V23.4489H201.594ZM200.585 34.7493C200.297 34.7493 200.05 34.6532 199.844 34.4609C199.642 34.2687 199.541 34.0384 199.541 33.7699C199.541 33.5014 199.642 33.2711 199.844 33.0788C200.05 32.8866 200.295 32.7905 200.58 32.7905C200.868 32.7905 201.114 32.8866 201.316 33.0788C201.521 33.2711 201.624 33.5014 201.624 33.7699C201.624 34.0384 201.521 34.2687 201.316 34.4609C201.114 34.6532 200.87 34.7493 200.585 34.7493ZM205.647 32V24.3636H207.368V25.6612H207.457C207.616 25.2237 207.88 24.8823 208.248 24.6371C208.615 24.3885 209.055 24.2642 209.565 24.2642C210.082 24.2642 210.518 24.3902 210.873 24.642C211.23 24.8906 211.482 25.2304 211.628 25.6612H211.708C211.877 25.237 212.162 24.8989 212.563 24.647C212.967 24.3918 213.446 24.2642 214 24.2642C214.702 24.2642 215.276 24.4863 215.72 24.9304C216.164 25.3745 216.386 26.0225 216.386 26.8743V32H214.581V27.1527C214.581 26.6787 214.455 26.3324 214.203 26.1136C213.952 25.8916 213.643 25.7805 213.279 25.7805C212.845 25.7805 212.505 25.9164 212.26 26.1882C212.018 26.4567 211.897 26.8063 211.897 27.2372V32H210.132V27.0781C210.132 26.6837 210.012 26.3688 209.774 26.1335C209.538 25.8982 209.23 25.7805 208.849 25.7805C208.591 25.7805 208.355 25.8468 208.143 25.9794C207.931 26.1087 207.762 26.2926 207.636 26.5312C207.51 26.7666 207.447 27.0417 207.447 27.3565V32H205.647ZM225.015 32.1491C224.253 32.1491 223.599 31.9818 223.052 31.647C222.508 31.3123 222.089 30.8499 221.794 30.2599C221.502 29.6667 221.356 28.9839 221.356 28.2116C221.356 27.4361 221.506 26.7517 221.804 26.1584C222.102 25.5618 222.523 25.0978 223.067 24.7663C223.613 24.4316 224.26 24.2642 225.006 24.2642C225.625 24.2642 226.174 24.3786 226.651 24.6072C227.132 24.8326 227.515 25.1525 227.8 25.5668C228.085 25.9777 228.247 26.4583 228.287 27.0085H226.567C226.497 26.6406 226.331 26.334 226.069 26.0888C225.811 25.8402 225.465 25.7159 225.03 25.7159C224.662 25.7159 224.339 25.8153 224.061 26.0142C223.782 26.2098 223.565 26.4915 223.41 26.8594C223.257 27.2273 223.181 27.6681 223.181 28.1818C223.181 28.7022 223.257 29.1496 223.41 29.5241C223.562 29.8954 223.776 30.1821 224.051 30.3842C224.329 30.5831 224.656 30.6825 225.03 30.6825C225.296 30.6825 225.532 30.6328 225.741 30.5334C225.953 30.4306 226.131 30.2831 226.273 30.0909C226.416 29.8987 226.514 29.665 226.567 29.3899H228.287C228.244 29.9302 228.085 30.4091 227.809 30.8267C227.534 31.241 227.16 31.5658 226.686 31.8011C226.212 32.0331 225.655 32.1491 225.015 32.1491ZM234.632 28.7884V24.3636H236.431V32H234.686V30.6428H234.607C234.435 31.0703 234.151 31.42 233.757 31.6918C233.366 31.9635 232.883 32.0994 232.31 32.0994C231.81 32.0994 231.367 31.9884 230.983 31.7663C230.601 31.541 230.303 31.2145 230.088 30.7869C229.872 30.3561 229.765 29.8357 229.765 29.2259V24.3636H231.564V28.9474C231.564 29.4313 231.697 29.8158 231.962 30.1009C232.227 30.3859 232.575 30.5284 233.006 30.5284C233.271 30.5284 233.528 30.4638 233.777 30.3345C234.025 30.2053 234.229 30.013 234.388 29.7578C234.551 29.4993 234.632 29.1761 234.632 28.7884ZM233.797 23.2898H232.424L232.355 22.3352C232.706 22.322 232.955 22.2772 233.1 22.201C233.246 22.1214 233.318 22.0121 233.314 21.8729C233.318 21.6939 233.221 21.5696 233.026 21.5C232.83 21.4304 232.588 21.3956 232.3 21.3956L232.345 20.5057C233.167 20.5057 233.79 20.625 234.214 20.8636C234.638 21.1023 234.849 21.4271 234.846 21.8381C234.849 22.1529 234.741 22.3883 234.522 22.544C234.304 22.6965 234.062 22.7926 233.797 22.8324V23.2898ZM240.48 32.1541C239.996 32.1541 239.56 32.0679 239.172 31.8956C238.788 31.7199 238.483 31.4614 238.257 31.12C238.035 30.7786 237.924 30.3577 237.924 29.8572C237.924 29.4264 238.004 29.0701 238.163 28.7884C238.322 28.5066 238.539 28.2812 238.814 28.1122C239.089 27.9432 239.399 27.8156 239.744 27.7294C240.092 27.6399 240.451 27.5753 240.823 27.5355C241.27 27.4891 241.633 27.4477 241.911 27.4112C242.19 27.3714 242.392 27.3118 242.518 27.2322C242.647 27.1494 242.712 27.0218 242.712 26.8494V26.8196C242.712 26.4451 242.601 26.1551 242.379 25.9496C242.157 25.7441 241.837 25.6413 241.419 25.6413C240.978 25.6413 240.629 25.7375 240.37 25.9297C240.115 26.1219 239.943 26.349 239.853 26.6108L238.173 26.3722C238.305 25.9081 238.524 25.5204 238.829 25.2088C239.134 24.8939 239.507 24.6586 239.948 24.5028C240.388 24.3438 240.876 24.2642 241.409 24.2642C241.777 24.2642 242.143 24.3073 242.508 24.3935C242.873 24.4796 243.206 24.6222 243.507 24.821C243.809 25.0166 244.051 25.2834 244.233 25.6214C244.419 25.9595 244.512 26.3821 244.512 26.8892V32H242.781V30.951H242.722C242.612 31.1631 242.458 31.362 242.259 31.5476C242.064 31.7299 241.817 31.8774 241.519 31.9901C241.224 32.0994 240.877 32.1541 240.48 32.1541ZM240.947 30.8317C241.308 30.8317 241.621 30.7604 241.887 30.6179C242.152 30.4721 242.356 30.2798 242.498 30.0412C242.644 29.8026 242.717 29.5424 242.717 29.2607V28.3608C242.66 28.4072 242.564 28.4503 242.428 28.4901C242.296 28.5298 242.147 28.5646 241.981 28.5945C241.815 28.6243 241.651 28.6508 241.489 28.674C241.326 28.6972 241.186 28.7171 241.066 28.7337C240.798 28.7701 240.557 28.8298 240.345 28.9126C240.133 28.9955 239.966 29.1115 239.843 29.2607C239.721 29.4065 239.659 29.5954 239.659 29.8274C239.659 30.1589 239.78 30.4091 240.022 30.5781C240.264 30.7472 240.572 30.8317 240.947 30.8317ZM253.175 32.1491C252.409 32.1491 251.748 31.9901 251.191 31.6719C250.637 31.3504 250.211 30.8963 249.913 30.3097C249.615 29.7197 249.466 29.0253 249.466 28.2266C249.466 27.4411 249.615 26.7517 249.913 26.1584C250.215 25.5618 250.636 25.0978 251.176 24.7663C251.716 24.4316 252.351 24.2642 253.08 24.2642C253.551 24.2642 253.995 24.3404 254.412 24.4929C254.833 24.642 255.205 24.8741 255.526 25.1889C255.851 25.5038 256.106 25.9048 256.292 26.392C256.477 26.8759 256.57 27.4527 256.57 28.1222V28.674H250.311V27.4609H254.845C254.842 27.1162 254.767 26.8097 254.621 26.5412C254.475 26.2694 254.272 26.0556 254.01 25.8999C253.751 25.7441 253.45 25.6662 253.105 25.6662C252.737 25.6662 252.414 25.7557 252.135 25.9347C251.857 26.1103 251.64 26.3423 251.484 26.6307C251.332 26.9157 251.254 27.2289 251.251 27.5703V28.6293C251.251 29.0734 251.332 29.4545 251.494 29.7727C251.657 30.0876 251.884 30.3295 252.175 30.4986C252.467 30.6643 252.808 30.7472 253.199 30.7472C253.461 30.7472 253.698 30.7107 253.91 30.6378C254.122 30.5616 254.306 30.4505 254.462 30.3047C254.618 30.1589 254.736 29.9782 254.815 29.7628L256.496 29.9517C256.39 30.3958 256.187 30.7836 255.889 31.1151C255.594 31.4432 255.216 31.6984 254.756 31.8807C254.295 32.0597 253.768 32.1491 253.175 32.1491ZM258.093 32V24.3636H259.813V25.6612H259.902C260.061 25.2237 260.325 24.8823 260.693 24.6371C261.061 24.3885 261.5 24.2642 262.01 24.2642C262.527 24.2642 262.963 24.3902 263.318 24.642C263.676 24.8906 263.928 25.2304 264.074 25.6612H264.153C264.322 25.237 264.607 24.8989 265.008 24.647C265.413 24.3918 265.891 24.2642 266.445 24.2642C267.148 24.2642 267.721 24.4863 268.165 24.9304C268.609 25.3745 268.831 26.0225 268.831 26.8743V32H267.027V27.1527C267.027 26.6787 266.901 26.3324 266.649 26.1136C266.397 25.8916 266.089 25.7805 265.724 25.7805C265.29 25.7805 264.95 25.9164 264.705 26.1882C264.463 26.4567 264.342 26.8063 264.342 27.2372V32H262.577V27.0781C262.577 26.6837 262.458 26.3688 262.219 26.1335C261.984 25.8982 261.676 25.7805 261.294 25.7805C261.036 25.7805 260.801 25.8468 260.588 25.9794C260.376 26.1087 260.207 26.2926 260.081 26.5312C259.955 26.7666 259.892 27.0417 259.892 27.3565V32H258.093Z" fill="#0F172A"/>
<path d="M30.4261 53H29.1932C29.1203 52.6454 28.9927 52.3338 28.8104 52.0653C28.6314 51.7969 28.4126 51.5715 28.1541 51.3892C27.8989 51.2036 27.6155 51.0644 27.304 50.9716C26.9924 50.8788 26.6676 50.8324 26.3295 50.8324C25.7131 50.8324 25.1546 50.9882 24.6541 51.2997C24.157 51.6113 23.7609 52.0703 23.4659 52.6768C23.1742 53.2834 23.0284 54.0275 23.0284 54.9091C23.0284 55.7907 23.1742 56.5348 23.4659 57.1413C23.7609 57.7479 24.157 58.2069 24.6541 58.5185C25.1546 58.83 25.7131 58.9858 26.3295 58.9858C26.6676 58.9858 26.9924 58.9394 27.304 58.8466C27.6155 58.7538 27.8989 58.6162 28.1541 58.4339C28.4126 58.2483 28.6314 58.0213 28.8104 57.7528C28.9927 57.4811 29.1203 57.1695 29.1932 56.8182H30.4261C30.3333 57.3385 30.1643 57.8042 29.919 58.2152C29.6738 58.6262 29.3688 58.9759 29.0043 59.2642C28.6397 59.5492 28.2304 59.7663 27.7763 59.9155C27.3255 60.0646 26.8433 60.1392 26.3295 60.1392C25.4612 60.1392 24.6889 59.9271 24.0128 59.5028C23.3366 59.0786 22.8047 58.4754 22.4169 57.6932C22.0291 56.911 21.8352 55.983 21.8352 54.9091C21.8352 53.8352 22.0291 52.9072 22.4169 52.125C22.8047 51.3428 23.3366 50.7396 24.0128 50.3153C24.6889 49.8911 25.4612 49.679 26.3295 49.679C26.8433 49.679 27.3255 49.7536 27.7763 49.9027C28.2304 50.0518 28.6397 50.2706 29.0043 50.5589C29.3688 50.844 29.6738 51.192 29.919 51.603C30.1643 52.0107 30.3333 52.4763 30.4261 53ZM31.8617 50.9119V49.8182H39.498V50.9119H36.2963V60H35.0634V50.9119H31.8617ZM46.9691 52.3636C46.9094 51.8598 46.6675 51.4688 46.2433 51.1903C45.819 50.9119 45.2987 50.7727 44.6822 50.7727C44.2314 50.7727 43.837 50.8456 43.4989 50.9915C43.1642 51.1373 42.9023 51.3378 42.7134 51.593C42.5278 51.8482 42.435 52.1383 42.435 52.4631C42.435 52.7348 42.4996 52.9685 42.6289 53.1641C42.7615 53.3563 42.9305 53.517 43.136 53.6463C43.3415 53.7723 43.5569 53.8767 43.7823 53.9595C44.0077 54.0391 44.2148 54.1037 44.4038 54.1534L45.4379 54.4318C45.703 54.5014 45.998 54.5975 46.3228 54.7202C46.6509 54.8428 46.9641 55.0102 47.2624 55.2223C47.564 55.4311 47.8126 55.6996 48.0082 56.0277C48.2037 56.3558 48.3015 56.7585 48.3015 57.2358C48.3015 57.786 48.1573 58.2831 47.869 58.7273C47.5839 59.1714 47.1663 59.5244 46.6161 59.7862C46.0692 60.0481 45.4047 60.179 44.6225 60.179C43.8933 60.179 43.262 60.0613 42.7283 59.826C42.198 59.5907 41.7804 59.2625 41.4755 58.8416C41.1739 58.4207 41.0032 57.9318 40.9634 57.375H42.2362C42.2693 57.7595 42.3986 58.0777 42.6239 58.3295C42.8526 58.5781 43.141 58.7637 43.489 58.8864C43.8403 59.0057 44.2182 59.0653 44.6225 59.0653C45.0932 59.0653 45.5157 58.9891 45.8903 58.8366C46.2648 58.6809 46.5614 58.4654 46.7802 58.1903C46.9989 57.9119 47.1083 57.5871 47.1083 57.2159C47.1083 56.8778 47.0138 56.6027 46.8249 56.3906C46.636 56.1785 46.3874 56.0062 46.0792 55.8736C45.771 55.741 45.4379 55.625 45.0799 55.5256L43.8271 55.1676C43.0316 54.9389 42.4019 54.6125 41.9379 54.1882C41.4738 53.764 41.2418 53.2088 41.2418 52.5227C41.2418 51.9527 41.396 51.4555 41.7042 51.0312C42.0157 50.6037 42.4334 50.2723 42.957 50.0369C43.484 49.7983 44.0723 49.679 44.7219 49.679C45.3782 49.679 45.9615 49.7966 46.4719 50.032C46.9824 50.264 47.3867 50.5821 47.685 50.9865C47.9866 51.3909 48.1457 51.8499 48.1623 52.3636H46.9691ZM49.7718 50.9119V49.8182H57.4082V50.9119H54.2065V60H52.9735V50.9119H49.7718ZM67.4645 54.3622V55.456H63.0099V54.3622H67.4645ZM73.6255 60V49.8182H77.1852C77.8945 49.8182 78.4795 49.9408 78.9402 50.1861C79.4009 50.428 79.7439 50.7545 79.9693 51.1655C80.1947 51.5732 80.3074 52.0256 80.3074 52.5227C80.3074 52.9602 80.2295 53.3215 80.0737 53.6065C79.9212 53.8916 79.719 54.117 79.4672 54.2827C79.2186 54.4484 78.9484 54.571 78.6568 54.6506V54.75C78.9683 54.7699 79.2815 54.8793 79.5964 55.0781C79.9113 55.277 80.1748 55.562 80.3869 55.9332C80.599 56.3045 80.7051 56.7585 80.7051 57.2955C80.7051 57.8059 80.5891 58.2649 80.3571 58.6726C80.1251 59.0803 79.7588 59.4034 79.2583 59.642C78.7579 59.8807 78.1066 60 77.3045 60H73.6255ZM74.8585 58.9062H77.3045C78.1099 58.9062 78.6816 58.7505 79.0197 58.4389C79.3611 58.1241 79.5318 57.7429 79.5318 57.2955C79.5318 56.9508 79.444 56.6326 79.2683 56.3409C79.0926 56.0459 78.8424 55.8106 78.5176 55.6349C78.1928 55.456 77.8083 55.3665 77.3642 55.3665H74.8585V58.9062ZM74.8585 54.2926H77.1454C77.5166 54.2926 77.8514 54.2197 78.1497 54.0739C78.4513 53.928 78.6899 53.7225 78.8656 53.4574C79.0446 53.1922 79.1341 52.8807 79.1341 52.5227C79.1341 52.0753 78.9783 51.6958 78.6667 51.3842C78.3552 51.0694 77.8613 50.9119 77.1852 50.9119H74.8585V54.2926ZM84.8191 60.179C84.3352 60.179 83.896 60.0878 83.5016 59.9055C83.1072 59.7199 82.794 59.4531 82.562 59.1051C82.33 58.7538 82.214 58.3295 82.214 57.8324C82.214 57.3949 82.3001 57.0402 82.4725 56.7685C82.6448 56.4934 82.8752 56.2779 83.1635 56.1222C83.4519 55.9664 83.7701 55.8504 84.1181 55.7741C84.4694 55.6946 84.8224 55.6316 85.177 55.5852C85.641 55.5256 86.0172 55.4808 86.3056 55.451C86.5972 55.4179 86.8094 55.3632 86.9419 55.2869C87.0778 55.2107 87.1458 55.0781 87.1458 54.8892V54.8494C87.1458 54.3589 87.0115 53.9777 86.7431 53.706C86.4779 53.4342 86.0752 53.2983 85.535 53.2983C84.9748 53.2983 84.5357 53.4209 84.2175 53.6662C83.8993 53.9115 83.6756 54.1733 83.5463 54.4517L82.4327 54.054C82.6316 53.59 82.8967 53.2287 83.2282 52.9702C83.5629 52.7083 83.9275 52.526 84.3219 52.4233C84.7196 52.3172 85.1107 52.2642 85.4952 52.2642C85.7405 52.2642 86.0222 52.294 86.3404 52.3537C86.6619 52.41 86.9718 52.5277 87.2701 52.7067C87.5717 52.8857 87.8219 53.1558 88.0208 53.517C88.2196 53.8783 88.3191 54.3622 88.3191 54.9688V60H87.1458V58.9659H87.0861C87.0066 59.1316 86.874 59.3089 86.6884 59.4979C86.5028 59.6868 86.2559 59.8475 85.9476 59.9801C85.6394 60.1127 85.2632 60.179 84.8191 60.179ZM84.998 59.125C85.4621 59.125 85.8532 59.0339 86.1713 58.8516C86.4928 58.6693 86.7348 58.4339 86.8972 58.1456C87.0629 57.8572 87.1458 57.554 87.1458 57.2358V56.1619C87.0961 56.2216 86.9867 56.2763 86.8176 56.326C86.6519 56.3724 86.4597 56.4138 86.2409 56.4503C86.0255 56.4834 85.815 56.5133 85.6096 56.5398C85.4074 56.563 85.2433 56.5829 85.1174 56.5994C84.8124 56.6392 84.5274 56.7038 84.2623 56.7933C84.0004 56.8795 83.7883 57.0104 83.6259 57.1861C83.4668 57.3584 83.3873 57.5937 83.3873 57.892C83.3873 58.2997 83.5381 58.608 83.8397 58.8168C84.1446 59.0223 84.5307 59.125 84.998 59.125ZM85.0776 51.3295L83.5265 49.0227H84.8986L86.1117 51.3295H85.0776ZM90.4606 60V52.3636H91.6339V60H90.4606ZM91.0572 51.0909C90.8285 51.0909 90.6313 51.013 90.4656 50.8572C90.3031 50.7015 90.2219 50.5142 90.2219 50.2955C90.2219 50.0767 90.3031 49.8894 90.4656 49.7337C90.6313 49.5779 90.8285 49.5 91.0572 49.5C91.2859 49.5 91.4814 49.5779 91.6438 49.7337C91.8095 49.8894 91.8924 50.0767 91.8924 50.2955C91.8924 50.5142 91.8095 50.7015 91.6438 50.8572C91.4814 51.013 91.2859 51.0909 91.0572 51.0909ZM97.4618 57.9119V56.8977L101.936 49.8182H102.672V51.3892H102.175L98.7942 56.7386V56.8182H104.82V57.9119H97.4618ZM102.254 60V57.6037V57.1314V49.8182H103.428V60H102.254ZM107.558 58.6974C107.313 58.6974 107.102 58.6096 106.926 58.4339C106.751 58.2583 106.663 58.0478 106.663 57.8026C106.663 57.5573 106.751 57.3468 106.926 57.1712C107.102 56.9955 107.313 56.9077 107.558 56.9077C107.803 56.9077 108.014 56.9955 108.189 57.1712C108.365 57.3468 108.453 57.5573 108.453 57.8026C108.453 57.965 108.411 58.1141 108.328 58.25C108.249 58.3859 108.141 58.4953 108.005 58.5781C107.873 58.6577 107.724 58.6974 107.558 58.6974ZM107.558 53.5469C107.313 53.5469 107.102 53.459 106.926 53.2834C106.751 53.1077 106.663 52.8973 106.663 52.652C106.663 52.4067 106.751 52.1963 106.926 52.0206C107.102 51.8449 107.313 51.7571 107.558 51.7571C107.803 51.7571 108.014 51.8449 108.189 52.0206C108.365 52.1963 108.453 52.4067 108.453 52.652C108.453 52.8144 108.411 52.9635 108.328 53.0994C108.249 53.2353 108.141 53.3447 108.005 53.4276C107.873 53.5071 107.724 53.5469 107.558 53.5469ZM122.729 49.8182V60H121.536L115.987 52.0057H115.888V60H114.655V49.8182H115.848L121.416 57.8324H121.516V49.8182H122.729ZM125.196 60V49.8182H126.429V54.3523H131.858V49.8182H133.091V60H131.858V55.446H126.429V60H125.196ZM144.607 49.2017H145.761C145.761 49.8513 145.663 50.3982 145.468 50.8423C145.275 51.2831 144.964 51.6179 144.533 51.8466C144.105 52.072 143.54 52.1847 142.838 52.1847V51.2102C143.302 51.2102 143.661 51.134 143.916 50.9815C144.175 50.8291 144.354 50.6037 144.453 50.3054C144.556 50.0071 144.607 49.6392 144.607 49.2017ZM142.241 49.8182H143.474V56.5597C143.474 57.2557 143.31 57.8771 142.982 58.424C142.657 58.9676 142.198 59.3968 141.605 59.7116C141.011 60.0232 140.315 60.179 139.517 60.179C138.718 60.179 138.022 60.0232 137.428 59.7116C136.835 59.3968 136.374 58.9676 136.046 58.424C135.722 57.8771 135.559 57.2557 135.559 56.5597V49.8182H136.792V56.4602C136.792 56.9574 136.901 57.3999 137.12 57.7876C137.339 58.1721 137.651 58.4754 138.055 58.6974C138.463 58.9162 138.95 59.0256 139.517 59.0256C140.083 59.0256 140.57 58.9162 140.978 58.6974C141.386 58.4754 141.697 58.1721 141.913 57.7876C142.132 57.3999 142.241 56.9574 142.241 56.4602V49.8182ZM137.985 48.9034L137.07 48.8636C137.07 48.3565 137.215 47.9422 137.503 47.6207C137.795 47.2959 138.154 47.1335 138.582 47.1335C138.771 47.1335 138.938 47.1667 139.084 47.233C139.23 47.2959 139.369 47.3688 139.502 47.4517C139.634 47.5346 139.77 47.6091 139.909 47.6754C140.052 47.7384 140.213 47.7699 140.392 47.7699C140.58 47.7699 140.74 47.697 140.869 47.5511C141.001 47.402 141.068 47.223 141.068 47.0142L141.963 47.0938C141.963 47.6108 141.817 48.0218 141.525 48.3267C141.237 48.6316 140.879 48.7841 140.451 48.7841C140.222 48.7841 140.034 48.7526 139.884 48.6896C139.735 48.6233 139.603 48.5488 139.487 48.4659C139.371 48.383 139.248 48.3101 139.119 48.2472C138.99 48.1809 138.83 48.1477 138.642 48.1477C138.453 48.1477 138.295 48.2223 138.169 48.3714C138.047 48.5173 137.985 48.6946 137.985 48.9034ZM155.746 49.8182V60H154.553L149.005 52.0057H148.905V60H147.672V49.8182H148.866L154.434 57.8324H154.533V49.8182H155.746ZM165.174 53C165.064 52.6652 164.92 52.3653 164.741 52.1001C164.565 51.8317 164.355 51.603 164.11 51.4141C163.868 51.2251 163.593 51.081 163.284 50.9815C162.976 50.8821 162.638 50.8324 162.27 50.8324C161.667 50.8324 161.118 50.9882 160.625 51.2997C160.131 51.6113 159.738 52.0703 159.446 52.6768C159.155 53.2834 159.009 54.0275 159.009 54.9091C159.009 55.7907 159.156 56.5348 159.451 57.1413C159.746 57.7479 160.146 58.2069 160.65 58.5185C161.153 58.83 161.72 58.9858 162.35 58.9858C162.933 58.9858 163.447 58.8615 163.891 58.6129C164.338 58.361 164.686 58.0064 164.935 57.549C165.187 57.0883 165.313 56.5464 165.313 55.9233L165.691 56.0028H162.628V54.9091H166.506V56.0028C166.506 56.8414 166.327 57.5705 165.969 58.1903C165.614 58.8101 165.124 59.2907 164.498 59.6321C163.874 59.9702 163.158 60.1392 162.35 60.1392C161.448 60.1392 160.656 59.9271 159.973 59.5028C159.294 59.0786 158.764 58.4754 158.382 57.6932C158.005 56.911 157.816 55.983 157.816 54.9091C157.816 54.1037 157.923 53.3795 158.139 52.7365C158.358 52.0902 158.666 51.54 159.064 51.0859C159.461 50.6319 159.932 50.2839 160.475 50.0419C161.019 49.8 161.617 49.679 162.27 49.679C162.807 49.679 163.308 49.7602 163.772 49.9226C164.239 50.0817 164.655 50.3087 165.02 50.6037C165.387 50.8954 165.694 51.245 165.939 51.6527C166.185 52.0571 166.354 52.5062 166.446 53H165.174ZM171.998 50.9119V49.8182H179.635V50.9119H176.433V60H175.2V50.9119H171.998ZM181.538 60V49.8182H184.978C185.773 49.8182 186.426 49.9541 186.937 50.2259C187.447 50.4943 187.825 50.8639 188.07 51.3345C188.316 51.8052 188.438 52.3404 188.438 52.9403C188.438 53.5402 188.316 54.0722 188.07 54.5362C187.825 55.0002 187.449 55.3648 186.942 55.63C186.435 55.8918 185.787 56.0227 184.998 56.0227H182.214V54.9091H184.958C185.502 54.9091 185.939 54.8295 186.271 54.6705C186.605 54.5114 186.847 54.286 186.996 53.9943C187.149 53.6993 187.225 53.348 187.225 52.9403C187.225 52.5327 187.149 52.1764 186.996 51.8714C186.844 51.5665 186.6 51.3312 186.266 51.1655C185.931 50.9964 185.488 50.9119 184.938 50.9119H182.771V60H181.538ZM186.33 55.4261L188.836 60H187.404L184.938 55.4261H186.33ZM190.91 60H189.618L193.356 49.8182H194.629L198.368 60H197.075L194.032 51.429H193.953L190.91 60ZM191.388 56.0227H196.598V57.1165H191.388V56.0227ZM194.51 48.7841H193.535V47.7102C193.883 47.6903 194.129 47.6423 194.271 47.5661C194.417 47.4898 194.49 47.3722 194.49 47.2131C194.49 47.0341 194.385 46.9032 194.177 46.8203C193.968 46.7375 193.714 46.696 193.416 46.696L193.456 45.9403C194.142 45.9403 194.661 46.0597 195.012 46.2983C195.367 46.5369 195.544 46.8551 195.544 47.2528C195.544 47.5909 195.436 47.8378 195.221 47.9936C195.005 48.1494 194.768 48.2472 194.51 48.2869V48.7841ZM201.187 49.8182V60H199.954V49.8182H201.187ZM215.67 49.8182V60H214.477L208.929 52.0057H208.829V60H207.596V49.8182H208.789L214.358 57.8324H214.457V49.8182H215.67ZM225.097 53C224.988 52.6652 224.844 52.3653 224.665 52.1001C224.489 51.8317 224.279 51.603 224.034 51.4141C223.792 51.2251 223.517 51.081 223.208 50.9815C222.9 50.8821 222.562 50.8324 222.194 50.8324C221.591 50.8324 221.042 50.9882 220.548 51.2997C220.055 51.6113 219.662 52.0703 219.37 52.6768C219.079 53.2834 218.933 54.0275 218.933 54.9091C218.933 55.7907 219.08 56.5348 219.375 57.1413C219.67 57.7479 220.07 58.2069 220.573 58.5185C221.077 58.83 221.644 58.9858 222.274 58.9858C222.857 58.9858 223.371 58.8615 223.815 58.6129C224.262 58.361 224.61 58.0064 224.859 57.549C225.111 57.0883 225.237 56.5464 225.237 55.9233L225.615 56.0028H222.552V54.9091H226.43V56.0028C226.43 56.8414 226.251 57.5705 225.893 58.1903C225.538 58.8101 225.048 59.2907 224.421 59.6321C223.798 59.9702 223.082 60.1392 222.274 60.1392C221.372 60.1392 220.58 59.9271 219.897 59.5028C219.218 59.0786 218.687 58.4754 218.306 57.6932C217.928 56.911 217.74 55.983 217.74 54.9091C217.74 54.1037 217.847 53.3795 218.063 52.7365C218.281 52.0902 218.59 51.54 218.987 51.0859C219.385 50.6319 219.856 50.2839 220.399 50.0419C220.943 49.8 221.541 49.679 222.194 49.679C222.731 49.679 223.231 49.7602 223.695 49.9226C224.163 50.0817 224.579 50.3087 224.943 50.6037C225.311 50.8954 225.618 51.245 225.863 51.6527C226.108 52.0571 226.277 52.5062 226.37 53H225.097ZM228.542 60V49.8182H229.775V54.3523H235.203V49.8182H236.436V60H235.203V55.446H229.775V60H228.542ZM240.138 49.8182V60H238.905V49.8182H240.138ZM242.61 60V49.8182H248.755V50.9119H243.843V54.3523H248.437V55.446H243.843V58.9062H248.834V60H242.61ZM246.706 48.9034L245.672 47.5114L244.638 48.9034H243.525V48.8239L245.135 46.7557H246.209L247.82 48.8239V48.9034H246.706ZM245.573 62.5256C245.344 62.5256 245.147 62.4477 244.981 62.2919C244.819 62.1361 244.738 61.9489 244.738 61.7301C244.738 61.5114 244.819 61.3241 244.981 61.1683C245.147 61.0125 245.344 60.9347 245.573 60.9347C245.802 60.9347 245.997 61.0125 246.16 61.1683C246.325 61.3241 246.408 61.5114 246.408 61.7301C246.408 61.9489 246.325 62.1361 246.16 62.2919C245.997 62.4477 245.802 62.5256 245.573 62.5256ZM250.977 49.8182H252.449L255.909 58.2699H256.028L259.488 49.8182H260.96V60H259.807V52.2642H259.707L256.525 60H255.412L252.23 52.2642H252.131V60H250.977V49.8182ZM266.813 50.9119V49.8182H274.449V50.9119H271.248V60H270.015V50.9119H266.813ZM276.352 60V49.8182H279.792C280.588 49.8182 281.241 49.9541 281.751 50.2259C282.262 50.4943 282.64 50.8639 282.885 51.3345C283.13 51.8052 283.253 52.3404 283.253 52.9403C283.253 53.5402 283.13 54.0722 282.885 54.5362C282.64 55.0002 282.263 55.3648 281.756 55.63C281.249 55.8918 280.601 56.0227 279.812 56.0227H277.028V54.9091H279.773C280.316 54.9091 280.754 54.8295 281.085 54.6705C281.42 54.5114 281.662 54.286 281.811 53.9943C281.963 53.6993 282.04 53.348 282.04 52.9403C282.04 52.5327 281.963 52.1764 281.811 51.8714C281.658 51.5665 281.415 51.3312 281.08 51.1655C280.745 50.9964 280.303 50.9119 279.753 50.9119H277.585V60H276.352ZM281.145 55.4261L283.65 60H282.219L279.753 55.4261H281.145ZM293.898 54.9091C293.898 55.983 293.704 56.911 293.316 57.6932C292.929 58.4754 292.397 59.0786 291.721 59.5028C291.044 59.9271 290.272 60.1392 289.404 60.1392C288.535 60.1392 287.763 59.9271 287.087 59.5028C286.411 59.0786 285.879 58.4754 285.491 57.6932C285.103 56.911 284.909 55.983 284.909 54.9091C284.909 53.8352 285.103 52.9072 285.491 52.125C285.879 51.3428 286.411 50.7396 287.087 50.3153C287.763 49.8911 288.535 49.679 289.404 49.679C290.272 49.679 291.044 49.8911 291.721 50.3153C292.397 50.7396 292.929 51.3428 293.316 52.125C293.704 52.9072 293.898 53.8352 293.898 54.9091ZM292.705 54.9091C292.705 54.0275 292.557 53.2834 292.262 52.6768C291.971 52.0703 291.575 51.6113 291.074 51.2997C290.577 50.9882 290.02 50.8324 289.404 50.8324C288.787 50.8324 288.229 50.9882 287.728 51.2997C287.231 51.6113 286.835 52.0703 286.54 52.6768C286.248 53.2834 286.103 54.0275 286.103 54.9091C286.103 55.7907 286.248 56.5348 286.54 57.1413C286.835 57.7479 287.231 58.2069 287.728 58.5185C288.229 58.83 288.787 58.9858 289.404 58.9858C290.02 58.9858 290.577 58.83 291.074 58.5185C291.575 58.2069 291.971 57.7479 292.262 57.1413C292.557 56.5348 292.705 55.7907 292.705 54.9091ZM304.045 49.8182V60H302.852L297.304 52.0057H297.204V60H295.971V49.8182H297.164L302.733 57.8324H302.832V49.8182H304.045ZM313.472 53C313.363 52.6652 313.219 52.3653 313.04 52.1001C312.864 51.8317 312.654 51.603 312.409 51.4141C312.167 51.2251 311.892 51.081 311.583 50.9815C311.275 50.8821 310.937 50.8324 310.569 50.8324C309.966 50.8324 309.417 50.9882 308.923 51.2997C308.43 51.6113 308.037 52.0703 307.745 52.6768C307.454 53.2834 307.308 54.0275 307.308 54.9091C307.308 55.7907 307.455 56.5348 307.75 57.1413C308.045 57.7479 308.445 58.2069 308.948 58.5185C309.452 58.83 310.019 58.9858 310.649 58.9858C311.232 58.9858 311.746 58.8615 312.19 58.6129C312.637 58.361 312.985 58.0064 313.234 57.549C313.486 57.0883 313.612 56.5464 313.612 55.9233L313.99 56.0028H310.927V54.9091H314.805V56.0028C314.805 56.8414 314.626 57.5705 314.268 58.1903C313.913 58.8101 313.423 59.2907 312.796 59.6321C312.173 59.9702 311.457 60.1392 310.649 60.1392C309.747 60.1392 308.955 59.9271 308.272 59.5028C307.593 59.0786 307.062 58.4754 306.681 57.6932C306.303 56.911 306.115 55.983 306.115 54.9091C306.115 54.1037 306.222 53.3795 306.438 52.7365C306.656 52.0902 306.965 51.54 307.362 51.0859C307.76 50.6319 308.231 50.2839 308.774 50.0419C309.318 49.8 309.916 49.679 310.569 49.679C311.106 49.679 311.606 49.7602 312.07 49.9226C312.538 50.0817 312.954 50.3087 313.318 50.6037C313.686 50.8954 313.993 51.245 314.238 51.6527C314.483 52.0571 314.652 52.5062 314.745 53H313.472ZM323.996 60H321.55V58.9062H323.917C324.758 58.9062 325.456 58.7438 326.01 58.419C326.563 58.0942 326.976 57.6319 327.248 57.032C327.519 56.4321 327.655 55.7178 327.655 54.8892C327.655 54.0672 327.521 53.3596 327.252 52.7663C326.984 52.1697 326.583 51.7124 326.049 51.3942C325.516 51.0727 324.851 50.9119 324.056 50.9119H321.49V49.8182H324.135C325.123 49.8182 325.968 50.022 326.671 50.4297C327.373 50.834 327.912 51.4157 328.287 52.1747C328.661 52.9304 328.848 53.8352 328.848 54.8892C328.848 55.9498 328.659 56.8629 328.282 57.6286C327.904 58.3909 327.354 58.9775 326.631 59.3885C325.908 59.7962 325.03 60 323.996 60ZM322.087 49.8182V60H320.854V49.8182H322.087ZM319.283 55.2074V54.2926H323.658V55.2074H319.283ZM339.15 49.0824H340.323C340.323 49.9773 340.099 50.6683 339.652 51.1555C339.208 51.6428 338.543 51.8864 337.658 51.8864V50.9119C338.175 50.9119 338.553 50.7512 338.792 50.4297C339.03 50.1082 339.15 49.6591 339.15 49.0824ZM339.507 54.9091C339.507 55.983 339.314 56.911 338.926 57.6932C338.538 58.4754 338.006 59.0786 337.33 59.5028C336.654 59.9271 335.882 60.1392 335.013 60.1392C334.145 60.1392 333.373 59.9271 332.696 59.5028C332.02 59.0786 331.488 58.4754 331.1 57.6932C330.713 56.911 330.519 55.983 330.519 54.9091C330.519 53.8352 330.713 52.9072 331.1 52.125C331.488 51.3428 332.02 50.7396 332.696 50.3153C333.373 49.8911 334.145 49.679 335.013 49.679C335.882 49.679 336.654 49.8911 337.33 50.3153C338.006 50.7396 338.538 51.3428 338.926 52.125C339.314 52.9072 339.507 53.8352 339.507 54.9091ZM338.314 54.9091C338.314 54.0275 338.167 53.2834 337.872 52.6768C337.58 52.0703 337.184 51.6113 336.684 51.2997C336.186 50.9882 335.63 50.8324 335.013 50.8324C334.397 50.8324 333.838 50.9882 333.338 51.2997C332.841 51.6113 332.444 52.0703 332.15 52.6768C331.858 53.2834 331.712 54.0275 331.712 54.9091C331.712 55.7907 331.858 56.5348 332.15 57.1413C332.444 57.7479 332.841 58.2069 333.338 58.5185C333.838 58.83 334.397 58.9858 335.013 58.9858C335.63 58.9858 336.186 58.83 336.684 58.5185C337.184 58.2069 337.58 57.7479 337.872 57.1413C338.167 56.5348 338.314 55.7907 338.314 54.9091ZM334.516 48.7841L332.965 46.4773H334.337L335.55 48.7841H334.516ZM342.991 49.8182V60H341.758V49.8182H342.991Z" fill="#0F172A"/>
<path d="M22.233 98V87.8182H23.4659V92.8693H23.5852L28.1591 87.8182H29.7699L25.4943 92.4119L29.7699 98H28.2784L24.7386 93.267L23.4659 94.6989V98H22.233ZM39.4396 87.8182V98H38.2464L32.6982 90.0057H32.5987V98H31.3658V87.8182H32.5589L38.1271 95.8324H38.2266V87.8182H39.4396ZM41.35 88.9119V87.8182H48.9863V88.9119H45.7846V98H44.5517V88.9119H41.35ZM50.3324 88.9119V87.8182H57.9688V88.9119H54.767V98H53.5341V88.9119H50.3324ZM68.025 92.3622V93.456H63.5705V92.3622H68.025ZM74.1861 98V87.8182H77.7457C78.455 87.8182 79.04 87.9408 79.5007 88.1861C79.9614 88.428 80.3045 88.7545 80.5298 89.1655C80.7552 89.5732 80.8679 90.0256 80.8679 90.5227C80.8679 90.9602 80.79 91.3215 80.6342 91.6065C80.4818 91.8916 80.2796 92.117 80.0277 92.2827C79.7791 92.4484 79.509 92.571 79.2173 92.6506V92.75C79.5289 92.7699 79.8421 92.8793 80.157 93.0781C80.4718 93.277 80.7353 93.562 80.9474 93.9332C81.1596 94.3045 81.2656 94.7585 81.2656 95.2955C81.2656 95.8059 81.1496 96.2649 80.9176 96.6726C80.6856 97.0803 80.3194 97.4034 79.8189 97.642C79.3184 97.8807 78.6671 98 77.8651 98H74.1861ZM75.419 96.9062H77.8651C78.6705 96.9062 79.2422 96.7505 79.5803 96.4389C79.9216 96.1241 80.0923 95.7429 80.0923 95.2955C80.0923 94.9508 80.0045 94.6326 79.8288 94.3409C79.6532 94.0459 79.4029 93.8106 79.0781 93.6349C78.7533 93.456 78.3688 93.3665 77.9247 93.3665H75.419V96.9062ZM75.419 92.2926H77.706C78.0772 92.2926 78.4119 92.2197 78.7102 92.0739C79.0118 91.928 79.2505 91.7225 79.4261 91.4574C79.6051 91.1922 79.6946 90.8807 79.6946 90.5227C79.6946 90.0753 79.5388 89.6958 79.2273 89.3842C78.9157 89.0694 78.4219 88.9119 77.7457 88.9119H75.419V92.2926ZM85.3796 98.179C84.8957 98.179 84.4566 98.0878 84.0621 97.9055C83.6677 97.7199 83.3545 97.4531 83.1225 97.1051C82.8905 96.7538 82.7745 96.3295 82.7745 95.8324C82.7745 95.3949 82.8607 95.0402 83.033 94.7685C83.2054 94.4934 83.4357 94.2779 83.7241 94.1222C84.0124 93.9664 84.3306 93.8504 84.6786 93.7741C85.0299 93.6946 85.3829 93.6316 85.7376 93.5852C86.2016 93.5256 86.5778 93.4808 86.8661 93.451C87.1578 93.4179 87.3699 93.3632 87.5025 93.2869C87.6384 93.2107 87.7063 93.0781 87.7063 92.8892V92.8494C87.7063 92.3589 87.5721 91.9777 87.3036 91.706C87.0385 91.4342 86.6358 91.2983 86.0955 91.2983C85.5354 91.2983 85.0962 91.4209 84.7781 91.6662C84.4599 91.9115 84.2362 92.1733 84.1069 92.4517L82.9933 92.054C83.1921 91.59 83.4573 91.2287 83.7887 90.9702C84.1235 90.7083 84.488 90.526 84.8825 90.4233C85.2802 90.3172 85.6713 90.2642 86.0558 90.2642C86.301 90.2642 86.5827 90.294 86.9009 90.3537C87.2224 90.41 87.5323 90.5277 87.8306 90.7067C88.1322 90.8857 88.3825 91.1558 88.5813 91.517C88.7802 91.8783 88.8796 92.3622 88.8796 92.9688V98H87.7063V96.9659H87.6467C87.5671 97.1316 87.4345 97.3089 87.2489 97.4979C87.0633 97.6868 86.8164 97.8475 86.5082 97.9801C86.1999 98.1127 85.8237 98.179 85.3796 98.179ZM85.5586 97.125C86.0226 97.125 86.4137 97.0339 86.7319 96.8516C87.0534 96.6693 87.2953 96.4339 87.4577 96.1456C87.6235 95.8572 87.7063 95.554 87.7063 95.2358V94.1619C87.6566 94.2216 87.5472 94.2763 87.3782 94.326C87.2125 94.3724 87.0202 94.4138 86.8015 94.4503C86.5861 94.4834 86.3756 94.5133 86.1701 94.5398C85.9679 94.563 85.8039 94.5829 85.6779 94.5994C85.373 94.6392 85.0879 94.7038 84.8228 94.7933C84.561 94.8795 84.3488 95.0104 84.1864 95.1861C84.0273 95.3584 83.9478 95.5937 83.9478 95.892C83.9478 96.2997 84.0986 96.608 84.4002 96.8168C84.7051 97.0223 85.0913 97.125 85.5586 97.125ZM85.6381 89.3295L84.087 87.0227H85.4592L86.6722 89.3295H85.6381ZM91.0211 98V90.3636H92.1944V98H91.0211ZM91.6177 89.0909C91.389 89.0909 91.1918 89.013 91.0261 88.8572C90.8637 88.7015 90.7825 88.5142 90.7825 88.2955C90.7825 88.0767 90.8637 87.8894 91.0261 87.7337C91.1918 87.5779 91.389 87.5 91.6177 87.5C91.8464 87.5 92.042 87.5779 92.2044 87.7337C92.3701 87.8894 92.4529 88.0767 92.4529 88.2955C92.4529 88.5142 92.3701 88.7015 92.2044 88.8572C92.042 89.013 91.8464 89.0909 91.6177 89.0909ZM101.841 87.8182V98H100.608V89.1108H100.548L98.0621 90.7614V89.5085L100.608 87.8182H101.841ZM105.644 96.6974C105.399 96.6974 105.188 96.6096 105.012 96.4339C104.837 96.2583 104.749 96.0478 104.749 95.8026C104.749 95.5573 104.837 95.3468 105.012 95.1712C105.188 94.9955 105.399 94.9077 105.644 94.9077C105.889 94.9077 106.1 94.9955 106.275 95.1712C106.451 95.3468 106.539 95.5573 106.539 95.8026C106.539 95.965 106.497 96.1141 106.414 96.25C106.335 96.3859 106.227 96.4953 106.091 96.5781C105.959 96.6577 105.81 96.6974 105.644 96.6974ZM105.644 91.5469C105.399 91.5469 105.188 91.459 105.012 91.2834C104.837 91.1077 104.749 90.8973 104.749 90.652C104.749 90.4067 104.837 90.1963 105.012 90.0206C105.188 89.8449 105.399 89.7571 105.644 89.7571C105.889 89.7571 106.1 89.8449 106.275 90.0206C106.451 90.1963 106.539 90.4067 106.539 90.652C106.539 90.8144 106.497 90.9635 106.414 91.0994C106.335 91.2353 106.227 91.3447 106.091 91.4276C105.959 91.5071 105.81 91.5469 105.644 91.5469ZM112.184 88.9119V87.8182H119.82V88.9119H116.619V98H115.386V88.9119H112.184ZM129.89 92.9091C129.89 93.983 129.696 94.911 129.309 95.6932C128.921 96.4754 128.389 97.0786 127.713 97.5028C127.037 97.9271 126.264 98.1392 125.396 98.1392C124.528 98.1392 123.755 97.9271 123.079 97.5028C122.403 97.0786 121.871 96.4754 121.483 95.6932C121.096 94.911 120.902 93.983 120.902 92.9091C120.902 91.8352 121.096 90.9072 121.483 90.125C121.871 89.3428 122.403 88.7396 123.079 88.3153C123.755 87.8911 124.528 87.679 125.396 87.679C126.264 87.679 127.037 87.8911 127.713 88.3153C128.389 88.7396 128.921 89.3428 129.309 90.125C129.696 90.9072 129.89 91.8352 129.89 92.9091ZM128.697 92.9091C128.697 92.0275 128.55 91.2834 128.255 90.6768C127.963 90.0703 127.567 89.6113 127.066 89.2997C126.569 88.9882 126.012 88.8324 125.396 88.8324C124.779 88.8324 124.221 88.9882 123.721 89.2997C123.223 89.6113 122.827 90.0703 122.532 90.6768C122.241 91.2834 122.095 92.0275 122.095 92.9091C122.095 93.7907 122.241 94.5348 122.532 95.1413C122.827 95.7479 123.223 96.2069 123.721 96.5185C124.221 96.83 124.779 96.9858 125.396 96.9858C126.012 96.9858 126.569 96.83 127.066 96.5185C127.567 96.2069 127.963 95.7479 128.255 95.1413C128.55 94.5348 128.697 93.7907 128.697 92.9091ZM126.43 86.9034L125.396 85.5114L124.362 86.9034H123.248V86.8239L124.859 84.7557H125.933L127.544 86.8239V86.9034H126.43ZM133.196 87.8182V98H131.963V87.8182H133.196ZM140.024 87.8182L143.046 96.3892H143.166L146.188 87.8182H147.481L143.742 98H142.47L138.731 87.8182H140.024ZM148.61 98H147.317L151.056 87.8182H152.328L156.067 98H154.774L151.732 89.429H151.652L148.61 98ZM149.087 94.0227H154.297V95.1165H149.087V94.0227ZM151.195 86.7841L149.644 84.4773H151.016L152.229 86.7841H151.195ZM169.784 91H168.551C168.478 90.6454 168.35 90.3338 168.168 90.0653C167.989 89.7969 167.77 89.5715 167.512 89.3892C167.256 89.2036 166.973 89.0644 166.661 88.9716C166.35 88.8788 166.025 88.8324 165.687 88.8324C165.07 88.8324 164.512 88.9882 164.012 89.2997C163.514 89.6113 163.118 90.0703 162.823 90.6768C162.532 91.2834 162.386 92.0275 162.386 92.9091C162.386 93.7907 162.532 94.5348 162.823 95.1413C163.118 95.7479 163.514 96.2069 164.012 96.5185C164.512 96.83 165.07 96.9858 165.687 96.9858C166.025 96.9858 166.35 96.9394 166.661 96.8466C166.973 96.7538 167.256 96.6162 167.512 96.4339C167.77 96.2483 167.989 96.0213 168.168 95.7528C168.35 95.4811 168.478 95.1695 168.551 94.8182H169.784C169.691 95.3385 169.522 95.8042 169.276 96.2152C169.031 96.6262 168.726 96.9759 168.362 97.2642C167.997 97.5492 167.588 97.7663 167.134 97.9155C166.683 98.0646 166.201 98.1392 165.687 98.1392C164.819 98.1392 164.046 97.9271 163.37 97.5028C162.694 97.0786 162.162 96.4754 161.774 95.6932C161.387 94.911 161.193 93.983 161.193 92.9091C161.193 91.8352 161.387 90.9072 161.774 90.125C162.162 89.3428 162.694 88.7396 163.37 88.3153C164.046 87.8911 164.819 87.679 165.687 87.679C166.201 87.679 166.683 87.7536 167.134 87.9027C167.588 88.0518 167.997 88.2706 168.362 88.5589C168.726 88.844 169.031 89.192 169.276 89.603C169.522 90.0107 169.691 90.4763 169.784 91ZM172.194 98H170.901L174.64 87.8182H175.912L179.651 98H178.358L175.316 89.429H175.236L172.194 98ZM172.671 94.0227H177.881V95.1165H172.671V94.0227ZM174.739 86.7841L175.952 84.4773H177.324L175.773 86.7841H174.739ZM188.952 91H187.719C187.646 90.6454 187.518 90.3338 187.336 90.0653C187.157 89.7969 186.938 89.5715 186.68 89.3892C186.424 89.2036 186.141 89.0644 185.829 88.9716C185.518 88.8788 185.193 88.8324 184.855 88.8324C184.238 88.8324 183.68 88.9882 183.18 89.2997C182.682 89.6113 182.286 90.0703 181.991 90.6768C181.7 91.2834 181.554 92.0275 181.554 92.9091C181.554 93.7907 181.7 94.5348 181.991 95.1413C182.286 95.7479 182.682 96.2069 183.18 96.5185C183.68 96.83 184.238 96.9858 184.855 96.9858C185.193 96.9858 185.518 96.9394 185.829 96.8466C186.141 96.7538 186.424 96.6162 186.68 96.4339C186.938 96.2483 187.157 96.0213 187.336 95.7528C187.518 95.4811 187.646 95.1695 187.719 94.8182H188.952C188.859 95.3385 188.69 95.8042 188.444 96.2152C188.199 96.6262 187.894 96.9759 187.53 97.2642C187.165 97.5492 186.756 97.7663 186.302 97.9155C185.851 98.0646 185.369 98.1392 184.855 98.1392C183.987 98.1392 183.214 97.9271 182.538 97.5028C181.862 97.0786 181.33 96.4754 180.942 95.6932C180.555 94.911 180.361 93.983 180.361 92.9091C180.361 91.8352 180.555 90.9072 180.942 90.125C181.33 89.3428 181.862 88.7396 182.538 88.3153C183.214 87.8911 183.987 87.679 184.855 87.679C185.369 87.679 185.851 87.7536 186.302 87.9027C186.756 88.0518 187.165 88.2706 187.53 88.5589C187.894 88.844 188.199 89.192 188.444 89.603C188.69 90.0107 188.859 90.4763 188.952 91ZM194.881 98V87.8182H198.441C199.15 87.8182 199.735 87.9408 200.196 88.1861C200.657 88.428 201 88.7545 201.225 89.1655C201.451 89.5732 201.563 90.0256 201.563 90.5227C201.563 90.9602 201.485 91.3215 201.33 91.6065C201.177 91.8916 200.975 92.117 200.723 92.2827C200.474 92.4484 200.204 92.571 199.913 92.6506V92.75C200.224 92.7699 200.537 92.8793 200.852 93.0781C201.167 93.277 201.431 93.562 201.643 93.9332C201.855 94.3045 201.961 94.7585 201.961 95.2955C201.961 95.8059 201.845 96.2649 201.613 96.6726C201.381 97.0803 201.015 97.4034 200.514 97.642C200.014 97.8807 199.362 98 198.56 98H194.881ZM196.114 96.9062H198.56C199.366 96.9062 199.938 96.7505 200.276 96.4389C200.617 96.1241 200.788 95.7429 200.788 95.2955C200.788 94.9508 200.7 94.6326 200.524 94.3409C200.348 94.0459 200.098 93.8106 199.773 93.6349C199.449 93.456 199.064 93.3665 198.62 93.3665H196.114V96.9062ZM196.114 92.2926H198.401C198.772 92.2926 199.107 92.2197 199.406 92.0739C199.707 91.928 199.946 91.7225 200.121 91.4574C200.3 91.1922 200.39 90.8807 200.39 90.5227C200.39 90.0753 200.234 89.6958 199.923 89.3842C199.611 89.0694 199.117 88.9119 198.441 88.9119H196.114V92.2926ZM204.404 98H203.112L206.85 87.8182H208.123L211.862 98H210.569L207.527 89.429H207.447L204.404 98ZM204.882 94.0227H210.092V95.1165H204.882V94.0227ZM207.487 100.526C207.258 100.526 207.061 100.448 206.895 100.292C206.733 100.136 206.652 99.9489 206.652 99.7301C206.652 99.5114 206.733 99.3241 206.895 99.1683C207.061 99.0125 207.258 98.9347 207.487 98.9347C207.716 98.9347 207.911 99.0125 208.074 99.1683C208.239 99.3241 208.322 99.5114 208.322 99.7301C208.322 99.9489 208.239 100.136 208.074 100.292C207.911 100.448 207.716 100.526 207.487 100.526ZM221.522 87.8182V98H220.328L214.78 90.0057H214.681V98H213.448V87.8182H214.641L220.209 95.8324H220.309V87.8182H221.522Z" fill="#0F172A"/>
<path d="M30.4261 129H29.1932C29.1203 128.645 28.9927 128.334 28.8104 128.065C28.6314 127.797 28.4126 127.571 28.1541 127.389C27.8989 127.204 27.6155 127.064 27.304 126.972C26.9924 126.879 26.6676 126.832 26.3295 126.832C25.7131 126.832 25.1546 126.988 24.6541 127.3C24.157 127.611 23.7609 128.07 23.4659 128.677C23.1742 129.283 23.0284 130.027 23.0284 130.909C23.0284 131.791 23.1742 132.535 23.4659 133.141C23.7609 133.748 24.157 134.207 24.6541 134.518C25.1546 134.83 25.7131 134.986 26.3295 134.986C26.6676 134.986 26.9924 134.939 27.304 134.847C27.6155 134.754 27.8989 134.616 28.1541 134.434C28.4126 134.248 28.6314 134.021 28.8104 133.753C28.9927 133.481 29.1203 133.17 29.1932 132.818H30.4261C30.3333 133.339 30.1643 133.804 29.919 134.215C29.6738 134.626 29.3688 134.976 29.0043 135.264C28.6397 135.549 28.2304 135.766 27.7763 135.915C27.3255 136.065 26.8433 136.139 26.3295 136.139C25.4612 136.139 24.6889 135.927 24.0128 135.503C23.3366 135.079 22.8047 134.475 22.4169 133.693C22.0291 132.911 21.8352 131.983 21.8352 130.909C21.8352 129.835 22.0291 128.907 22.4169 128.125C22.8047 127.343 23.3366 126.74 24.0128 126.315C24.6889 125.891 25.4612 125.679 26.3295 125.679C26.8433 125.679 27.3255 125.754 27.7763 125.903C28.2304 126.052 28.6397 126.271 29.0043 126.559C29.3688 126.844 29.6738 127.192 29.919 127.603C30.1643 128.011 30.3333 128.476 30.4261 129ZM35.5605 136H32.4185V125.818H35.6998C36.6874 125.818 37.5326 126.022 38.2353 126.43C38.9379 126.834 39.4765 127.416 39.851 128.175C40.2256 128.93 40.4128 129.835 40.4128 130.889C40.4128 131.95 40.2239 132.863 39.8461 133.629C39.4682 134.391 38.918 134.978 38.1955 135.388C37.473 135.796 36.5946 136 35.5605 136ZM33.6515 134.906H35.481C36.3229 134.906 37.0205 134.744 37.574 134.419C38.1275 134.094 38.5402 133.632 38.812 133.032C39.0837 132.432 39.2196 131.718 39.2196 130.889C39.2196 130.067 39.0854 129.36 38.8169 128.766C38.5485 128.17 38.1474 127.712 37.6138 127.394C37.0802 127.073 36.4157 126.912 35.6202 126.912H33.6515V134.906ZM50.6344 130.362V131.456H46.1799V130.362H50.6344ZM56.7955 136V125.818H60.3551C61.0644 125.818 61.6494 125.941 62.1101 126.186C62.5708 126.428 62.9138 126.754 63.1392 127.165C63.3646 127.573 63.4773 128.026 63.4773 128.523C63.4773 128.96 63.3994 129.321 63.2436 129.607C63.0911 129.892 62.889 130.117 62.6371 130.283C62.3885 130.448 62.1184 130.571 61.8267 130.651V130.75C62.1383 130.77 62.4515 130.879 62.7663 131.078C63.0812 131.277 63.3447 131.562 63.5568 131.933C63.7689 132.304 63.875 132.759 63.875 133.295C63.875 133.806 63.759 134.265 63.527 134.673C63.295 135.08 62.9287 135.403 62.4283 135.642C61.9278 135.881 61.2765 136 60.4744 136H56.7955ZM58.0284 134.906H60.4744C61.2798 134.906 61.8516 134.75 62.1896 134.439C62.531 134.124 62.7017 133.743 62.7017 133.295C62.7017 132.951 62.6139 132.633 62.4382 132.341C62.2625 132.046 62.0123 131.811 61.6875 131.635C61.3627 131.456 60.9782 131.366 60.5341 131.366H58.0284V134.906ZM58.0284 130.293H60.3153C60.6866 130.293 61.0213 130.22 61.3196 130.074C61.6212 129.928 61.8598 129.723 62.0355 129.457C62.2145 129.192 62.304 128.881 62.304 128.523C62.304 128.075 62.1482 127.696 61.8366 127.384C61.5251 127.069 61.0313 126.912 60.3551 126.912H58.0284V130.293ZM67.989 136.179C67.5051 136.179 67.0659 136.088 66.6715 135.906C66.2771 135.72 65.9639 135.453 65.7319 135.105C65.4999 134.754 65.3839 134.33 65.3839 133.832C65.3839 133.395 65.4701 133.04 65.6424 132.768C65.8147 132.493 66.0451 132.278 66.3335 132.122C66.6218 131.966 66.94 131.85 67.288 131.774C67.6393 131.695 67.9923 131.632 68.3469 131.585C68.811 131.526 69.1871 131.481 69.4755 131.451C69.7672 131.418 69.9793 131.363 70.1119 131.287C70.2478 131.211 70.3157 131.078 70.3157 130.889V130.849C70.3157 130.359 70.1815 129.978 69.913 129.706C69.6478 129.434 69.2451 129.298 68.7049 129.298C68.1448 129.298 67.7056 129.421 67.3874 129.666C67.0692 129.911 66.8455 130.173 66.7163 130.452L65.6026 130.054C65.8015 129.59 66.0666 129.229 66.3981 128.97C66.7328 128.708 67.0974 128.526 67.4918 128.423C67.8896 128.317 68.2807 128.264 68.6651 128.264C68.9104 128.264 69.1921 128.294 69.5103 128.354C69.8318 128.41 70.1417 128.528 70.44 128.707C70.7416 128.886 70.9918 129.156 71.1907 129.517C71.3896 129.878 71.489 130.362 71.489 130.969V136H70.3157V134.966H70.256C70.1765 135.132 70.0439 135.309 69.8583 135.498C69.6727 135.687 69.4258 135.848 69.1175 135.98C68.8093 136.113 68.4331 136.179 67.989 136.179ZM68.168 135.125C68.632 135.125 69.0231 135.034 69.3413 134.852C69.6628 134.669 69.9047 134.434 70.0671 134.146C70.2328 133.857 70.3157 133.554 70.3157 133.236V132.162C70.266 132.222 70.1566 132.276 69.9876 132.326C69.8219 132.372 69.6296 132.414 69.4109 132.45C69.1954 132.483 68.985 132.513 68.7795 132.54C68.5773 132.563 68.4132 132.583 68.2873 132.599C67.9824 132.639 67.6973 132.704 67.4322 132.793C67.1703 132.879 66.9582 133.01 66.7958 133.186C66.6367 133.358 66.5572 133.594 66.5572 133.892C66.5572 134.3 66.708 134.608 67.0096 134.817C67.3145 135.022 67.7006 135.125 68.168 135.125ZM68.2475 127.33L66.6964 125.023H68.0685L69.2816 127.33H68.2475ZM73.6305 136V128.364H74.8038V136H73.6305ZM74.2271 127.091C73.9984 127.091 73.8012 127.013 73.6355 126.857C73.4731 126.701 73.3919 126.514 73.3919 126.295C73.3919 126.077 73.4731 125.889 73.6355 125.734C73.8012 125.578 73.9984 125.5 74.2271 125.5C74.4558 125.5 74.6513 125.578 74.8137 125.734C74.9795 125.889 75.0623 126.077 75.0623 126.295C75.0623 126.514 74.9795 126.701 74.8137 126.857C74.6513 127.013 74.4558 127.091 74.2271 127.091ZM84.2511 136.139C83.8335 136.133 83.4158 136.053 82.9982 135.901C82.5806 135.748 82.1995 135.491 81.8548 135.13C81.5101 134.765 81.2333 134.273 81.0245 133.653C80.8157 133.03 80.7113 132.248 80.7113 131.307C80.7113 130.405 80.7958 129.607 80.9648 128.911C81.1339 128.211 81.3791 127.623 81.7006 127.146C82.0221 126.665 82.4099 126.3 82.864 126.052C83.3214 125.803 83.8368 125.679 84.4102 125.679C84.9802 125.679 85.4873 125.793 85.9315 126.022C86.3789 126.247 86.7435 126.562 87.0252 126.967C87.3069 127.371 87.4892 127.837 87.5721 128.364H86.359C86.2463 127.906 86.0276 127.527 85.7028 127.225C85.378 126.924 84.9471 126.773 84.4102 126.773C83.6213 126.773 82.9999 127.116 82.5458 127.802C82.0951 128.488 81.868 129.451 81.8647 130.69H81.9442C82.1299 130.409 82.3503 130.168 82.6055 129.969C82.864 129.767 83.149 129.612 83.4606 129.502C83.7721 129.393 84.1019 129.338 84.4499 129.338C85.0333 129.338 85.5669 129.484 86.0508 129.776C86.5347 130.064 86.9225 130.463 87.2141 130.974C87.5058 131.481 87.6516 132.062 87.6516 132.719C87.6516 133.348 87.5108 133.925 87.229 134.449C86.9473 134.969 86.5513 135.384 86.0408 135.692C85.5337 135.997 84.9371 136.146 84.2511 136.139ZM84.2511 135.045C84.6687 135.045 85.0432 134.941 85.3746 134.732C85.7094 134.523 85.9729 134.243 86.1651 133.892C86.3607 133.541 86.4585 133.15 86.4585 132.719C86.4585 132.298 86.364 131.915 86.1751 131.57C85.9895 131.222 85.7326 130.946 85.4045 130.74C85.0797 130.535 84.7085 130.432 84.2908 130.432C83.976 130.432 83.6826 130.495 83.4109 130.621C83.1391 130.743 82.9004 130.912 82.695 131.128C82.4928 131.343 82.3337 131.59 82.2177 131.869C82.1017 132.144 82.0437 132.434 82.0437 132.739C82.0437 133.143 82.1381 133.521 82.3271 133.872C82.5193 134.223 82.7811 134.507 83.1126 134.722C83.4473 134.938 83.8268 135.045 84.2511 135.045ZM90.4817 134.697C90.2364 134.697 90.026 134.61 89.8503 134.434C89.6747 134.258 89.5868 134.048 89.5868 133.803C89.5868 133.557 89.6747 133.347 89.8503 133.171C90.026 132.996 90.2364 132.908 90.4817 132.908C90.727 132.908 90.9374 132.996 91.1131 133.171C91.2888 133.347 91.3766 133.557 91.3766 133.803C91.3766 133.965 91.3352 134.114 91.2523 134.25C91.1728 134.386 91.065 134.495 90.9292 134.578C90.7966 134.658 90.6474 134.697 90.4817 134.697ZM90.4817 129.547C90.2364 129.547 90.026 129.459 89.8503 129.283C89.6747 129.108 89.5868 128.897 89.5868 128.652C89.5868 128.407 89.6747 128.196 89.8503 128.021C90.026 127.845 90.2364 127.757 90.4817 127.757C90.727 127.757 90.9374 127.845 91.1131 128.021C91.2888 128.196 91.3766 128.407 91.3766 128.652C91.3766 128.814 91.3352 128.964 91.2523 129.099C91.1728 129.235 91.065 129.345 90.9292 129.428C90.7966 129.507 90.6474 129.547 90.4817 129.547ZM97.0218 126.912V125.818H104.658V126.912H101.456V136H100.224V126.912H97.0218ZM106.561 136V125.818H110.001C110.797 125.818 111.45 125.954 111.96 126.226C112.471 126.494 112.848 126.864 113.094 127.335C113.339 127.805 113.462 128.34 113.462 128.94C113.462 129.54 113.339 130.072 113.094 130.536C112.848 131 112.472 131.365 111.965 131.63C111.458 131.892 110.81 132.023 110.021 132.023H107.237V130.909H109.982C110.525 130.909 110.963 130.83 111.294 130.67C111.629 130.511 111.871 130.286 112.02 129.994C112.172 129.699 112.249 129.348 112.249 128.94C112.249 128.533 112.172 128.176 112.02 127.871C111.867 127.567 111.624 127.331 111.289 127.165C110.954 126.996 110.512 126.912 109.962 126.912H107.794V136H106.561ZM111.354 131.426L113.859 136H112.428L109.962 131.426H111.354ZM122.198 125.818H123.431V132.56C123.431 133.256 123.267 133.877 122.939 134.424C122.614 134.968 122.155 135.397 121.562 135.712C120.968 136.023 120.272 136.179 119.474 136.179C118.675 136.179 117.979 136.023 117.385 135.712C116.792 135.397 116.331 134.968 116.003 134.424C115.679 133.877 115.516 133.256 115.516 132.56V125.818H116.749V132.46C116.749 132.957 116.858 133.4 117.077 133.788C117.296 134.172 117.608 134.475 118.012 134.697C118.42 134.916 118.907 135.026 119.474 135.026C120.04 135.026 120.528 134.916 120.935 134.697C121.343 134.475 121.654 134.172 121.87 133.788C122.089 133.4 122.198 132.957 122.198 132.46V125.818ZM125.018 125.818H126.43L129.254 130.571H129.373L132.197 125.818H133.609L129.93 131.804V136H128.697V131.804L125.018 125.818ZM135.204 136V125.818H141.349V126.912H136.437V130.352H141.03V131.446H136.437V134.906H141.428V136H135.204ZM139.3 124.903L138.266 123.511L137.232 124.903H136.118V124.824L137.729 122.756H138.803L140.414 124.824V124.903H139.3ZM138.167 138.526C137.938 138.526 137.741 138.448 137.575 138.292C137.413 138.136 137.331 137.949 137.331 137.73C137.331 137.511 137.413 137.324 137.575 137.168C137.741 137.013 137.938 136.935 138.167 136.935C138.395 136.935 138.591 137.013 138.753 137.168C138.919 137.324 139.002 137.511 139.002 137.73C139.002 137.949 138.919 138.136 138.753 138.292C138.591 138.448 138.395 138.526 138.167 138.526ZM151.645 125.818V136H150.452L144.903 128.006H144.804V136H143.571V125.818H144.764L150.332 133.832H150.432V125.818H151.645Z" fill="#0F172A"/>
<path d="M33.6667 173.667H24.3333C23.597 173.667 23 174.264 23 175V184.333C23 185.07 23.597 185.667 24.3333 185.667H33.6667C34.403 185.667 35 185.07 35 184.333V175C35 174.264 34.403 173.667 33.6667 173.667Z" stroke="#64748B" stroke-width="1.33333" stroke-linecap="round" stroke-linejoin="round"/>
<path d="M31.6667 172.333V175" stroke="#64748B" stroke-width="1.33333" stroke-linecap="round" stroke-linejoin="round"/>
<path d="M26.3333 172.333V175" stroke="#64748B" stroke-width="1.33333" stroke-linecap="round" stroke-linejoin="round"/>
<path d="M23 177.667H35" stroke="#64748B" stroke-width="1.33333" stroke-linecap="round" stroke-linejoin="round"/>
<path d="M26.3333 180.333H26.3433" stroke="#64748B" stroke-width="1.33333" stroke-linecap="round" stroke-linejoin="round"/>
<path d="M29 180.333H29.01" stroke="#64748B" stroke-width="1.33333" stroke-linecap="round" stroke-linejoin="round"/>
<path d="M31.6667 180.333H31.6767" stroke="#64748B" stroke-width="1.33333" stroke-linecap="round" stroke-linejoin="round"/>
<path d="M26.3333 183H26.3433" stroke="#64748B" stroke-width="1.33333" stroke-linecap="round" stroke-linejoin="round"/>
<path d="M29 183H29.01" stroke="#64748B" stroke-width="1.33333" stroke-linecap="round" stroke-linejoin="round"/>
<path d="M31.6667 183H31.6767" stroke="#64748B" stroke-width="1.33333" stroke-linecap="round" stroke-linejoin="round"/>
<path d="M42.0568 183V174.273H43.1136V182.062H47.1705V183H42.0568ZM50.5966 183.153C50.1818 183.153 49.8054 183.075 49.4673 182.919C49.1293 182.76 48.8608 182.531 48.6619 182.233C48.4631 181.932 48.3636 181.568 48.3636 181.142C48.3636 180.767 48.4375 180.463 48.5852 180.23C48.733 179.994 48.9304 179.81 49.1776 179.676C49.4247 179.543 49.6974 179.443 49.9957 179.378C50.2969 179.31 50.5994 179.256 50.9034 179.216C51.3011 179.165 51.6236 179.126 51.8707 179.101C52.1207 179.072 52.3026 179.026 52.4162 178.96C52.5327 178.895 52.5909 178.781 52.5909 178.619V178.585C52.5909 178.165 52.4759 177.838 52.2457 177.605C52.0185 177.372 51.6733 177.256 51.2102 177.256C50.7301 177.256 50.3537 177.361 50.081 177.571C49.8082 177.781 49.6165 178.006 49.5057 178.244L48.5511 177.903C48.7216 177.506 48.9489 177.196 49.233 176.974C49.5199 176.75 49.8324 176.594 50.1705 176.506C50.5114 176.415 50.8466 176.369 51.1761 176.369C51.3864 176.369 51.6278 176.395 51.9006 176.446C52.1761 176.494 52.4418 176.595 52.6974 176.749C52.956 176.902 53.1705 177.134 53.3409 177.443C53.5114 177.753 53.5966 178.168 53.5966 178.688V183H52.5909V182.114H52.5398C52.4716 182.256 52.358 182.408 52.1989 182.57C52.0398 182.732 51.8281 182.869 51.5639 182.983C51.2997 183.097 50.9773 183.153 50.5966 183.153ZM50.75 182.25C51.1477 182.25 51.483 182.172 51.7557 182.016C52.0313 181.859 52.2386 181.658 52.3778 181.411C52.5199 181.163 52.5909 180.903 52.5909 180.631V179.71C52.5483 179.761 52.4545 179.808 52.3097 179.851C52.1676 179.891 52.0028 179.926 51.8153 179.957C51.6307 179.986 51.4503 180.011 51.2741 180.034C51.1009 180.054 50.9602 180.071 50.8523 180.085C50.5909 180.119 50.3466 180.175 50.1193 180.251C49.8949 180.325 49.7131 180.437 49.5739 180.588C49.4375 180.736 49.3693 180.937 49.3693 181.193C49.3693 181.543 49.4986 181.807 49.7571 181.986C50.0185 182.162 50.3494 182.25 50.75 182.25ZM51.7045 174.102L53.4432 175.653H52.2159L51.2443 174.75L50.2727 175.653H49.0455L50.767 174.102H51.7045ZM48.6705 173.062L49.4886 174.614H48.6193L47.4091 173.062H48.6705ZM56.4379 179.062V183H55.4322V176.455H56.4038V177.477H56.489C56.6424 177.145 56.8754 176.878 57.1879 176.676C57.5004 176.472 57.9038 176.369 58.3981 176.369C58.8413 176.369 59.229 176.46 59.5614 176.642C59.8938 176.821 60.1523 177.094 60.337 177.46C60.5217 177.824 60.614 178.284 60.614 178.841V183H59.6083V178.909C59.6083 178.395 59.4748 177.994 59.2077 177.707C58.9407 177.418 58.5742 177.273 58.1083 177.273C57.7873 177.273 57.5004 177.342 57.2475 177.482C56.9975 177.621 56.8001 177.824 56.6552 178.091C56.5103 178.358 56.4379 178.682 56.4379 179.062ZM66.8324 174.273V183H65.8267V174.273H66.8324ZM72.7994 180.324V176.455H73.805V183H72.7994V181.892H72.7312C72.5778 182.224 72.3391 182.507 72.0153 182.74C71.6914 182.97 71.2823 183.085 70.788 183.085C70.3789 183.085 70.0153 182.996 69.6971 182.817C69.3789 182.635 69.1289 182.362 68.9471 181.999C68.7653 181.632 68.6744 181.17 68.6744 180.614V176.455H69.68V180.545C69.68 181.023 69.8136 181.403 70.0806 181.688C70.3505 181.972 70.6942 182.114 71.1119 182.114C71.3619 182.114 71.6161 182.05 71.8746 181.922C72.136 181.794 72.3548 181.598 72.5309 181.334C72.7099 181.07 72.7994 180.733 72.7994 180.324ZM76.2947 185.455C76.1243 185.455 75.9723 185.44 75.8388 185.412C75.7053 185.386 75.6129 185.361 75.5618 185.335L75.8175 184.449C76.0618 184.511 76.2777 184.534 76.4652 184.517C76.6527 184.5 76.8189 184.416 76.9638 184.266C77.1115 184.118 77.2464 183.878 77.3686 183.545L77.5561 183.034L75.1357 176.455H76.2266L78.0334 181.67H78.1016L79.9084 176.455H80.9993L78.2209 183.955C78.0959 184.293 77.9411 184.572 77.7564 184.794C77.5717 185.018 77.3572 185.185 77.1129 185.293C76.8714 185.401 76.5987 185.455 76.2947 185.455ZM84.8366 183.136C84.206 183.136 83.6619 182.997 83.2045 182.719C82.75 182.438 82.3991 182.045 82.152 181.543C81.9077 181.037 81.7855 180.449 81.7855 179.778C81.7855 179.108 81.9077 178.517 82.152 178.006C82.3991 177.491 82.7429 177.091 83.1832 176.804C83.6264 176.514 84.1435 176.369 84.7344 176.369C85.0753 176.369 85.4119 176.426 85.7443 176.54C86.0767 176.653 86.3793 176.838 86.652 177.094C86.9247 177.347 87.142 177.682 87.304 178.099C87.4659 178.517 87.5469 179.031 87.5469 179.642V180.068H82.5014V179.199H86.5241C86.5241 178.83 86.4503 178.5 86.3026 178.21C86.1577 177.92 85.9503 177.692 85.6804 177.524C85.4134 177.357 85.098 177.273 84.7344 177.273C84.3338 177.273 83.9872 177.372 83.6946 177.571C83.4048 177.767 83.1818 178.023 83.0256 178.338C82.8693 178.653 82.7912 178.991 82.7912 179.352V179.932C82.7912 180.426 82.8764 180.845 83.0469 181.189C83.2202 181.53 83.4602 181.79 83.767 181.969C84.0739 182.145 84.4304 182.233 84.8366 182.233C85.1009 182.233 85.3395 182.196 85.5526 182.122C85.7685 182.045 85.9545 181.932 86.1108 181.781C86.267 181.628 86.3878 181.437 86.473 181.21L87.4446 181.483C87.3423 181.812 87.1705 182.102 86.929 182.352C86.6875 182.599 86.3892 182.793 86.0341 182.932C85.679 183.068 85.2798 183.136 84.8366 183.136ZM85.5696 175.67L84.6832 174.477L83.7969 175.67H82.8423V175.602L84.223 173.83H85.1435L86.5241 175.602V175.67H85.5696ZM84.6832 185.165C84.4872 185.165 84.3182 185.098 84.1761 184.964C84.0369 184.831 83.9673 184.67 83.9673 184.483C83.9673 184.295 84.0369 184.135 84.1761 184.001C84.3182 183.868 84.4872 183.801 84.6832 183.801C84.8793 183.801 85.0469 183.868 85.1861 184.001C85.3281 184.135 85.3991 184.295 85.3991 184.483C85.3991 184.67 85.3281 184.831 85.1861 184.964C85.0469 185.098 84.8793 185.165 84.6832 185.165ZM90.0824 179.062V183H89.0767V176.455H90.0483V177.477H90.1335C90.2869 177.145 90.5199 176.878 90.8324 176.676C91.1449 176.472 91.5483 176.369 92.0426 176.369C92.4858 176.369 92.8736 176.46 93.206 176.642C93.5384 176.821 93.7969 177.094 93.9815 177.46C94.1662 177.824 94.2585 178.284 94.2585 178.841V183H93.2528V178.909C93.2528 178.395 93.1193 177.994 92.8523 177.707C92.5852 177.418 92.2188 177.273 91.7528 177.273C91.4318 177.273 91.1449 177.342 90.892 177.482C90.642 177.621 90.4446 177.824 90.2997 178.091C90.1548 178.358 90.0824 178.682 90.0824 179.062ZM102.13 183.136C101.517 183.136 100.988 182.991 100.545 182.702C100.102 182.412 99.761 182.013 99.5224 181.504C99.2837 180.996 99.1644 180.415 99.1644 179.761C99.1644 179.097 99.2866 178.51 99.5309 178.001C99.7781 177.49 100.122 177.091 100.562 176.804C101.005 176.514 101.522 176.369 102.113 176.369C102.574 176.369 102.988 176.455 103.358 176.625C103.727 176.795 104.029 177.034 104.265 177.341C104.501 177.648 104.647 178.006 104.704 178.415H103.699C103.622 178.116 103.451 177.852 103.187 177.622C102.926 177.389 102.574 177.273 102.13 177.273C101.738 177.273 101.395 177.375 101.099 177.58C100.806 177.781 100.578 178.067 100.413 178.436C100.251 178.803 100.17 179.233 100.17 179.727C100.17 180.233 100.25 180.673 100.409 181.048C100.571 181.423 100.798 181.714 101.091 181.922C101.386 182.129 101.733 182.233 102.13 182.233C102.392 182.233 102.629 182.188 102.842 182.097C103.055 182.006 103.235 181.875 103.383 181.705C103.531 181.534 103.636 181.33 103.699 181.091H104.704C104.647 181.477 104.507 181.825 104.282 182.135C104.061 182.442 103.767 182.686 103.4 182.868C103.037 183.047 102.613 183.136 102.13 183.136ZM110.299 180.324V176.455H111.305V183H110.299V181.892H110.231C110.078 182.224 109.839 182.507 109.515 182.74C109.191 182.97 108.782 183.085 108.288 183.085C107.879 183.085 107.515 182.996 107.197 182.817C106.879 182.635 106.629 182.362 106.447 181.999C106.265 181.632 106.174 181.17 106.174 180.614V176.455H107.18V180.545C107.18 181.023 107.314 181.403 107.581 181.688C107.85 181.972 108.194 182.114 108.612 182.114C108.862 182.114 109.116 182.05 109.375 181.922C109.636 181.794 109.855 181.598 110.031 181.334C110.21 181.07 110.299 180.733 110.299 180.324ZM115.806 183.136C115.215 183.136 114.697 182.996 114.251 182.714C113.808 182.433 113.461 182.04 113.211 181.534C112.964 181.028 112.84 180.437 112.84 179.761C112.84 179.08 112.964 178.484 113.211 177.976C113.461 177.467 113.808 177.072 114.251 176.791C114.697 176.51 115.215 176.369 115.806 176.369C116.397 176.369 116.914 176.51 117.357 176.791C117.803 177.072 118.15 177.467 118.397 177.976C118.647 178.484 118.772 179.08 118.772 179.761C118.772 180.437 118.647 181.028 118.397 181.534C118.15 182.04 117.803 182.433 117.357 182.714C116.914 182.996 116.397 183.136 115.806 183.136ZM115.806 182.233C116.255 182.233 116.624 182.118 116.914 181.888C117.204 181.658 117.418 181.355 117.558 180.98C117.697 180.605 117.766 180.199 117.766 179.761C117.766 179.324 117.697 178.916 117.558 178.538C117.418 178.161 117.204 177.855 116.914 177.622C116.624 177.389 116.255 177.273 115.806 177.273C115.357 177.273 114.988 177.389 114.698 177.622C114.408 177.855 114.194 178.161 114.055 178.538C113.915 178.916 113.846 179.324 113.846 179.761C113.846 180.199 113.915 180.605 114.055 180.98C114.194 181.355 114.408 181.658 114.698 181.888C114.988 182.118 115.357 182.233 115.806 182.233ZM113.607 175.636L115.346 174.085H116.283L118.022 175.636H116.795L115.823 174.733L114.852 175.636H113.607ZM117.562 174.597L118.397 173.062H119.641L118.448 174.597H117.562ZM120.307 183V176.455H121.313V183H120.307ZM120.819 175.364C120.623 175.364 120.453 175.297 120.311 175.163C120.172 175.03 120.103 174.869 120.103 174.682C120.103 174.494 120.172 174.334 120.311 174.2C120.453 174.067 120.623 174 120.819 174C121.015 174 121.182 174.067 121.321 174.2C121.463 174.334 121.534 174.494 121.534 174.682C121.534 174.869 121.463 175.03 121.321 175.163C121.182 175.297 121.015 175.364 120.819 175.364ZM129.189 183.136C128.575 183.136 128.047 182.991 127.604 182.702C127.161 182.412 126.82 182.013 126.581 181.504C126.342 180.996 126.223 180.415 126.223 179.761C126.223 179.097 126.345 178.51 126.589 178.001C126.837 177.49 127.18 177.091 127.621 176.804C128.064 176.514 128.581 176.369 129.172 176.369C129.632 176.369 130.047 176.455 130.416 176.625C130.786 176.795 131.088 177.034 131.324 177.341C131.56 177.648 131.706 178.006 131.763 178.415H130.757C130.68 178.116 130.51 177.852 130.246 177.622C129.984 177.389 129.632 177.273 129.189 177.273C128.797 177.273 128.453 177.375 128.158 177.58C127.865 177.781 127.636 178.067 127.472 178.436C127.31 178.803 127.229 179.233 127.229 179.727C127.229 180.233 127.308 180.673 127.467 181.048C127.629 181.423 127.857 181.714 128.149 181.922C128.445 182.129 128.791 182.233 129.189 182.233C129.45 182.233 129.688 182.188 129.901 182.097C130.114 182.006 130.294 181.875 130.442 181.705C130.589 181.534 130.695 181.33 130.757 181.091H131.763C131.706 181.477 131.565 181.825 131.341 182.135C131.119 182.442 130.825 182.686 130.459 182.868C130.095 183.047 129.672 183.136 129.189 183.136ZM137.358 180.324V176.455H138.364V183H137.358V181.892H137.29C137.136 182.224 136.898 182.507 136.574 182.74C136.25 182.97 135.841 183.085 135.347 183.085C134.938 183.085 134.574 182.996 134.256 182.817C133.938 182.635 133.688 182.362 133.506 181.999C133.324 181.632 133.233 181.17 133.233 180.614V176.455H134.239V180.545C134.239 181.023 134.372 181.403 134.639 181.688C134.909 181.972 135.253 182.114 135.67 182.114C135.92 182.114 136.175 182.05 136.433 181.922C136.695 181.794 136.913 181.598 137.089 181.334C137.268 181.07 137.358 180.733 137.358 180.324ZM135.381 175.568L134.051 173.591H135.227L136.267 175.568H135.381ZM141.211 179.062V183H140.206V176.455H141.177V177.477H141.262C141.416 177.145 141.649 176.878 141.961 176.676C142.274 176.472 142.677 176.369 143.172 176.369C143.615 176.369 144.002 176.46 144.335 176.642C144.667 176.821 144.926 177.094 145.11 177.46C145.295 177.824 145.387 178.284 145.387 178.841V183H144.382V178.909C144.382 178.395 144.248 177.994 143.981 177.707C143.714 177.418 143.348 177.273 142.882 177.273C142.561 177.273 142.274 177.342 142.021 177.482C141.771 177.621 141.574 177.824 141.429 178.091C141.284 178.358 141.211 178.682 141.211 179.062ZM149.867 185.591C149.381 185.591 148.964 185.528 148.614 185.403C148.265 185.281 147.974 185.119 147.741 184.918C147.511 184.719 147.327 184.506 147.191 184.278L147.992 183.716C148.083 183.835 148.198 183.972 148.337 184.125C148.477 184.281 148.667 184.416 148.908 184.53C149.153 184.646 149.472 184.705 149.867 184.705C150.396 184.705 150.832 184.577 151.175 184.321C151.519 184.065 151.691 183.665 151.691 183.119V181.79H151.606C151.532 181.909 151.427 182.057 151.29 182.233C151.157 182.406 150.964 182.561 150.711 182.697C150.461 182.831 150.123 182.898 149.697 182.898C149.168 182.898 148.694 182.773 148.273 182.523C147.856 182.273 147.525 181.909 147.281 181.432C147.039 180.955 146.918 180.375 146.918 179.693C146.918 179.023 147.036 178.439 147.272 177.942C147.508 177.442 147.836 177.055 148.256 176.783C148.677 176.507 149.163 176.369 149.714 176.369C150.14 176.369 150.478 176.44 150.728 176.582C150.981 176.722 151.174 176.881 151.308 177.06C151.444 177.236 151.549 177.381 151.623 177.494H151.725V176.455H152.697V183.188C152.697 183.75 152.569 184.207 152.313 184.56C152.06 184.915 151.719 185.175 151.29 185.339C150.864 185.507 150.39 185.591 149.867 185.591ZM149.833 181.994C150.237 181.994 150.577 181.902 150.856 181.717C151.134 181.533 151.346 181.267 151.491 180.92C151.636 180.574 151.708 180.159 151.708 179.676C151.708 179.205 151.637 178.788 151.495 178.428C151.353 178.067 151.143 177.784 150.864 177.58C150.586 177.375 150.242 177.273 149.833 177.273C149.407 177.273 149.052 177.381 148.768 177.597C148.487 177.812 148.275 178.102 148.133 178.466C147.994 178.83 147.924 179.233 147.924 179.676C147.924 180.131 147.995 180.533 148.137 180.882C148.282 181.229 148.495 181.501 148.776 181.7C149.06 181.896 149.413 181.994 149.833 181.994Z" fill="#64748B"/>
<rect x="307" y="200" width="68" height="29" rx="6" fill="#0F172A"/>
<path d="M311.119 219.5V209.318H312.655V218.178H317.268V219.5H311.119ZM323.739 216.333V211.864H325.23V219.5H323.769V218.178H323.689C323.514 218.585 323.232 218.925 322.844 219.197C322.46 219.465 321.981 219.599 321.407 219.599C320.917 219.599 320.483 219.492 320.105 219.276C319.73 219.058 319.435 218.734 319.22 218.307C319.008 217.879 318.902 217.351 318.902 216.721V211.864H320.388V216.542C320.388 217.062 320.532 217.477 320.821 217.785C321.109 218.093 321.484 218.247 321.944 218.247C322.223 218.247 322.499 218.178 322.775 218.038C323.053 217.899 323.283 217.689 323.466 217.407C323.651 217.125 323.742 216.767 323.739 216.333ZM328.167 222.364C327.945 222.364 327.743 222.345 327.561 222.309C327.379 222.276 327.243 222.239 327.153 222.2L327.511 220.982C327.783 221.054 328.025 221.086 328.237 221.076C328.449 221.066 328.636 220.987 328.799 220.837C328.965 220.688 329.11 220.445 329.236 220.107L329.42 219.599L326.626 211.864H328.217L330.151 217.79H330.231L332.165 211.864H333.76L330.613 220.519C330.468 220.917 330.282 221.253 330.057 221.528C329.831 221.807 329.563 222.016 329.251 222.155C328.94 222.294 328.578 222.364 328.167 222.364ZM338.189 219.654C337.437 219.654 336.789 219.493 336.245 219.172C335.705 218.847 335.287 218.391 334.992 217.805C334.701 217.215 334.555 216.524 334.555 215.732C334.555 214.949 334.701 214.26 334.992 213.663C335.287 213.067 335.698 212.601 336.225 212.266C336.755 211.932 337.375 211.764 338.085 211.764C338.515 211.764 338.933 211.835 339.337 211.978C339.742 212.121 340.105 212.344 340.426 212.649C340.748 212.954 341.001 213.35 341.187 213.837C341.372 214.321 341.465 214.91 341.465 215.602V216.129H335.395V215.016H340.009C340.009 214.625 339.929 214.278 339.77 213.977C339.611 213.672 339.387 213.431 339.099 213.256C338.814 213.08 338.479 212.992 338.094 212.992C337.677 212.992 337.312 213.095 337.001 213.3C336.692 213.503 336.454 213.768 336.285 214.096C336.119 214.421 336.036 214.774 336.036 215.155V216.025C336.036 216.535 336.126 216.969 336.305 217.327C336.487 217.685 336.741 217.959 337.065 218.148C337.39 218.333 337.77 218.426 338.204 218.426C338.486 218.426 338.742 218.386 338.974 218.307C339.206 218.224 339.407 218.101 339.576 217.939C339.745 217.777 339.874 217.576 339.964 217.337L341.371 217.591C341.258 218.005 341.056 218.368 340.764 218.68C340.476 218.988 340.113 219.228 339.675 219.401C339.241 219.57 338.746 219.654 338.189 219.654ZM339.049 210.949L338.03 209.616L337.006 210.949H335.663V210.874L337.408 208.766H338.646L340.396 210.874V210.949H339.049ZM338.025 222.135C337.77 222.135 337.549 222.049 337.364 221.876C337.178 221.704 337.085 221.495 337.085 221.25C337.085 221.005 337.178 220.796 337.364 220.624C337.549 220.451 337.77 220.365 338.025 220.365C338.283 220.365 338.504 220.451 338.686 220.624C338.872 220.796 338.964 221.005 338.964 221.25C338.964 221.495 338.872 221.704 338.686 221.876C338.504 222.049 338.283 222.135 338.025 222.135ZM344.601 214.966V219.5H343.115V211.864H344.541V213.107H344.636C344.811 212.702 345.087 212.377 345.461 212.132C345.839 211.887 346.315 211.764 346.888 211.764C347.408 211.764 347.864 211.874 348.255 212.092C348.646 212.308 348.95 212.629 349.165 213.057C349.38 213.484 349.488 214.013 349.488 214.643V219.5H348.002V214.822C348.002 214.268 347.857 213.836 347.569 213.524C347.281 213.209 346.885 213.052 346.381 213.052C346.036 213.052 345.73 213.126 345.461 213.276C345.196 213.425 344.985 213.643 344.83 213.932C344.677 214.217 344.601 214.562 344.601 214.966ZM358.045 219.649C357.429 219.649 356.879 219.492 356.395 219.177C355.914 218.859 355.536 218.406 355.261 217.82C354.99 217.23 354.854 216.522 354.854 215.697C354.854 214.871 354.991 214.165 355.266 213.579C355.545 212.992 355.926 212.543 356.41 212.232C356.894 211.92 357.442 211.764 358.055 211.764C358.529 211.764 358.911 211.844 359.199 212.003C359.491 212.159 359.716 212.341 359.875 212.55C360.037 212.759 360.163 212.942 360.253 213.102H360.342V209.318H361.829V219.5H360.377V218.312H360.253C360.163 218.474 360.034 218.66 359.865 218.869C359.699 219.077 359.471 219.26 359.179 219.415C358.887 219.571 358.509 219.649 358.045 219.649ZM358.374 218.381C358.801 218.381 359.162 218.269 359.457 218.043C359.756 217.815 359.981 217.498 360.134 217.094C360.289 216.689 360.367 216.219 360.367 215.682C360.367 215.152 360.291 214.687 360.138 214.29C359.986 213.892 359.762 213.582 359.467 213.36C359.172 213.138 358.808 213.027 358.374 213.027C357.926 213.027 357.553 213.143 357.255 213.375C356.957 213.607 356.731 213.924 356.579 214.325C356.43 214.726 356.355 215.178 356.355 215.682C356.355 216.192 356.431 216.651 356.584 217.059C356.736 217.467 356.962 217.79 357.26 218.028C357.562 218.264 357.933 218.381 358.374 218.381ZM358.279 211.252V210.223H362.848V211.252H358.279ZM367.242 219.654C366.489 219.654 365.841 219.493 365.298 219.172C364.758 218.847 364.34 218.391 364.045 217.805C363.753 217.215 363.607 216.524 363.607 215.732C363.607 214.949 363.753 214.26 364.045 213.663C364.34 213.067 364.751 212.601 365.278 212.266C365.808 211.932 366.428 211.764 367.137 211.764C367.568 211.764 367.986 211.835 368.39 211.978C368.794 212.121 369.157 212.344 369.479 212.649C369.8 212.954 370.054 213.35 370.24 213.837C370.425 214.321 370.518 214.91 370.518 215.602V216.129H364.448V215.016H369.061C369.061 214.625 368.982 214.278 368.823 213.977C368.664 213.672 368.44 213.431 368.151 213.256C367.866 213.08 367.532 212.992 367.147 212.992C366.73 212.992 366.365 213.095 366.053 213.3C365.745 213.503 365.507 213.768 365.338 214.096C365.172 214.421 365.089 214.774 365.089 215.155V216.025C365.089 216.535 365.178 216.969 365.357 217.327C365.54 217.685 365.793 217.959 366.118 218.148C366.443 218.333 366.822 218.426 367.257 218.426C367.538 218.426 367.795 218.386 368.027 218.307C368.259 218.224 368.46 218.101 368.629 217.939C368.798 217.777 368.927 217.576 369.017 217.337L370.423 217.591C370.311 218.005 370.109 218.368 369.817 218.68C369.529 218.988 369.166 219.228 368.728 219.401C368.294 219.57 367.798 219.654 367.242 219.654ZM367.624 209.249L369.653 210.974H368.186L367.083 209.989L365.974 210.974H364.512L366.516 209.249H367.624ZM364.005 208.045L365.029 209.87H363.96L362.479 208.045H364.005Z" fill="white"/>
</g>
<defs>
<filter id="filter0_d_253_2564" x="0" y="0" width="396" height="247" filterUnits="userSpaceOnUse" color-interpolation-filters="sRGB">
<feFlood flood-opacity="0" result="BackgroundImageFix"/>
<feColorMatrix in="SourceAlpha" type="matrix" values="0 0 0 0 0 0 0 0 0 0 0 0 0 0 0 0 0 0 127 0" result="hardAlpha"/>
<feOffset dy="4"/>
<feGaussianBlur stdDeviation="2"/>
<feComposite in2="hardAlpha" operator="out"/>
<feColorMatrix type="matrix" values="0 0 0 0 0.683333 0 0 0 0 0.683333 0 0 0 0 0.683333 0 0 0 0.25 0"/>
<feBlend mode="normal" in2="BackgroundImageFix" result="effect1_dropShadow_253_2564"/>
<feBlend mode="normal" in="SourceGraphic" in2="effect1_dropShadow_253_2564" result="shape"/>
</filter>
</defs>
</svg>
